G04 #@! TF.GenerationSoftware,KiCad,Pcbnew,(5.0.2)-1*
G04 #@! TF.CreationDate,2019-05-03T13:20:24-04:00*
G04 #@! TF.ProjectId,2p3s-pwr-pack,32703373-2d70-4777-922d-7061636b2e6b,V1*
G04 #@! TF.SameCoordinates,Original*
G04 #@! TF.FileFunction,Copper,L1,Top*
G04 #@! TF.FilePolarity,Positive*
%FSLAX46Y46*%
G04 Gerber Fmt 4.6, Leading zero omitted, Abs format (unit mm)*
G04 Created by KiCad (PCBNEW (5.0.2)-1) date 5/3/2019 1:20:24 PM*
%MOMM*%
%LPD*%
G01*
G04 APERTURE LIST*
G04 #@! TA.AperFunction,Conductor*
%ADD10C,0.150000*%
G04 #@! TD*
G04 #@! TA.AperFunction,ComponentPad*
%ADD11C,3.500000*%
G04 #@! TD*
G04 #@! TA.AperFunction,ComponentPad*
%ADD12R,5.000000X5.000000*%
G04 #@! TD*
G04 #@! TA.AperFunction,ComponentPad*
%ADD13R,2.500000X2.500000*%
G04 #@! TD*
G04 #@! TA.AperFunction,ComponentPad*
%ADD14C,2.750000*%
G04 #@! TD*
G04 #@! TA.AperFunction,BGAPad,CuDef*
%ADD15C,0.152400*%
G04 #@! TD*
G04 #@! TA.AperFunction,ComponentPad*
%ADD16C,1.200000*%
G04 #@! TD*
G04 #@! TA.AperFunction,ComponentPad*
%ADD17R,2.700000X1.700000*%
G04 #@! TD*
G04 #@! TA.AperFunction,ComponentPad*
%ADD18C,4.000000*%
G04 #@! TD*
G04 #@! TA.AperFunction,ComponentPad*
%ADD19R,4.000000X4.000000*%
G04 #@! TD*
G04 #@! TA.AperFunction,ComponentPad*
%ADD20R,4.000000X2.300000*%
G04 #@! TD*
G04 #@! TA.AperFunction,ComponentPad*
%ADD21C,5.000000*%
G04 #@! TD*
G04 #@! TA.AperFunction,ComponentPad*
%ADD22R,1.700000X2.700000*%
G04 #@! TD*
G04 #@! TA.AperFunction,Conductor*
%ADD23C,1.524000*%
G04 #@! TD*
G04 #@! TA.AperFunction,Conductor*
%ADD24C,3.048000*%
G04 #@! TD*
G04 #@! TA.AperFunction,Conductor*
%ADD25C,2.032000*%
G04 #@! TD*
G04 #@! TA.AperFunction,Conductor*
%ADD26C,0.254000*%
G04 #@! TD*
G04 APERTURE END LIST*
D10*
G04 #@! TO.N,GND1*
G04 #@! TO.C,MOD1*
G36*
X184493871Y-127475299D02*
X184612786Y-127492938D01*
X184729399Y-127522148D01*
X184842587Y-127562648D01*
X184951261Y-127614046D01*
X185054374Y-127675850D01*
X185150932Y-127747462D01*
X185240006Y-127828194D01*
X185320738Y-127917268D01*
X185392350Y-128013826D01*
X185454154Y-128116939D01*
X185505552Y-128225613D01*
X185546052Y-128338801D01*
X185575262Y-128455414D01*
X185592901Y-128574329D01*
X185598800Y-128694400D01*
X185598800Y-129744400D01*
X185592901Y-129864471D01*
X185575262Y-129983386D01*
X185546052Y-130099999D01*
X185505552Y-130213187D01*
X185454154Y-130321861D01*
X185392350Y-130424974D01*
X185320738Y-130521532D01*
X185240006Y-130610606D01*
X185150932Y-130691338D01*
X185054374Y-130762950D01*
X184951261Y-130824754D01*
X184842587Y-130876152D01*
X184729399Y-130916652D01*
X184612786Y-130945862D01*
X184493871Y-130963501D01*
X184373800Y-130969400D01*
X183323800Y-130969400D01*
X183203729Y-130963501D01*
X183084814Y-130945862D01*
X182968201Y-130916652D01*
X182855013Y-130876152D01*
X182746339Y-130824754D01*
X182643226Y-130762950D01*
X182546668Y-130691338D01*
X182457594Y-130610606D01*
X182376862Y-130521532D01*
X182305250Y-130424974D01*
X182243446Y-130321861D01*
X182192048Y-130213187D01*
X182151548Y-130099999D01*
X182122338Y-129983386D01*
X182104699Y-129864471D01*
X182098800Y-129744400D01*
X182098800Y-128694400D01*
X182104699Y-128574329D01*
X182122338Y-128455414D01*
X182151548Y-128338801D01*
X182192048Y-128225613D01*
X182243446Y-128116939D01*
X182305250Y-128013826D01*
X182376862Y-127917268D01*
X182457594Y-127828194D01*
X182546668Y-127747462D01*
X182643226Y-127675850D01*
X182746339Y-127614046D01*
X182855013Y-127562648D01*
X182968201Y-127522148D01*
X183084814Y-127492938D01*
X183203729Y-127475299D01*
X183323800Y-127469400D01*
X184373800Y-127469400D01*
X184493871Y-127475299D01*
X184493871Y-127475299D01*
G37*
D11*
G04 #@! TD*
G04 #@! TO.P,MOD1,3*
G04 #@! TO.N,GND1*
X183848800Y-129219400D03*
D12*
G04 #@! TO.P,MOD1,2*
G04 #@! TO.N,V_IN-*
X184500000Y-85400000D03*
G04 #@! TO.P,MOD1,1*
G04 #@! TO.N,V_IN+*
X203100000Y-85400000D03*
G04 #@! TO.P,MOD1,4*
G04 #@! TO.N,Net-(D1-Pad2)*
X203100000Y-130000000D03*
G04 #@! TD*
D13*
G04 #@! TO.P,BATT1,1*
G04 #@! TO.N,Net-(BATT1-Pad1)*
X167840001Y-67465001D03*
D14*
G04 #@! TO.P,BATT1,2*
G04 #@! TO.N,Net-(BATT1-Pad2)*
X167840001Y-139685001D03*
X148710001Y-139685001D03*
D13*
G04 #@! TO.P,BATT1,1*
G04 #@! TO.N,Net-(BATT1-Pad1)*
X148710001Y-67465001D03*
G04 #@! TD*
G04 #@! TO.P,BATT3,1*
G04 #@! TO.N,B+*
X68410001Y-67465001D03*
D14*
G04 #@! TO.P,BATT3,2*
G04 #@! TO.N,Net-(BATT2-Pad1)*
X68410001Y-139685001D03*
X87540001Y-139685001D03*
D13*
G04 #@! TO.P,BATT3,1*
G04 #@! TO.N,B+*
X87540001Y-67465001D03*
G04 #@! TD*
D15*
G04 #@! TO.P,BATT2,*
G04 #@! TO.N,*
X100616600Y-75955800D03*
D13*
G04 #@! TO.P,BATT2,1*
G04 #@! TO.N,Net-(BATT2-Pad1)*
X127681600Y-67445800D03*
D14*
G04 #@! TO.P,BATT2,2*
G04 #@! TO.N,Net-(BATT1-Pad1)*
X127681600Y-139665800D03*
X108551600Y-139665800D03*
D13*
G04 #@! TO.P,BATT2,1*
G04 #@! TO.N,Net-(BATT2-Pad1)*
X108551600Y-67445800D03*
G04 #@! TD*
D16*
G04 #@! TO.P,P13,*
G04 #@! TO.N,*
X187700000Y-136230000D03*
X187700000Y-138770000D03*
D17*
G04 #@! TO.P,P13,2*
G04 #@! TO.N,GND1*
X185250000Y-136230000D03*
G04 #@! TO.P,P13,1*
G04 #@! TO.N,P+*
X185250000Y-138770000D03*
G04 #@! TD*
D18*
G04 #@! TO.P,P14,1*
G04 #@! TO.N,V_IN+*
X202565000Y-78105000D03*
G04 #@! TD*
G04 #@! TO.P,P15,1*
G04 #@! TO.N,V_IN-*
X189560200Y-80518000D03*
G04 #@! TD*
D19*
G04 #@! TO.P,MOD2,6*
G04 #@! TO.N,GND1*
X166500000Y-103000000D03*
G04 #@! TO.P,MOD2,7*
G04 #@! TO.N,P+*
X166500000Y-110000000D03*
D20*
G04 #@! TO.P,MOD2,4*
G04 #@! TO.N,Net-(MOD2-Pad4)*
X120000000Y-97750000D03*
G04 #@! TO.P,MOD2,3*
G04 #@! TO.N,Net-(BATT1-Pad1)*
X120000000Y-101500000D03*
G04 #@! TO.P,MOD2,2*
G04 #@! TO.N,Net-(BATT2-Pad1)*
X120000000Y-105250000D03*
D19*
G04 #@! TO.P,MOD2,5*
G04 #@! TO.N,Net-(BATT1-Pad2)*
X120000000Y-93000000D03*
G04 #@! TO.P,MOD2,1*
G04 #@! TO.N,B+*
X120000000Y-110000000D03*
G04 #@! TD*
D21*
G04 #@! TO.P,P1,*
G04 #@! TO.N,*
X59700000Y-103700000D03*
G04 #@! TD*
G04 #@! TO.P,P2,*
G04 #@! TO.N,*
X66700000Y-74600000D03*
G04 #@! TD*
G04 #@! TO.P,P3,*
G04 #@! TO.N,*
X66700000Y-132600000D03*
G04 #@! TD*
G04 #@! TO.P,P4,*
G04 #@! TO.N,*
X97700000Y-74600000D03*
G04 #@! TD*
G04 #@! TO.P,P5,*
G04 #@! TO.N,*
X97700000Y-132500000D03*
G04 #@! TD*
G04 #@! TO.P,P6,*
G04 #@! TO.N,*
X127700000Y-74600000D03*
G04 #@! TD*
G04 #@! TO.P,P7,*
G04 #@! TO.N,*
X127700000Y-132600000D03*
G04 #@! TD*
G04 #@! TO.P,P8,*
G04 #@! TO.N,*
X157700000Y-74600000D03*
G04 #@! TD*
G04 #@! TO.P,P9,*
G04 #@! TO.N,*
X157700000Y-132600000D03*
G04 #@! TD*
G04 #@! TO.P,P10,*
G04 #@! TO.N,*
X188700000Y-74600000D03*
G04 #@! TD*
G04 #@! TO.P,P11,*
G04 #@! TO.N,*
X188600000Y-132600000D03*
G04 #@! TD*
G04 #@! TO.P,P12,*
G04 #@! TO.N,*
X195700000Y-103600000D03*
G04 #@! TD*
D22*
G04 #@! TO.P,P16,1*
G04 #@! TO.N,V_IN+*
X197485000Y-78105000D03*
G04 #@! TO.P,P16,2*
G04 #@! TO.N,V_IN-*
X194945000Y-78105000D03*
D16*
G04 #@! TO.P,P16,*
G04 #@! TO.N,*
X197485000Y-75655000D03*
X194945000Y-75655000D03*
G04 #@! TD*
D23*
G04 #@! TO.N,GND1*
X185250000Y-136230000D02*
X185250000Y-134790000D01*
X184500000Y-134040000D02*
X184500000Y-130000000D01*
X185250000Y-134790000D02*
X184500000Y-134040000D01*
D24*
X166500000Y-103000000D02*
X171548000Y-103000000D01*
X171548000Y-103000000D02*
X179362100Y-110814100D01*
X179362100Y-110814100D02*
X179362100Y-125374400D01*
X183987700Y-130000000D02*
X184500000Y-130000000D01*
X179362100Y-125374400D02*
X183987700Y-130000000D01*
D23*
G04 #@! TO.N,Net-(BATT1-Pad1)*
X120000000Y-101500000D02*
X116168500Y-101500000D01*
D24*
X116168500Y-101500000D02*
X114122200Y-99453700D01*
X114122200Y-99453700D02*
X114122200Y-94703900D01*
X114122200Y-94703900D02*
X111404400Y-91986100D01*
D23*
X120000000Y-101500000D02*
X123293200Y-101500000D01*
X125737057Y-139665800D02*
X108551600Y-139665800D01*
X127681600Y-139665800D02*
X125737057Y-139665800D01*
X151484001Y-67465001D02*
X167840001Y-67465001D01*
X148710001Y-67465001D02*
X151484001Y-67465001D01*
D24*
G04 #@! TO.N,Net-(BATT1-Pad2)*
X151710001Y-139685001D02*
X170840001Y-139685001D01*
D23*
G04 #@! TO.N,B+*
X120000000Y-110000000D02*
X116553200Y-110000000D01*
D25*
X116553200Y-110000000D02*
X115600700Y-110000000D01*
X115600700Y-110000000D02*
X112478600Y-110000000D01*
D24*
G04 #@! TO.N,V_IN+*
X203100000Y-78640000D02*
X202565000Y-78105000D01*
X203100000Y-85400000D02*
X203100000Y-78640000D01*
D23*
X197485000Y-78105000D02*
X202565000Y-78105000D01*
G04 #@! TO.N,V_IN-*
X191465200Y-78105000D02*
X189560200Y-80010000D01*
X194945000Y-78105000D02*
X191465200Y-78105000D01*
G04 #@! TD*
D26*
G04 #@! TO.N,B+*
G36*
X66271001Y-67052251D02*
X66493251Y-67274501D01*
X68219501Y-67274501D01*
X68219501Y-67254501D01*
X68600501Y-67254501D01*
X68600501Y-67274501D01*
X70326751Y-67274501D01*
X70549001Y-67052251D01*
X70549001Y-66952000D01*
X85401001Y-66952000D01*
X85401001Y-67052251D01*
X85623251Y-67274501D01*
X87349501Y-67274501D01*
X87349501Y-67254501D01*
X87730501Y-67254501D01*
X87730501Y-67274501D01*
X89456751Y-67274501D01*
X89679001Y-67052251D01*
X89679001Y-66952000D01*
X91313000Y-66952000D01*
X91313000Y-91905997D01*
X91313670Y-91919024D01*
X91393851Y-92696554D01*
X91399168Y-92722061D01*
X91636337Y-93466865D01*
X91646748Y-93490750D01*
X92030923Y-94171478D01*
X92045989Y-94192736D01*
X92560999Y-94780738D01*
X92580086Y-94798474D01*
X93204255Y-95269001D01*
X93215061Y-95276308D01*
X105083611Y-102442349D01*
X106950515Y-103807787D01*
X107095483Y-103902405D01*
X107796056Y-104308223D01*
X108111944Y-104448754D01*
X108744970Y-104653019D01*
X112337550Y-106822162D01*
X112949177Y-107283786D01*
X113448713Y-107856108D01*
X113820179Y-108518761D01*
X114047764Y-109243537D01*
X114122424Y-110006165D01*
X114105960Y-112870850D01*
X114030740Y-113593536D01*
X113818120Y-114281762D01*
X113475581Y-114915439D01*
X113016242Y-115470296D01*
X112457659Y-115925129D01*
X111821237Y-116262506D01*
X111131295Y-116469537D01*
X110408038Y-116538887D01*
X75121747Y-116455271D01*
X74400961Y-116382922D01*
X73713886Y-116173858D01*
X73080463Y-115835412D01*
X72524774Y-115380450D01*
X72067965Y-114826287D01*
X71727403Y-114193991D01*
X71516050Y-113507621D01*
X71441296Y-112787076D01*
X71247060Y-78750146D01*
X71247000Y-78729129D01*
X71247000Y-75329133D01*
X74728001Y-75329133D01*
X74728001Y-76620869D01*
X75222328Y-77814278D01*
X76135724Y-78727674D01*
X77329133Y-79222001D01*
X78620869Y-79222001D01*
X79814278Y-78727674D01*
X80727674Y-77814278D01*
X81222001Y-76620869D01*
X81222001Y-75329133D01*
X80727674Y-74135724D01*
X79814278Y-73222328D01*
X78620869Y-72728001D01*
X77329133Y-72728001D01*
X76135724Y-73222328D01*
X75222328Y-74135724D01*
X74728001Y-75329133D01*
X71247000Y-75329133D01*
X71247000Y-74930000D01*
X71246388Y-74917552D01*
X71173180Y-74174258D01*
X71168323Y-74149840D01*
X70951512Y-73435110D01*
X70941985Y-73412109D01*
X70589903Y-72753410D01*
X70576071Y-72732709D01*
X70207602Y-72283728D01*
X70198702Y-72262242D01*
X70150001Y-72213541D01*
X70102249Y-72155355D01*
X70084645Y-72137751D01*
X70026459Y-72089999D01*
X69037758Y-71101298D01*
X67520911Y-70473000D01*
X65879089Y-70473000D01*
X65639326Y-70572313D01*
X65264176Y-70371791D01*
X64706160Y-69913840D01*
X64248209Y-69355824D01*
X63907919Y-68719187D01*
X63698370Y-68028398D01*
X63683533Y-67877751D01*
X66271001Y-67877751D01*
X66271001Y-68891834D01*
X66406343Y-69218579D01*
X66656423Y-69468659D01*
X66983168Y-69604001D01*
X67997251Y-69604001D01*
X68219501Y-69381751D01*
X68219501Y-67655501D01*
X68600501Y-67655501D01*
X68600501Y-69381751D01*
X68822751Y-69604001D01*
X69836834Y-69604001D01*
X70163579Y-69468659D01*
X70413659Y-69218579D01*
X70549001Y-68891834D01*
X70549001Y-67877751D01*
X85401001Y-67877751D01*
X85401001Y-68891834D01*
X85536343Y-69218579D01*
X85786423Y-69468659D01*
X86113168Y-69604001D01*
X87127251Y-69604001D01*
X87349501Y-69381751D01*
X87349501Y-67655501D01*
X87730501Y-67655501D01*
X87730501Y-69381751D01*
X87952751Y-69604001D01*
X88966834Y-69604001D01*
X89293579Y-69468659D01*
X89543659Y-69218579D01*
X89679001Y-68891834D01*
X89679001Y-67877751D01*
X89456751Y-67655501D01*
X87730501Y-67655501D01*
X87349501Y-67655501D01*
X85623251Y-67655501D01*
X85401001Y-67877751D01*
X70549001Y-67877751D01*
X70326751Y-67655501D01*
X68600501Y-67655501D01*
X68219501Y-67655501D01*
X66493251Y-67655501D01*
X66271001Y-67877751D01*
X63683533Y-67877751D01*
X63627000Y-67303766D01*
X63627000Y-66952000D01*
X66271001Y-66952000D01*
X66271001Y-67052251D01*
X66271001Y-67052251D01*
G37*
X66271001Y-67052251D02*
X66493251Y-67274501D01*
X68219501Y-67274501D01*
X68219501Y-67254501D01*
X68600501Y-67254501D01*
X68600501Y-67274501D01*
X70326751Y-67274501D01*
X70549001Y-67052251D01*
X70549001Y-66952000D01*
X85401001Y-66952000D01*
X85401001Y-67052251D01*
X85623251Y-67274501D01*
X87349501Y-67274501D01*
X87349501Y-67254501D01*
X87730501Y-67254501D01*
X87730501Y-67274501D01*
X89456751Y-67274501D01*
X89679001Y-67052251D01*
X89679001Y-66952000D01*
X91313000Y-66952000D01*
X91313000Y-91905997D01*
X91313670Y-91919024D01*
X91393851Y-92696554D01*
X91399168Y-92722061D01*
X91636337Y-93466865D01*
X91646748Y-93490750D01*
X92030923Y-94171478D01*
X92045989Y-94192736D01*
X92560999Y-94780738D01*
X92580086Y-94798474D01*
X93204255Y-95269001D01*
X93215061Y-95276308D01*
X105083611Y-102442349D01*
X106950515Y-103807787D01*
X107095483Y-103902405D01*
X107796056Y-104308223D01*
X108111944Y-104448754D01*
X108744970Y-104653019D01*
X112337550Y-106822162D01*
X112949177Y-107283786D01*
X113448713Y-107856108D01*
X113820179Y-108518761D01*
X114047764Y-109243537D01*
X114122424Y-110006165D01*
X114105960Y-112870850D01*
X114030740Y-113593536D01*
X113818120Y-114281762D01*
X113475581Y-114915439D01*
X113016242Y-115470296D01*
X112457659Y-115925129D01*
X111821237Y-116262506D01*
X111131295Y-116469537D01*
X110408038Y-116538887D01*
X75121747Y-116455271D01*
X74400961Y-116382922D01*
X73713886Y-116173858D01*
X73080463Y-115835412D01*
X72524774Y-115380450D01*
X72067965Y-114826287D01*
X71727403Y-114193991D01*
X71516050Y-113507621D01*
X71441296Y-112787076D01*
X71247060Y-78750146D01*
X71247000Y-78729129D01*
X71247000Y-75329133D01*
X74728001Y-75329133D01*
X74728001Y-76620869D01*
X75222328Y-77814278D01*
X76135724Y-78727674D01*
X77329133Y-79222001D01*
X78620869Y-79222001D01*
X79814278Y-78727674D01*
X80727674Y-77814278D01*
X81222001Y-76620869D01*
X81222001Y-75329133D01*
X80727674Y-74135724D01*
X79814278Y-73222328D01*
X78620869Y-72728001D01*
X77329133Y-72728001D01*
X76135724Y-73222328D01*
X75222328Y-74135724D01*
X74728001Y-75329133D01*
X71247000Y-75329133D01*
X71247000Y-74930000D01*
X71246388Y-74917552D01*
X71173180Y-74174258D01*
X71168323Y-74149840D01*
X70951512Y-73435110D01*
X70941985Y-73412109D01*
X70589903Y-72753410D01*
X70576071Y-72732709D01*
X70207602Y-72283728D01*
X70198702Y-72262242D01*
X70150001Y-72213541D01*
X70102249Y-72155355D01*
X70084645Y-72137751D01*
X70026459Y-72089999D01*
X69037758Y-71101298D01*
X67520911Y-70473000D01*
X65879089Y-70473000D01*
X65639326Y-70572313D01*
X65264176Y-70371791D01*
X64706160Y-69913840D01*
X64248209Y-69355824D01*
X63907919Y-68719187D01*
X63698370Y-68028398D01*
X63683533Y-67877751D01*
X66271001Y-67877751D01*
X66271001Y-68891834D01*
X66406343Y-69218579D01*
X66656423Y-69468659D01*
X66983168Y-69604001D01*
X67997251Y-69604001D01*
X68219501Y-69381751D01*
X68219501Y-67655501D01*
X68600501Y-67655501D01*
X68600501Y-69381751D01*
X68822751Y-69604001D01*
X69836834Y-69604001D01*
X70163579Y-69468659D01*
X70413659Y-69218579D01*
X70549001Y-68891834D01*
X70549001Y-67877751D01*
X85401001Y-67877751D01*
X85401001Y-68891834D01*
X85536343Y-69218579D01*
X85786423Y-69468659D01*
X86113168Y-69604001D01*
X87127251Y-69604001D01*
X87349501Y-69381751D01*
X87349501Y-67655501D01*
X87730501Y-67655501D01*
X87730501Y-69381751D01*
X87952751Y-69604001D01*
X88966834Y-69604001D01*
X89293579Y-69468659D01*
X89543659Y-69218579D01*
X89679001Y-68891834D01*
X89679001Y-67877751D01*
X89456751Y-67655501D01*
X87730501Y-67655501D01*
X87349501Y-67655501D01*
X85623251Y-67655501D01*
X85401001Y-67877751D01*
X70549001Y-67877751D01*
X70326751Y-67655501D01*
X68600501Y-67655501D01*
X68219501Y-67655501D01*
X66493251Y-67655501D01*
X66271001Y-67877751D01*
X63683533Y-67877751D01*
X63627000Y-67303766D01*
X63627000Y-66952000D01*
X66271001Y-66952000D01*
X66271001Y-67052251D01*
G04 #@! TO.N,Net-(BATT1-Pad1)*
G36*
X146571001Y-67052251D02*
X146793251Y-67274501D01*
X148519501Y-67274501D01*
X148519501Y-67254501D01*
X148900501Y-67254501D01*
X148900501Y-67274501D01*
X150626751Y-67274501D01*
X150849001Y-67052251D01*
X150849001Y-66952000D01*
X165701001Y-66952000D01*
X165701001Y-67052251D01*
X165923251Y-67274501D01*
X167649501Y-67274501D01*
X167649501Y-67254501D01*
X168030501Y-67254501D01*
X168030501Y-67274501D01*
X169756751Y-67274501D01*
X169979001Y-67052251D01*
X169979001Y-66952000D01*
X173695404Y-66952000D01*
X174053840Y-67246160D01*
X174511791Y-67804176D01*
X174852081Y-68440813D01*
X175061630Y-69131602D01*
X175133000Y-69856234D01*
X175133000Y-82543766D01*
X175061630Y-83268398D01*
X174852081Y-83959187D01*
X174511791Y-84595824D01*
X174053840Y-85153840D01*
X173495824Y-85611791D01*
X172859187Y-85952081D01*
X172168398Y-86161630D01*
X171443766Y-86233000D01*
X120650000Y-86233000D01*
X120637552Y-86233612D01*
X119894258Y-86306820D01*
X119869840Y-86311677D01*
X119155110Y-86528488D01*
X119132109Y-86538015D01*
X118473410Y-86890097D01*
X118452709Y-86903929D01*
X117875355Y-87377751D01*
X117857751Y-87395355D01*
X117383929Y-87972709D01*
X117370097Y-87993410D01*
X117018015Y-88652109D01*
X117008488Y-88675110D01*
X116791677Y-89389840D01*
X116786820Y-89414258D01*
X116732194Y-89968884D01*
X116467400Y-90365176D01*
X116341126Y-91000000D01*
X116341126Y-95000000D01*
X116467400Y-95634824D01*
X116577767Y-95800000D01*
X116467400Y-95965176D01*
X116341126Y-96600000D01*
X116341126Y-98900000D01*
X116467400Y-99534824D01*
X116826999Y-100073001D01*
X117111000Y-100262765D01*
X117111000Y-101087250D01*
X117333250Y-101309500D01*
X119809500Y-101309500D01*
X119809500Y-101289500D01*
X120190500Y-101289500D01*
X120190500Y-101309500D01*
X122666750Y-101309500D01*
X122889000Y-101087250D01*
X122889000Y-100262765D01*
X123173001Y-100073001D01*
X123532600Y-99534824D01*
X123658874Y-98900000D01*
X123658874Y-96736155D01*
X124291033Y-96927919D01*
X124927670Y-97268209D01*
X125490526Y-97730132D01*
X130869868Y-103109474D01*
X131331791Y-103672330D01*
X131672081Y-104308967D01*
X131881630Y-104999756D01*
X131953000Y-105724388D01*
X131953000Y-140298000D01*
X129860843Y-140298000D01*
X129962990Y-140017600D01*
X129923957Y-139117771D01*
X129654701Y-138467729D01*
X129285239Y-138331569D01*
X127951008Y-139665800D01*
X127965150Y-139679942D01*
X127695742Y-139949350D01*
X127681600Y-139935208D01*
X127667458Y-139949350D01*
X127398050Y-139679942D01*
X127412192Y-139665800D01*
X126077961Y-138331569D01*
X125708499Y-138467729D01*
X125400210Y-139314000D01*
X125439243Y-140213829D01*
X125474108Y-140298000D01*
X110730843Y-140298000D01*
X110832990Y-140017600D01*
X110793957Y-139117771D01*
X110524701Y-138467729D01*
X110155239Y-138331569D01*
X108821008Y-139665800D01*
X108835150Y-139679942D01*
X108565742Y-139949350D01*
X108551600Y-139935208D01*
X108537458Y-139949350D01*
X108268050Y-139679942D01*
X108282192Y-139665800D01*
X106947961Y-138331569D01*
X106807000Y-138383518D01*
X106807000Y-138062161D01*
X107217369Y-138062161D01*
X108551600Y-139396392D01*
X109885831Y-138062161D01*
X126347369Y-138062161D01*
X127681600Y-139396392D01*
X129015831Y-138062161D01*
X128879671Y-137692699D01*
X128033400Y-137384410D01*
X127133571Y-137423443D01*
X126483529Y-137692699D01*
X126347369Y-138062161D01*
X109885831Y-138062161D01*
X109749671Y-137692699D01*
X108903400Y-137384410D01*
X108003571Y-137423443D01*
X107353529Y-137692699D01*
X107217369Y-138062161D01*
X106807000Y-138062161D01*
X106807000Y-130509932D01*
X114869600Y-130509932D01*
X114869600Y-131801668D01*
X115363927Y-132995077D01*
X116277323Y-133908473D01*
X117470732Y-134402800D01*
X118762468Y-134402800D01*
X119955877Y-133908473D01*
X120869273Y-132995077D01*
X121363600Y-131801668D01*
X121363600Y-131779089D01*
X123573000Y-131779089D01*
X123573000Y-133420911D01*
X124201298Y-134937758D01*
X125362242Y-136098702D01*
X126879089Y-136727000D01*
X128520911Y-136727000D01*
X130037758Y-136098702D01*
X131198702Y-134937758D01*
X131827000Y-133420911D01*
X131827000Y-131779089D01*
X131198702Y-130262242D01*
X130037758Y-129101298D01*
X128520911Y-128473000D01*
X126879089Y-128473000D01*
X125362242Y-129101298D01*
X124201298Y-130262242D01*
X123573000Y-131779089D01*
X121363600Y-131779089D01*
X121363600Y-130509932D01*
X120869273Y-129316523D01*
X119955877Y-128403127D01*
X118762468Y-127908800D01*
X117470732Y-127908800D01*
X116277323Y-128403127D01*
X115363927Y-129316523D01*
X114869600Y-130509932D01*
X106807000Y-130509932D01*
X106807000Y-125736234D01*
X106878370Y-125011602D01*
X107087919Y-124320813D01*
X107428209Y-123684176D01*
X107886160Y-123126160D01*
X108444176Y-122668209D01*
X109080813Y-122327919D01*
X109771602Y-122118370D01*
X110496234Y-122047000D01*
X115590581Y-122047000D01*
X115602986Y-122046393D01*
X116343750Y-121973687D01*
X116368088Y-121968863D01*
X117080580Y-121753521D01*
X117103515Y-121744057D01*
X117760542Y-121394297D01*
X117781199Y-121380555D01*
X118357686Y-120909726D01*
X118375277Y-120892230D01*
X118849222Y-120318301D01*
X118863076Y-120297718D01*
X119216390Y-119642595D01*
X119225978Y-119619712D01*
X119445176Y-118908396D01*
X119450132Y-118884085D01*
X119526849Y-118143726D01*
X119527523Y-118131324D01*
X119551747Y-113658874D01*
X122000000Y-113658874D01*
X122634824Y-113532600D01*
X123173001Y-113173001D01*
X123532600Y-112634824D01*
X123658874Y-112000000D01*
X123658874Y-108000000D01*
X123532600Y-107365176D01*
X123422233Y-107200000D01*
X123532600Y-107034824D01*
X123658874Y-106400000D01*
X123658874Y-104100000D01*
X123532600Y-103465176D01*
X123173001Y-102926999D01*
X122889000Y-102737235D01*
X122889000Y-101912750D01*
X122666750Y-101690500D01*
X120190500Y-101690500D01*
X120190500Y-101710500D01*
X119809500Y-101710500D01*
X119809500Y-101690500D01*
X117333250Y-101690500D01*
X117111000Y-101912750D01*
X117111000Y-102737235D01*
X116826999Y-102926999D01*
X116640478Y-103206148D01*
X116409238Y-103137225D01*
X116384597Y-103132468D01*
X115634884Y-103063492D01*
X115622332Y-103062961D01*
X110193568Y-103102158D01*
X109408166Y-103023965D01*
X108663496Y-102783674D01*
X107980516Y-102388048D01*
X103164083Y-98865349D01*
X102630817Y-98390253D01*
X102202060Y-97826768D01*
X101889072Y-97191640D01*
X101703431Y-96508353D01*
X101651995Y-95802170D01*
X101737405Y-95093076D01*
X104513191Y-82452414D01*
X104515671Y-82436162D01*
X104600829Y-81455519D01*
X104601188Y-81439083D01*
X104437798Y-77634425D01*
X104481110Y-76887713D01*
X104671494Y-76171041D01*
X105001597Y-75507054D01*
X105458046Y-74922653D01*
X106022316Y-74441558D01*
X106671534Y-74083267D01*
X107379374Y-73862310D01*
X108123544Y-73787000D01*
X115693450Y-73787000D01*
X115363927Y-74116523D01*
X114869600Y-75309932D01*
X114869600Y-76601668D01*
X115363927Y-77795077D01*
X116277323Y-78708473D01*
X117470732Y-79202800D01*
X118762468Y-79202800D01*
X119955877Y-78708473D01*
X120869273Y-77795077D01*
X121363600Y-76601668D01*
X121363600Y-75309932D01*
X120869273Y-74116523D01*
X120539750Y-73787000D01*
X123573000Y-73787000D01*
X123573000Y-75420911D01*
X124201298Y-76937758D01*
X125362242Y-78098702D01*
X126879089Y-78727000D01*
X128520911Y-78727000D01*
X130037758Y-78098702D01*
X131198702Y-76937758D01*
X131827000Y-75420911D01*
X131827000Y-75298301D01*
X137373001Y-75298301D01*
X137373001Y-76651701D01*
X137890925Y-77902079D01*
X138847923Y-78859077D01*
X140098301Y-79377001D01*
X141451701Y-79377001D01*
X142702079Y-78859077D01*
X143659077Y-77902079D01*
X144177001Y-76651701D01*
X144177001Y-75298301D01*
X143659077Y-74047923D01*
X143390243Y-73779089D01*
X153573000Y-73779089D01*
X153573000Y-75420911D01*
X154201298Y-76937758D01*
X155362242Y-78098702D01*
X156879089Y-78727000D01*
X158520911Y-78727000D01*
X160037758Y-78098702D01*
X161198702Y-76937758D01*
X161827000Y-75420911D01*
X161827000Y-73779089D01*
X161198702Y-72262242D01*
X160037758Y-71101298D01*
X158520911Y-70473000D01*
X156879089Y-70473000D01*
X155362242Y-71101298D01*
X154201298Y-72262242D01*
X153573000Y-73779089D01*
X143390243Y-73779089D01*
X142702079Y-73090925D01*
X141451701Y-72573001D01*
X140098301Y-72573001D01*
X138847923Y-73090925D01*
X137890925Y-74047923D01*
X137373001Y-75298301D01*
X131827000Y-75298301D01*
X131827000Y-73787000D01*
X135890000Y-73787000D01*
X135902448Y-73786388D01*
X136645742Y-73713180D01*
X136670160Y-73708323D01*
X137384890Y-73491512D01*
X137407891Y-73481985D01*
X138066590Y-73129903D01*
X138087291Y-73116071D01*
X138664645Y-72642249D01*
X138682249Y-72624645D01*
X139156071Y-72047291D01*
X139169903Y-72026590D01*
X139521985Y-71367891D01*
X139531512Y-71344890D01*
X139748323Y-70630160D01*
X139753180Y-70605742D01*
X139898370Y-69131602D01*
X140107919Y-68440813D01*
X140408882Y-67877751D01*
X146571001Y-67877751D01*
X146571001Y-68891834D01*
X146706343Y-69218579D01*
X146956423Y-69468659D01*
X147283168Y-69604001D01*
X148297251Y-69604001D01*
X148519501Y-69381751D01*
X148519501Y-67655501D01*
X148900501Y-67655501D01*
X148900501Y-69381751D01*
X149122751Y-69604001D01*
X150136834Y-69604001D01*
X150463579Y-69468659D01*
X150713659Y-69218579D01*
X150849001Y-68891834D01*
X150849001Y-67877751D01*
X165701001Y-67877751D01*
X165701001Y-68891834D01*
X165836343Y-69218579D01*
X166086423Y-69468659D01*
X166413168Y-69604001D01*
X167427251Y-69604001D01*
X167649501Y-69381751D01*
X167649501Y-67655501D01*
X168030501Y-67655501D01*
X168030501Y-69381751D01*
X168252751Y-69604001D01*
X169266834Y-69604001D01*
X169593579Y-69468659D01*
X169843659Y-69218579D01*
X169979001Y-68891834D01*
X169979001Y-67877751D01*
X169756751Y-67655501D01*
X168030501Y-67655501D01*
X167649501Y-67655501D01*
X165923251Y-67655501D01*
X165701001Y-67877751D01*
X150849001Y-67877751D01*
X150626751Y-67655501D01*
X148900501Y-67655501D01*
X148519501Y-67655501D01*
X146793251Y-67655501D01*
X146571001Y-67877751D01*
X140408882Y-67877751D01*
X140448209Y-67804176D01*
X140906160Y-67246160D01*
X141264596Y-66952000D01*
X146571001Y-66952000D01*
X146571001Y-67052251D01*
X146571001Y-67052251D01*
G37*
X146571001Y-67052251D02*
X146793251Y-67274501D01*
X148519501Y-67274501D01*
X148519501Y-67254501D01*
X148900501Y-67254501D01*
X148900501Y-67274501D01*
X150626751Y-67274501D01*
X150849001Y-67052251D01*
X150849001Y-66952000D01*
X165701001Y-66952000D01*
X165701001Y-67052251D01*
X165923251Y-67274501D01*
X167649501Y-67274501D01*
X167649501Y-67254501D01*
X168030501Y-67254501D01*
X168030501Y-67274501D01*
X169756751Y-67274501D01*
X169979001Y-67052251D01*
X169979001Y-66952000D01*
X173695404Y-66952000D01*
X174053840Y-67246160D01*
X174511791Y-67804176D01*
X174852081Y-68440813D01*
X175061630Y-69131602D01*
X175133000Y-69856234D01*
X175133000Y-82543766D01*
X175061630Y-83268398D01*
X174852081Y-83959187D01*
X174511791Y-84595824D01*
X174053840Y-85153840D01*
X173495824Y-85611791D01*
X172859187Y-85952081D01*
X172168398Y-86161630D01*
X171443766Y-86233000D01*
X120650000Y-86233000D01*
X120637552Y-86233612D01*
X119894258Y-86306820D01*
X119869840Y-86311677D01*
X119155110Y-86528488D01*
X119132109Y-86538015D01*
X118473410Y-86890097D01*
X118452709Y-86903929D01*
X117875355Y-87377751D01*
X117857751Y-87395355D01*
X117383929Y-87972709D01*
X117370097Y-87993410D01*
X117018015Y-88652109D01*
X117008488Y-88675110D01*
X116791677Y-89389840D01*
X116786820Y-89414258D01*
X116732194Y-89968884D01*
X116467400Y-90365176D01*
X116341126Y-91000000D01*
X116341126Y-95000000D01*
X116467400Y-95634824D01*
X116577767Y-95800000D01*
X116467400Y-95965176D01*
X116341126Y-96600000D01*
X116341126Y-98900000D01*
X116467400Y-99534824D01*
X116826999Y-100073001D01*
X117111000Y-100262765D01*
X117111000Y-101087250D01*
X117333250Y-101309500D01*
X119809500Y-101309500D01*
X119809500Y-101289500D01*
X120190500Y-101289500D01*
X120190500Y-101309500D01*
X122666750Y-101309500D01*
X122889000Y-101087250D01*
X122889000Y-100262765D01*
X123173001Y-100073001D01*
X123532600Y-99534824D01*
X123658874Y-98900000D01*
X123658874Y-96736155D01*
X124291033Y-96927919D01*
X124927670Y-97268209D01*
X125490526Y-97730132D01*
X130869868Y-103109474D01*
X131331791Y-103672330D01*
X131672081Y-104308967D01*
X131881630Y-104999756D01*
X131953000Y-105724388D01*
X131953000Y-140298000D01*
X129860843Y-140298000D01*
X129962990Y-140017600D01*
X129923957Y-139117771D01*
X129654701Y-138467729D01*
X129285239Y-138331569D01*
X127951008Y-139665800D01*
X127965150Y-139679942D01*
X127695742Y-139949350D01*
X127681600Y-139935208D01*
X127667458Y-139949350D01*
X127398050Y-139679942D01*
X127412192Y-139665800D01*
X126077961Y-138331569D01*
X125708499Y-138467729D01*
X125400210Y-139314000D01*
X125439243Y-140213829D01*
X125474108Y-140298000D01*
X110730843Y-140298000D01*
X110832990Y-140017600D01*
X110793957Y-139117771D01*
X110524701Y-138467729D01*
X110155239Y-138331569D01*
X108821008Y-139665800D01*
X108835150Y-139679942D01*
X108565742Y-139949350D01*
X108551600Y-139935208D01*
X108537458Y-139949350D01*
X108268050Y-139679942D01*
X108282192Y-139665800D01*
X106947961Y-138331569D01*
X106807000Y-138383518D01*
X106807000Y-138062161D01*
X107217369Y-138062161D01*
X108551600Y-139396392D01*
X109885831Y-138062161D01*
X126347369Y-138062161D01*
X127681600Y-139396392D01*
X129015831Y-138062161D01*
X128879671Y-137692699D01*
X128033400Y-137384410D01*
X127133571Y-137423443D01*
X126483529Y-137692699D01*
X126347369Y-138062161D01*
X109885831Y-138062161D01*
X109749671Y-137692699D01*
X108903400Y-137384410D01*
X108003571Y-137423443D01*
X107353529Y-137692699D01*
X107217369Y-138062161D01*
X106807000Y-138062161D01*
X106807000Y-130509932D01*
X114869600Y-130509932D01*
X114869600Y-131801668D01*
X115363927Y-132995077D01*
X116277323Y-133908473D01*
X117470732Y-134402800D01*
X118762468Y-134402800D01*
X119955877Y-133908473D01*
X120869273Y-132995077D01*
X121363600Y-131801668D01*
X121363600Y-131779089D01*
X123573000Y-131779089D01*
X123573000Y-133420911D01*
X124201298Y-134937758D01*
X125362242Y-136098702D01*
X126879089Y-136727000D01*
X128520911Y-136727000D01*
X130037758Y-136098702D01*
X131198702Y-134937758D01*
X131827000Y-133420911D01*
X131827000Y-131779089D01*
X131198702Y-130262242D01*
X130037758Y-129101298D01*
X128520911Y-128473000D01*
X126879089Y-128473000D01*
X125362242Y-129101298D01*
X124201298Y-130262242D01*
X123573000Y-131779089D01*
X121363600Y-131779089D01*
X121363600Y-130509932D01*
X120869273Y-129316523D01*
X119955877Y-128403127D01*
X118762468Y-127908800D01*
X117470732Y-127908800D01*
X116277323Y-128403127D01*
X115363927Y-129316523D01*
X114869600Y-130509932D01*
X106807000Y-130509932D01*
X106807000Y-125736234D01*
X106878370Y-125011602D01*
X107087919Y-124320813D01*
X107428209Y-123684176D01*
X107886160Y-123126160D01*
X108444176Y-122668209D01*
X109080813Y-122327919D01*
X109771602Y-122118370D01*
X110496234Y-122047000D01*
X115590581Y-122047000D01*
X115602986Y-122046393D01*
X116343750Y-121973687D01*
X116368088Y-121968863D01*
X117080580Y-121753521D01*
X117103515Y-121744057D01*
X117760542Y-121394297D01*
X117781199Y-121380555D01*
X118357686Y-120909726D01*
X118375277Y-120892230D01*
X118849222Y-120318301D01*
X118863076Y-120297718D01*
X119216390Y-119642595D01*
X119225978Y-119619712D01*
X119445176Y-118908396D01*
X119450132Y-118884085D01*
X119526849Y-118143726D01*
X119527523Y-118131324D01*
X119551747Y-113658874D01*
X122000000Y-113658874D01*
X122634824Y-113532600D01*
X123173001Y-113173001D01*
X123532600Y-112634824D01*
X123658874Y-112000000D01*
X123658874Y-108000000D01*
X123532600Y-107365176D01*
X123422233Y-107200000D01*
X123532600Y-107034824D01*
X123658874Y-106400000D01*
X123658874Y-104100000D01*
X123532600Y-103465176D01*
X123173001Y-102926999D01*
X122889000Y-102737235D01*
X122889000Y-101912750D01*
X122666750Y-101690500D01*
X120190500Y-101690500D01*
X120190500Y-101710500D01*
X119809500Y-101710500D01*
X119809500Y-101690500D01*
X117333250Y-101690500D01*
X117111000Y-101912750D01*
X117111000Y-102737235D01*
X116826999Y-102926999D01*
X116640478Y-103206148D01*
X116409238Y-103137225D01*
X116384597Y-103132468D01*
X115634884Y-103063492D01*
X115622332Y-103062961D01*
X110193568Y-103102158D01*
X109408166Y-103023965D01*
X108663496Y-102783674D01*
X107980516Y-102388048D01*
X103164083Y-98865349D01*
X102630817Y-98390253D01*
X102202060Y-97826768D01*
X101889072Y-97191640D01*
X101703431Y-96508353D01*
X101651995Y-95802170D01*
X101737405Y-95093076D01*
X104513191Y-82452414D01*
X104515671Y-82436162D01*
X104600829Y-81455519D01*
X104601188Y-81439083D01*
X104437798Y-77634425D01*
X104481110Y-76887713D01*
X104671494Y-76171041D01*
X105001597Y-75507054D01*
X105458046Y-74922653D01*
X106022316Y-74441558D01*
X106671534Y-74083267D01*
X107379374Y-73862310D01*
X108123544Y-73787000D01*
X115693450Y-73787000D01*
X115363927Y-74116523D01*
X114869600Y-75309932D01*
X114869600Y-76601668D01*
X115363927Y-77795077D01*
X116277323Y-78708473D01*
X117470732Y-79202800D01*
X118762468Y-79202800D01*
X119955877Y-78708473D01*
X120869273Y-77795077D01*
X121363600Y-76601668D01*
X121363600Y-75309932D01*
X120869273Y-74116523D01*
X120539750Y-73787000D01*
X123573000Y-73787000D01*
X123573000Y-75420911D01*
X124201298Y-76937758D01*
X125362242Y-78098702D01*
X126879089Y-78727000D01*
X128520911Y-78727000D01*
X130037758Y-78098702D01*
X131198702Y-76937758D01*
X131827000Y-75420911D01*
X131827000Y-75298301D01*
X137373001Y-75298301D01*
X137373001Y-76651701D01*
X137890925Y-77902079D01*
X138847923Y-78859077D01*
X140098301Y-79377001D01*
X141451701Y-79377001D01*
X142702079Y-78859077D01*
X143659077Y-77902079D01*
X144177001Y-76651701D01*
X144177001Y-75298301D01*
X143659077Y-74047923D01*
X143390243Y-73779089D01*
X153573000Y-73779089D01*
X153573000Y-75420911D01*
X154201298Y-76937758D01*
X155362242Y-78098702D01*
X156879089Y-78727000D01*
X158520911Y-78727000D01*
X160037758Y-78098702D01*
X161198702Y-76937758D01*
X161827000Y-75420911D01*
X161827000Y-73779089D01*
X161198702Y-72262242D01*
X160037758Y-71101298D01*
X158520911Y-70473000D01*
X156879089Y-70473000D01*
X155362242Y-71101298D01*
X154201298Y-72262242D01*
X153573000Y-73779089D01*
X143390243Y-73779089D01*
X142702079Y-73090925D01*
X141451701Y-72573001D01*
X140098301Y-72573001D01*
X138847923Y-73090925D01*
X137890925Y-74047923D01*
X137373001Y-75298301D01*
X131827000Y-75298301D01*
X131827000Y-73787000D01*
X135890000Y-73787000D01*
X135902448Y-73786388D01*
X136645742Y-73713180D01*
X136670160Y-73708323D01*
X137384890Y-73491512D01*
X137407891Y-73481985D01*
X138066590Y-73129903D01*
X138087291Y-73116071D01*
X138664645Y-72642249D01*
X138682249Y-72624645D01*
X139156071Y-72047291D01*
X139169903Y-72026590D01*
X139521985Y-71367891D01*
X139531512Y-71344890D01*
X139748323Y-70630160D01*
X139753180Y-70605742D01*
X139898370Y-69131602D01*
X140107919Y-68440813D01*
X140408882Y-67877751D01*
X146571001Y-67877751D01*
X146571001Y-68891834D01*
X146706343Y-69218579D01*
X146956423Y-69468659D01*
X147283168Y-69604001D01*
X148297251Y-69604001D01*
X148519501Y-69381751D01*
X148519501Y-67655501D01*
X148900501Y-67655501D01*
X148900501Y-69381751D01*
X149122751Y-69604001D01*
X150136834Y-69604001D01*
X150463579Y-69468659D01*
X150713659Y-69218579D01*
X150849001Y-68891834D01*
X150849001Y-67877751D01*
X165701001Y-67877751D01*
X165701001Y-68891834D01*
X165836343Y-69218579D01*
X166086423Y-69468659D01*
X166413168Y-69604001D01*
X167427251Y-69604001D01*
X167649501Y-69381751D01*
X167649501Y-67655501D01*
X168030501Y-67655501D01*
X168030501Y-69381751D01*
X168252751Y-69604001D01*
X169266834Y-69604001D01*
X169593579Y-69468659D01*
X169843659Y-69218579D01*
X169979001Y-68891834D01*
X169979001Y-67877751D01*
X169756751Y-67655501D01*
X168030501Y-67655501D01*
X167649501Y-67655501D01*
X165923251Y-67655501D01*
X165701001Y-67877751D01*
X150849001Y-67877751D01*
X150626751Y-67655501D01*
X148900501Y-67655501D01*
X148519501Y-67655501D01*
X146793251Y-67655501D01*
X146571001Y-67877751D01*
X140408882Y-67877751D01*
X140448209Y-67804176D01*
X140906160Y-67246160D01*
X141264596Y-66952000D01*
X146571001Y-66952000D01*
X146571001Y-67052251D01*
G04 #@! TO.N,Net-(BATT1-Pad2)*
G36*
X136948926Y-89196926D02*
X136572751Y-89759913D01*
X136440656Y-90424000D01*
X136474000Y-90591632D01*
X136474001Y-101432363D01*
X136440656Y-101600000D01*
X136572751Y-102264087D01*
X136948926Y-102827074D01*
X137511913Y-103203249D01*
X138008368Y-103302000D01*
X138176000Y-103335344D01*
X138343632Y-103302000D01*
X142113000Y-103302000D01*
X142113000Y-110490000D01*
X142113612Y-110502448D01*
X142186820Y-111245742D01*
X142191677Y-111270160D01*
X142408488Y-111984890D01*
X142418015Y-112007891D01*
X142770097Y-112666590D01*
X142783929Y-112687291D01*
X143257751Y-113264645D01*
X143275355Y-113282249D01*
X143852709Y-113756071D01*
X143873410Y-113769903D01*
X144532109Y-114121985D01*
X144555110Y-114131512D01*
X145269840Y-114348323D01*
X145294258Y-114353180D01*
X146037552Y-114426388D01*
X146050000Y-114427000D01*
X153663766Y-114427000D01*
X154388398Y-114498370D01*
X155079187Y-114707919D01*
X155715824Y-115048209D01*
X156273840Y-115506160D01*
X156731791Y-116064176D01*
X157072081Y-116700813D01*
X157281630Y-117391602D01*
X157353000Y-118116234D01*
X157353000Y-120650000D01*
X157353612Y-120662448D01*
X157426820Y-121405742D01*
X157431677Y-121430160D01*
X157648488Y-122144890D01*
X157658015Y-122167891D01*
X158010097Y-122826590D01*
X158023929Y-122847291D01*
X158497751Y-123424645D01*
X158515355Y-123442249D01*
X159092709Y-123916071D01*
X159113410Y-123929903D01*
X159772109Y-124281985D01*
X159795110Y-124291512D01*
X160509840Y-124508323D01*
X160534258Y-124513180D01*
X161277552Y-124586388D01*
X161290000Y-124587000D01*
X171443766Y-124587000D01*
X172168398Y-124658370D01*
X172859187Y-124867919D01*
X173495824Y-125208209D01*
X174053840Y-125666160D01*
X174511791Y-126224176D01*
X174852081Y-126860813D01*
X175061630Y-127551602D01*
X175084019Y-127778917D01*
X173847923Y-128290925D01*
X172890925Y-129247923D01*
X172373001Y-130498301D01*
X172373001Y-131851701D01*
X172890925Y-133102079D01*
X173847923Y-134059077D01*
X175098301Y-134577001D01*
X175133000Y-134577001D01*
X175133000Y-140298000D01*
X170026239Y-140298000D01*
X170121391Y-140036801D01*
X170082358Y-139136972D01*
X169813102Y-138486930D01*
X169443640Y-138350770D01*
X168109409Y-139685001D01*
X168123551Y-139699143D01*
X167854143Y-139968551D01*
X167840001Y-139954409D01*
X167825859Y-139968551D01*
X167556451Y-139699143D01*
X167570593Y-139685001D01*
X166236362Y-138350770D01*
X165866900Y-138486930D01*
X165558611Y-139333201D01*
X165597644Y-140233030D01*
X165624555Y-140298000D01*
X150896239Y-140298000D01*
X150991391Y-140036801D01*
X150952358Y-139136972D01*
X150683102Y-138486930D01*
X150313640Y-138350770D01*
X148979409Y-139685001D01*
X148993551Y-139699143D01*
X148724143Y-139968551D01*
X148710001Y-139954409D01*
X148695859Y-139968551D01*
X148426451Y-139699143D01*
X148440593Y-139685001D01*
X148426451Y-139670859D01*
X148695859Y-139401451D01*
X148710001Y-139415593D01*
X150044232Y-138081362D01*
X166505770Y-138081362D01*
X167840001Y-139415593D01*
X169174232Y-138081362D01*
X169038072Y-137711900D01*
X168191801Y-137403611D01*
X167291972Y-137442644D01*
X166641930Y-137711900D01*
X166505770Y-138081362D01*
X150044232Y-138081362D01*
X149908072Y-137711900D01*
X149061801Y-137403611D01*
X148161972Y-137442644D01*
X147511930Y-137711900D01*
X147447000Y-137888084D01*
X147447000Y-131779089D01*
X153573000Y-131779089D01*
X153573000Y-133420911D01*
X154201298Y-134937758D01*
X155362242Y-136098702D01*
X156879089Y-136727000D01*
X158520911Y-136727000D01*
X160037758Y-136098702D01*
X161198702Y-134937758D01*
X161827000Y-133420911D01*
X161827000Y-131779089D01*
X161198702Y-130262242D01*
X160037758Y-129101298D01*
X158520911Y-128473000D01*
X156879089Y-128473000D01*
X155362242Y-129101298D01*
X154201298Y-130262242D01*
X153573000Y-131779089D01*
X147447000Y-131779089D01*
X147447000Y-130810000D01*
X147446388Y-130797552D01*
X147373180Y-130054258D01*
X147368323Y-130029840D01*
X147151512Y-129315110D01*
X147141985Y-129292109D01*
X146789903Y-128633410D01*
X146776071Y-128612709D01*
X146302249Y-128035355D01*
X146284645Y-128017751D01*
X145707291Y-127543929D01*
X145686590Y-127530097D01*
X145027891Y-127178015D01*
X145004890Y-127168488D01*
X144290160Y-126951677D01*
X144265742Y-126946820D01*
X143522448Y-126873612D01*
X143510000Y-126873000D01*
X138436234Y-126873000D01*
X137711602Y-126801630D01*
X137020813Y-126592081D01*
X136384176Y-126251791D01*
X135826160Y-125793840D01*
X135368209Y-125235824D01*
X135027919Y-124599187D01*
X134818370Y-123908398D01*
X134747000Y-123183766D01*
X134747000Y-105718154D01*
X134746388Y-105705706D01*
X134673180Y-104962412D01*
X134668323Y-104937994D01*
X134451512Y-104223264D01*
X134441985Y-104200263D01*
X134089903Y-103541564D01*
X134076071Y-103520863D01*
X133602249Y-102943509D01*
X133593880Y-102934274D01*
X126935726Y-96276120D01*
X126926491Y-96267751D01*
X126349137Y-95793929D01*
X126328436Y-95780097D01*
X125669737Y-95428015D01*
X125646736Y-95418488D01*
X124932006Y-95201677D01*
X124907588Y-95196820D01*
X124491666Y-95155855D01*
X124097433Y-95036266D01*
X123784614Y-94974042D01*
X123041320Y-94900834D01*
X122889000Y-94893351D01*
X122889000Y-93412750D01*
X122666750Y-93190500D01*
X120190500Y-93190500D01*
X120190500Y-93210500D01*
X119809500Y-93210500D01*
X119809500Y-93190500D01*
X119789500Y-93190500D01*
X119789500Y-92809500D01*
X119809500Y-92809500D01*
X119809500Y-92789500D01*
X120190500Y-92789500D01*
X120190500Y-92809500D01*
X122666750Y-92809500D01*
X122889000Y-92587250D01*
X122889000Y-90823167D01*
X122753658Y-90496422D01*
X122503578Y-90246342D01*
X122176833Y-90111000D01*
X120412750Y-90111000D01*
X120190502Y-90333248D01*
X120190502Y-90157209D01*
X120655107Y-89692604D01*
X121232872Y-89329570D01*
X121876935Y-89104203D01*
X122562129Y-89027000D01*
X137203239Y-89027000D01*
X136948926Y-89196926D01*
X136948926Y-89196926D01*
G37*
X136948926Y-89196926D02*
X136572751Y-89759913D01*
X136440656Y-90424000D01*
X136474000Y-90591632D01*
X136474001Y-101432363D01*
X136440656Y-101600000D01*
X136572751Y-102264087D01*
X136948926Y-102827074D01*
X137511913Y-103203249D01*
X138008368Y-103302000D01*
X138176000Y-103335344D01*
X138343632Y-103302000D01*
X142113000Y-103302000D01*
X142113000Y-110490000D01*
X142113612Y-110502448D01*
X142186820Y-111245742D01*
X142191677Y-111270160D01*
X142408488Y-111984890D01*
X142418015Y-112007891D01*
X142770097Y-112666590D01*
X142783929Y-112687291D01*
X143257751Y-113264645D01*
X143275355Y-113282249D01*
X143852709Y-113756071D01*
X143873410Y-113769903D01*
X144532109Y-114121985D01*
X144555110Y-114131512D01*
X145269840Y-114348323D01*
X145294258Y-114353180D01*
X146037552Y-114426388D01*
X146050000Y-114427000D01*
X153663766Y-114427000D01*
X154388398Y-114498370D01*
X155079187Y-114707919D01*
X155715824Y-115048209D01*
X156273840Y-115506160D01*
X156731791Y-116064176D01*
X157072081Y-116700813D01*
X157281630Y-117391602D01*
X157353000Y-118116234D01*
X157353000Y-120650000D01*
X157353612Y-120662448D01*
X157426820Y-121405742D01*
X157431677Y-121430160D01*
X157648488Y-122144890D01*
X157658015Y-122167891D01*
X158010097Y-122826590D01*
X158023929Y-122847291D01*
X158497751Y-123424645D01*
X158515355Y-123442249D01*
X159092709Y-123916071D01*
X159113410Y-123929903D01*
X159772109Y-124281985D01*
X159795110Y-124291512D01*
X160509840Y-124508323D01*
X160534258Y-124513180D01*
X161277552Y-124586388D01*
X161290000Y-124587000D01*
X171443766Y-124587000D01*
X172168398Y-124658370D01*
X172859187Y-124867919D01*
X173495824Y-125208209D01*
X174053840Y-125666160D01*
X174511791Y-126224176D01*
X174852081Y-126860813D01*
X175061630Y-127551602D01*
X175084019Y-127778917D01*
X173847923Y-128290925D01*
X172890925Y-129247923D01*
X172373001Y-130498301D01*
X172373001Y-131851701D01*
X172890925Y-133102079D01*
X173847923Y-134059077D01*
X175098301Y-134577001D01*
X175133000Y-134577001D01*
X175133000Y-140298000D01*
X170026239Y-140298000D01*
X170121391Y-140036801D01*
X170082358Y-139136972D01*
X169813102Y-138486930D01*
X169443640Y-138350770D01*
X168109409Y-139685001D01*
X168123551Y-139699143D01*
X167854143Y-139968551D01*
X167840001Y-139954409D01*
X167825859Y-139968551D01*
X167556451Y-139699143D01*
X167570593Y-139685001D01*
X166236362Y-138350770D01*
X165866900Y-138486930D01*
X165558611Y-139333201D01*
X165597644Y-140233030D01*
X165624555Y-140298000D01*
X150896239Y-140298000D01*
X150991391Y-140036801D01*
X150952358Y-139136972D01*
X150683102Y-138486930D01*
X150313640Y-138350770D01*
X148979409Y-139685001D01*
X148993551Y-139699143D01*
X148724143Y-139968551D01*
X148710001Y-139954409D01*
X148695859Y-139968551D01*
X148426451Y-139699143D01*
X148440593Y-139685001D01*
X148426451Y-139670859D01*
X148695859Y-139401451D01*
X148710001Y-139415593D01*
X150044232Y-138081362D01*
X166505770Y-138081362D01*
X167840001Y-139415593D01*
X169174232Y-138081362D01*
X169038072Y-137711900D01*
X168191801Y-137403611D01*
X167291972Y-137442644D01*
X166641930Y-137711900D01*
X166505770Y-138081362D01*
X150044232Y-138081362D01*
X149908072Y-137711900D01*
X149061801Y-137403611D01*
X148161972Y-137442644D01*
X147511930Y-137711900D01*
X147447000Y-137888084D01*
X147447000Y-131779089D01*
X153573000Y-131779089D01*
X153573000Y-133420911D01*
X154201298Y-134937758D01*
X155362242Y-136098702D01*
X156879089Y-136727000D01*
X158520911Y-136727000D01*
X160037758Y-136098702D01*
X161198702Y-134937758D01*
X161827000Y-133420911D01*
X161827000Y-131779089D01*
X161198702Y-130262242D01*
X160037758Y-129101298D01*
X158520911Y-128473000D01*
X156879089Y-128473000D01*
X155362242Y-129101298D01*
X154201298Y-130262242D01*
X153573000Y-131779089D01*
X147447000Y-131779089D01*
X147447000Y-130810000D01*
X147446388Y-130797552D01*
X147373180Y-130054258D01*
X147368323Y-130029840D01*
X147151512Y-129315110D01*
X147141985Y-129292109D01*
X146789903Y-128633410D01*
X146776071Y-128612709D01*
X146302249Y-128035355D01*
X146284645Y-128017751D01*
X145707291Y-127543929D01*
X145686590Y-127530097D01*
X145027891Y-127178015D01*
X145004890Y-127168488D01*
X144290160Y-126951677D01*
X144265742Y-126946820D01*
X143522448Y-126873612D01*
X143510000Y-126873000D01*
X138436234Y-126873000D01*
X137711602Y-126801630D01*
X137020813Y-126592081D01*
X136384176Y-126251791D01*
X135826160Y-125793840D01*
X135368209Y-125235824D01*
X135027919Y-124599187D01*
X134818370Y-123908398D01*
X134747000Y-123183766D01*
X134747000Y-105718154D01*
X134746388Y-105705706D01*
X134673180Y-104962412D01*
X134668323Y-104937994D01*
X134451512Y-104223264D01*
X134441985Y-104200263D01*
X134089903Y-103541564D01*
X134076071Y-103520863D01*
X133602249Y-102943509D01*
X133593880Y-102934274D01*
X126935726Y-96276120D01*
X126926491Y-96267751D01*
X126349137Y-95793929D01*
X126328436Y-95780097D01*
X125669737Y-95428015D01*
X125646736Y-95418488D01*
X124932006Y-95201677D01*
X124907588Y-95196820D01*
X124491666Y-95155855D01*
X124097433Y-95036266D01*
X123784614Y-94974042D01*
X123041320Y-94900834D01*
X122889000Y-94893351D01*
X122889000Y-93412750D01*
X122666750Y-93190500D01*
X120190500Y-93190500D01*
X120190500Y-93210500D01*
X119809500Y-93210500D01*
X119809500Y-93190500D01*
X119789500Y-93190500D01*
X119789500Y-92809500D01*
X119809500Y-92809500D01*
X119809500Y-92789500D01*
X120190500Y-92789500D01*
X120190500Y-92809500D01*
X122666750Y-92809500D01*
X122889000Y-92587250D01*
X122889000Y-90823167D01*
X122753658Y-90496422D01*
X122503578Y-90246342D01*
X122176833Y-90111000D01*
X120412750Y-90111000D01*
X120190502Y-90333248D01*
X120190502Y-90157209D01*
X120655107Y-89692604D01*
X121232872Y-89329570D01*
X121876935Y-89104203D01*
X122562129Y-89027000D01*
X137203239Y-89027000D01*
X136948926Y-89196926D01*
G04 #@! TO.N,GND1*
G36*
X180341126Y-87900000D02*
X180467400Y-88534824D01*
X180826999Y-89073001D01*
X181365176Y-89432600D01*
X182000000Y-89558874D01*
X187000000Y-89558874D01*
X187634824Y-89432600D01*
X188173001Y-89073001D01*
X188532600Y-88534824D01*
X188658874Y-87900000D01*
X188658874Y-84070495D01*
X188838745Y-84145000D01*
X190281655Y-84145000D01*
X190759669Y-83947000D01*
X198941126Y-83947000D01*
X198941126Y-87900000D01*
X199067400Y-88534824D01*
X199426999Y-89073001D01*
X199965176Y-89432600D01*
X200600000Y-89558874D01*
X204298001Y-89558874D01*
X204298000Y-125841126D01*
X200600000Y-125841126D01*
X199965176Y-125967400D01*
X199426999Y-126326999D01*
X199067400Y-126865176D01*
X198941126Y-127500000D01*
X198941126Y-129413000D01*
X191249460Y-129413000D01*
X190937758Y-129101298D01*
X189420911Y-128473000D01*
X187779089Y-128473000D01*
X186437031Y-129028898D01*
X186265552Y-129028898D01*
X186487800Y-128806650D01*
X186487800Y-127292567D01*
X186352458Y-126965822D01*
X186102378Y-126715742D01*
X185775633Y-126580400D01*
X184261550Y-126580400D01*
X184039300Y-126802650D01*
X184039300Y-129028900D01*
X184059300Y-129028900D01*
X184059300Y-129409900D01*
X184039300Y-129409900D01*
X184039300Y-129413000D01*
X183658300Y-129413000D01*
X183658300Y-129409900D01*
X181432050Y-129409900D01*
X181428950Y-129413000D01*
X178727454Y-129413000D01*
X178659077Y-129247923D01*
X177702079Y-128290925D01*
X176862690Y-127943238D01*
X176805958Y-127367232D01*
X176791107Y-127292567D01*
X181209800Y-127292567D01*
X181209800Y-128806650D01*
X181432050Y-129028900D01*
X183658300Y-129028900D01*
X183658300Y-126802650D01*
X183436050Y-126580400D01*
X181921967Y-126580400D01*
X181595222Y-126715742D01*
X181345142Y-126965822D01*
X181209800Y-127292567D01*
X176791107Y-127292567D01*
X176743734Y-127054413D01*
X176526923Y-126339683D01*
X176404867Y-126045013D01*
X176052785Y-125386314D01*
X175875587Y-125121119D01*
X175401765Y-124543765D01*
X175176235Y-124318235D01*
X174598881Y-123844413D01*
X174333686Y-123667215D01*
X173674987Y-123315133D01*
X173380317Y-123193077D01*
X172665587Y-122976266D01*
X172352768Y-122914042D01*
X171609474Y-122840834D01*
X171450000Y-122833000D01*
X161369934Y-122833000D01*
X160865652Y-122783333D01*
X160457616Y-122659556D01*
X160081562Y-122458551D01*
X159751952Y-122188048D01*
X159481449Y-121858438D01*
X159280444Y-121482384D01*
X159156667Y-121074348D01*
X159107000Y-120570066D01*
X159107000Y-118110000D01*
X159099166Y-117950526D01*
X159025958Y-117207232D01*
X158963734Y-116894413D01*
X158746923Y-116179683D01*
X158624867Y-115885013D01*
X158272785Y-115226314D01*
X158095587Y-114961119D01*
X157621765Y-114383765D01*
X157396235Y-114158235D01*
X156818881Y-113684413D01*
X156553686Y-113507215D01*
X155894987Y-113155133D01*
X155600317Y-113033077D01*
X154885587Y-112816266D01*
X154572768Y-112754042D01*
X153829474Y-112680834D01*
X153670000Y-112673000D01*
X146129934Y-112673000D01*
X145625652Y-112623333D01*
X145217616Y-112499556D01*
X144841562Y-112298551D01*
X144511952Y-112028048D01*
X144241449Y-111698438D01*
X144040444Y-111322384D01*
X143916667Y-110914348D01*
X143867000Y-110410066D01*
X143867000Y-108000000D01*
X162841126Y-108000000D01*
X162841126Y-112000000D01*
X162967400Y-112634824D01*
X163326999Y-113173001D01*
X163865176Y-113532600D01*
X164500000Y-113658874D01*
X168500000Y-113658874D01*
X169134824Y-113532600D01*
X169673001Y-113173001D01*
X170032600Y-112634824D01*
X170158874Y-112000000D01*
X170158874Y-108000000D01*
X170032600Y-107365176D01*
X169673001Y-106826999D01*
X169134824Y-106467400D01*
X168500000Y-106341126D01*
X164500000Y-106341126D01*
X163865176Y-106467400D01*
X163326999Y-106826999D01*
X162967400Y-107365176D01*
X162841126Y-108000000D01*
X143867000Y-108000000D01*
X143867000Y-103412750D01*
X163611000Y-103412750D01*
X163611000Y-105176833D01*
X163746342Y-105503578D01*
X163996422Y-105753658D01*
X164323167Y-105889000D01*
X166087250Y-105889000D01*
X166309500Y-105666750D01*
X166309500Y-103190500D01*
X166690500Y-103190500D01*
X166690500Y-105666750D01*
X166912750Y-105889000D01*
X168676833Y-105889000D01*
X169003578Y-105753658D01*
X169253658Y-105503578D01*
X169389000Y-105176833D01*
X169389000Y-103412750D01*
X169166750Y-103190500D01*
X166690500Y-103190500D01*
X166309500Y-103190500D01*
X163833250Y-103190500D01*
X163611000Y-103412750D01*
X143867000Y-103412750D01*
X143867000Y-103302000D01*
X149184368Y-103302000D01*
X149352000Y-103335344D01*
X149519632Y-103302000D01*
X150016087Y-103203249D01*
X150579074Y-102827074D01*
X150955249Y-102264087D01*
X151087344Y-101600000D01*
X151054000Y-101432368D01*
X151054000Y-100823167D01*
X163611000Y-100823167D01*
X163611000Y-102587250D01*
X163833250Y-102809500D01*
X166309500Y-102809500D01*
X166309500Y-100333250D01*
X166690500Y-100333250D01*
X166690500Y-102809500D01*
X169166750Y-102809500D01*
X169197161Y-102779089D01*
X191573000Y-102779089D01*
X191573000Y-104420911D01*
X192201298Y-105937758D01*
X193362242Y-107098702D01*
X194879089Y-107727000D01*
X196520911Y-107727000D01*
X198037758Y-107098702D01*
X199198702Y-105937758D01*
X199827000Y-104420911D01*
X199827000Y-102779089D01*
X199198702Y-101262242D01*
X198037758Y-100101298D01*
X196520911Y-99473000D01*
X194879089Y-99473000D01*
X193362242Y-100101298D01*
X192201298Y-101262242D01*
X191573000Y-102779089D01*
X169197161Y-102779089D01*
X169389000Y-102587250D01*
X169389000Y-100823167D01*
X169253658Y-100496422D01*
X169003578Y-100246342D01*
X168676833Y-100111000D01*
X166912750Y-100111000D01*
X166690500Y-100333250D01*
X166309500Y-100333250D01*
X166087250Y-100111000D01*
X164323167Y-100111000D01*
X163996422Y-100246342D01*
X163746342Y-100496422D01*
X163611000Y-100823167D01*
X151054000Y-100823167D01*
X151054000Y-90591632D01*
X151087344Y-90424000D01*
X150955249Y-89759913D01*
X150579074Y-89196926D01*
X150016087Y-88820751D01*
X149519632Y-88722000D01*
X149352000Y-88688656D01*
X149184368Y-88722000D01*
X142112083Y-88722000D01*
X141643100Y-88337116D01*
X141643100Y-87987000D01*
X171450000Y-87987000D01*
X171609474Y-87979166D01*
X172352768Y-87905958D01*
X172665587Y-87843734D01*
X173380317Y-87626923D01*
X173674987Y-87504867D01*
X174333686Y-87152785D01*
X174598881Y-86975587D01*
X175176235Y-86501765D01*
X175401765Y-86276235D01*
X175875587Y-85698881D01*
X176052785Y-85433686D01*
X176404867Y-84774987D01*
X176526923Y-84480317D01*
X176688703Y-83947000D01*
X180341126Y-83947000D01*
X180341126Y-87900000D01*
X180341126Y-87900000D01*
G37*
X180341126Y-87900000D02*
X180467400Y-88534824D01*
X180826999Y-89073001D01*
X181365176Y-89432600D01*
X182000000Y-89558874D01*
X187000000Y-89558874D01*
X187634824Y-89432600D01*
X188173001Y-89073001D01*
X188532600Y-88534824D01*
X188658874Y-87900000D01*
X188658874Y-84070495D01*
X188838745Y-84145000D01*
X190281655Y-84145000D01*
X190759669Y-83947000D01*
X198941126Y-83947000D01*
X198941126Y-87900000D01*
X199067400Y-88534824D01*
X199426999Y-89073001D01*
X199965176Y-89432600D01*
X200600000Y-89558874D01*
X204298001Y-89558874D01*
X204298000Y-125841126D01*
X200600000Y-125841126D01*
X199965176Y-125967400D01*
X199426999Y-126326999D01*
X199067400Y-126865176D01*
X198941126Y-127500000D01*
X198941126Y-129413000D01*
X191249460Y-129413000D01*
X190937758Y-129101298D01*
X189420911Y-128473000D01*
X187779089Y-128473000D01*
X186437031Y-129028898D01*
X186265552Y-129028898D01*
X186487800Y-128806650D01*
X186487800Y-127292567D01*
X186352458Y-126965822D01*
X186102378Y-126715742D01*
X185775633Y-126580400D01*
X184261550Y-126580400D01*
X184039300Y-126802650D01*
X184039300Y-129028900D01*
X184059300Y-129028900D01*
X184059300Y-129409900D01*
X184039300Y-129409900D01*
X184039300Y-129413000D01*
X183658300Y-129413000D01*
X183658300Y-129409900D01*
X181432050Y-129409900D01*
X181428950Y-129413000D01*
X178727454Y-129413000D01*
X178659077Y-129247923D01*
X177702079Y-128290925D01*
X176862690Y-127943238D01*
X176805958Y-127367232D01*
X176791107Y-127292567D01*
X181209800Y-127292567D01*
X181209800Y-128806650D01*
X181432050Y-129028900D01*
X183658300Y-129028900D01*
X183658300Y-126802650D01*
X183436050Y-126580400D01*
X181921967Y-126580400D01*
X181595222Y-126715742D01*
X181345142Y-126965822D01*
X181209800Y-127292567D01*
X176791107Y-127292567D01*
X176743734Y-127054413D01*
X176526923Y-126339683D01*
X176404867Y-126045013D01*
X176052785Y-125386314D01*
X175875587Y-125121119D01*
X175401765Y-124543765D01*
X175176235Y-124318235D01*
X174598881Y-123844413D01*
X174333686Y-123667215D01*
X173674987Y-123315133D01*
X173380317Y-123193077D01*
X172665587Y-122976266D01*
X172352768Y-122914042D01*
X171609474Y-122840834D01*
X171450000Y-122833000D01*
X161369934Y-122833000D01*
X160865652Y-122783333D01*
X160457616Y-122659556D01*
X160081562Y-122458551D01*
X159751952Y-122188048D01*
X159481449Y-121858438D01*
X159280444Y-121482384D01*
X159156667Y-121074348D01*
X159107000Y-120570066D01*
X159107000Y-118110000D01*
X159099166Y-117950526D01*
X159025958Y-117207232D01*
X158963734Y-116894413D01*
X158746923Y-116179683D01*
X158624867Y-115885013D01*
X158272785Y-115226314D01*
X158095587Y-114961119D01*
X157621765Y-114383765D01*
X157396235Y-114158235D01*
X156818881Y-113684413D01*
X156553686Y-113507215D01*
X155894987Y-113155133D01*
X155600317Y-113033077D01*
X154885587Y-112816266D01*
X154572768Y-112754042D01*
X153829474Y-112680834D01*
X153670000Y-112673000D01*
X146129934Y-112673000D01*
X145625652Y-112623333D01*
X145217616Y-112499556D01*
X144841562Y-112298551D01*
X144511952Y-112028048D01*
X144241449Y-111698438D01*
X144040444Y-111322384D01*
X143916667Y-110914348D01*
X143867000Y-110410066D01*
X143867000Y-108000000D01*
X162841126Y-108000000D01*
X162841126Y-112000000D01*
X162967400Y-112634824D01*
X163326999Y-113173001D01*
X163865176Y-113532600D01*
X164500000Y-113658874D01*
X168500000Y-113658874D01*
X169134824Y-113532600D01*
X169673001Y-113173001D01*
X170032600Y-112634824D01*
X170158874Y-112000000D01*
X170158874Y-108000000D01*
X170032600Y-107365176D01*
X169673001Y-106826999D01*
X169134824Y-106467400D01*
X168500000Y-106341126D01*
X164500000Y-106341126D01*
X163865176Y-106467400D01*
X163326999Y-106826999D01*
X162967400Y-107365176D01*
X162841126Y-108000000D01*
X143867000Y-108000000D01*
X143867000Y-103412750D01*
X163611000Y-103412750D01*
X163611000Y-105176833D01*
X163746342Y-105503578D01*
X163996422Y-105753658D01*
X164323167Y-105889000D01*
X166087250Y-105889000D01*
X166309500Y-105666750D01*
X166309500Y-103190500D01*
X166690500Y-103190500D01*
X166690500Y-105666750D01*
X166912750Y-105889000D01*
X168676833Y-105889000D01*
X169003578Y-105753658D01*
X169253658Y-105503578D01*
X169389000Y-105176833D01*
X169389000Y-103412750D01*
X169166750Y-103190500D01*
X166690500Y-103190500D01*
X166309500Y-103190500D01*
X163833250Y-103190500D01*
X163611000Y-103412750D01*
X143867000Y-103412750D01*
X143867000Y-103302000D01*
X149184368Y-103302000D01*
X149352000Y-103335344D01*
X149519632Y-103302000D01*
X150016087Y-103203249D01*
X150579074Y-102827074D01*
X150955249Y-102264087D01*
X151087344Y-101600000D01*
X151054000Y-101432368D01*
X151054000Y-100823167D01*
X163611000Y-100823167D01*
X163611000Y-102587250D01*
X163833250Y-102809500D01*
X166309500Y-102809500D01*
X166309500Y-100333250D01*
X166690500Y-100333250D01*
X166690500Y-102809500D01*
X169166750Y-102809500D01*
X169197161Y-102779089D01*
X191573000Y-102779089D01*
X191573000Y-104420911D01*
X192201298Y-105937758D01*
X193362242Y-107098702D01*
X194879089Y-107727000D01*
X196520911Y-107727000D01*
X198037758Y-107098702D01*
X199198702Y-105937758D01*
X199827000Y-104420911D01*
X199827000Y-102779089D01*
X199198702Y-101262242D01*
X198037758Y-100101298D01*
X196520911Y-99473000D01*
X194879089Y-99473000D01*
X193362242Y-100101298D01*
X192201298Y-101262242D01*
X191573000Y-102779089D01*
X169197161Y-102779089D01*
X169389000Y-102587250D01*
X169389000Y-100823167D01*
X169253658Y-100496422D01*
X169003578Y-100246342D01*
X168676833Y-100111000D01*
X166912750Y-100111000D01*
X166690500Y-100333250D01*
X166309500Y-100333250D01*
X166087250Y-100111000D01*
X164323167Y-100111000D01*
X163996422Y-100246342D01*
X163746342Y-100496422D01*
X163611000Y-100823167D01*
X151054000Y-100823167D01*
X151054000Y-90591632D01*
X151087344Y-90424000D01*
X150955249Y-89759913D01*
X150579074Y-89196926D01*
X150016087Y-88820751D01*
X149519632Y-88722000D01*
X149352000Y-88688656D01*
X149184368Y-88722000D01*
X142112083Y-88722000D01*
X141643100Y-88337116D01*
X141643100Y-87987000D01*
X171450000Y-87987000D01*
X171609474Y-87979166D01*
X172352768Y-87905958D01*
X172665587Y-87843734D01*
X173380317Y-87626923D01*
X173674987Y-87504867D01*
X174333686Y-87152785D01*
X174598881Y-86975587D01*
X175176235Y-86501765D01*
X175401765Y-86276235D01*
X175875587Y-85698881D01*
X176052785Y-85433686D01*
X176404867Y-84774987D01*
X176526923Y-84480317D01*
X176688703Y-83947000D01*
X180341126Y-83947000D01*
X180341126Y-87900000D01*
G04 #@! TD*
M02*
