G04 #@! TF.GenerationSoftware,KiCad,Pcbnew,(5.0.2)-1*
G04 #@! TF.CreationDate,2019-05-03T13:20:24-04:00*
G04 #@! TF.ProjectId,2p3s-pwr-pack,32703373-2d70-4777-922d-7061636b2e6b,V1*
G04 #@! TF.SameCoordinates,Original*
G04 #@! TF.FileFunction,Legend,Bot*
G04 #@! TF.FilePolarity,Positive*
%FSLAX46Y46*%
G04 Gerber Fmt 4.6, Leading zero omitted, Abs format (unit mm)*
G04 Created by KiCad (PCBNEW (5.0.2)-1) date 5/3/2019 1:20:24 PM*
%MOMM*%
%LPD*%
G01*
G04 APERTURE LIST*
%ADD10C,0.300000*%
%ADD11C,0.150000*%
%ADD12C,0.100000*%
G04 APERTURE END LIST*
D10*
X85142257Y-99287671D02*
X84856542Y-99287671D01*
X84713685Y-99359100D01*
X84570828Y-99501957D01*
X84499400Y-99787671D01*
X84499400Y-100287671D01*
X84570828Y-100573385D01*
X84713685Y-100716242D01*
X84856542Y-100787671D01*
X85142257Y-100787671D01*
X85285114Y-100716242D01*
X85427971Y-100573385D01*
X85499400Y-100287671D01*
X85499400Y-99787671D01*
X85427971Y-99501957D01*
X85285114Y-99359100D01*
X85142257Y-99287671D01*
X83856542Y-100787671D02*
X83856542Y-99287671D01*
X83285114Y-99287671D01*
X83142257Y-99359100D01*
X83070828Y-99430528D01*
X82999400Y-99573385D01*
X82999400Y-99787671D01*
X83070828Y-99930528D01*
X83142257Y-100001957D01*
X83285114Y-100073385D01*
X83856542Y-100073385D01*
X82356542Y-100001957D02*
X81856542Y-100001957D01*
X81642257Y-100787671D02*
X82356542Y-100787671D01*
X82356542Y-99287671D01*
X81642257Y-99287671D01*
X80999400Y-100787671D02*
X80999400Y-99287671D01*
X80142257Y-100787671D01*
X80142257Y-99287671D01*
X78356542Y-100716242D02*
X78142257Y-100787671D01*
X77785114Y-100787671D01*
X77642257Y-100716242D01*
X77570828Y-100644814D01*
X77499400Y-100501957D01*
X77499400Y-100359100D01*
X77570828Y-100216242D01*
X77642257Y-100144814D01*
X77785114Y-100073385D01*
X78070828Y-100001957D01*
X78213685Y-99930528D01*
X78285114Y-99859100D01*
X78356542Y-99716242D01*
X78356542Y-99573385D01*
X78285114Y-99430528D01*
X78213685Y-99359100D01*
X78070828Y-99287671D01*
X77713685Y-99287671D01*
X77499400Y-99359100D01*
X76570828Y-99287671D02*
X76285114Y-99287671D01*
X76142257Y-99359100D01*
X75999400Y-99501957D01*
X75927971Y-99787671D01*
X75927971Y-100287671D01*
X75999400Y-100573385D01*
X76142257Y-100716242D01*
X76285114Y-100787671D01*
X76570828Y-100787671D01*
X76713685Y-100716242D01*
X76856542Y-100573385D01*
X76927971Y-100287671D01*
X76927971Y-99787671D01*
X76856542Y-99501957D01*
X76713685Y-99359100D01*
X76570828Y-99287671D01*
X75285114Y-99287671D02*
X75285114Y-100501957D01*
X75213685Y-100644814D01*
X75142257Y-100716242D01*
X74999400Y-100787671D01*
X74713685Y-100787671D01*
X74570828Y-100716242D01*
X74499400Y-100644814D01*
X74427971Y-100501957D01*
X74427971Y-99287671D01*
X72856542Y-100787671D02*
X73356542Y-100073385D01*
X73713685Y-100787671D02*
X73713685Y-99287671D01*
X73142257Y-99287671D01*
X72999400Y-99359100D01*
X72927971Y-99430528D01*
X72856542Y-99573385D01*
X72856542Y-99787671D01*
X72927971Y-99930528D01*
X72999400Y-100001957D01*
X73142257Y-100073385D01*
X73713685Y-100073385D01*
X71356542Y-100644814D02*
X71427971Y-100716242D01*
X71642257Y-100787671D01*
X71785114Y-100787671D01*
X71999400Y-100716242D01*
X72142257Y-100573385D01*
X72213685Y-100430528D01*
X72285114Y-100144814D01*
X72285114Y-99930528D01*
X72213685Y-99644814D01*
X72142257Y-99501957D01*
X71999400Y-99359100D01*
X71785114Y-99287671D01*
X71642257Y-99287671D01*
X71427971Y-99359100D01*
X71356542Y-99430528D01*
X70713685Y-100001957D02*
X70213685Y-100001957D01*
X69999400Y-100787671D02*
X70713685Y-100787671D01*
X70713685Y-99287671D01*
X69999400Y-99287671D01*
X83249400Y-103337671D02*
X83249400Y-101837671D01*
X83249400Y-102551957D02*
X82392257Y-102551957D01*
X82392257Y-103337671D02*
X82392257Y-101837671D01*
X81749400Y-102909100D02*
X81035114Y-102909100D01*
X81892257Y-103337671D02*
X81392257Y-101837671D01*
X80892257Y-103337671D01*
X79535114Y-103337671D02*
X80035114Y-102623385D01*
X80392257Y-103337671D02*
X80392257Y-101837671D01*
X79820828Y-101837671D01*
X79677971Y-101909100D01*
X79606542Y-101980528D01*
X79535114Y-102123385D01*
X79535114Y-102337671D01*
X79606542Y-102480528D01*
X79677971Y-102551957D01*
X79820828Y-102623385D01*
X80392257Y-102623385D01*
X78892257Y-103337671D02*
X78892257Y-101837671D01*
X78535114Y-101837671D01*
X78320828Y-101909100D01*
X78177971Y-102051957D01*
X78106542Y-102194814D01*
X78035114Y-102480528D01*
X78035114Y-102694814D01*
X78106542Y-102980528D01*
X78177971Y-103123385D01*
X78320828Y-103266242D01*
X78535114Y-103337671D01*
X78892257Y-103337671D01*
X77535114Y-101837671D02*
X77177971Y-103337671D01*
X76892257Y-102266242D01*
X76606542Y-103337671D01*
X76249400Y-101837671D01*
X75749400Y-102909100D02*
X75035114Y-102909100D01*
X75892257Y-103337671D02*
X75392257Y-101837671D01*
X74892257Y-103337671D01*
X73535114Y-103337671D02*
X74035114Y-102623385D01*
X74392257Y-103337671D02*
X74392257Y-101837671D01*
X73820828Y-101837671D01*
X73677971Y-101909100D01*
X73606542Y-101980528D01*
X73535114Y-102123385D01*
X73535114Y-102337671D01*
X73606542Y-102480528D01*
X73677971Y-102551957D01*
X73820828Y-102623385D01*
X74392257Y-102623385D01*
X72892257Y-102551957D02*
X72392257Y-102551957D01*
X72177971Y-103337671D02*
X72892257Y-103337671D01*
X72892257Y-101837671D01*
X72177971Y-101837671D01*
X192735104Y-81854657D02*
X191211295Y-81854657D01*
D11*
X186832571Y-78486428D02*
X186832571Y-77886428D01*
X186689714Y-77886428D01*
X186604000Y-77915000D01*
X186546857Y-77972142D01*
X186518285Y-78029285D01*
X186489714Y-78143571D01*
X186489714Y-78229285D01*
X186518285Y-78343571D01*
X186546857Y-78400714D01*
X186604000Y-78457857D01*
X186689714Y-78486428D01*
X186832571Y-78486428D01*
X186118285Y-77886428D02*
X186004000Y-77886428D01*
X185946857Y-77915000D01*
X185889714Y-77972142D01*
X185861142Y-78086428D01*
X185861142Y-78286428D01*
X185889714Y-78400714D01*
X185946857Y-78457857D01*
X186004000Y-78486428D01*
X186118285Y-78486428D01*
X186175428Y-78457857D01*
X186232571Y-78400714D01*
X186261142Y-78286428D01*
X186261142Y-78086428D01*
X186232571Y-77972142D01*
X186175428Y-77915000D01*
X186118285Y-77886428D01*
X185146857Y-78486428D02*
X185146857Y-77886428D01*
X184804000Y-78486428D01*
X184804000Y-77886428D01*
X184404000Y-77886428D02*
X184289714Y-77886428D01*
X184232571Y-77915000D01*
X184175428Y-77972142D01*
X184146857Y-78086428D01*
X184146857Y-78286428D01*
X184175428Y-78400714D01*
X184232571Y-78457857D01*
X184289714Y-78486428D01*
X184404000Y-78486428D01*
X184461142Y-78457857D01*
X184518285Y-78400714D01*
X184546857Y-78286428D01*
X184546857Y-78086428D01*
X184518285Y-77972142D01*
X184461142Y-77915000D01*
X184404000Y-77886428D01*
X183975428Y-77886428D02*
X183632571Y-77886428D01*
X183804000Y-78486428D02*
X183804000Y-77886428D01*
X183061142Y-77886428D02*
X182718285Y-77886428D01*
X182889714Y-78486428D02*
X182889714Y-77886428D01*
X182518285Y-78486428D02*
X182518285Y-77886428D01*
X182232571Y-78172142D02*
X182032571Y-78172142D01*
X181946857Y-78486428D02*
X182232571Y-78486428D01*
X182232571Y-77886428D01*
X181946857Y-77886428D01*
X186032571Y-78936428D02*
X185689714Y-78936428D01*
X185861142Y-79536428D02*
X185861142Y-78936428D01*
X185375428Y-78936428D02*
X185261142Y-78936428D01*
X185204000Y-78965000D01*
X185146857Y-79022142D01*
X185118285Y-79136428D01*
X185118285Y-79336428D01*
X185146857Y-79450714D01*
X185204000Y-79507857D01*
X185261142Y-79536428D01*
X185375428Y-79536428D01*
X185432571Y-79507857D01*
X185489714Y-79450714D01*
X185518285Y-79336428D01*
X185518285Y-79136428D01*
X185489714Y-79022142D01*
X185432571Y-78965000D01*
X185375428Y-78936428D01*
X184089714Y-78965000D02*
X184146857Y-78936428D01*
X184232571Y-78936428D01*
X184318285Y-78965000D01*
X184375428Y-79022142D01*
X184404000Y-79079285D01*
X184432571Y-79193571D01*
X184432571Y-79279285D01*
X184404000Y-79393571D01*
X184375428Y-79450714D01*
X184318285Y-79507857D01*
X184232571Y-79536428D01*
X184175428Y-79536428D01*
X184089714Y-79507857D01*
X184061142Y-79479285D01*
X184061142Y-79279285D01*
X184175428Y-79279285D01*
X183804000Y-79536428D02*
X183804000Y-78936428D01*
X183461142Y-79536428D01*
X183461142Y-78936428D01*
X183175428Y-79536428D02*
X183175428Y-78936428D01*
X183032571Y-78936428D01*
X182946857Y-78965000D01*
X182889714Y-79022142D01*
X182861142Y-79079285D01*
X182832571Y-79193571D01*
X182832571Y-79279285D01*
X182861142Y-79393571D01*
X182889714Y-79450714D01*
X182946857Y-79507857D01*
X183032571Y-79536428D01*
X183175428Y-79536428D01*
D10*
X185959528Y-80495857D02*
X185559528Y-81695857D01*
X185159528Y-80495857D01*
X185045242Y-81810142D02*
X184130957Y-81810142D01*
X183845242Y-81695857D02*
X183845242Y-80495857D01*
X183273814Y-81695857D02*
X183273814Y-80495857D01*
X182588100Y-81695857D01*
X182588100Y-80495857D01*
X114150876Y-105578257D02*
X114436590Y-105483019D01*
X114531828Y-105387780D01*
X114627066Y-105197304D01*
X114627066Y-104911590D01*
X114531828Y-104721114D01*
X114436590Y-104625876D01*
X114246114Y-104530638D01*
X113484209Y-104530638D01*
X113484209Y-106530638D01*
X114150876Y-106530638D01*
X114341352Y-106435400D01*
X114436590Y-106340161D01*
X114531828Y-106149685D01*
X114531828Y-105959209D01*
X114436590Y-105768733D01*
X114341352Y-105673495D01*
X114150876Y-105578257D01*
X113484209Y-105578257D01*
X115293733Y-106530638D02*
X116531828Y-106530638D01*
X115865161Y-105768733D01*
X116150876Y-105768733D01*
X116341352Y-105673495D01*
X116436590Y-105578257D01*
X116531828Y-105387780D01*
X116531828Y-104911590D01*
X116436590Y-104721114D01*
X116341352Y-104625876D01*
X116150876Y-104530638D01*
X115579447Y-104530638D01*
X115388971Y-104625876D01*
X115293733Y-104721114D01*
X157657561Y-68505342D02*
X153848038Y-68505342D01*
X155752800Y-70410104D02*
X155752800Y-66600580D01*
X168731961Y-68505342D02*
X164922438Y-68505342D01*
X166827200Y-70410104D02*
X166827200Y-66600580D01*
X116458761Y-67921142D02*
X112649238Y-67921142D01*
X114554000Y-69825904D02*
X114554000Y-66016380D01*
X127533161Y-67921142D02*
X123723638Y-67921142D01*
X125628400Y-69825904D02*
X125628400Y-66016380D01*
X86613761Y-67921142D02*
X82804238Y-67921142D01*
X84709000Y-69825904D02*
X84709000Y-66016380D01*
X75539361Y-67921142D02*
X71729838Y-67921142D01*
X73634600Y-69825904D02*
X73634600Y-66016380D01*
X84864471Y-110525642D02*
X84721614Y-110597071D01*
X84435900Y-110597071D01*
X84293042Y-110525642D01*
X84221614Y-110382785D01*
X84221614Y-110311357D01*
X84293042Y-110168500D01*
X84435900Y-110097071D01*
X84650185Y-110097071D01*
X84793042Y-110025642D01*
X84864471Y-109882785D01*
X84864471Y-109811357D01*
X84793042Y-109668500D01*
X84650185Y-109597071D01*
X84435900Y-109597071D01*
X84293042Y-109668500D01*
X83007328Y-110525642D02*
X83150185Y-110597071D01*
X83435900Y-110597071D01*
X83578757Y-110525642D01*
X83650185Y-110382785D01*
X83650185Y-109811357D01*
X83578757Y-109668500D01*
X83435900Y-109597071D01*
X83150185Y-109597071D01*
X83007328Y-109668500D01*
X82935900Y-109811357D01*
X82935900Y-109954214D01*
X83650185Y-110097071D01*
X82293042Y-109597071D02*
X82293042Y-110597071D01*
X82293042Y-109739928D02*
X82221614Y-109668500D01*
X82078757Y-109597071D01*
X81864471Y-109597071D01*
X81721614Y-109668500D01*
X81650185Y-109811357D01*
X81650185Y-110597071D01*
X81007328Y-110525642D02*
X80864471Y-110597071D01*
X80578757Y-110597071D01*
X80435900Y-110525642D01*
X80364471Y-110382785D01*
X80364471Y-110311357D01*
X80435900Y-110168500D01*
X80578757Y-110097071D01*
X80793042Y-110097071D01*
X80935900Y-110025642D01*
X81007328Y-109882785D01*
X81007328Y-109811357D01*
X80935900Y-109668500D01*
X80793042Y-109597071D01*
X80578757Y-109597071D01*
X80435900Y-109668500D01*
X79507328Y-110597071D02*
X79650185Y-110525642D01*
X79721614Y-110454214D01*
X79793042Y-110311357D01*
X79793042Y-109882785D01*
X79721614Y-109739928D01*
X79650185Y-109668500D01*
X79507328Y-109597071D01*
X79293042Y-109597071D01*
X79150185Y-109668500D01*
X79078757Y-109739928D01*
X79007328Y-109882785D01*
X79007328Y-110311357D01*
X79078757Y-110454214D01*
X79150185Y-110525642D01*
X79293042Y-110597071D01*
X79507328Y-110597071D01*
X78364471Y-110597071D02*
X78364471Y-109597071D01*
X78364471Y-109882785D02*
X78293042Y-109739928D01*
X78221614Y-109668500D01*
X78078757Y-109597071D01*
X77935900Y-109597071D01*
X76793042Y-110597071D02*
X76793042Y-109811357D01*
X76864471Y-109668500D01*
X77007328Y-109597071D01*
X77293042Y-109597071D01*
X77435900Y-109668500D01*
X76793042Y-110525642D02*
X76935900Y-110597071D01*
X77293042Y-110597071D01*
X77435900Y-110525642D01*
X77507328Y-110382785D01*
X77507328Y-110239928D01*
X77435900Y-110097071D01*
X77293042Y-110025642D01*
X76935900Y-110025642D01*
X76793042Y-109954214D01*
X76078757Y-110597071D02*
X76078757Y-109097071D01*
X76078757Y-109668500D02*
X75935900Y-109597071D01*
X75650185Y-109597071D01*
X75507328Y-109668500D01*
X75435900Y-109739928D01*
X75364471Y-109882785D01*
X75364471Y-110311357D01*
X75435900Y-110454214D01*
X75507328Y-110525642D01*
X75650185Y-110597071D01*
X75935900Y-110597071D01*
X76078757Y-110525642D01*
X74507328Y-110597071D02*
X74650185Y-110525642D01*
X74721614Y-110382785D01*
X74721614Y-109097071D01*
X73364471Y-110525642D02*
X73507328Y-110597071D01*
X73793042Y-110597071D01*
X73935900Y-110525642D01*
X74007328Y-110382785D01*
X74007328Y-109811357D01*
X73935900Y-109668500D01*
X73793042Y-109597071D01*
X73507328Y-109597071D01*
X73364471Y-109668500D01*
X73293042Y-109811357D01*
X73293042Y-109954214D01*
X74007328Y-110097071D01*
X72650185Y-110454214D02*
X72578757Y-110525642D01*
X72650185Y-110597071D01*
X72721614Y-110525642D01*
X72650185Y-110454214D01*
X72650185Y-110597071D01*
X71935900Y-110597071D02*
X71935900Y-109597071D01*
X71935900Y-109097071D02*
X72007328Y-109168500D01*
X71935900Y-109239928D01*
X71864471Y-109168500D01*
X71935900Y-109097071D01*
X71935900Y-109239928D01*
X71007328Y-110597071D02*
X71150185Y-110525642D01*
X71221614Y-110454214D01*
X71293042Y-110311357D01*
X71293042Y-109882785D01*
X71221614Y-109739928D01*
X71150185Y-109668500D01*
X71007328Y-109597071D01*
X70793042Y-109597071D01*
X70650185Y-109668500D01*
X70578757Y-109739928D01*
X70507328Y-109882785D01*
X70507328Y-110311357D01*
X70578757Y-110454214D01*
X70650185Y-110525642D01*
X70793042Y-110597071D01*
X71007328Y-110597071D01*
X75604081Y-97527715D02*
G75*
G03X75656235Y-97532700I29096J29096D01*
G01*
X75656235Y-97532700D02*
X76301097Y-97096419D01*
X76686962Y-97191478D02*
X77226794Y-95869346D01*
X76339901Y-97092484D02*
G75*
G03X76301097Y-97096419I-15747J-38016D01*
G01*
X75053116Y-96976750D02*
X75604081Y-97527715D01*
X75484412Y-96279734D02*
X75048131Y-96924596D01*
X77226795Y-95869347D02*
G75*
G03X77205904Y-95816413I-38096J15555D01*
G01*
X74395048Y-95388036D02*
G75*
G03X74428402Y-95428438I41148J1D01*
G01*
X76633121Y-97213940D02*
G75*
G03X76686962Y-97191478I15746J38016D01*
G01*
X74428402Y-95428438D02*
X75192885Y-95575927D01*
X75484412Y-96279734D02*
G75*
G03X75488347Y-96240930I-34081J23057D01*
G01*
X76339901Y-97092484D02*
X76633121Y-97213940D01*
X75223106Y-95600583D02*
G75*
G03X75192885Y-95575927I-38015J-15747D01*
G01*
X75223106Y-95600583D02*
X75488347Y-96240930D01*
X75048130Y-96924596D02*
G75*
G03X75053116Y-96976750I34082J-23057D01*
G01*
X78824875Y-92904403D02*
G75*
G03X78863679Y-92900467I15746J38016D01*
G01*
X75192885Y-94420960D02*
X74428402Y-94568449D01*
X79680363Y-93717152D02*
X80116645Y-93072290D01*
X79971890Y-95575927D02*
G75*
G03X79941669Y-95600583I7795J-40403D01*
G01*
X79680364Y-93717153D02*
G75*
G03X79676429Y-93755956I34080J-23057D01*
G01*
X80736374Y-94568449D02*
X79971890Y-94420960D01*
X76980247Y-92639162D02*
G75*
G03X77004904Y-92608941I-15746J38016D01*
G01*
X75192885Y-94420959D02*
G75*
G03X75223106Y-94396304I-7794J40402D01*
G01*
X75488347Y-93755956D02*
X75223106Y-94396304D01*
X75488347Y-93755956D02*
G75*
G03X75484412Y-93717152I-38016J15746D01*
G01*
X76301097Y-92900467D02*
X75656235Y-92464186D01*
X78012382Y-91844457D02*
G75*
G03X77971979Y-91811104I-40403J-7795D01*
G01*
X79971890Y-95575927D02*
X80736374Y-95428438D01*
X78531655Y-97213940D02*
X78824874Y-97092484D01*
X79508541Y-97532700D02*
G75*
G03X79560694Y-97527715I23057J34081D01*
G01*
X75048131Y-93072290D02*
X75484412Y-93717152D01*
X75604081Y-92469171D02*
X75053116Y-93020137D01*
X75656234Y-92464186D02*
G75*
G03X75604081Y-92469171I-23057J-34081D01*
G01*
X77152393Y-91844457D02*
X77004904Y-92608941D01*
X76301098Y-92900467D02*
G75*
G03X76339901Y-92904402I23056J34080D01*
G01*
X76980248Y-92639162D02*
X76339901Y-92904402D01*
X77192796Y-91811104D02*
G75*
G03X77152393Y-91844457I0J-41148D01*
G01*
X80736374Y-95428438D02*
G75*
G03X80769727Y-95388035I-7795J40403D01*
G01*
X80116645Y-96924596D02*
X79680363Y-96279734D01*
X77971979Y-91811104D02*
X77192796Y-91811104D01*
X80116645Y-93072290D02*
G75*
G03X80111660Y-93020137I-34081J23057D01*
G01*
X78159871Y-92608941D02*
X78012382Y-91844457D01*
X78159871Y-92608941D02*
G75*
G03X78184527Y-92639162I40403J7795D01*
G01*
X77937981Y-95869346D02*
X78477813Y-97191478D01*
X79560694Y-92469171D02*
G75*
G03X79508540Y-92464186I-29096J-29096D01*
G01*
X78863678Y-97096419D02*
G75*
G03X78824874Y-97092484I-23057J-34081D01*
G01*
X79676428Y-96240930D02*
G75*
G03X79680363Y-96279734I38016J-15747D01*
G01*
X79508540Y-92464186D02*
X78863679Y-92900467D01*
X80111660Y-93020137D02*
X79560694Y-92469171D01*
X79941669Y-94396304D02*
X79676429Y-93755956D01*
X79941669Y-94396303D02*
G75*
G03X79971890Y-94420960I38016J15746D01*
G01*
X80769727Y-94608852D02*
G75*
G03X80736374Y-94568449I-41148J0D01*
G01*
X80769727Y-95388035D02*
X80769727Y-94608852D01*
X79560694Y-97527715D02*
X80111660Y-96976750D01*
X77958872Y-95816413D02*
G75*
G03X77937981Y-95869346I17204J-37379D01*
G01*
X80111660Y-96976749D02*
G75*
G03X80116645Y-96924596I-29096J29096D01*
G01*
X79676429Y-96240930D02*
X79941669Y-95600583D01*
X78863679Y-97096419D02*
X79508540Y-97532700D01*
X78477813Y-97191479D02*
G75*
G03X78531655Y-97213940I38095J15555D01*
G01*
X75053116Y-93020137D02*
G75*
G03X75048131Y-93072290I29096J-29096D01*
G01*
X78824874Y-92904402D02*
X78184527Y-92639162D01*
X74395048Y-94608852D02*
X74395048Y-95388035D01*
X74428401Y-94568449D02*
G75*
G03X74395048Y-94608852I7795J-40403D01*
G01*
X77958872Y-95816413D02*
G75*
G03X77205904Y-95816413I-376484J817970D01*
G01*
X92706514Y-87170571D02*
X92206514Y-88670571D01*
X91706514Y-87170571D01*
X90635085Y-88599142D02*
X90777942Y-88670571D01*
X91063657Y-88670571D01*
X91206514Y-88599142D01*
X91277942Y-88456285D01*
X91277942Y-87884857D01*
X91206514Y-87742000D01*
X91063657Y-87670571D01*
X90777942Y-87670571D01*
X90635085Y-87742000D01*
X90563657Y-87884857D01*
X90563657Y-88027714D01*
X91277942Y-88170571D01*
X89920800Y-88670571D02*
X89920800Y-87670571D01*
X89920800Y-87956285D02*
X89849371Y-87813428D01*
X89777942Y-87742000D01*
X89635085Y-87670571D01*
X89492228Y-87670571D01*
X89063657Y-88599142D02*
X88920800Y-88670571D01*
X88635085Y-88670571D01*
X88492228Y-88599142D01*
X88420800Y-88456285D01*
X88420800Y-88384857D01*
X88492228Y-88242000D01*
X88635085Y-88170571D01*
X88849371Y-88170571D01*
X88992228Y-88099142D01*
X89063657Y-87956285D01*
X89063657Y-87884857D01*
X88992228Y-87742000D01*
X88849371Y-87670571D01*
X88635085Y-87670571D01*
X88492228Y-87742000D01*
X87777942Y-88670571D02*
X87777942Y-87670571D01*
X87777942Y-87170571D02*
X87849371Y-87242000D01*
X87777942Y-87313428D01*
X87706514Y-87242000D01*
X87777942Y-87170571D01*
X87777942Y-87313428D01*
X86849371Y-88670571D02*
X86992228Y-88599142D01*
X87063657Y-88527714D01*
X87135085Y-88384857D01*
X87135085Y-87956285D01*
X87063657Y-87813428D01*
X86992228Y-87742000D01*
X86849371Y-87670571D01*
X86635085Y-87670571D01*
X86492228Y-87742000D01*
X86420800Y-87813428D01*
X86349371Y-87956285D01*
X86349371Y-88384857D01*
X86420800Y-88527714D01*
X86492228Y-88599142D01*
X86635085Y-88670571D01*
X86849371Y-88670571D01*
X85706514Y-87670571D02*
X85706514Y-88670571D01*
X85706514Y-87813428D02*
X85635085Y-87742000D01*
X85492228Y-87670571D01*
X85277942Y-87670571D01*
X85135085Y-87742000D01*
X85063657Y-87884857D01*
X85063657Y-88670571D01*
X84349371Y-88527714D02*
X84277942Y-88599142D01*
X84349371Y-88670571D01*
X84420800Y-88599142D01*
X84349371Y-88527714D01*
X84349371Y-88670571D01*
X84349371Y-87742000D02*
X84277942Y-87813428D01*
X84349371Y-87884857D01*
X84420800Y-87813428D01*
X84349371Y-87742000D01*
X84349371Y-87884857D01*
X82135085Y-87087238D02*
X82039847Y-86992000D01*
X81849371Y-86896761D01*
X81373180Y-86896761D01*
X81182704Y-86992000D01*
X81087466Y-87087238D01*
X80992228Y-87277714D01*
X80992228Y-87468190D01*
X81087466Y-87753904D01*
X82230323Y-88896761D01*
X80992228Y-88896761D01*
X79754133Y-86896761D02*
X79563657Y-86896761D01*
X79373180Y-86992000D01*
X79277942Y-87087238D01*
X79182704Y-87277714D01*
X79087466Y-87658666D01*
X79087466Y-88134857D01*
X79182704Y-88515809D01*
X79277942Y-88706285D01*
X79373180Y-88801523D01*
X79563657Y-88896761D01*
X79754133Y-88896761D01*
X79944609Y-88801523D01*
X80039847Y-88706285D01*
X80135085Y-88515809D01*
X80230323Y-88134857D01*
X80230323Y-87658666D01*
X80135085Y-87277714D01*
X80039847Y-87087238D01*
X79944609Y-86992000D01*
X79754133Y-86896761D01*
X77182704Y-88896761D02*
X78325561Y-88896761D01*
X77754133Y-88896761D02*
X77754133Y-86896761D01*
X77944609Y-87182476D01*
X78135085Y-87372952D01*
X78325561Y-87468190D01*
X76230323Y-88896761D02*
X75849371Y-88896761D01*
X75658895Y-88801523D01*
X75563657Y-88706285D01*
X75373180Y-88420571D01*
X75277942Y-88039619D01*
X75277942Y-87277714D01*
X75373180Y-87087238D01*
X75468419Y-86992000D01*
X75658895Y-86896761D01*
X76039847Y-86896761D01*
X76230323Y-86992000D01*
X76325561Y-87087238D01*
X76420800Y-87277714D01*
X76420800Y-87753904D01*
X76325561Y-87944380D01*
X76230323Y-88039619D01*
X76039847Y-88134857D01*
X75658895Y-88134857D01*
X75468419Y-88039619D01*
X75373180Y-87944380D01*
X75277942Y-87753904D01*
X74420800Y-88134857D02*
X72896990Y-88134857D01*
X71563657Y-86896761D02*
X71373180Y-86896761D01*
X71182704Y-86992000D01*
X71087466Y-87087238D01*
X70992228Y-87277714D01*
X70896990Y-87658666D01*
X70896990Y-88134857D01*
X70992228Y-88515809D01*
X71087466Y-88706285D01*
X71182704Y-88801523D01*
X71373180Y-88896761D01*
X71563657Y-88896761D01*
X71754133Y-88801523D01*
X71849371Y-88706285D01*
X71944609Y-88515809D01*
X72039847Y-88134857D01*
X72039847Y-87658666D01*
X71944609Y-87277714D01*
X71849371Y-87087238D01*
X71754133Y-86992000D01*
X71563657Y-86896761D01*
X69087466Y-86896761D02*
X70039847Y-86896761D01*
X70135085Y-87849142D01*
X70039847Y-87753904D01*
X69849371Y-87658666D01*
X69373180Y-87658666D01*
X69182704Y-87753904D01*
X69087466Y-87849142D01*
X68992228Y-88039619D01*
X68992228Y-88515809D01*
X69087466Y-88706285D01*
X69182704Y-88801523D01*
X69373180Y-88896761D01*
X69849371Y-88896761D01*
X70039847Y-88801523D01*
X70135085Y-88706285D01*
X68135085Y-88134857D02*
X66611276Y-88134857D01*
X65277942Y-86896761D02*
X65087466Y-86896761D01*
X64896990Y-86992000D01*
X64801752Y-87087238D01*
X64706514Y-87277714D01*
X64611276Y-87658666D01*
X64611276Y-88134857D01*
X64706514Y-88515809D01*
X64801752Y-88706285D01*
X64896990Y-88801523D01*
X65087466Y-88896761D01*
X65277942Y-88896761D01*
X65468419Y-88801523D01*
X65563657Y-88706285D01*
X65658895Y-88515809D01*
X65754133Y-88134857D01*
X65754133Y-87658666D01*
X65658895Y-87277714D01*
X65563657Y-87087238D01*
X65468419Y-86992000D01*
X65277942Y-86896761D01*
X62896990Y-87563428D02*
X62896990Y-88896761D01*
X63373180Y-86801523D02*
X63849371Y-88230095D01*
X62611276Y-88230095D01*
X91301742Y-82445338D02*
X91206504Y-82350100D01*
X91016028Y-82254861D01*
X90539838Y-82254861D01*
X90349361Y-82350100D01*
X90254123Y-82445338D01*
X90158885Y-82635814D01*
X90158885Y-82826290D01*
X90254123Y-83112004D01*
X91396980Y-84254861D01*
X90158885Y-84254861D01*
X89301742Y-84254861D02*
X89301742Y-82254861D01*
X88539838Y-82254861D01*
X88349361Y-82350100D01*
X88254123Y-82445338D01*
X88158885Y-82635814D01*
X88158885Y-82921528D01*
X88254123Y-83112004D01*
X88349361Y-83207242D01*
X88539838Y-83302480D01*
X89301742Y-83302480D01*
X87492219Y-82254861D02*
X86254123Y-82254861D01*
X86920790Y-83016766D01*
X86635076Y-83016766D01*
X86444600Y-83112004D01*
X86349361Y-83207242D01*
X86254123Y-83397719D01*
X86254123Y-83873909D01*
X86349361Y-84064385D01*
X86444600Y-84159623D01*
X86635076Y-84254861D01*
X87206504Y-84254861D01*
X87396980Y-84159623D01*
X87492219Y-84064385D01*
X85492219Y-84159623D02*
X85206504Y-84254861D01*
X84730314Y-84254861D01*
X84539838Y-84159623D01*
X84444600Y-84064385D01*
X84349361Y-83873909D01*
X84349361Y-83683433D01*
X84444600Y-83492957D01*
X84539838Y-83397719D01*
X84730314Y-83302480D01*
X85111266Y-83207242D01*
X85301742Y-83112004D01*
X85396980Y-83016766D01*
X85492219Y-82826290D01*
X85492219Y-82635814D01*
X85396980Y-82445338D01*
X85301742Y-82350100D01*
X85111266Y-82254861D01*
X84635076Y-82254861D01*
X84349361Y-82350100D01*
X81301742Y-83207242D02*
X81016028Y-83302480D01*
X80920790Y-83397719D01*
X80825552Y-83588195D01*
X80825552Y-83873909D01*
X80920790Y-84064385D01*
X81016028Y-84159623D01*
X81206504Y-84254861D01*
X81968409Y-84254861D01*
X81968409Y-82254861D01*
X81301742Y-82254861D01*
X81111266Y-82350100D01*
X81016028Y-82445338D01*
X80920790Y-82635814D01*
X80920790Y-82826290D01*
X81016028Y-83016766D01*
X81111266Y-83112004D01*
X81301742Y-83207242D01*
X81968409Y-83207242D01*
X79111266Y-84254861D02*
X79111266Y-83207242D01*
X79206504Y-83016766D01*
X79396980Y-82921528D01*
X79777933Y-82921528D01*
X79968409Y-83016766D01*
X79111266Y-84159623D02*
X79301742Y-84254861D01*
X79777933Y-84254861D01*
X79968409Y-84159623D01*
X80063647Y-83969147D01*
X80063647Y-83778671D01*
X79968409Y-83588195D01*
X79777933Y-83492957D01*
X79301742Y-83492957D01*
X79111266Y-83397719D01*
X78444600Y-82921528D02*
X77682695Y-82921528D01*
X78158885Y-82254861D02*
X78158885Y-83969147D01*
X78063647Y-84159623D01*
X77873171Y-84254861D01*
X77682695Y-84254861D01*
X77301742Y-82921528D02*
X76539838Y-82921528D01*
X77016028Y-82254861D02*
X77016028Y-83969147D01*
X76920790Y-84159623D01*
X76730314Y-84254861D01*
X76539838Y-84254861D01*
X75111266Y-84159623D02*
X75301742Y-84254861D01*
X75682695Y-84254861D01*
X75873171Y-84159623D01*
X75968409Y-83969147D01*
X75968409Y-83207242D01*
X75873171Y-83016766D01*
X75682695Y-82921528D01*
X75301742Y-82921528D01*
X75111266Y-83016766D01*
X75016028Y-83207242D01*
X75016028Y-83397719D01*
X75968409Y-83588195D01*
X74158885Y-84254861D02*
X74158885Y-82921528D01*
X74158885Y-83302480D02*
X74063647Y-83112004D01*
X73968409Y-83016766D01*
X73777933Y-82921528D01*
X73587457Y-82921528D01*
X73111266Y-82921528D02*
X72635076Y-84254861D01*
X72158885Y-82921528D02*
X72635076Y-84254861D01*
X72825552Y-84731052D01*
X72920790Y-84826290D01*
X73111266Y-84921528D01*
X69873171Y-84254861D02*
X69873171Y-82254861D01*
X69111266Y-82254861D01*
X68920790Y-82350100D01*
X68825552Y-82445338D01*
X68730314Y-82635814D01*
X68730314Y-82921528D01*
X68825552Y-83112004D01*
X68920790Y-83207242D01*
X69111266Y-83302480D01*
X69873171Y-83302480D01*
X67016028Y-84254861D02*
X67016028Y-83207242D01*
X67111266Y-83016766D01*
X67301742Y-82921528D01*
X67682695Y-82921528D01*
X67873171Y-83016766D01*
X67016028Y-84159623D02*
X67206504Y-84254861D01*
X67682695Y-84254861D01*
X67873171Y-84159623D01*
X67968409Y-83969147D01*
X67968409Y-83778671D01*
X67873171Y-83588195D01*
X67682695Y-83492957D01*
X67206504Y-83492957D01*
X67016028Y-83397719D01*
X65206504Y-84159623D02*
X65396980Y-84254861D01*
X65777933Y-84254861D01*
X65968409Y-84159623D01*
X66063647Y-84064385D01*
X66158885Y-83873909D01*
X66158885Y-83302480D01*
X66063647Y-83112004D01*
X65968409Y-83016766D01*
X65777933Y-82921528D01*
X65396980Y-82921528D01*
X65206504Y-83016766D01*
X64349361Y-84254861D02*
X64349361Y-82254861D01*
X64158885Y-83492957D02*
X63587457Y-84254861D01*
X63587457Y-82921528D02*
X64349361Y-83683433D01*
X113504761Y-93242857D02*
X113790476Y-93147619D01*
X113885714Y-93052380D01*
X113980952Y-92861904D01*
X113980952Y-92576190D01*
X113885714Y-92385714D01*
X113790476Y-92290476D01*
X113600000Y-92195238D01*
X112838095Y-92195238D01*
X112838095Y-94195238D01*
X113504761Y-94195238D01*
X113695238Y-94100000D01*
X113790476Y-94004761D01*
X113885714Y-93814285D01*
X113885714Y-93623809D01*
X113790476Y-93433333D01*
X113695238Y-93338095D01*
X113504761Y-93242857D01*
X112838095Y-93242857D01*
X114838095Y-92957142D02*
X116361904Y-92957142D01*
X114430276Y-101399957D02*
X114715990Y-101304719D01*
X114811228Y-101209480D01*
X114906466Y-101019004D01*
X114906466Y-100733290D01*
X114811228Y-100542814D01*
X114715990Y-100447576D01*
X114525514Y-100352338D01*
X113763609Y-100352338D01*
X113763609Y-102352338D01*
X114430276Y-102352338D01*
X114620752Y-102257100D01*
X114715990Y-102161861D01*
X114811228Y-101971385D01*
X114811228Y-101780909D01*
X114715990Y-101590433D01*
X114620752Y-101495195D01*
X114430276Y-101399957D01*
X113763609Y-101399957D01*
X115668371Y-102161861D02*
X115763609Y-102257100D01*
X115954085Y-102352338D01*
X116430276Y-102352338D01*
X116620752Y-102257100D01*
X116715990Y-102161861D01*
X116811228Y-101971385D01*
X116811228Y-101780909D01*
X116715990Y-101495195D01*
X115573133Y-100352338D01*
X116811228Y-100352338D01*
X113704761Y-110142857D02*
X113990476Y-110047619D01*
X114085714Y-109952380D01*
X114180952Y-109761904D01*
X114180952Y-109476190D01*
X114085714Y-109285714D01*
X113990476Y-109190476D01*
X113800000Y-109095238D01*
X113038095Y-109095238D01*
X113038095Y-111095238D01*
X113704761Y-111095238D01*
X113895238Y-111000000D01*
X113990476Y-110904761D01*
X114085714Y-110714285D01*
X114085714Y-110523809D01*
X113990476Y-110333333D01*
X113895238Y-110238095D01*
X113704761Y-110142857D01*
X113038095Y-110142857D01*
X115038095Y-109857142D02*
X116561904Y-109857142D01*
X115800000Y-109095238D02*
X115800000Y-110619047D01*
X170332514Y-102555600D02*
X170218228Y-102612742D01*
X170046800Y-102612742D01*
X169875371Y-102555600D01*
X169761085Y-102441314D01*
X169703942Y-102327028D01*
X169646800Y-102098457D01*
X169646800Y-101927028D01*
X169703942Y-101698457D01*
X169761085Y-101584171D01*
X169875371Y-101469885D01*
X170046800Y-101412742D01*
X170161085Y-101412742D01*
X170332514Y-101469885D01*
X170389657Y-101527028D01*
X170389657Y-101927028D01*
X170161085Y-101927028D01*
X170903942Y-101412742D02*
X170903942Y-102612742D01*
X171589657Y-101412742D01*
X171589657Y-102612742D01*
X172161085Y-101412742D02*
X172161085Y-102612742D01*
X172446800Y-102612742D01*
X172618228Y-102555600D01*
X172732514Y-102441314D01*
X172789657Y-102327028D01*
X172846800Y-102098457D01*
X172846800Y-101927028D01*
X172789657Y-101698457D01*
X172732514Y-101584171D01*
X172618228Y-101469885D01*
X172446800Y-101412742D01*
X172161085Y-101412742D01*
X169688095Y-103235238D02*
X169688095Y-105235238D01*
X170450000Y-105235238D01*
X170640476Y-105140000D01*
X170735714Y-105044761D01*
X170830952Y-104854285D01*
X170830952Y-104568571D01*
X170735714Y-104378095D01*
X170640476Y-104282857D01*
X170450000Y-104187619D01*
X169688095Y-104187619D01*
X171688095Y-103997142D02*
X173211904Y-103997142D01*
X169538095Y-108995238D02*
X169538095Y-110995238D01*
X170300000Y-110995238D01*
X170490476Y-110900000D01*
X170585714Y-110804761D01*
X170680952Y-110614285D01*
X170680952Y-110328571D01*
X170585714Y-110138095D01*
X170490476Y-110042857D01*
X170300000Y-109947619D01*
X169538095Y-109947619D01*
X171538095Y-109757142D02*
X173061904Y-109757142D01*
X172300000Y-108995238D02*
X172300000Y-110519047D01*
X190642857Y-138242857D02*
X189442857Y-138242857D01*
X189442857Y-138700000D01*
X189500000Y-138814285D01*
X189557142Y-138871428D01*
X189671428Y-138928571D01*
X189842857Y-138928571D01*
X189957142Y-138871428D01*
X190014285Y-138814285D01*
X190071428Y-138700000D01*
X190071428Y-138242857D01*
X190185714Y-139442857D02*
X190185714Y-140357142D01*
X190642857Y-139900000D02*
X189728571Y-139900000D01*
X190542857Y-134942857D02*
X189342857Y-134942857D01*
X189342857Y-135400000D01*
X189400000Y-135514285D01*
X189457142Y-135571428D01*
X189571428Y-135628571D01*
X189742857Y-135628571D01*
X189857142Y-135571428D01*
X189914285Y-135514285D01*
X189971428Y-135400000D01*
X189971428Y-134942857D01*
X190085714Y-136142857D02*
X190085714Y-137057142D01*
X203901542Y-126298257D02*
X203901542Y-125098257D01*
X203444400Y-125098257D01*
X203330114Y-125155400D01*
X203272971Y-125212542D01*
X203215828Y-125326828D01*
X203215828Y-125498257D01*
X203272971Y-125612542D01*
X203330114Y-125669685D01*
X203444400Y-125726828D01*
X203901542Y-125726828D01*
X202701542Y-125841114D02*
X201787257Y-125841114D01*
X202244400Y-126298257D02*
X202244400Y-125383971D01*
X184445142Y-126920557D02*
X184445142Y-125720557D01*
X183988000Y-125720557D01*
X183873714Y-125777700D01*
X183816571Y-125834842D01*
X183759428Y-125949128D01*
X183759428Y-126120557D01*
X183816571Y-126234842D01*
X183873714Y-126291985D01*
X183988000Y-126349128D01*
X184445142Y-126349128D01*
X183245142Y-126463414D02*
X182330857Y-126463414D01*
X180019400Y-128130414D02*
X179962257Y-128016128D01*
X179962257Y-127844700D01*
X180019400Y-127673271D01*
X180133685Y-127558985D01*
X180247971Y-127501842D01*
X180476542Y-127444700D01*
X180647971Y-127444700D01*
X180876542Y-127501842D01*
X180990828Y-127558985D01*
X181105114Y-127673271D01*
X181162257Y-127844700D01*
X181162257Y-127958985D01*
X181105114Y-128130414D01*
X181047971Y-128187557D01*
X180647971Y-128187557D01*
X180647971Y-127958985D01*
X181162257Y-128701842D02*
X179962257Y-128701842D01*
X181162257Y-129387557D01*
X179962257Y-129387557D01*
X181162257Y-129958985D02*
X179962257Y-129958985D01*
X179962257Y-130244700D01*
X180019400Y-130416128D01*
X180133685Y-130530414D01*
X180247971Y-130587557D01*
X180476542Y-130644700D01*
X180647971Y-130644700D01*
X180876542Y-130587557D01*
X180990828Y-130530414D01*
X181105114Y-130416128D01*
X181162257Y-130244700D01*
X181162257Y-129958985D01*
X181305104Y-81219657D02*
X179781295Y-81219657D01*
X201396504Y-81245057D02*
X199872695Y-81245057D01*
X200634600Y-82006961D02*
X200634600Y-80483152D01*
X205428628Y-80749857D02*
X205028628Y-81949857D01*
X204628628Y-80749857D01*
X204514342Y-82064142D02*
X203600057Y-82064142D01*
X203314342Y-81949857D02*
X203314342Y-80749857D01*
X202742914Y-81949857D02*
X202742914Y-80749857D01*
X202057200Y-81949857D01*
X202057200Y-80749857D01*
X202170571Y-77200057D02*
X202170571Y-76000057D01*
X201713428Y-76000057D01*
X201599142Y-76057200D01*
X201542000Y-76114342D01*
X201484857Y-76228628D01*
X201484857Y-76400057D01*
X201542000Y-76514342D01*
X201599142Y-76571485D01*
X201713428Y-76628628D01*
X202170571Y-76628628D01*
X200742000Y-76000057D02*
X200513428Y-76000057D01*
X200399142Y-76057200D01*
X200284857Y-76171485D01*
X200227714Y-76400057D01*
X200227714Y-76800057D01*
X200284857Y-77028628D01*
X200399142Y-77142914D01*
X200513428Y-77200057D01*
X200742000Y-77200057D01*
X200856285Y-77142914D01*
X200970571Y-77028628D01*
X201027714Y-76800057D01*
X201027714Y-76400057D01*
X200970571Y-76171485D01*
X200856285Y-76057200D01*
X200742000Y-76000057D01*
X199827714Y-76000057D02*
X199542000Y-77200057D01*
X199313428Y-76342914D01*
X199084857Y-77200057D01*
X198799142Y-76000057D01*
X198342000Y-76571485D02*
X197942000Y-76571485D01*
X197770571Y-77200057D02*
X198342000Y-77200057D01*
X198342000Y-76000057D01*
X197770571Y-76000057D01*
X196570571Y-77200057D02*
X196970571Y-76628628D01*
X197256285Y-77200057D02*
X197256285Y-76000057D01*
X196799142Y-76000057D01*
X196684857Y-76057200D01*
X196627714Y-76114342D01*
X196570571Y-76228628D01*
X196570571Y-76400057D01*
X196627714Y-76514342D01*
X196684857Y-76571485D01*
X196799142Y-76628628D01*
X197256285Y-76628628D01*
X195142000Y-77200057D02*
X195142000Y-76000057D01*
X194570571Y-77200057D02*
X194570571Y-76000057D01*
X193884857Y-77200057D01*
X193884857Y-76000057D01*
X193313428Y-77200057D02*
X193313428Y-76000057D01*
X192856285Y-76000057D01*
X192742000Y-76057200D01*
X192684857Y-76114342D01*
X192627714Y-76228628D01*
X192627714Y-76400057D01*
X192684857Y-76514342D01*
X192742000Y-76571485D01*
X192856285Y-76628628D01*
X193313428Y-76628628D01*
X192113428Y-76000057D02*
X192113428Y-76971485D01*
X192056285Y-77085771D01*
X191999142Y-77142914D01*
X191884857Y-77200057D01*
X191656285Y-77200057D01*
X191542000Y-77142914D01*
X191484857Y-77085771D01*
X191427714Y-76971485D01*
X191427714Y-76000057D01*
X191027714Y-76000057D02*
X190342000Y-76000057D01*
X190684857Y-77200057D02*
X190684857Y-76000057D01*
D11*
G04 #@! TO.C,MOD2*
X117750000Y-112000000D02*
X117750000Y-91000000D01*
X168750000Y-112000000D02*
X117750000Y-112000000D01*
X168750000Y-91000000D02*
X168750000Y-112000000D01*
X117750000Y-91000000D02*
X168750000Y-91000000D01*
G04 #@! TO.C,D1*
X193230100Y-124448300D02*
X199580100Y-124498300D01*
X199580100Y-124498300D02*
X199580100Y-127748300D01*
X199580100Y-127748300D02*
X193225420Y-127749300D01*
X193230100Y-127698300D02*
X193230100Y-124448300D01*
X193494660Y-125229620D02*
X193494660Y-126951740D01*
G04 #@! TO.C,R1*
X187795000Y-124730000D02*
X192445000Y-124730000D01*
X192445000Y-124730000D02*
X192445000Y-126780000D01*
X192445000Y-126780000D02*
X187645000Y-126780000D01*
X187645000Y-126780000D02*
X187645000Y-124730000D01*
X187645000Y-124730000D02*
X187745000Y-124730000D01*
G04 #@! TO.C,MOD2*
X126583333Y-113452380D02*
X126583333Y-112452380D01*
X126250000Y-113166666D01*
X125916666Y-112452380D01*
X125916666Y-113452380D01*
X125250000Y-112452380D02*
X125059523Y-112452380D01*
X124964285Y-112500000D01*
X124869047Y-112595238D01*
X124821428Y-112785714D01*
X124821428Y-113119047D01*
X124869047Y-113309523D01*
X124964285Y-113404761D01*
X125059523Y-113452380D01*
X125250000Y-113452380D01*
X125345238Y-113404761D01*
X125440476Y-113309523D01*
X125488095Y-113119047D01*
X125488095Y-112785714D01*
X125440476Y-112595238D01*
X125345238Y-112500000D01*
X125250000Y-112452380D01*
X124392857Y-113452380D02*
X124392857Y-112452380D01*
X124154761Y-112452380D01*
X124011904Y-112500000D01*
X123916666Y-112595238D01*
X123869047Y-112690476D01*
X123821428Y-112880952D01*
X123821428Y-113023809D01*
X123869047Y-113214285D01*
X123916666Y-113309523D01*
X124011904Y-113404761D01*
X124154761Y-113452380D01*
X124392857Y-113452380D01*
X123440476Y-112547619D02*
X123392857Y-112500000D01*
X123297619Y-112452380D01*
X123059523Y-112452380D01*
X122964285Y-112500000D01*
X122916666Y-112547619D01*
X122869047Y-112642857D01*
X122869047Y-112738095D01*
X122916666Y-112880952D01*
X123488095Y-113452380D01*
X122869047Y-113452380D01*
G04 #@! TO.C,D1*
D12*
X196469747Y-124101990D02*
X196469747Y-123601990D01*
X196350700Y-123601990D01*
X196279271Y-123625800D01*
X196231652Y-123673419D01*
X196207842Y-123721038D01*
X196184033Y-123816276D01*
X196184033Y-123887704D01*
X196207842Y-123982942D01*
X196231652Y-124030561D01*
X196279271Y-124078180D01*
X196350700Y-124101990D01*
X196469747Y-124101990D01*
X195707842Y-124101990D02*
X195993557Y-124101990D01*
X195850700Y-124101990D02*
X195850700Y-123601990D01*
X195898319Y-123673419D01*
X195945938Y-123721038D01*
X195993557Y-123744847D01*
G04 #@! TO.C,R1*
X189878333Y-124456190D02*
X190045000Y-124218095D01*
X190164047Y-124456190D02*
X190164047Y-123956190D01*
X189973571Y-123956190D01*
X189925952Y-123980000D01*
X189902142Y-124003809D01*
X189878333Y-124051428D01*
X189878333Y-124122857D01*
X189902142Y-124170476D01*
X189925952Y-124194285D01*
X189973571Y-124218095D01*
X190164047Y-124218095D01*
X189402142Y-124456190D02*
X189687857Y-124456190D01*
X189545000Y-124456190D02*
X189545000Y-123956190D01*
X189592619Y-124027619D01*
X189640238Y-124075238D01*
X189687857Y-124099047D01*
G04 #@! TD*
M02*
