G04 #@! TF.GenerationSoftware,KiCad,Pcbnew,(5.0.2)-1*
G04 #@! TF.CreationDate,2019-04-29T22:25:13-04:00*
G04 #@! TF.ProjectId,2p3s-pwr-pack,32703373-2d70-4777-922d-7061636b2e6b,V1*
G04 #@! TF.SameCoordinates,Original*
G04 #@! TF.FileFunction,Copper,L2,Bot*
G04 #@! TF.FilePolarity,Positive*
%FSLAX46Y46*%
G04 Gerber Fmt 4.6, Leading zero omitted, Abs format (unit mm)*
G04 Created by KiCad (PCBNEW (5.0.2)-1) date 4/29/2019 10:25:13 PM*
%MOMM*%
%LPD*%
G01*
G04 APERTURE LIST*
G04 #@! TA.AperFunction,Conductor*
%ADD10C,0.150000*%
G04 #@! TD*
G04 #@! TA.AperFunction,ComponentPad*
%ADD11C,3.500000*%
G04 #@! TD*
G04 #@! TA.AperFunction,ComponentPad*
%ADD12R,5.000000X5.000000*%
G04 #@! TD*
G04 #@! TA.AperFunction,ComponentPad*
%ADD13R,2.500000X2.500000*%
G04 #@! TD*
G04 #@! TA.AperFunction,ComponentPad*
%ADD14C,2.750000*%
G04 #@! TD*
G04 #@! TA.AperFunction,ComponentPad*
%ADD15C,1.200000*%
G04 #@! TD*
G04 #@! TA.AperFunction,ComponentPad*
%ADD16R,2.700000X1.700000*%
G04 #@! TD*
G04 #@! TA.AperFunction,ComponentPad*
%ADD17C,4.000000*%
G04 #@! TD*
G04 #@! TA.AperFunction,ComponentPad*
%ADD18R,4.000000X4.000000*%
G04 #@! TD*
G04 #@! TA.AperFunction,ComponentPad*
%ADD19R,4.000000X2.300000*%
G04 #@! TD*
G04 #@! TA.AperFunction,ComponentPad*
%ADD20C,5.000000*%
G04 #@! TD*
G04 #@! TA.AperFunction,SMDPad,CuDef*
%ADD21R,1.524000X2.000000*%
G04 #@! TD*
G04 #@! TA.AperFunction,ComponentPad*
%ADD22R,1.700000X2.700000*%
G04 #@! TD*
G04 #@! TA.AperFunction,SMDPad,CuDef*
%ADD23R,1.150000X1.700000*%
G04 #@! TD*
G04 #@! TA.AperFunction,Conductor*
%ADD24C,0.635000*%
G04 #@! TD*
G04 #@! TA.AperFunction,Conductor*
%ADD25C,1.524000*%
G04 #@! TD*
G04 #@! TA.AperFunction,Conductor*
%ADD26C,3.048000*%
G04 #@! TD*
G04 #@! TA.AperFunction,Conductor*
%ADD27C,0.254000*%
G04 #@! TD*
G04 APERTURE END LIST*
D10*
G04 #@! TO.N,GND1*
G04 #@! TO.C,MOD1*
G36*
X184493871Y-127475299D02*
X184612786Y-127492938D01*
X184729399Y-127522148D01*
X184842587Y-127562648D01*
X184951261Y-127614046D01*
X185054374Y-127675850D01*
X185150932Y-127747462D01*
X185240006Y-127828194D01*
X185320738Y-127917268D01*
X185392350Y-128013826D01*
X185454154Y-128116939D01*
X185505552Y-128225613D01*
X185546052Y-128338801D01*
X185575262Y-128455414D01*
X185592901Y-128574329D01*
X185598800Y-128694400D01*
X185598800Y-129744400D01*
X185592901Y-129864471D01*
X185575262Y-129983386D01*
X185546052Y-130099999D01*
X185505552Y-130213187D01*
X185454154Y-130321861D01*
X185392350Y-130424974D01*
X185320738Y-130521532D01*
X185240006Y-130610606D01*
X185150932Y-130691338D01*
X185054374Y-130762950D01*
X184951261Y-130824754D01*
X184842587Y-130876152D01*
X184729399Y-130916652D01*
X184612786Y-130945862D01*
X184493871Y-130963501D01*
X184373800Y-130969400D01*
X183323800Y-130969400D01*
X183203729Y-130963501D01*
X183084814Y-130945862D01*
X182968201Y-130916652D01*
X182855013Y-130876152D01*
X182746339Y-130824754D01*
X182643226Y-130762950D01*
X182546668Y-130691338D01*
X182457594Y-130610606D01*
X182376862Y-130521532D01*
X182305250Y-130424974D01*
X182243446Y-130321861D01*
X182192048Y-130213187D01*
X182151548Y-130099999D01*
X182122338Y-129983386D01*
X182104699Y-129864471D01*
X182098800Y-129744400D01*
X182098800Y-128694400D01*
X182104699Y-128574329D01*
X182122338Y-128455414D01*
X182151548Y-128338801D01*
X182192048Y-128225613D01*
X182243446Y-128116939D01*
X182305250Y-128013826D01*
X182376862Y-127917268D01*
X182457594Y-127828194D01*
X182546668Y-127747462D01*
X182643226Y-127675850D01*
X182746339Y-127614046D01*
X182855013Y-127562648D01*
X182968201Y-127522148D01*
X183084814Y-127492938D01*
X183203729Y-127475299D01*
X183323800Y-127469400D01*
X184373800Y-127469400D01*
X184493871Y-127475299D01*
X184493871Y-127475299D01*
G37*
D11*
G04 #@! TD*
G04 #@! TO.P,MOD1,3*
G04 #@! TO.N,GND1*
X183848800Y-129219400D03*
D12*
G04 #@! TO.P,MOD1,2*
G04 #@! TO.N,V_IN-*
X184500000Y-85400000D03*
G04 #@! TO.P,MOD1,1*
G04 #@! TO.N,V_IN+*
X203100000Y-85400000D03*
G04 #@! TO.P,MOD1,4*
G04 #@! TO.N,Net-(D1-Pad2)*
X203100000Y-130000000D03*
G04 #@! TD*
D13*
G04 #@! TO.P,BATT1,1*
G04 #@! TO.N,Net-(BATT1-Pad1)*
X167840001Y-67465001D03*
D14*
G04 #@! TO.P,BATT1,2*
G04 #@! TO.N,Net-(BATT1-Pad2)*
X167840001Y-139685001D03*
X148710001Y-139685001D03*
D13*
G04 #@! TO.P,BATT1,1*
G04 #@! TO.N,Net-(BATT1-Pad1)*
X148710001Y-67465001D03*
G04 #@! TD*
G04 #@! TO.P,BATT3,1*
G04 #@! TO.N,B+*
X68410001Y-67465001D03*
D14*
G04 #@! TO.P,BATT3,2*
G04 #@! TO.N,Net-(BATT2-Pad1)*
X68410001Y-139685001D03*
X87540001Y-139685001D03*
D13*
G04 #@! TO.P,BATT3,1*
G04 #@! TO.N,B+*
X87540001Y-67465001D03*
G04 #@! TD*
G04 #@! TO.P,BATT2,1*
G04 #@! TO.N,Net-(BATT2-Pad1)*
X127681600Y-67445800D03*
D14*
G04 #@! TO.P,BATT2,2*
G04 #@! TO.N,Net-(BATT1-Pad1)*
X127681600Y-139665800D03*
X108551600Y-139665800D03*
D13*
G04 #@! TO.P,BATT2,1*
G04 #@! TO.N,Net-(BATT2-Pad1)*
X108551600Y-67445800D03*
G04 #@! TD*
D15*
G04 #@! TO.P,P13,*
G04 #@! TO.N,*
X187700000Y-136230000D03*
X187700000Y-138770000D03*
D16*
G04 #@! TO.P,P13,2*
G04 #@! TO.N,GND1*
X185250000Y-136230000D03*
G04 #@! TO.P,P13,1*
G04 #@! TO.N,P+*
X185250000Y-138770000D03*
G04 #@! TD*
D17*
G04 #@! TO.P,P14,1*
G04 #@! TO.N,V_IN+*
X202565000Y-78105000D03*
G04 #@! TD*
G04 #@! TO.P,P15,1*
G04 #@! TO.N,V_IN-*
X189560200Y-80010000D03*
G04 #@! TD*
D18*
G04 #@! TO.P,MOD2,6*
G04 #@! TO.N,GND1*
X166500000Y-103000000D03*
G04 #@! TO.P,MOD2,7*
G04 #@! TO.N,P+*
X166500000Y-110000000D03*
D19*
G04 #@! TO.P,MOD2,4*
G04 #@! TO.N,Net-(MOD2-Pad4)*
X120000000Y-97750000D03*
G04 #@! TO.P,MOD2,3*
G04 #@! TO.N,Net-(BATT1-Pad1)*
X120000000Y-101500000D03*
G04 #@! TO.P,MOD2,2*
G04 #@! TO.N,Net-(BATT2-Pad1)*
X120000000Y-105250000D03*
D18*
G04 #@! TO.P,MOD2,5*
G04 #@! TO.N,Net-(BATT1-Pad2)*
X120000000Y-93000000D03*
G04 #@! TO.P,MOD2,1*
G04 #@! TO.N,B+*
X120000000Y-110000000D03*
G04 #@! TD*
D20*
G04 #@! TO.P,P1,*
G04 #@! TO.N,*
X59700000Y-103700000D03*
G04 #@! TD*
G04 #@! TO.P,P2,*
G04 #@! TO.N,*
X66700000Y-74600000D03*
G04 #@! TD*
G04 #@! TO.P,P3,*
G04 #@! TO.N,*
X66700000Y-132600000D03*
G04 #@! TD*
G04 #@! TO.P,P4,*
G04 #@! TO.N,*
X97700000Y-74600000D03*
G04 #@! TD*
G04 #@! TO.P,P5,*
G04 #@! TO.N,*
X97700000Y-132500000D03*
G04 #@! TD*
G04 #@! TO.P,P6,*
G04 #@! TO.N,*
X127700000Y-74600000D03*
G04 #@! TD*
G04 #@! TO.P,P7,*
G04 #@! TO.N,*
X127700000Y-132600000D03*
G04 #@! TD*
G04 #@! TO.P,P8,*
G04 #@! TO.N,*
X157700000Y-74600000D03*
G04 #@! TD*
G04 #@! TO.P,P9,*
G04 #@! TO.N,*
X157700000Y-132600000D03*
G04 #@! TD*
G04 #@! TO.P,P10,*
G04 #@! TO.N,*
X188700000Y-74600000D03*
G04 #@! TD*
G04 #@! TO.P,P11,*
G04 #@! TO.N,*
X188600000Y-132600000D03*
G04 #@! TD*
G04 #@! TO.P,P12,*
G04 #@! TO.N,*
X195700000Y-103600000D03*
G04 #@! TD*
D21*
G04 #@! TO.P,D1,2*
G04 #@! TO.N,Net-(D1-Pad2)*
X198380100Y-126098300D03*
G04 #@! TO.P,D1,1*
G04 #@! TO.N,Net-(D1-Pad1)*
X194380100Y-126098300D03*
G04 #@! TD*
D22*
G04 #@! TO.P,P16,1*
G04 #@! TO.N,V_IN+*
X197485000Y-78105000D03*
G04 #@! TO.P,P16,2*
G04 #@! TO.N,V_IN-*
X194945000Y-78105000D03*
D15*
G04 #@! TO.P,P16,*
G04 #@! TO.N,*
X197485000Y-75655000D03*
X194945000Y-75655000D03*
G04 #@! TD*
D23*
G04 #@! TO.P,R1,2*
G04 #@! TO.N,Net-(D1-Pad1)*
X191495000Y-125730000D03*
G04 #@! TO.P,R1,1*
G04 #@! TO.N,P+*
X188595000Y-125730000D03*
G04 #@! TD*
D24*
G04 #@! TO.N,P+*
X183265000Y-138770000D02*
X183102800Y-138607800D01*
X185250000Y-138770000D02*
X183265000Y-138770000D01*
D25*
X183102800Y-138607800D02*
X180238400Y-138607800D01*
D26*
X177275599Y-125823599D02*
X179018329Y-125823599D01*
X166500000Y-110000000D02*
X166500000Y-115048000D01*
D25*
X186334400Y-125730000D02*
X188595000Y-125730000D01*
D26*
X179018329Y-125823599D02*
X179111928Y-125730000D01*
X179018329Y-125823599D02*
X179560601Y-125823599D01*
X179560601Y-125823599D02*
X180670200Y-124714000D01*
X180670200Y-124714000D02*
X185597800Y-124714000D01*
X177787300Y-138607800D02*
X173736000Y-138607800D01*
X177787300Y-138607800D02*
X180238400Y-138607800D01*
X168503600Y-133375400D02*
X168503600Y-117051600D01*
X173736000Y-138607800D02*
X168503600Y-133375400D01*
X166500000Y-115048000D02*
X168503600Y-117051600D01*
X168503600Y-117051600D02*
X177275599Y-125823599D01*
D25*
G04 #@! TO.N,Net-(BATT2-Pad1)*
X129690001Y-67465001D02*
X110560001Y-67465001D01*
D26*
X69410001Y-139685001D02*
X88540001Y-139685001D01*
D25*
X120000000Y-105250000D02*
X117038100Y-105250000D01*
X117038100Y-105250000D02*
X117030500Y-105257600D01*
X117030500Y-105257600D02*
X116179600Y-105257600D01*
D26*
X116179600Y-105257600D02*
X116141500Y-105219500D01*
X116141500Y-105219500D02*
X111899700Y-105219500D01*
D25*
G04 #@! TO.N,Net-(D1-Pad2)*
X199198300Y-126098300D02*
X203100000Y-130000000D01*
X198380100Y-126098300D02*
X199198300Y-126098300D01*
D26*
G04 #@! TO.N,V_IN+*
X202565000Y-84865000D02*
X203100000Y-85400000D01*
X202565000Y-78105000D02*
X202565000Y-84865000D01*
D25*
X202565000Y-78105000D02*
X197485000Y-78105000D01*
D26*
G04 #@! TO.N,V_IN-*
X184500000Y-85400000D02*
X184500000Y-81565000D01*
X184500000Y-81565000D02*
X186690000Y-79375000D01*
X186731773Y-80010000D02*
X189560200Y-80010000D01*
X186690000Y-79375000D02*
X186690000Y-79968227D01*
X186690000Y-79968227D02*
X186731773Y-80010000D01*
D25*
X191465200Y-78105000D02*
X189560200Y-80010000D01*
X194945000Y-78105000D02*
X191465200Y-78105000D01*
G04 #@! TO.N,Net-(D1-Pad1)*
X194011800Y-125730000D02*
X194380100Y-126098300D01*
X191495000Y-125730000D02*
X194011800Y-125730000D01*
G04 #@! TD*
D27*
G04 #@! TO.N,Net-(BATT2-Pad1)*
G36*
X106412600Y-67033050D02*
X106634850Y-67255300D01*
X108361100Y-67255300D01*
X108361100Y-67235300D01*
X108742100Y-67235300D01*
X108742100Y-67255300D01*
X110468350Y-67255300D01*
X110690600Y-67033050D01*
X110690600Y-66952000D01*
X125542600Y-66952000D01*
X125542600Y-67033050D01*
X125764850Y-67255300D01*
X127491100Y-67255300D01*
X127491100Y-67235300D01*
X127872100Y-67235300D01*
X127872100Y-67255300D01*
X129598350Y-67255300D01*
X129820600Y-67033050D01*
X129820600Y-66952000D01*
X131953000Y-66952000D01*
X131953000Y-83693000D01*
X114300000Y-83693000D01*
X114251399Y-83702667D01*
X114210197Y-83730197D01*
X114182667Y-83771399D01*
X114173000Y-83820000D01*
X114173000Y-106627394D01*
X93890197Y-126910197D01*
X93862667Y-126951399D01*
X93853000Y-127000000D01*
X93853000Y-131003109D01*
X93573000Y-131679089D01*
X93573000Y-133320911D01*
X93853000Y-133996891D01*
X93853000Y-140298000D01*
X89726239Y-140298000D01*
X89821391Y-140036801D01*
X89782358Y-139136972D01*
X89513102Y-138486930D01*
X89143640Y-138350770D01*
X87809409Y-139685001D01*
X87823551Y-139699143D01*
X87554143Y-139968551D01*
X87540001Y-139954409D01*
X87525859Y-139968551D01*
X87256451Y-139699143D01*
X87270593Y-139685001D01*
X85936362Y-138350770D01*
X85566900Y-138486930D01*
X85258611Y-139333201D01*
X85297644Y-140233030D01*
X85324555Y-140298000D01*
X70596239Y-140298000D01*
X70691391Y-140036801D01*
X70652358Y-139136972D01*
X70383102Y-138486930D01*
X70013640Y-138350770D01*
X68679409Y-139685001D01*
X68693551Y-139699143D01*
X68424143Y-139968551D01*
X68410001Y-139954409D01*
X68395859Y-139968551D01*
X68126451Y-139699143D01*
X68140593Y-139685001D01*
X66806362Y-138350770D01*
X66436900Y-138486930D01*
X66167000Y-139227821D01*
X66167000Y-138081362D01*
X67075770Y-138081362D01*
X68410001Y-139415593D01*
X69744232Y-138081362D01*
X86205770Y-138081362D01*
X87540001Y-139415593D01*
X88874232Y-138081362D01*
X88738072Y-137711900D01*
X87891801Y-137403611D01*
X86991972Y-137442644D01*
X86341930Y-137711900D01*
X86205770Y-138081362D01*
X69744232Y-138081362D01*
X69608072Y-137711900D01*
X68761801Y-137403611D01*
X67861972Y-137442644D01*
X67211930Y-137711900D01*
X67075770Y-138081362D01*
X66167000Y-138081362D01*
X66167000Y-136727000D01*
X67520911Y-136727000D01*
X69037758Y-136098702D01*
X70198702Y-134937758D01*
X70827000Y-133420911D01*
X70827000Y-131779089D01*
X70309252Y-130529133D01*
X74728001Y-130529133D01*
X74728001Y-131820869D01*
X75222328Y-133014278D01*
X76135724Y-133927674D01*
X77329133Y-134422001D01*
X78620869Y-134422001D01*
X79814278Y-133927674D01*
X80727674Y-133014278D01*
X81222001Y-131820869D01*
X81222001Y-130529133D01*
X80727674Y-129335724D01*
X79814278Y-128422328D01*
X78620869Y-127928001D01*
X77329133Y-127928001D01*
X76135724Y-128422328D01*
X75222328Y-129335724D01*
X74728001Y-130529133D01*
X70309252Y-130529133D01*
X70198702Y-130262242D01*
X69037758Y-129101298D01*
X67520911Y-128473000D01*
X66167000Y-128473000D01*
X66167000Y-94037628D01*
X86442482Y-76296582D01*
X89463473Y-73779089D01*
X93573000Y-73779089D01*
X93573000Y-75420911D01*
X94201298Y-76937758D01*
X95362242Y-78098702D01*
X96879089Y-78727000D01*
X98520911Y-78727000D01*
X100037758Y-78098702D01*
X101198702Y-76937758D01*
X101827000Y-75420911D01*
X101827000Y-75309932D01*
X114869600Y-75309932D01*
X114869600Y-76601668D01*
X115363927Y-77795077D01*
X116277323Y-78708473D01*
X117470732Y-79202800D01*
X118762468Y-79202800D01*
X119955877Y-78708473D01*
X120869273Y-77795077D01*
X121363600Y-76601668D01*
X121363600Y-75309932D01*
X120869273Y-74116523D01*
X120531839Y-73779089D01*
X123573000Y-73779089D01*
X123573000Y-75420911D01*
X124201298Y-76937758D01*
X125362242Y-78098702D01*
X126879089Y-78727000D01*
X128520911Y-78727000D01*
X130037758Y-78098702D01*
X131198702Y-76937758D01*
X131827000Y-75420911D01*
X131827000Y-73779089D01*
X131198702Y-72262242D01*
X130037758Y-71101298D01*
X128520911Y-70473000D01*
X126879089Y-70473000D01*
X125362242Y-71101298D01*
X124201298Y-72262242D01*
X123573000Y-73779089D01*
X120531839Y-73779089D01*
X119955877Y-73203127D01*
X118762468Y-72708800D01*
X117470732Y-72708800D01*
X116277323Y-73203127D01*
X115363927Y-74116523D01*
X114869600Y-75309932D01*
X101827000Y-75309932D01*
X101827000Y-73779089D01*
X101198702Y-72262242D01*
X100037758Y-71101298D01*
X98520911Y-70473000D01*
X96879089Y-70473000D01*
X95362242Y-71101298D01*
X94201298Y-72262242D01*
X93573000Y-73779089D01*
X89463473Y-73779089D01*
X96568119Y-67858550D01*
X106412600Y-67858550D01*
X106412600Y-68872633D01*
X106547942Y-69199378D01*
X106798022Y-69449458D01*
X107124767Y-69584800D01*
X108138850Y-69584800D01*
X108361100Y-69362550D01*
X108361100Y-67636300D01*
X108742100Y-67636300D01*
X108742100Y-69362550D01*
X108964350Y-69584800D01*
X109978433Y-69584800D01*
X110305178Y-69449458D01*
X110555258Y-69199378D01*
X110690600Y-68872633D01*
X110690600Y-67858550D01*
X125542600Y-67858550D01*
X125542600Y-68872633D01*
X125677942Y-69199378D01*
X125928022Y-69449458D01*
X126254767Y-69584800D01*
X127268850Y-69584800D01*
X127491100Y-69362550D01*
X127491100Y-67636300D01*
X127872100Y-67636300D01*
X127872100Y-69362550D01*
X128094350Y-69584800D01*
X129108433Y-69584800D01*
X129435178Y-69449458D01*
X129685258Y-69199378D01*
X129820600Y-68872633D01*
X129820600Y-67858550D01*
X129598350Y-67636300D01*
X127872100Y-67636300D01*
X127491100Y-67636300D01*
X125764850Y-67636300D01*
X125542600Y-67858550D01*
X110690600Y-67858550D01*
X110468350Y-67636300D01*
X108742100Y-67636300D01*
X108361100Y-67636300D01*
X106634850Y-67636300D01*
X106412600Y-67858550D01*
X96568119Y-67858550D01*
X97655980Y-66952000D01*
X106412600Y-66952000D01*
X106412600Y-67033050D01*
X106412600Y-67033050D01*
G37*
X106412600Y-67033050D02*
X106634850Y-67255300D01*
X108361100Y-67255300D01*
X108361100Y-67235300D01*
X108742100Y-67235300D01*
X108742100Y-67255300D01*
X110468350Y-67255300D01*
X110690600Y-67033050D01*
X110690600Y-66952000D01*
X125542600Y-66952000D01*
X125542600Y-67033050D01*
X125764850Y-67255300D01*
X127491100Y-67255300D01*
X127491100Y-67235300D01*
X127872100Y-67235300D01*
X127872100Y-67255300D01*
X129598350Y-67255300D01*
X129820600Y-67033050D01*
X129820600Y-66952000D01*
X131953000Y-66952000D01*
X131953000Y-83693000D01*
X114300000Y-83693000D01*
X114251399Y-83702667D01*
X114210197Y-83730197D01*
X114182667Y-83771399D01*
X114173000Y-83820000D01*
X114173000Y-106627394D01*
X93890197Y-126910197D01*
X93862667Y-126951399D01*
X93853000Y-127000000D01*
X93853000Y-131003109D01*
X93573000Y-131679089D01*
X93573000Y-133320911D01*
X93853000Y-133996891D01*
X93853000Y-140298000D01*
X89726239Y-140298000D01*
X89821391Y-140036801D01*
X89782358Y-139136972D01*
X89513102Y-138486930D01*
X89143640Y-138350770D01*
X87809409Y-139685001D01*
X87823551Y-139699143D01*
X87554143Y-139968551D01*
X87540001Y-139954409D01*
X87525859Y-139968551D01*
X87256451Y-139699143D01*
X87270593Y-139685001D01*
X85936362Y-138350770D01*
X85566900Y-138486930D01*
X85258611Y-139333201D01*
X85297644Y-140233030D01*
X85324555Y-140298000D01*
X70596239Y-140298000D01*
X70691391Y-140036801D01*
X70652358Y-139136972D01*
X70383102Y-138486930D01*
X70013640Y-138350770D01*
X68679409Y-139685001D01*
X68693551Y-139699143D01*
X68424143Y-139968551D01*
X68410001Y-139954409D01*
X68395859Y-139968551D01*
X68126451Y-139699143D01*
X68140593Y-139685001D01*
X66806362Y-138350770D01*
X66436900Y-138486930D01*
X66167000Y-139227821D01*
X66167000Y-138081362D01*
X67075770Y-138081362D01*
X68410001Y-139415593D01*
X69744232Y-138081362D01*
X86205770Y-138081362D01*
X87540001Y-139415593D01*
X88874232Y-138081362D01*
X88738072Y-137711900D01*
X87891801Y-137403611D01*
X86991972Y-137442644D01*
X86341930Y-137711900D01*
X86205770Y-138081362D01*
X69744232Y-138081362D01*
X69608072Y-137711900D01*
X68761801Y-137403611D01*
X67861972Y-137442644D01*
X67211930Y-137711900D01*
X67075770Y-138081362D01*
X66167000Y-138081362D01*
X66167000Y-136727000D01*
X67520911Y-136727000D01*
X69037758Y-136098702D01*
X70198702Y-134937758D01*
X70827000Y-133420911D01*
X70827000Y-131779089D01*
X70309252Y-130529133D01*
X74728001Y-130529133D01*
X74728001Y-131820869D01*
X75222328Y-133014278D01*
X76135724Y-133927674D01*
X77329133Y-134422001D01*
X78620869Y-134422001D01*
X79814278Y-133927674D01*
X80727674Y-133014278D01*
X81222001Y-131820869D01*
X81222001Y-130529133D01*
X80727674Y-129335724D01*
X79814278Y-128422328D01*
X78620869Y-127928001D01*
X77329133Y-127928001D01*
X76135724Y-128422328D01*
X75222328Y-129335724D01*
X74728001Y-130529133D01*
X70309252Y-130529133D01*
X70198702Y-130262242D01*
X69037758Y-129101298D01*
X67520911Y-128473000D01*
X66167000Y-128473000D01*
X66167000Y-94037628D01*
X86442482Y-76296582D01*
X89463473Y-73779089D01*
X93573000Y-73779089D01*
X93573000Y-75420911D01*
X94201298Y-76937758D01*
X95362242Y-78098702D01*
X96879089Y-78727000D01*
X98520911Y-78727000D01*
X100037758Y-78098702D01*
X101198702Y-76937758D01*
X101827000Y-75420911D01*
X101827000Y-75309932D01*
X114869600Y-75309932D01*
X114869600Y-76601668D01*
X115363927Y-77795077D01*
X116277323Y-78708473D01*
X117470732Y-79202800D01*
X118762468Y-79202800D01*
X119955877Y-78708473D01*
X120869273Y-77795077D01*
X121363600Y-76601668D01*
X121363600Y-75309932D01*
X120869273Y-74116523D01*
X120531839Y-73779089D01*
X123573000Y-73779089D01*
X123573000Y-75420911D01*
X124201298Y-76937758D01*
X125362242Y-78098702D01*
X126879089Y-78727000D01*
X128520911Y-78727000D01*
X130037758Y-78098702D01*
X131198702Y-76937758D01*
X131827000Y-75420911D01*
X131827000Y-73779089D01*
X131198702Y-72262242D01*
X130037758Y-71101298D01*
X128520911Y-70473000D01*
X126879089Y-70473000D01*
X125362242Y-71101298D01*
X124201298Y-72262242D01*
X123573000Y-73779089D01*
X120531839Y-73779089D01*
X119955877Y-73203127D01*
X118762468Y-72708800D01*
X117470732Y-72708800D01*
X116277323Y-73203127D01*
X115363927Y-74116523D01*
X114869600Y-75309932D01*
X101827000Y-75309932D01*
X101827000Y-73779089D01*
X101198702Y-72262242D01*
X100037758Y-71101298D01*
X98520911Y-70473000D01*
X96879089Y-70473000D01*
X95362242Y-71101298D01*
X94201298Y-72262242D01*
X93573000Y-73779089D01*
X89463473Y-73779089D01*
X96568119Y-67858550D01*
X106412600Y-67858550D01*
X106412600Y-68872633D01*
X106547942Y-69199378D01*
X106798022Y-69449458D01*
X107124767Y-69584800D01*
X108138850Y-69584800D01*
X108361100Y-69362550D01*
X108361100Y-67636300D01*
X108742100Y-67636300D01*
X108742100Y-69362550D01*
X108964350Y-69584800D01*
X109978433Y-69584800D01*
X110305178Y-69449458D01*
X110555258Y-69199378D01*
X110690600Y-68872633D01*
X110690600Y-67858550D01*
X125542600Y-67858550D01*
X125542600Y-68872633D01*
X125677942Y-69199378D01*
X125928022Y-69449458D01*
X126254767Y-69584800D01*
X127268850Y-69584800D01*
X127491100Y-69362550D01*
X127491100Y-67636300D01*
X127872100Y-67636300D01*
X127872100Y-69362550D01*
X128094350Y-69584800D01*
X129108433Y-69584800D01*
X129435178Y-69449458D01*
X129685258Y-69199378D01*
X129820600Y-68872633D01*
X129820600Y-67858550D01*
X129598350Y-67636300D01*
X127872100Y-67636300D01*
X127491100Y-67636300D01*
X125764850Y-67636300D01*
X125542600Y-67858550D01*
X110690600Y-67858550D01*
X110468350Y-67636300D01*
X108742100Y-67636300D01*
X108361100Y-67636300D01*
X106634850Y-67636300D01*
X106412600Y-67858550D01*
X96568119Y-67858550D01*
X97655980Y-66952000D01*
X106412600Y-66952000D01*
X106412600Y-67033050D01*
G04 #@! TO.N,GND1*
G36*
X181209800Y-128806650D02*
X181432050Y-129028900D01*
X183658300Y-129028900D01*
X183658300Y-129008900D01*
X184039300Y-129008900D01*
X184039300Y-129028900D01*
X184059300Y-129028900D01*
X184059300Y-129409900D01*
X184039300Y-129409900D01*
X184039300Y-129413000D01*
X183658300Y-129413000D01*
X183658300Y-129409900D01*
X181432050Y-129409900D01*
X181428950Y-129413000D01*
X178727454Y-129413000D01*
X178659077Y-129247923D01*
X178385753Y-128974599D01*
X178707987Y-128974599D01*
X179018329Y-129036330D01*
X179289465Y-128982398D01*
X179560601Y-129036330D01*
X179870943Y-128974599D01*
X180790060Y-128791775D01*
X181209800Y-128511314D01*
X181209800Y-128806650D01*
X181209800Y-128806650D01*
G37*
X181209800Y-128806650D02*
X181432050Y-129028900D01*
X183658300Y-129028900D01*
X183658300Y-129008900D01*
X184039300Y-129008900D01*
X184039300Y-129028900D01*
X184059300Y-129028900D01*
X184059300Y-129409900D01*
X184039300Y-129409900D01*
X184039300Y-129413000D01*
X183658300Y-129413000D01*
X183658300Y-129409900D01*
X181432050Y-129409900D01*
X181428950Y-129413000D01*
X178727454Y-129413000D01*
X178659077Y-129247923D01*
X178385753Y-128974599D01*
X178707987Y-128974599D01*
X179018329Y-129036330D01*
X179289465Y-128982398D01*
X179560601Y-129036330D01*
X179870943Y-128974599D01*
X180790060Y-128791775D01*
X181209800Y-128511314D01*
X181209800Y-128806650D01*
G36*
X180341126Y-83934858D02*
X180341126Y-87900000D01*
X180467400Y-88534824D01*
X180826999Y-89073001D01*
X181365176Y-89432600D01*
X182000000Y-89558874D01*
X187000000Y-89558874D01*
X187634824Y-89432600D01*
X188173001Y-89073001D01*
X188532600Y-88534824D01*
X188658874Y-87900000D01*
X188658874Y-83938473D01*
X198941126Y-83942942D01*
X198941126Y-87900000D01*
X199067400Y-88534824D01*
X199426999Y-89073001D01*
X199965176Y-89432600D01*
X200600000Y-89558874D01*
X204298001Y-89558874D01*
X204298000Y-125841126D01*
X202319681Y-125841126D01*
X201053960Y-124575404D01*
X200920673Y-124375927D01*
X200370625Y-124008397D01*
X200315101Y-123925299D01*
X199776924Y-123565700D01*
X199142100Y-123439426D01*
X197618100Y-123439426D01*
X196983276Y-123565700D01*
X196445099Y-123925299D01*
X196380100Y-124022577D01*
X196315101Y-123925299D01*
X195776924Y-123565700D01*
X195142100Y-123439426D01*
X194741917Y-123439426D01*
X194247095Y-123341000D01*
X194247094Y-123341000D01*
X194011800Y-123294197D01*
X193776506Y-123341000D01*
X192672649Y-123341000D01*
X192070000Y-123221126D01*
X190920000Y-123221126D01*
X190285176Y-123347400D01*
X190045000Y-123507881D01*
X189804824Y-123347400D01*
X189170000Y-123221126D01*
X188389968Y-123221126D01*
X187869544Y-122442256D01*
X186827259Y-121745824D01*
X185908142Y-121563000D01*
X180980542Y-121563000D01*
X180670200Y-121501269D01*
X180359858Y-121563000D01*
X179440741Y-121745824D01*
X178398456Y-122442256D01*
X178379225Y-122471038D01*
X170951141Y-115042955D01*
X170775344Y-114779856D01*
X170512245Y-114604059D01*
X169651000Y-113742814D01*
X169651000Y-113187702D01*
X169673001Y-113173001D01*
X170032600Y-112634824D01*
X170158874Y-112000000D01*
X170158874Y-108000000D01*
X170032600Y-107365176D01*
X169673001Y-106826999D01*
X169134824Y-106467400D01*
X168500000Y-106341126D01*
X164500000Y-106341126D01*
X163957000Y-106449135D01*
X163957000Y-105714236D01*
X163996422Y-105753658D01*
X164323167Y-105889000D01*
X166087250Y-105889000D01*
X166309500Y-105666750D01*
X166309500Y-103190500D01*
X166690500Y-103190500D01*
X166690500Y-105666750D01*
X166912750Y-105889000D01*
X168676833Y-105889000D01*
X169003578Y-105753658D01*
X169253658Y-105503578D01*
X169389000Y-105176833D01*
X169389000Y-103412750D01*
X169166750Y-103190500D01*
X166690500Y-103190500D01*
X166309500Y-103190500D01*
X166289500Y-103190500D01*
X166289500Y-102809500D01*
X166309500Y-102809500D01*
X166309500Y-102789500D01*
X166690500Y-102789500D01*
X166690500Y-102809500D01*
X169166750Y-102809500D01*
X169197161Y-102779089D01*
X191573000Y-102779089D01*
X191573000Y-104420911D01*
X192201298Y-105937758D01*
X193362242Y-107098702D01*
X194879089Y-107727000D01*
X196520911Y-107727000D01*
X198037758Y-107098702D01*
X199198702Y-105937758D01*
X199827000Y-104420911D01*
X199827000Y-102779089D01*
X199198702Y-101262242D01*
X198037758Y-100101298D01*
X196520911Y-99473000D01*
X194879089Y-99473000D01*
X193362242Y-100101298D01*
X192201298Y-101262242D01*
X191573000Y-102779089D01*
X169197161Y-102779089D01*
X169389000Y-102587250D01*
X169389000Y-100823167D01*
X169253658Y-100496422D01*
X169037000Y-100279764D01*
X169037000Y-90170000D01*
X169027333Y-90121399D01*
X168999803Y-90080197D01*
X168958601Y-90052667D01*
X168910000Y-90043000D01*
X151011558Y-90043000D01*
X150955249Y-89759913D01*
X150579074Y-89196926D01*
X150016087Y-88820751D01*
X149519632Y-88722000D01*
X149352000Y-88688656D01*
X149184368Y-88722000D01*
X138343632Y-88722000D01*
X138176000Y-88688656D01*
X138008368Y-88722000D01*
X137511913Y-88820751D01*
X137337800Y-88937089D01*
X137337800Y-83946961D01*
X161163099Y-83939730D01*
X179057284Y-83934300D01*
X180341126Y-83934858D01*
X180341126Y-83934858D01*
G37*
X180341126Y-83934858D02*
X180341126Y-87900000D01*
X180467400Y-88534824D01*
X180826999Y-89073001D01*
X181365176Y-89432600D01*
X182000000Y-89558874D01*
X187000000Y-89558874D01*
X187634824Y-89432600D01*
X188173001Y-89073001D01*
X188532600Y-88534824D01*
X188658874Y-87900000D01*
X188658874Y-83938473D01*
X198941126Y-83942942D01*
X198941126Y-87900000D01*
X199067400Y-88534824D01*
X199426999Y-89073001D01*
X199965176Y-89432600D01*
X200600000Y-89558874D01*
X204298001Y-89558874D01*
X204298000Y-125841126D01*
X202319681Y-125841126D01*
X201053960Y-124575404D01*
X200920673Y-124375927D01*
X200370625Y-124008397D01*
X200315101Y-123925299D01*
X199776924Y-123565700D01*
X199142100Y-123439426D01*
X197618100Y-123439426D01*
X196983276Y-123565700D01*
X196445099Y-123925299D01*
X196380100Y-124022577D01*
X196315101Y-123925299D01*
X195776924Y-123565700D01*
X195142100Y-123439426D01*
X194741917Y-123439426D01*
X194247095Y-123341000D01*
X194247094Y-123341000D01*
X194011800Y-123294197D01*
X193776506Y-123341000D01*
X192672649Y-123341000D01*
X192070000Y-123221126D01*
X190920000Y-123221126D01*
X190285176Y-123347400D01*
X190045000Y-123507881D01*
X189804824Y-123347400D01*
X189170000Y-123221126D01*
X188389968Y-123221126D01*
X187869544Y-122442256D01*
X186827259Y-121745824D01*
X185908142Y-121563000D01*
X180980542Y-121563000D01*
X180670200Y-121501269D01*
X180359858Y-121563000D01*
X179440741Y-121745824D01*
X178398456Y-122442256D01*
X178379225Y-122471038D01*
X170951141Y-115042955D01*
X170775344Y-114779856D01*
X170512245Y-114604059D01*
X169651000Y-113742814D01*
X169651000Y-113187702D01*
X169673001Y-113173001D01*
X170032600Y-112634824D01*
X170158874Y-112000000D01*
X170158874Y-108000000D01*
X170032600Y-107365176D01*
X169673001Y-106826999D01*
X169134824Y-106467400D01*
X168500000Y-106341126D01*
X164500000Y-106341126D01*
X163957000Y-106449135D01*
X163957000Y-105714236D01*
X163996422Y-105753658D01*
X164323167Y-105889000D01*
X166087250Y-105889000D01*
X166309500Y-105666750D01*
X166309500Y-103190500D01*
X166690500Y-103190500D01*
X166690500Y-105666750D01*
X166912750Y-105889000D01*
X168676833Y-105889000D01*
X169003578Y-105753658D01*
X169253658Y-105503578D01*
X169389000Y-105176833D01*
X169389000Y-103412750D01*
X169166750Y-103190500D01*
X166690500Y-103190500D01*
X166309500Y-103190500D01*
X166289500Y-103190500D01*
X166289500Y-102809500D01*
X166309500Y-102809500D01*
X166309500Y-102789500D01*
X166690500Y-102789500D01*
X166690500Y-102809500D01*
X169166750Y-102809500D01*
X169197161Y-102779089D01*
X191573000Y-102779089D01*
X191573000Y-104420911D01*
X192201298Y-105937758D01*
X193362242Y-107098702D01*
X194879089Y-107727000D01*
X196520911Y-107727000D01*
X198037758Y-107098702D01*
X199198702Y-105937758D01*
X199827000Y-104420911D01*
X199827000Y-102779089D01*
X199198702Y-101262242D01*
X198037758Y-100101298D01*
X196520911Y-99473000D01*
X194879089Y-99473000D01*
X193362242Y-100101298D01*
X192201298Y-101262242D01*
X191573000Y-102779089D01*
X169197161Y-102779089D01*
X169389000Y-102587250D01*
X169389000Y-100823167D01*
X169253658Y-100496422D01*
X169037000Y-100279764D01*
X169037000Y-90170000D01*
X169027333Y-90121399D01*
X168999803Y-90080197D01*
X168958601Y-90052667D01*
X168910000Y-90043000D01*
X151011558Y-90043000D01*
X150955249Y-89759913D01*
X150579074Y-89196926D01*
X150016087Y-88820751D01*
X149519632Y-88722000D01*
X149352000Y-88688656D01*
X149184368Y-88722000D01*
X138343632Y-88722000D01*
X138176000Y-88688656D01*
X138008368Y-88722000D01*
X137511913Y-88820751D01*
X137337800Y-88937089D01*
X137337800Y-83946961D01*
X161163099Y-83939730D01*
X179057284Y-83934300D01*
X180341126Y-83934858D01*
G04 #@! TD*
M02*
