M48
INCH,TZ
T1C0.0472
T2C0.0520
T3C0.0591
T4C0.0866
T5C0.1181
T6C0.1969
T7C0.0945
T8C0.1276
T9C0.1398
%
G90
G05
T1
X72933Y-53634
X72933Y-54634
X73898Y-53634
X73898Y-54634
X76750Y-29785
X76750Y-30750
X77750Y-29785
X77750Y-30750
T2
X58547Y-26561
X58547Y-54994
X66079Y-26561
X66079Y-54994
X42737Y-26553
X42737Y-54987
X50268Y-26553
X50268Y-54987
X26933Y-26561
X26933Y-54994
X34465Y-26561
X34465Y-54994
T3
X47244Y-36614
X47244Y-38484
X47244Y-39961
X47244Y-41437
X47244Y-43307
X65551Y-40551
X65551Y-43307
T4
X72519Y-51012
X79750Y-30750
X74630Y-31500
T5
X72638Y-33622
X79961Y-33622
X79961Y-51181
T6
X62087Y-52205
X50276Y-29370
X50276Y-52205
X23504Y-40827
X38465Y-52165
X38465Y-29370
X62087Y-29370
X26260Y-29370
X74252Y-52205
X26260Y-52205
X74291Y-29370
X77047Y-40787
T7
X55423Y-54994
X39613Y-54987
X23809Y-54994
T8
X46503Y-29904
X46503Y-51636
X30699Y-29911
X30699Y-51644
T9
X55423Y-29911
X69203Y-51644
X53392Y-51636
X23809Y-29911
T0
M30
