G04 #@! TF.GenerationSoftware,KiCad,Pcbnew,(5.0.2)-1*
G04 #@! TF.CreationDate,2019-04-27T17:24:53-04:00*
G04 #@! TF.ProjectId,2p3s-pwr-pack,32703373-2d70-4777-922d-7061636b2e6b,V1*
G04 #@! TF.SameCoordinates,Original*
G04 #@! TF.FileFunction,Other,Fab,Top*
%FSLAX46Y46*%
G04 Gerber Fmt 4.6, Leading zero omitted, Abs format (unit mm)*
G04 Created by KiCad (PCBNEW (5.0.2)-1) date 4/27/2019 5:24:53 PM*
%MOMM*%
%LPD*%
G01*
G04 APERTURE LIST*
%ADD10C,0.150000*%
%ADD11C,0.100000*%
G04 APERTURE END LIST*
D10*
G04 #@! TO.C,MOD1*
X182050000Y-82950000D02*
X182050000Y-132450000D01*
X205550000Y-82950000D02*
X205550000Y-132450000D01*
X205550000Y-132450000D02*
X182050000Y-132450000D01*
X205550000Y-82950000D02*
X182050000Y-82950000D01*
X200400000Y-114100000D02*
X200400000Y-127100000D01*
X203400000Y-114100000D02*
X203400000Y-127100000D01*
X200400000Y-114100000D02*
X203400000Y-114100000D01*
X203400000Y-127100000D02*
X200400000Y-127100000D01*
X200400000Y-116100000D02*
X203400000Y-119100000D01*
X200400000Y-118100000D02*
X203400000Y-121100000D01*
X203400000Y-123100000D02*
X200400000Y-120100000D01*
X203400000Y-125100000D02*
X200400000Y-122100000D01*
X200400000Y-122100000D02*
X200400000Y-124100000D01*
X200400000Y-124100000D02*
X203400000Y-127100000D01*
X200400000Y-126100000D02*
X201400000Y-127100000D01*
X200400000Y-114100000D02*
X203400000Y-117100000D01*
X202400000Y-114100000D02*
X203400000Y-115100000D01*
X200400000Y-93500000D02*
X200400000Y-106500000D01*
X203400000Y-93500000D02*
X203400000Y-106500000D01*
X200400000Y-93500000D02*
X203400000Y-93500000D01*
X203400000Y-106500000D02*
X200400000Y-106500000D01*
X200400000Y-95500000D02*
X203400000Y-98500000D01*
X202400000Y-93500000D02*
X203400000Y-94500000D01*
X203400000Y-104500000D02*
X200400000Y-101500000D01*
X203400000Y-102500000D02*
X200400000Y-99500000D01*
X200400000Y-101500000D02*
X200400000Y-103500000D01*
X200400000Y-97500000D02*
X203400000Y-100500000D01*
X200400000Y-103500000D02*
X203400000Y-106500000D01*
X200400000Y-105500000D02*
X201400000Y-106500000D01*
X200400000Y-93500000D02*
X203400000Y-96500000D01*
X188300000Y-131200000D02*
X188300000Y-128700000D01*
X188300000Y-128700000D02*
X194800000Y-128700000D01*
X194800000Y-128700000D02*
X194800000Y-131200000D01*
X194800000Y-131200000D02*
X188300000Y-131200000D01*
X188300000Y-130200000D02*
X189300000Y-131200000D01*
X188300000Y-128700000D02*
X190800000Y-131200000D01*
X190800000Y-131200000D02*
X192300000Y-131200000D01*
X192300000Y-131200000D02*
X189800000Y-128700000D01*
X189800000Y-128700000D02*
X191300000Y-128700000D01*
X191300000Y-128700000D02*
X193800000Y-131200000D01*
X194800000Y-130700000D02*
X192800000Y-128700000D01*
X194300000Y-128700000D02*
X194800000Y-129200000D01*
X198800000Y-103200000D02*
X191300000Y-103200000D01*
X191300000Y-103200000D02*
X190800000Y-103200000D01*
X190800000Y-103200000D02*
X190800000Y-95200000D01*
X190800000Y-95200000D02*
X198800000Y-95200000D01*
X198800000Y-95200000D02*
X198800000Y-103200000D01*
G04 #@! TO.C,BATT1*
X164840001Y-75075001D02*
X170840001Y-75075001D01*
X167840001Y-72075001D02*
X167840001Y-78075001D01*
X137775001Y-64575001D02*
X178775001Y-64575001D01*
X178775001Y-64575001D02*
X178775001Y-142575001D01*
X164840001Y-75075001D02*
X170840001Y-75075001D01*
X164840001Y-135075001D02*
X170840001Y-135075001D01*
X167840001Y-72075001D02*
X167840001Y-78075001D01*
X148710001Y-72075001D02*
X148710001Y-78075001D01*
X137775001Y-142575001D02*
X178775001Y-142575001D01*
X137775001Y-64575001D02*
X137775001Y-142575001D01*
X145710001Y-75075001D02*
X151710001Y-75075001D01*
X145710001Y-135075001D02*
X151710001Y-135075001D01*
G04 #@! TO.C,BATT3*
X65410001Y-135075001D02*
X71410001Y-135075001D01*
X65410001Y-75075001D02*
X71410001Y-75075001D01*
X57475001Y-64575001D02*
X57475001Y-142575001D01*
X57475001Y-142575001D02*
X98475001Y-142575001D01*
X68410001Y-72075001D02*
X68410001Y-78075001D01*
X87540001Y-72075001D02*
X87540001Y-78075001D01*
X84540001Y-135075001D02*
X90540001Y-135075001D01*
X84540001Y-75075001D02*
X90540001Y-75075001D01*
X98475001Y-64575001D02*
X98475001Y-142575001D01*
X57475001Y-64575001D02*
X98475001Y-64575001D01*
X87540001Y-72075001D02*
X87540001Y-78075001D01*
X84540001Y-75075001D02*
X90540001Y-75075001D01*
G04 #@! TO.C,BATT2*
X124681600Y-75055800D02*
X130681600Y-75055800D01*
X127681600Y-72055800D02*
X127681600Y-78055800D01*
X97616600Y-64555800D02*
X138616600Y-64555800D01*
X138616600Y-64555800D02*
X138616600Y-142555800D01*
X124681600Y-75055800D02*
X130681600Y-75055800D01*
X124681600Y-135055800D02*
X130681600Y-135055800D01*
X127681600Y-72055800D02*
X127681600Y-78055800D01*
X108551600Y-72055800D02*
X108551600Y-78055800D01*
X97616600Y-142555800D02*
X138616600Y-142555800D01*
X97616600Y-64555800D02*
X97616600Y-142555800D01*
X105551600Y-75055800D02*
X111551600Y-75055800D01*
X105551600Y-135055800D02*
X111551600Y-135055800D01*
G04 #@! TO.C,P13*
X188450000Y-140500000D02*
X188450000Y-134500000D01*
X188000000Y-134500000D02*
X188450000Y-134500000D01*
X188000000Y-140500000D02*
X188000000Y-134500000D01*
X188450000Y-140500000D02*
X188000000Y-140500000D01*
X186750000Y-136250000D02*
X187000000Y-136500000D01*
X186750000Y-136250000D02*
X187000000Y-136000000D01*
X187750000Y-136250000D02*
X186750000Y-136250000D01*
X186750000Y-138750000D02*
X187000000Y-138500000D01*
X186750000Y-138750000D02*
X187000000Y-139000000D01*
X187750000Y-138750000D02*
X186750000Y-138750000D01*
X188350000Y-140270000D02*
X188350000Y-134730000D01*
X188350000Y-140270000D02*
X182150000Y-140270000D01*
X188350000Y-134730000D02*
X182150000Y-134730000D01*
X182150000Y-140270000D02*
X182150000Y-134730000D01*
G04 #@! TO.C,P16*
X198985000Y-81205000D02*
X193445000Y-81205000D01*
X193445000Y-75005000D02*
X193445000Y-81205000D01*
X198985000Y-75005000D02*
X198985000Y-81205000D01*
X198985000Y-75005000D02*
X193445000Y-75005000D01*
X197465000Y-75605000D02*
X197465000Y-76605000D01*
X197465000Y-76605000D02*
X197715000Y-76355000D01*
X197465000Y-76605000D02*
X197215000Y-76355000D01*
X194965000Y-75605000D02*
X194965000Y-76605000D01*
X194965000Y-76605000D02*
X194715000Y-76355000D01*
X194965000Y-76605000D02*
X195215000Y-76355000D01*
X199215000Y-74905000D02*
X199215000Y-75355000D01*
X199215000Y-75355000D02*
X193215000Y-75355000D01*
X193215000Y-75355000D02*
X193215000Y-74905000D01*
X199215000Y-74905000D02*
X193215000Y-74905000D01*
G04 #@! TD*
G04 #@! TO.C,MOD1*
X194252380Y-109533333D02*
X193252380Y-109533333D01*
X193966666Y-109200000D01*
X193252380Y-108866666D01*
X194252380Y-108866666D01*
X193252380Y-108200000D02*
X193252380Y-108009523D01*
X193300000Y-107914285D01*
X193395238Y-107819047D01*
X193585714Y-107771428D01*
X193919047Y-107771428D01*
X194109523Y-107819047D01*
X194204761Y-107914285D01*
X194252380Y-108009523D01*
X194252380Y-108200000D01*
X194204761Y-108295238D01*
X194109523Y-108390476D01*
X193919047Y-108438095D01*
X193585714Y-108438095D01*
X193395238Y-108390476D01*
X193300000Y-108295238D01*
X193252380Y-108200000D01*
X194252380Y-107342857D02*
X193252380Y-107342857D01*
X193252380Y-107104761D01*
X193300000Y-106961904D01*
X193395238Y-106866666D01*
X193490476Y-106819047D01*
X193680952Y-106771428D01*
X193823809Y-106771428D01*
X194014285Y-106819047D01*
X194109523Y-106866666D01*
X194204761Y-106961904D01*
X194252380Y-107104761D01*
X194252380Y-107342857D01*
X194252380Y-105819047D02*
X194252380Y-106390476D01*
X194252380Y-106104761D02*
X193252380Y-106104761D01*
X193395238Y-106200000D01*
X193490476Y-106295238D01*
X193538095Y-106390476D01*
X193537309Y-97162859D02*
X193941370Y-97566920D01*
X193032233Y-98071996D02*
X193739339Y-97364889D01*
X193469965Y-98509729D02*
X194177072Y-97802622D01*
X193840355Y-98139339D02*
X194244416Y-98543400D01*
X193874026Y-98913790D02*
X194581133Y-98206683D01*
X194581133Y-98880118D02*
X194816835Y-99115820D01*
X194547461Y-99587225D02*
X194210744Y-99250507D01*
X194917851Y-98543400D01*
X195254568Y-98880118D01*
X195254568Y-100294331D02*
X195355583Y-99721912D01*
X194850507Y-99890270D02*
X195557614Y-99183164D01*
X195826988Y-99452538D01*
X195860660Y-99553553D01*
X195860660Y-99620896D01*
X195826988Y-99721912D01*
X195725973Y-99822927D01*
X195624957Y-99856599D01*
X195557614Y-99856599D01*
X195456599Y-99822927D01*
X195187225Y-99553553D01*
X195557614Y-100597377D02*
X196264721Y-99890270D01*
X195995347Y-100631049D01*
X196736125Y-100361675D01*
X196029018Y-101068782D01*
G04 #@! TO.C,BATT1*
D11*
X156679762Y-103503572D02*
X156822620Y-103551191D01*
X156870239Y-103598810D01*
X156917858Y-103694048D01*
X156917858Y-103836905D01*
X156870239Y-103932143D01*
X156822620Y-103979762D01*
X156727381Y-104027381D01*
X156346429Y-104027381D01*
X156346429Y-103027381D01*
X156679762Y-103027381D01*
X156775001Y-103075001D01*
X156822620Y-103122620D01*
X156870239Y-103217858D01*
X156870239Y-103313096D01*
X156822620Y-103408334D01*
X156775001Y-103455953D01*
X156679762Y-103503572D01*
X156346429Y-103503572D01*
X157298810Y-103741667D02*
X157775001Y-103741667D01*
X157203572Y-104027381D02*
X157536905Y-103027381D01*
X157870239Y-104027381D01*
X158060715Y-103027381D02*
X158632143Y-103027381D01*
X158346429Y-104027381D02*
X158346429Y-103027381D01*
X158822620Y-103027381D02*
X159394048Y-103027381D01*
X159108334Y-104027381D02*
X159108334Y-103027381D01*
X160251191Y-104027381D02*
X159679762Y-104027381D01*
X159965477Y-104027381D02*
X159965477Y-103027381D01*
X159870239Y-103170239D01*
X159775001Y-103265477D01*
X159679762Y-103313096D01*
G04 #@! TO.C,BATT3*
X76379762Y-103503572D02*
X76522620Y-103551191D01*
X76570239Y-103598810D01*
X76617858Y-103694048D01*
X76617858Y-103836905D01*
X76570239Y-103932143D01*
X76522620Y-103979762D01*
X76427381Y-104027381D01*
X76046429Y-104027381D01*
X76046429Y-103027381D01*
X76379762Y-103027381D01*
X76475001Y-103075001D01*
X76522620Y-103122620D01*
X76570239Y-103217858D01*
X76570239Y-103313096D01*
X76522620Y-103408334D01*
X76475001Y-103455953D01*
X76379762Y-103503572D01*
X76046429Y-103503572D01*
X76998810Y-103741667D02*
X77475001Y-103741667D01*
X76903572Y-104027381D02*
X77236905Y-103027381D01*
X77570239Y-104027381D01*
X77760715Y-103027381D02*
X78332143Y-103027381D01*
X78046429Y-104027381D02*
X78046429Y-103027381D01*
X78522620Y-103027381D02*
X79094048Y-103027381D01*
X78808334Y-104027381D02*
X78808334Y-103027381D01*
X79332143Y-103027381D02*
X79951191Y-103027381D01*
X79617858Y-103408334D01*
X79760715Y-103408334D01*
X79855953Y-103455953D01*
X79903572Y-103503572D01*
X79951191Y-103598810D01*
X79951191Y-103836905D01*
X79903572Y-103932143D01*
X79855953Y-103979762D01*
X79760715Y-104027381D01*
X79475001Y-104027381D01*
X79379762Y-103979762D01*
X79332143Y-103932143D01*
G04 #@! TO.C,BATT2*
X116521361Y-103484371D02*
X116664219Y-103531990D01*
X116711838Y-103579609D01*
X116759457Y-103674847D01*
X116759457Y-103817704D01*
X116711838Y-103912942D01*
X116664219Y-103960561D01*
X116568980Y-104008180D01*
X116188028Y-104008180D01*
X116188028Y-103008180D01*
X116521361Y-103008180D01*
X116616600Y-103055800D01*
X116664219Y-103103419D01*
X116711838Y-103198657D01*
X116711838Y-103293895D01*
X116664219Y-103389133D01*
X116616600Y-103436752D01*
X116521361Y-103484371D01*
X116188028Y-103484371D01*
X117140409Y-103722466D02*
X117616600Y-103722466D01*
X117045171Y-104008180D02*
X117378504Y-103008180D01*
X117711838Y-104008180D01*
X117902314Y-103008180D02*
X118473742Y-103008180D01*
X118188028Y-104008180D02*
X118188028Y-103008180D01*
X118664219Y-103008180D02*
X119235647Y-103008180D01*
X118949933Y-104008180D02*
X118949933Y-103008180D01*
X119521361Y-103103419D02*
X119568980Y-103055800D01*
X119664219Y-103008180D01*
X119902314Y-103008180D01*
X119997552Y-103055800D01*
X120045171Y-103103419D01*
X120092790Y-103198657D01*
X120092790Y-103293895D01*
X120045171Y-103436752D01*
X119473742Y-104008180D01*
X120092790Y-104008180D01*
G04 #@! TD*
M02*
