G04 #@! TF.GenerationSoftware,KiCad,Pcbnew,(5.0.2)-1*
G04 #@! TF.CreationDate,2019-04-27T17:24:53-04:00*
G04 #@! TF.ProjectId,2p3s-pwr-pack,32703373-2d70-4777-922d-7061636b2e6b,V1*
G04 #@! TF.SameCoordinates,Original*
G04 #@! TF.FileFunction,Profile,NP*
%FSLAX46Y46*%
G04 Gerber Fmt 4.6, Leading zero omitted, Abs format (unit mm)*
G04 Created by KiCad (PCBNEW (5.0.2)-1) date 4/27/2019 5:24:53 PM*
%MOMM*%
%LPD*%
G01*
G04 APERTURE LIST*
%ADD10C,0.150000*%
G04 APERTURE END LIST*
D10*
X149352000Y-90424000D02*
X138176000Y-90424000D01*
X149352000Y-101600000D02*
X149352000Y-90424000D01*
X138176000Y-101600000D02*
X149352000Y-101600000D01*
X138176000Y-90424000D02*
X138176000Y-101600000D01*
X191500000Y-134900000D02*
X191500000Y-135700000D01*
X197400000Y-134900000D02*
X191500000Y-134900000D01*
X199800000Y-133000000D02*
X197400000Y-134900000D01*
X191500000Y-135700000D02*
X191500000Y-140800000D01*
X206000000Y-133000000D02*
X199800000Y-133000000D01*
X182000000Y-140750000D02*
X182000000Y-142000000D01*
X191500000Y-140750000D02*
X182000000Y-140750000D01*
X182000000Y-72000000D02*
X182000000Y-65250000D01*
X192500000Y-72000000D02*
X182000000Y-72000000D01*
X192500000Y-74250000D02*
X192500000Y-72000000D01*
X197000000Y-74250000D02*
X192500000Y-74250000D01*
X58250000Y-142000000D02*
X182000000Y-142000000D01*
X58250000Y-133000000D02*
X58250000Y-142000000D01*
X49250000Y-133000000D02*
X58250000Y-133000000D01*
X49250000Y-74250000D02*
X49250000Y-133000000D01*
X58250000Y-74250000D02*
X49250000Y-74250000D01*
X58250000Y-65250000D02*
X58250000Y-74250000D01*
X182000000Y-65250000D02*
X58250000Y-65250000D01*
X197250000Y-74250000D02*
X197000000Y-74250000D01*
X206000000Y-74250000D02*
X197250000Y-74250000D01*
X206000000Y-133000000D02*
X206000000Y-74250000D01*
M02*
