M48
INCH,TZ
T1C0.0472
T2C0.0520
T3C0.0591
T4C0.0866
T5C0.1969
T6C0.0945
T7C0.1276
T8C0.1398
%
G90
G05
T1
X72933Y-53634
X72933Y-54634
X73898Y-53634
X73898Y-54634
T2
X27327Y-26561
X27327Y-54994
X34858Y-26561
X34858Y-54994
X43524Y-26553
X43524Y-54987
X51056Y-26553
X51056Y-54987
X59728Y-26561
X59728Y-54994
X67260Y-26561
X67260Y-54994
T3
X72638Y-33622
X72638Y-51181
X79961Y-33622
X79961Y-51181
X47244Y-36614
X47244Y-38484
X47244Y-39961
X47244Y-41437
X47244Y-43307
X65551Y-40551
X65551Y-43307
T4
X74630Y-31500
X78400Y-31560
T5
X62087Y-29370
X50276Y-29370
X50276Y-52205
X26260Y-29370
X77047Y-40787
X23504Y-40827
X62087Y-52205
X38465Y-29370
X38465Y-52165
X26260Y-52205
X74252Y-52205
X74291Y-29370
T6
X24203Y-54994
X40400Y-54987
X56604Y-54994
T7
X31093Y-29911
X31093Y-51644
X47290Y-29904
X47290Y-51636
T8
X24203Y-29911
X40400Y-29904
X54180Y-51636
X56604Y-29911
X70384Y-51644
T0
M30
