G04 #@! TF.GenerationSoftware,KiCad,Pcbnew,(5.0.2)-1*
G04 #@! TF.CreationDate,2019-03-16T18:46:31-04:00*
G04 #@! TF.ProjectId,2p3s-pwr-pack,32703373-2d70-4777-922d-7061636b2e6b,V1*
G04 #@! TF.SameCoordinates,Original*
G04 #@! TF.FileFunction,Legend,Bot*
G04 #@! TF.FilePolarity,Positive*
%FSLAX46Y46*%
G04 Gerber Fmt 4.6, Leading zero omitted, Abs format (unit mm)*
G04 Created by KiCad (PCBNEW (5.0.2)-1) date 3/16/2019 6:46:31 PM*
%MOMM*%
%LPD*%
G01*
G04 APERTURE LIST*
%ADD10C,0.300000*%
%ADD11C,0.100000*%
%ADD12C,0.150000*%
G04 APERTURE END LIST*
D10*
X157657561Y-68505342D02*
X153848038Y-68505342D01*
X155752800Y-70410104D02*
X155752800Y-66600580D01*
X168731961Y-68505342D02*
X164922438Y-68505342D01*
X166827200Y-70410104D02*
X166827200Y-66600580D01*
X116458761Y-67921142D02*
X112649238Y-67921142D01*
X114554000Y-69825904D02*
X114554000Y-66016380D01*
X127533161Y-67921142D02*
X123723638Y-67921142D01*
X125628400Y-69825904D02*
X125628400Y-66016380D01*
X86613761Y-67921142D02*
X82804238Y-67921142D01*
X84709000Y-69825904D02*
X84709000Y-66016380D01*
X75539361Y-67921142D02*
X71729838Y-67921142D01*
X73634600Y-69825904D02*
X73634600Y-66016380D01*
X85118471Y-106575942D02*
X84975614Y-106647371D01*
X84689900Y-106647371D01*
X84547042Y-106575942D01*
X84475614Y-106433085D01*
X84475614Y-106361657D01*
X84547042Y-106218800D01*
X84689900Y-106147371D01*
X84904185Y-106147371D01*
X85047042Y-106075942D01*
X85118471Y-105933085D01*
X85118471Y-105861657D01*
X85047042Y-105718800D01*
X84904185Y-105647371D01*
X84689900Y-105647371D01*
X84547042Y-105718800D01*
X83261328Y-106575942D02*
X83404185Y-106647371D01*
X83689900Y-106647371D01*
X83832757Y-106575942D01*
X83904185Y-106433085D01*
X83904185Y-105861657D01*
X83832757Y-105718800D01*
X83689900Y-105647371D01*
X83404185Y-105647371D01*
X83261328Y-105718800D01*
X83189900Y-105861657D01*
X83189900Y-106004514D01*
X83904185Y-106147371D01*
X82547042Y-105647371D02*
X82547042Y-106647371D01*
X82547042Y-105790228D02*
X82475614Y-105718800D01*
X82332757Y-105647371D01*
X82118471Y-105647371D01*
X81975614Y-105718800D01*
X81904185Y-105861657D01*
X81904185Y-106647371D01*
X81261328Y-106575942D02*
X81118471Y-106647371D01*
X80832757Y-106647371D01*
X80689900Y-106575942D01*
X80618471Y-106433085D01*
X80618471Y-106361657D01*
X80689900Y-106218800D01*
X80832757Y-106147371D01*
X81047042Y-106147371D01*
X81189900Y-106075942D01*
X81261328Y-105933085D01*
X81261328Y-105861657D01*
X81189900Y-105718800D01*
X81047042Y-105647371D01*
X80832757Y-105647371D01*
X80689900Y-105718800D01*
X79761328Y-106647371D02*
X79904185Y-106575942D01*
X79975614Y-106504514D01*
X80047042Y-106361657D01*
X80047042Y-105933085D01*
X79975614Y-105790228D01*
X79904185Y-105718800D01*
X79761328Y-105647371D01*
X79547042Y-105647371D01*
X79404185Y-105718800D01*
X79332757Y-105790228D01*
X79261328Y-105933085D01*
X79261328Y-106361657D01*
X79332757Y-106504514D01*
X79404185Y-106575942D01*
X79547042Y-106647371D01*
X79761328Y-106647371D01*
X78618471Y-106647371D02*
X78618471Y-105647371D01*
X78618471Y-105933085D02*
X78547042Y-105790228D01*
X78475614Y-105718800D01*
X78332757Y-105647371D01*
X78189900Y-105647371D01*
X77047042Y-106647371D02*
X77047042Y-105861657D01*
X77118471Y-105718800D01*
X77261328Y-105647371D01*
X77547042Y-105647371D01*
X77689900Y-105718800D01*
X77047042Y-106575942D02*
X77189900Y-106647371D01*
X77547042Y-106647371D01*
X77689900Y-106575942D01*
X77761328Y-106433085D01*
X77761328Y-106290228D01*
X77689900Y-106147371D01*
X77547042Y-106075942D01*
X77189900Y-106075942D01*
X77047042Y-106004514D01*
X76332757Y-106647371D02*
X76332757Y-105147371D01*
X76332757Y-105718800D02*
X76189900Y-105647371D01*
X75904185Y-105647371D01*
X75761328Y-105718800D01*
X75689900Y-105790228D01*
X75618471Y-105933085D01*
X75618471Y-106361657D01*
X75689900Y-106504514D01*
X75761328Y-106575942D01*
X75904185Y-106647371D01*
X76189900Y-106647371D01*
X76332757Y-106575942D01*
X74761328Y-106647371D02*
X74904185Y-106575942D01*
X74975614Y-106433085D01*
X74975614Y-105147371D01*
X73618471Y-106575942D02*
X73761328Y-106647371D01*
X74047042Y-106647371D01*
X74189900Y-106575942D01*
X74261328Y-106433085D01*
X74261328Y-105861657D01*
X74189900Y-105718800D01*
X74047042Y-105647371D01*
X73761328Y-105647371D01*
X73618471Y-105718800D01*
X73547042Y-105861657D01*
X73547042Y-106004514D01*
X74261328Y-106147371D01*
X72904185Y-106504514D02*
X72832757Y-106575942D01*
X72904185Y-106647371D01*
X72975614Y-106575942D01*
X72904185Y-106504514D01*
X72904185Y-106647371D01*
X72189900Y-106647371D02*
X72189900Y-105647371D01*
X72189900Y-105147371D02*
X72261328Y-105218800D01*
X72189900Y-105290228D01*
X72118471Y-105218800D01*
X72189900Y-105147371D01*
X72189900Y-105290228D01*
X71261328Y-106647371D02*
X71404185Y-106575942D01*
X71475614Y-106504514D01*
X71547042Y-106361657D01*
X71547042Y-105933085D01*
X71475614Y-105790228D01*
X71404185Y-105718800D01*
X71261328Y-105647371D01*
X71047042Y-105647371D01*
X70904185Y-105718800D01*
X70832757Y-105790228D01*
X70761328Y-105933085D01*
X70761328Y-106361657D01*
X70832757Y-106504514D01*
X70904185Y-106575942D01*
X71047042Y-106647371D01*
X71261328Y-106647371D01*
D11*
X79132766Y-99778844D02*
X79303950Y-99778844D01*
X76496561Y-100500356D02*
X76627600Y-100397255D01*
X76173484Y-101061516D02*
G75*
G03X76244708Y-101125267I121876J64501D01*
G01*
X74657493Y-100900565D02*
X74533531Y-101006424D01*
X76004264Y-101136679D02*
X76169933Y-101136679D01*
X74744761Y-100962250D02*
G75*
G03X74844419Y-100982812I98193J224133D01*
G01*
X74844418Y-100982813D02*
G75*
G03X74925087Y-100969679I2941J236242D01*
G01*
X74517010Y-100772672D02*
X75047059Y-100772672D01*
X76169933Y-101136679D02*
X76169933Y-101136679D01*
X76208290Y-100287658D02*
G75*
G03X76098709Y-100333896I77734J-337197D01*
G01*
X76339933Y-100433852D02*
G75*
G03X76265259Y-100439559I-11074J-346484D01*
G01*
X76169933Y-101061516D02*
X76173484Y-101061516D01*
X76377712Y-101146517D02*
G75*
G03X76501372Y-101126152I-2062J398148D01*
G01*
X76169933Y-101136679D02*
X76169933Y-101061516D01*
X76265259Y-100439559D02*
G75*
G03X76212043Y-100459823I27026J-150981D01*
G01*
X76303340Y-101141204D02*
G75*
G03X76377712Y-101146517I70849J468614D01*
G01*
X76348194Y-100273295D02*
G75*
G03X76208290Y-100287659I-12268J-569047D01*
G01*
X76438308Y-100447230D02*
G75*
G03X76394032Y-100437196I-74272J-225033D01*
G01*
X79303950Y-99778844D02*
X79303950Y-99778844D01*
X76394032Y-100437197D02*
G75*
G03X76339934Y-100433852I-51867J-399742D01*
G01*
X76652282Y-100788707D02*
G75*
G03X76601231Y-100707742I-227865J-87097D01*
G01*
X76517213Y-100653337D02*
G75*
G03X76400530Y-100634153I-114393J-331334D01*
G01*
X76004264Y-100553875D02*
X76004264Y-101136679D01*
X76028845Y-100421357D02*
G75*
G03X76010913Y-100481983I262848J-110710D01*
G01*
X78963168Y-99089002D02*
G75*
G03X78897460Y-99101104I-1995J-173606D01*
G01*
X76098710Y-100333897D02*
G75*
G03X76028845Y-100421357I116143J-164410D01*
G01*
X76434732Y-100279861D02*
G75*
G03X76348195Y-100273295I-76525J-435034D01*
G01*
X76400530Y-100634153D02*
X76169933Y-100634153D01*
X79132766Y-99271989D02*
X79132766Y-99778844D01*
X76501372Y-101126152D02*
G75*
G03X76590603Y-101071354I-74903J222020D01*
G01*
X79084763Y-99137407D02*
G75*
G03X79030363Y-99101104I-113440J-111082D01*
G01*
X76510136Y-100302711D02*
G75*
G03X76434731Y-100279861I-133068J-303272D01*
G01*
X76212043Y-100459823D02*
G75*
G03X76180259Y-100494651I46897J-74714D01*
G01*
X76169933Y-100634153D02*
X76169933Y-100544037D01*
X79120778Y-99195254D02*
G75*
G03X79084763Y-99137406I-146204J-50888D01*
G01*
X76601232Y-100707741D02*
G75*
G03X76517213Y-100653336I-155442J-147972D01*
G01*
X75032804Y-100864608D02*
G75*
G03X75047059Y-100772672I-255455J86682D01*
G01*
X76180259Y-100494651D02*
G75*
G03X76169933Y-100544037I97062J-46067D01*
G01*
X74657493Y-100900565D02*
G75*
G03X74744760Y-100962251I203823J195777D01*
G01*
X79030362Y-99101104D02*
G75*
G03X78963168Y-99089003I-64953J-168055D01*
G01*
X74925087Y-100969678D02*
G75*
G03X74990015Y-100930277I-64267J179100D01*
G01*
X74990015Y-100930277D02*
G75*
G03X75032805Y-100864608I-111137J119192D01*
G01*
X76627600Y-100397255D02*
G75*
G03X76510136Y-100302712I-236965J-174172D01*
G01*
X76496561Y-100500356D02*
G75*
G03X76438308Y-100447230I-106231J-57983D01*
G01*
X76669308Y-100886794D02*
G75*
G03X76652282Y-100788707I-273842J2989D01*
G01*
X79132766Y-99271989D02*
G75*
G03X79120778Y-99195254I-227591J3747D01*
G01*
X76244709Y-101125266D02*
G75*
G03X76303340Y-101141204I96240J238231D01*
G01*
X76010913Y-100481984D02*
G75*
G03X76004264Y-100553875I417304J-74847D01*
G01*
X74533531Y-101006424D02*
G75*
G03X74600826Y-101069780I313216J265270D01*
G01*
X76590603Y-101071354D02*
G75*
G03X76649637Y-100989010I-159733J176849D01*
G01*
X76649638Y-100989010D02*
G75*
G03X76669307Y-100886794I-238303J98857D01*
G01*
X78843538Y-99137406D02*
G75*
G03X78807523Y-99195254I110189J-108736D01*
G01*
X76795708Y-99484493D02*
G75*
G03X76828374Y-99555719I209501J52977D01*
G01*
X76795708Y-99223588D02*
G75*
G03X76788631Y-99275137I308993J-68681D01*
G01*
X78624351Y-99778844D02*
X78795535Y-99778844D01*
X78630118Y-99145067D02*
G75*
G03X78624351Y-99212962I374505J-66006D01*
G01*
X78716629Y-98993180D02*
G75*
G03X78647420Y-99085807I148349J-183013D01*
G01*
X81647683Y-99274646D02*
X81649847Y-99352269D01*
X79132766Y-98927661D02*
X79132766Y-99018564D01*
X78647420Y-99085807D02*
G75*
G03X78630118Y-99145068I261584J-108530D01*
G01*
X76788631Y-99433039D02*
X76786264Y-99354236D01*
X79129618Y-99018564D02*
G75*
G03X79034292Y-98943008I-202021J-156971D01*
G01*
X78908063Y-98917823D02*
G75*
G03X78810621Y-98936662I491J-263968D01*
G01*
X79034292Y-98943008D02*
G75*
G03X78908063Y-98917823I-120813J-276593D01*
G01*
X76786264Y-99354236D02*
X76788631Y-99275137D01*
X79303950Y-99778844D02*
X79303950Y-98927661D01*
X76885242Y-99602646D02*
G75*
G03X76966112Y-99618288I76438J178310D01*
G01*
X76966112Y-99089003D02*
G75*
G03X76885242Y-99104645I-4432J-193952D01*
G01*
X81551861Y-99602646D02*
G75*
G03X81608135Y-99555719I-55881J124217D01*
G01*
X76885242Y-99104645D02*
G75*
G03X76828374Y-99151573I57791J-127954D01*
G01*
X79303950Y-98927661D02*
X79132766Y-98927661D01*
X76828374Y-99555718D02*
G75*
G03X76885242Y-99602645I114657J81026D01*
G01*
X81551860Y-99104646D02*
G75*
G03X81470401Y-99089003I-76770J-179864D01*
G01*
X76966112Y-99618287D02*
G75*
G03X77047561Y-99602645I4684J195483D01*
G01*
X77047561Y-99602645D02*
G75*
G03X77103825Y-99555719I-55885J124198D01*
G01*
X77136893Y-99484097D02*
G75*
G03X77143391Y-99432054I-343520J69317D01*
G01*
X81292926Y-99433038D02*
G75*
G03X81300008Y-99484492I315705J17239D01*
G01*
X81470402Y-99618288D02*
G75*
G03X81551861Y-99602645I4688J195507D01*
G01*
X77143391Y-99274646D02*
X77145557Y-99352269D01*
X74636266Y-99618288D02*
G75*
G03X74733204Y-99601785I5357J261487D01*
G01*
X81641190Y-99223588D02*
G75*
G03X81608135Y-99151573I-195426J-46109D01*
G01*
X77103825Y-99555719D02*
G75*
G03X77136894Y-99484097I-155192J115099D01*
G01*
X77047561Y-99104646D02*
G75*
G03X76966112Y-99089003I-76766J-179841D01*
G01*
X81647683Y-99274646D02*
G75*
G03X81641190Y-99223588I-341122J-17436D01*
G01*
X81300008Y-99484493D02*
G75*
G03X81332671Y-99555719I209499J52970D01*
G01*
X81608134Y-99555719D02*
G75*
G03X81641190Y-99484097I-155198J115068D01*
G01*
X81389535Y-99104646D02*
G75*
G03X81332671Y-99151573I57792J-127944D01*
G01*
X81290563Y-99354236D02*
X81292926Y-99275137D01*
X74542199Y-99595857D02*
G75*
G03X74636266Y-99618288I92386J178977D01*
G01*
X78624351Y-99212962D02*
X78624351Y-99778844D01*
X76788631Y-99433038D02*
G75*
G03X76795708Y-99484492I315703J17208D01*
G01*
X81641190Y-99484097D02*
G75*
G03X81647683Y-99432054I-343522J69284D01*
G01*
X81608135Y-99151573D02*
G75*
G03X81551861Y-99104645I-112157J-77289D01*
G01*
X78810621Y-98936662D02*
G75*
G03X78716629Y-98993180I133626J-328638D01*
G01*
X81470402Y-99089003D02*
G75*
G03X81389534Y-99104645I-4431J-193946D01*
G01*
X77145557Y-99352269D02*
X77143391Y-99432054D01*
X74463117Y-99528567D02*
G75*
G03X74542199Y-99595857I196808J151179D01*
G01*
X74733204Y-99601785D02*
G75*
G03X74802439Y-99552276I-61909J159740D01*
G01*
X78807523Y-99195255D02*
G75*
G03X78795535Y-99271989I215603J-72987D01*
G01*
X74463117Y-99528566D02*
X74463117Y-99528566D01*
X78795535Y-99778844D02*
X78795535Y-99271989D01*
X76786264Y-99354236D02*
X76786264Y-99354236D01*
X79132766Y-99018564D02*
X79129618Y-99018564D01*
X81300008Y-99223588D02*
G75*
G03X81292926Y-99275137I308990J-68711D01*
G01*
X81292926Y-99433039D02*
X81290563Y-99354236D01*
X81649847Y-99352269D02*
X81647683Y-99432054D01*
X81332671Y-99151573D02*
G75*
G03X81300008Y-99223588I185311J-127464D01*
G01*
X77143392Y-99274646D02*
G75*
G03X77136894Y-99223588I-341125J-17470D01*
G01*
X76828373Y-99151573D02*
G75*
G03X76795708Y-99223588I185311J-127471D01*
G01*
X77103825Y-99151572D02*
G75*
G03X77047561Y-99104645I-112151J-77272D01*
G01*
X81290563Y-99354236D02*
X81290563Y-99354236D01*
X81332671Y-99555718D02*
G75*
G03X81389534Y-99602645I114654J81016D01*
G01*
X81389533Y-99602646D02*
G75*
G03X81470401Y-99618288I76437J178304D01*
G01*
X77136893Y-99223588D02*
G75*
G03X77103825Y-99151573I-195433J-46140D01*
G01*
X78897460Y-99101104D02*
G75*
G03X78843538Y-99137406I60564J-148157D01*
G01*
X79897121Y-100977598D02*
G75*
G03X79945023Y-100952511I-27952J111649D01*
G01*
X79473201Y-100553875D02*
X79473201Y-101136679D01*
X79638870Y-100837602D02*
G75*
G03X79648718Y-100916306I262872J-7078D01*
G01*
X79873720Y-99091906D02*
G75*
G03X79803871Y-99079165I-67610J-172815D01*
G01*
X79983709Y-99277106D02*
X79624425Y-99277106D01*
X79945022Y-100952511D02*
G75*
G03X79973079Y-100918276I-69340J85439D01*
G01*
X79638870Y-100837602D02*
X79638870Y-100837602D01*
X79661008Y-100942673D02*
G75*
G03X79678235Y-100960382I53890J35190D01*
G01*
X79639919Y-99192350D02*
G75*
G03X79624425Y-99277106I262405J-91764D01*
G01*
X79803870Y-99079164D02*
G75*
G03X79734953Y-99091906I-2117J-181304D01*
G01*
X79947390Y-100803073D02*
G75*
G03X79902132Y-100783126I-75848J-110779D01*
G01*
X79983709Y-99277106D02*
X79983709Y-99277106D01*
X79497782Y-100421357D02*
G75*
G03X79479850Y-100481983I262849J-110710D01*
G01*
X74469414Y-98959535D02*
G75*
G03X74336788Y-99065391I225349J-418347D01*
G01*
X74733204Y-99105580D02*
G75*
G03X74636266Y-99089003I-91589J-243867D01*
G01*
X79930583Y-99130125D02*
G75*
G03X79873719Y-99091906I-119657J-116620D01*
G01*
X74551165Y-98928250D02*
G75*
G03X74469414Y-98959535I77335J-324540D01*
G01*
X79677227Y-100287658D02*
G75*
G03X79567646Y-100333896I77735J-337197D01*
G01*
X74636266Y-99089003D02*
G75*
G03X74542602Y-99111236I-1518J-202010D01*
G01*
X79969051Y-99192350D02*
G75*
G03X79930583Y-99130125I-159277J-55463D01*
G01*
X74642940Y-99788682D02*
G75*
G03X74783449Y-99763595I1826J395803D01*
G01*
X74802439Y-99552276D02*
G75*
G03X74843969Y-99469759I-169228J136881D01*
G01*
X74843969Y-99469758D02*
G75*
G03X74857821Y-99354236I-417120J108606D01*
G01*
X74857821Y-99354237D02*
G75*
G03X74843969Y-99238198I-434731J6951D01*
G01*
X74961936Y-99629823D02*
G75*
G03X74999186Y-99554636I-283949J187495D01*
G01*
X79736564Y-100980353D02*
G75*
G03X79825796Y-100985961I75147J483009D01*
G01*
X74802439Y-99155310D02*
G75*
G03X74733204Y-99105579I-131434J-109922D01*
G01*
X79825795Y-100985961D02*
G75*
G03X79897120Y-100977598I4918J266407D01*
G01*
X74999186Y-99153590D02*
G75*
G03X74961937Y-99078095I-324458J-113149D01*
G01*
X79734953Y-99091906D02*
G75*
G03X79678533Y-99130125I63463J-154441D01*
G01*
X79479850Y-100481984D02*
G75*
G03X79473201Y-100553875I417304J-74847D01*
G01*
X75021551Y-99245637D02*
G75*
G03X74999186Y-99153590I-483653J-68772D01*
G01*
X74551165Y-99778352D02*
G75*
G03X74642940Y-99788682I89785J384829D01*
G01*
X79973080Y-100918276D02*
G75*
G03X79982423Y-100878528I-77550J39202D01*
G01*
X79982423Y-100878529D02*
G75*
G03X79974162Y-100834875I-97859J4091D01*
G01*
X79638870Y-100775034D02*
X79838388Y-100775034D01*
X74783449Y-99763594D02*
G75*
G03X74909753Y-99688334I-154890J403553D01*
G01*
X74843969Y-99238197D02*
G75*
G03X74802439Y-99155310I-212124J-54437D01*
G01*
X79678533Y-99130125D02*
G75*
G03X79639919Y-99192350I123495J-119729D01*
G01*
X79903669Y-100279861D02*
G75*
G03X79817132Y-100273295I-76525J-435034D01*
G01*
X74783449Y-98943154D02*
G75*
G03X74642940Y-98917823I-138710J-367048D01*
G01*
X79638870Y-100837602D02*
X79638870Y-100775034D01*
X74542602Y-99111235D02*
G75*
G03X74463117Y-99177939I118565J-221995D01*
G01*
X79678234Y-100960382D02*
G75*
G03X79736564Y-100980353I80364J139549D01*
G01*
X79979074Y-100302712D02*
G75*
G03X79903669Y-100279861I-133069J-303271D01*
G01*
X79567647Y-100333897D02*
G75*
G03X79497782Y-100421357I116143J-164410D01*
G01*
X74642940Y-98917823D02*
G75*
G03X74551165Y-98928250I-1990J-391599D01*
G01*
X74961937Y-99078095D02*
G75*
G03X74909753Y-99019154I-234670J-155195D01*
G01*
X79638870Y-101136679D02*
X79638870Y-101136679D01*
X79974162Y-100834874D02*
G75*
G03X79947390Y-100803073I-72999J-34285D01*
G01*
X79983709Y-99277106D02*
G75*
G03X79969051Y-99192350I-271950J-3386D01*
G01*
X74999186Y-99554635D02*
G75*
G03X75021551Y-99462772I-458542J160287D01*
G01*
X74463117Y-99528566D02*
X74336788Y-99641899D01*
X79902132Y-100783126D02*
G75*
G03X79838388Y-100775034I-68510J-284568D01*
G01*
X79473201Y-101136679D02*
X79638870Y-101136679D01*
X79648718Y-100916306D02*
G75*
G03X79661008Y-100942673I99952J30542D01*
G01*
X79817132Y-100273296D02*
G75*
G03X79677228Y-100287659I-12269J-569046D01*
G01*
X74336788Y-99065391D02*
X74463117Y-99177939D01*
X74909753Y-99019153D02*
G75*
G03X74783449Y-98943154I-282299J-326205D01*
G01*
X75029006Y-99354236D02*
G75*
G03X75021551Y-99245637I-740509J3722D01*
G01*
X75021552Y-99462772D02*
G75*
G03X75029006Y-99354236I-731780J104786D01*
G01*
X74909753Y-99688334D02*
G75*
G03X74961937Y-99629823I-179259J212399D01*
G01*
X74469414Y-99747362D02*
G75*
G03X74551165Y-99778352I158808J295614D01*
G01*
X74336788Y-99641899D02*
G75*
G03X74469414Y-99747362I353563J308501D01*
G01*
X79965498Y-100500356D02*
X80096537Y-100397255D01*
X79642421Y-101061516D02*
G75*
G03X79713645Y-101125267I121876J64501D01*
G01*
X77183284Y-98989098D02*
G75*
G03X77128028Y-98953042I-298189J-396621D01*
G01*
X79808871Y-100433852D02*
G75*
G03X79734197Y-100439559I-11075J-346484D01*
G01*
X77183285Y-99718586D02*
G75*
G03X77225042Y-99680464I-176103J234825D01*
G01*
X79846649Y-101146517D02*
G75*
G03X79970309Y-101126152I-2062J398148D01*
G01*
X79965498Y-100500356D02*
G75*
G03X79907245Y-100447230I-106231J-57983D01*
G01*
X79907245Y-100447230D02*
G75*
G03X79862969Y-100437196I-74272J-225033D01*
G01*
X79869467Y-100634153D02*
X79638870Y-100634153D01*
X79638870Y-101136679D02*
X79638870Y-101061516D01*
X79734196Y-100439559D02*
G75*
G03X79680980Y-100459823I27026J-150981D01*
G01*
X81309649Y-99754250D02*
G75*
G03X81381024Y-99780074I122938J228234D01*
G01*
X77225042Y-99026828D02*
G75*
G03X77183285Y-98989098I-226767J-208999D01*
G01*
X81381024Y-99780074D02*
G75*
G03X81470401Y-99788682I85469J419101D01*
G01*
X81821422Y-99352269D02*
X81821422Y-99352269D01*
X76876729Y-99780074D02*
G75*
G03X76966112Y-99788682I85472J419125D01*
G01*
X76966113Y-98917823D02*
G75*
G03X76876730Y-98926628I-3901J-418502D01*
G01*
X77295686Y-99148229D02*
G75*
G03X77225042Y-99026828I-312351J-100506D01*
G01*
X77056552Y-98926628D02*
G75*
G03X76966112Y-98917823I-86331J-417882D01*
G01*
X79680980Y-100459823D02*
G75*
G03X79649196Y-100494651I46897J-74714D01*
G01*
X76805355Y-99754250D02*
G75*
G03X76876730Y-99780074I122938J228234D01*
G01*
X81254015Y-99718586D02*
G75*
G03X81309649Y-99754249I279348J374560D01*
G01*
X79649196Y-100494651D02*
G75*
G03X79638870Y-100544037I97062J-46067D01*
G01*
X81687575Y-99718586D02*
G75*
G03X81729338Y-99680464I-176099J234852D01*
G01*
X79986150Y-100653337D02*
G75*
G03X79869467Y-100634153I-114392J-331334D01*
G01*
X77056552Y-99780073D02*
G75*
G03X77128028Y-99754249I-50315J251084D01*
G01*
X76966112Y-99788683D02*
G75*
G03X77056552Y-99780074I4120J436107D01*
G01*
X76615860Y-99352269D02*
G75*
G03X76621174Y-99473816I1207455J-8099D01*
G01*
X76637116Y-99148228D02*
G75*
G03X76621174Y-99232785I417458J-122489D01*
G01*
X77317120Y-99352269D02*
X77317120Y-99352269D01*
X79713646Y-101125266D02*
G75*
G03X79772277Y-101141204I96240J238231D01*
G01*
X80070169Y-100707741D02*
G75*
G03X79986150Y-100653336I-155442J-147972D01*
G01*
X81816061Y-99473816D02*
G75*
G03X81821422Y-99352269I-1191096J113433D01*
G01*
X80121219Y-100788707D02*
G75*
G03X80070168Y-100707742I-227865J-87097D01*
G01*
X80138245Y-100886794D02*
G75*
G03X80121219Y-100788707I-273842J2989D01*
G01*
X80059541Y-101071354D02*
G75*
G03X80118575Y-100989010I-159734J176849D01*
G01*
X76876729Y-98926627D02*
G75*
G03X76805354Y-98953042I52018J-250200D01*
G01*
X76621175Y-99473816D02*
G75*
G03X76637117Y-99559063I434777J37194D01*
G01*
X81729338Y-99680463D02*
G75*
G03X81799975Y-99559063I-241711J221888D01*
G01*
X79970309Y-101126152D02*
G75*
G03X80059540Y-101071354I-74903J222020D01*
G01*
X77311755Y-99473816D02*
G75*
G03X77317120Y-99352269I-1191094J113461D01*
G01*
X77317120Y-99352269D02*
G75*
G03X77311755Y-99232785I-1159788J7791D01*
G01*
X77295687Y-99559063D02*
G75*
G03X77311755Y-99473816I-415119J122383D01*
G01*
X76749720Y-99718586D02*
G75*
G03X76805354Y-99754249I279349J374560D01*
G01*
X81632335Y-99754249D02*
G75*
G03X81687576Y-99718586I-221782J404149D01*
G01*
X76637117Y-99559063D02*
G75*
G03X76707560Y-99680464I310441J98997D01*
G01*
X76621174Y-99232785D02*
G75*
G03X76615860Y-99352269I1165130J-111680D01*
G01*
X80118575Y-100989010D02*
G75*
G03X80138244Y-100886794I-238302J98857D01*
G01*
X76707560Y-99680464D02*
G75*
G03X76749720Y-99718586I219791J200698D01*
G01*
X79638870Y-100634153D02*
X79638870Y-100544037D01*
X79862969Y-100437197D02*
G75*
G03X79808871Y-100433852I-51866J-399742D01*
G01*
X79772277Y-101141204D02*
G75*
G03X79846649Y-101146517I70849J468614D01*
G01*
X81799975Y-99559063D02*
G75*
G03X81816060Y-99473816I-415110J122467D01*
G01*
X77225042Y-99680464D02*
G75*
G03X77295687Y-99559063I-241707J221908D01*
G01*
X76707560Y-99026827D02*
G75*
G03X76637117Y-99148228I239998J-220398D01*
G01*
X77311756Y-99232785D02*
G75*
G03X77295687Y-99148228I-429825J-37874D01*
G01*
X81470401Y-99788682D02*
G75*
G03X81560862Y-99780074I4131J436202D01*
G01*
X77128028Y-98953042D02*
G75*
G03X77056552Y-98926628I-122239J-220861D01*
G01*
X77128028Y-99754248D02*
G75*
G03X77183285Y-99718586I-221774J404259D01*
G01*
X81560862Y-99780074D02*
G75*
G03X81632335Y-99754249I-50317J251076D01*
G01*
X79638870Y-101061516D02*
X79642421Y-101061516D01*
X76805354Y-98953042D02*
G75*
G03X76749720Y-98989098I245154J-439230D01*
G01*
X76749720Y-98989098D02*
G75*
G03X76707560Y-99026828I186726J-251071D01*
G01*
X80096537Y-100397255D02*
G75*
G03X79979073Y-100302712I-236965J-174172D01*
G01*
X81125481Y-99473816D02*
G75*
G03X81141418Y-99559063I434776J37169D01*
G01*
X81125482Y-99232785D02*
G75*
G03X81120170Y-99352269I1165130J-111656D01*
G01*
X81141418Y-99148228D02*
G75*
G03X81125481Y-99232785I417460J-122463D01*
G01*
X81211859Y-99026827D02*
G75*
G03X81141418Y-99148228I239999J-220393D01*
G01*
X81309648Y-98953042D02*
G75*
G03X81254014Y-98989098I245154J-439230D01*
G01*
X80031916Y-99703878D02*
G75*
G03X80085717Y-99650372I-124596J179082D01*
G01*
X77366807Y-100282347D02*
X77242065Y-100282347D01*
X81381024Y-98926627D02*
G75*
G03X81309649Y-98953042I52018J-250200D01*
G01*
X81560862Y-98926628D02*
G75*
G03X81470401Y-98917823I-86342J-417976D01*
G01*
X81632335Y-98953042D02*
G75*
G03X81560862Y-98926628I-122237J-220852D01*
G01*
X81687576Y-98989097D02*
G75*
G03X81632335Y-98953042I-298182J-396503D01*
G01*
X81729339Y-99026828D02*
G75*
G03X81687576Y-98989098I-226770J-209028D01*
G01*
X79453636Y-99277106D02*
X79453636Y-99417985D01*
X81799974Y-99148228D02*
G75*
G03X81729338Y-99026828I-312347J-100489D01*
G01*
X81816060Y-99232785D02*
G75*
G03X81799975Y-99148228I-429832J-37958D01*
G01*
X79453636Y-99417985D02*
X79453636Y-99417985D01*
X80154890Y-99356597D02*
G75*
G03X80147793Y-99241850I-860662J4361D01*
G01*
X76883174Y-100282347D02*
X76701765Y-100282347D01*
X79479905Y-99129142D02*
G75*
G03X79453636Y-99277106I368451J-141726D01*
G01*
X79558707Y-99015021D02*
G75*
G03X79479905Y-99129143I210777J-229811D01*
G01*
X79537457Y-99715094D02*
G75*
G03X79612618Y-99757201I198931J266956D01*
G01*
X77907108Y-100282347D02*
X77726076Y-100282347D01*
X79925221Y-98941581D02*
G75*
G03X79803871Y-98917823I-121772J-300198D01*
G01*
X79926649Y-99575591D02*
G75*
G03X79969444Y-99509922I-111135J119202D01*
G01*
X80147794Y-99241849D02*
G75*
G03X80126507Y-99146309I-527414J-67368D01*
G01*
X79781046Y-99628126D02*
G75*
G03X79861719Y-99614992I2942J236255D01*
G01*
X76701765Y-100282347D02*
X76974068Y-101133531D01*
X80041361Y-99012857D02*
G75*
G03X79925221Y-98941580I-281035J-327663D01*
G01*
X79777897Y-99788682D02*
G75*
G03X79906924Y-99767481I-289J404981D01*
G01*
X77562774Y-100878528D02*
X77559626Y-100878528D01*
X79861719Y-99614992D02*
G75*
G03X79926649Y-99575591I-64266J179106D01*
G01*
X79906924Y-99767482D02*
G75*
G03X80031916Y-99703879I-161343J471690D01*
G01*
X77559626Y-100878528D02*
X77366807Y-100282347D01*
X80147205Y-99476730D02*
G75*
G03X80154891Y-99356596I-856389J115107D01*
G01*
X79594125Y-99545879D02*
X79470165Y-99651737D01*
X77046073Y-100878528D02*
X76883174Y-100282347D01*
X77484070Y-101133531D02*
X77635182Y-101133531D01*
X77124777Y-101133531D02*
X77303038Y-100538134D01*
X80124147Y-99574656D02*
G75*
G03X80147204Y-99476730I-477541J164116D01*
G01*
X79612619Y-99757200D02*
G75*
G03X79777897Y-99788682I164002J411414D01*
G01*
X77049624Y-100878528D02*
X77046073Y-100878528D01*
X77726076Y-100282347D02*
X77562774Y-100878528D01*
X79470166Y-99651737D02*
G75*
G03X79537458Y-99715094I313214J265258D01*
G01*
X77635182Y-101133531D02*
X77907108Y-100282347D01*
X79969445Y-99509922D02*
G75*
G03X79983709Y-99417985I-255452J86711D01*
G01*
X81821422Y-99352269D02*
G75*
G03X81816060Y-99232785I-1159786J7818D01*
G01*
X81470402Y-98917823D02*
G75*
G03X81381024Y-98926628I-3898J-418479D01*
G01*
X81120169Y-99352269D02*
G75*
G03X81125481Y-99473816I1207454J-8124D01*
G01*
X81254014Y-98989098D02*
G75*
G03X81211859Y-99026828I186729J-251043D01*
G01*
X79803871Y-98917824D02*
G75*
G03X79672532Y-98942122I-2596J-353072D01*
G01*
X80085717Y-99650372D02*
G75*
G03X80124147Y-99574656I-249666J174331D01*
G01*
X79681387Y-99607564D02*
G75*
G03X79781045Y-99628126I98193J224133D01*
G01*
X77303038Y-100538134D02*
X77306212Y-100538134D01*
X79594125Y-99545878D02*
G75*
G03X79681387Y-99607564I203820J195764D01*
G01*
X77242065Y-100282347D02*
X77049624Y-100878528D01*
X77306212Y-100538134D02*
X77484070Y-101133531D01*
X79672532Y-98942123D02*
G75*
G03X79558707Y-99015021I136926J-339110D01*
G01*
X80091028Y-99069980D02*
G75*
G03X80041360Y-99012857I-209155J-131705D01*
G01*
X80126507Y-99146309D02*
G75*
G03X80091028Y-99069980I-322646J-103559D01*
G01*
X79453636Y-99417985D02*
X79983709Y-99417985D01*
X77124777Y-101133531D02*
X77124777Y-101133531D01*
X76974068Y-101133531D02*
X77124777Y-101133531D01*
X81211859Y-99680464D02*
G75*
G03X81254014Y-99718586I219789J200672D01*
G01*
X81141418Y-99559063D02*
G75*
G03X81211859Y-99680464I310440J98991D01*
G01*
X75631736Y-101133531D02*
X75802920Y-101133531D01*
X78349008Y-100443689D02*
X78349008Y-100443689D01*
X78349009Y-100443689D02*
G75*
G03X78295339Y-100449076I-2558J-244561D01*
G01*
X78205578Y-100529871D02*
G75*
G03X78181375Y-100706956I627672J-175983D01*
G01*
X78494402Y-100890138D02*
G75*
G03X78518606Y-100706956I-627509J176100D01*
G01*
X78295338Y-100967587D02*
G75*
G03X78349008Y-100972974I51110J239174D01*
G01*
X78181375Y-100706956D02*
G75*
G03X78205578Y-100886794I662046J-2448D01*
G01*
X78349009Y-100972975D02*
G75*
G03X78403560Y-100967797I2643J262127D01*
G01*
X78494404Y-100526526D02*
G75*
G03X78445972Y-100464399I-97892J-26370D01*
G01*
X75580383Y-100485993D02*
G75*
G03X75466067Y-100443689I-114243J-133108D01*
G01*
X75466067Y-100443688D02*
G75*
G03X75409022Y-100454216I538J-162730D01*
G01*
X75631736Y-100621956D02*
G75*
G03X75618917Y-100541136I-228689J5153D01*
G01*
X75618917Y-100541136D02*
G75*
G03X75580383Y-100485993I-121114J-43598D01*
G01*
X75533262Y-100297695D02*
G75*
G03X75407033Y-100272510I-120813J-276592D01*
G01*
X75631736Y-100373251D02*
X75628588Y-100373251D01*
X78295339Y-100449076D02*
G75*
G03X78253531Y-100465235I29220J-137765D01*
G01*
X78253531Y-100465235D02*
G75*
G03X78205578Y-100529871I54281J-90377D01*
G01*
X78205578Y-100886795D02*
G75*
G03X78253531Y-100951429I102233J25742D01*
G01*
X75407032Y-100272509D02*
G75*
G03X75315761Y-100288938I-67J-261377D01*
G01*
X78403560Y-100967797D02*
G75*
G03X78445972Y-100952265I-28899J144585D01*
G01*
X78445971Y-100952265D02*
G75*
G03X78494403Y-100890139I-49458J88497D01*
G01*
X78518606Y-100706956D02*
G75*
G03X78494403Y-100526526I-641179J5830D01*
G01*
X78403559Y-100448867D02*
G75*
G03X78349008Y-100443689I-51911J-256949D01*
G01*
X75409022Y-100454216D02*
G75*
G03X75352733Y-100485796I79844J-208273D01*
G01*
X75229174Y-100338226D02*
X75352733Y-100485796D01*
X75315761Y-100288939D02*
G75*
G03X75229174Y-100338226I114549J-301936D01*
G01*
X75628587Y-100373251D02*
G75*
G03X75533261Y-100297695I-202021J-156970D01*
G01*
X78445972Y-100464399D02*
G75*
G03X78403560Y-100448867I-71311J-129053D01*
G01*
X75802920Y-101133531D02*
X75802920Y-101133531D01*
X75631736Y-100621956D02*
X75631736Y-101133531D01*
X75631736Y-100282347D02*
X75631736Y-100373251D01*
X75802920Y-101133531D02*
X75802920Y-100282347D01*
X75802920Y-100282347D02*
X75631736Y-100282347D01*
X78253531Y-100951429D02*
G75*
G03X78295339Y-100967588I71028J121606D01*
G01*
X76276813Y-99512528D02*
G75*
G03X76288801Y-99435300I-217760J73347D01*
G01*
X76459985Y-99493541D02*
X76459985Y-99493541D01*
X76454243Y-99561755D02*
G75*
G03X76459985Y-99493541I-378577J66217D01*
G01*
X75955096Y-99688728D02*
G75*
G03X76049742Y-99763694I201114J156683D01*
G01*
X75951570Y-98927661D02*
X75780385Y-98927661D01*
X75951570Y-99435300D02*
G75*
G03X75963558Y-99512528I229747J-3881D01*
G01*
X75951570Y-99688728D02*
X75955095Y-99688728D01*
X75780385Y-98927661D02*
X75780385Y-99778844D01*
X76240797Y-99570277D02*
G75*
G03X76276812Y-99512528I-108459J107743D01*
G01*
X75963559Y-99512528D02*
G75*
G03X75999573Y-99570278I144473J49994D01*
G01*
X76367908Y-99713717D02*
G75*
G03X76436966Y-99621190I-147062J181796D01*
G01*
X76119202Y-99618288D02*
G75*
G03X76186397Y-99606286I2256J181467D01*
G01*
X75414849Y-99778844D02*
X75586033Y-99778844D01*
X75190146Y-98917823D02*
G75*
G03X75098874Y-98934251I-68J-261377D01*
G01*
X80569378Y-99613110D02*
G75*
G03X80623745Y-99618288I51741J255293D01*
G01*
X76049742Y-99763694D02*
G75*
G03X76174686Y-99788682I119654J273419D01*
G01*
X78474531Y-100280378D02*
G75*
G03X78401343Y-100272510I-70865J-314865D01*
G01*
X78401344Y-101143369D02*
G75*
G03X78474532Y-101135695I2325J330672D01*
G01*
X78010191Y-101133531D02*
X78181375Y-101133531D01*
X76174687Y-99788683D02*
G75*
G03X76273564Y-99769941I-189J271192D01*
G01*
X78010191Y-99938804D02*
X78010191Y-101133531D01*
X78401343Y-100272511D02*
G75*
G03X78282318Y-100300448I-3529J-252478D01*
G01*
X78677602Y-100490125D02*
G75*
G03X78629195Y-100383088I-245219J-46433D01*
G01*
X78686743Y-100840750D02*
X78689791Y-100706956D01*
X75414849Y-99018564D02*
X75411701Y-99018564D01*
X78474531Y-101135695D02*
G75*
G03X78536714Y-101112674I-52263J236661D01*
G01*
X76053494Y-99606286D02*
G75*
G03X76119203Y-99618288I63699J162860D01*
G01*
X76288801Y-98927661D02*
X76288801Y-99435300D01*
X78181375Y-101133531D02*
X78181375Y-101133531D01*
X75012287Y-98983539D02*
X75135846Y-99131110D01*
X75951570Y-99778844D02*
X75951570Y-99688728D01*
X76459985Y-98927661D02*
X76288801Y-98927661D01*
X78181375Y-99938804D02*
X78010191Y-99938804D01*
X78181375Y-100373251D02*
X78181375Y-99938804D01*
X78677600Y-100926539D02*
G75*
G03X78686743Y-100840750I-645786J112201D01*
G01*
X75414849Y-99267269D02*
G75*
G03X75402030Y-99186449I-228689J5153D01*
G01*
X78281234Y-101118774D02*
G75*
G03X78401343Y-101143369I117087J266214D01*
G01*
X78181376Y-101044988D02*
G75*
G03X78281235Y-101118773I225413J200605D01*
G01*
X75780385Y-99778844D02*
X75951570Y-99778844D01*
X75999572Y-99570278D02*
G75*
G03X76053494Y-99606286I114052J112417D01*
G01*
X75402030Y-99186449D02*
G75*
G03X75363496Y-99131306I-121114J-43599D01*
G01*
X75411701Y-99018564D02*
G75*
G03X75316375Y-98943008I-202021J-156971D01*
G01*
X78629194Y-100383088D02*
G75*
G03X78536714Y-100303991I-230460J-175843D01*
G01*
X75586033Y-99778844D02*
X75586033Y-99778844D01*
X75363496Y-99131306D02*
G75*
G03X75249180Y-99089003I-114243J-133108D01*
G01*
X75249180Y-99089002D02*
G75*
G03X75192135Y-99099530I538J-162730D01*
G01*
X75192135Y-99099530D02*
G75*
G03X75135846Y-99131110I79844J-208272D01*
G01*
X75316375Y-98943008D02*
G75*
G03X75190146Y-98917823I-120813J-276593D01*
G01*
X76436966Y-99621190D02*
G75*
G03X76454243Y-99561756I-262847J108636D01*
G01*
X75586033Y-99778844D02*
X75586033Y-98927661D01*
X76273564Y-99769941D02*
G75*
G03X76367908Y-99713716I-130413J326100D01*
G01*
X75098874Y-98934252D02*
G75*
G03X75012287Y-98983539I114549J-301936D01*
G01*
X78282318Y-100300448D02*
G75*
G03X78181375Y-100373251I213680J-402651D01*
G01*
X75414849Y-99267269D02*
X75414849Y-99778844D01*
X78689791Y-100706956D02*
X78686743Y-100574831D01*
X78181375Y-101133531D02*
X78181375Y-101044988D01*
X78536715Y-100303991D02*
G75*
G03X78474532Y-100280377I-114965J-209058D01*
G01*
X78686743Y-100574832D02*
G75*
G03X78677601Y-100490126I-638699J-26088D01*
G01*
X78629195Y-101033577D02*
G75*
G03X78677601Y-100926539I-191618J151121D01*
G01*
X75951570Y-99435300D02*
X75951570Y-98927661D01*
X75586033Y-98927661D02*
X75414849Y-98927661D01*
X78536715Y-101112674D02*
G75*
G03X78629195Y-101033576I-129664J245215D01*
G01*
X76186397Y-99606285D02*
G75*
G03X76240797Y-99570278I-58617J147657D01*
G01*
X75414849Y-98927661D02*
X75414849Y-99018564D01*
X76192071Y-100942673D02*
G75*
G03X76209298Y-100960382I53890J35190D01*
G01*
X74543279Y-100483830D02*
G75*
G03X74517010Y-100631793I368450J-141725D01*
G01*
X79103324Y-100621956D02*
G75*
G03X79090505Y-100541136I-228689J5153D01*
G01*
X76209297Y-100960382D02*
G75*
G03X76267627Y-100980353I80364J139549D01*
G01*
X76478453Y-100803073D02*
G75*
G03X76433195Y-100783126I-75849J-110779D01*
G01*
X74622083Y-100369707D02*
G75*
G03X74543278Y-100483829I210776J-229817D01*
G01*
X76505225Y-100834874D02*
G75*
G03X76478453Y-100803073I-72999J-34285D01*
G01*
X76169933Y-100775034D02*
X76369451Y-100775034D01*
X78878621Y-100272510D02*
G75*
G03X78787350Y-100288938I-68J-261376D01*
G01*
X79103324Y-101133531D02*
X79274509Y-101133531D01*
X75047059Y-100631793D02*
X75047059Y-100631793D01*
X75047060Y-100631793D02*
G75*
G03X75032402Y-100547037I-271950J-3386D01*
G01*
X75104734Y-100367544D02*
G75*
G03X74988579Y-100296267I-281042J-327709D01*
G01*
X74970294Y-101122167D02*
G75*
G03X75095289Y-101058565I-161341J471698D01*
G01*
X74937074Y-100446594D02*
G75*
G03X74867236Y-100433852I-67604J-172787D01*
G01*
X76356858Y-100985961D02*
G75*
G03X76428183Y-100977598I4918J266407D01*
G01*
X79051972Y-100485993D02*
G75*
G03X78937656Y-100443689I-114244J-133108D01*
G01*
X76428184Y-100977598D02*
G75*
G03X76476086Y-100952511I-27952J111649D01*
G01*
X76513486Y-100878529D02*
G75*
G03X76505225Y-100834875I-97859J4091D01*
G01*
X75032402Y-100547037D02*
G75*
G03X74993944Y-100484812I-159272J-55440D01*
G01*
X74867236Y-100433851D02*
G75*
G03X74798329Y-100446593I-2112J-181278D01*
G01*
X74703280Y-100547037D02*
G75*
G03X74687791Y-100631793I262407J-91747D01*
G01*
X78937656Y-100443689D02*
G75*
G03X78880611Y-100454216I537J-162729D01*
G01*
X78880611Y-100454217D02*
G75*
G03X78824322Y-100485796I79843J-208272D01*
G01*
X74600827Y-101069780D02*
G75*
G03X74675979Y-101111887I198926J266926D01*
G01*
X74517010Y-100772672D02*
X74517010Y-100772672D01*
X78700763Y-100338226D02*
X78824322Y-100485796D01*
X74517010Y-100631793D02*
X74517010Y-100772672D01*
X79274509Y-100282347D02*
X79103324Y-100282347D01*
X79274509Y-101133531D02*
X79274509Y-100282347D01*
X75149085Y-101005059D02*
G75*
G03X75187518Y-100929343I-249664J174340D01*
G01*
X75047059Y-100631793D02*
X74687791Y-100631793D01*
X79090505Y-100541137D02*
G75*
G03X79051972Y-100485993I-121114J-43597D01*
G01*
X74735896Y-100296809D02*
G75*
G03X74622083Y-100369707I136932J-339077D01*
G01*
X74867236Y-100272509D02*
G75*
G03X74735895Y-100296808I-2596J-353080D01*
G01*
X75189860Y-100500996D02*
G75*
G03X75154399Y-100424667I-322637J-103488D01*
G01*
X76169933Y-100837602D02*
X76169933Y-100775034D01*
X74741889Y-100484811D02*
G75*
G03X74703280Y-100547037I123498J-119718D01*
G01*
X79103324Y-100621956D02*
X79103324Y-101133531D01*
X78787350Y-100288939D02*
G75*
G03X78700763Y-100338226I114549J-301936D01*
G01*
X75211166Y-100596536D02*
G75*
G03X75189860Y-100500996I-527423J-67476D01*
G01*
X74675979Y-101111887D02*
G75*
G03X74841270Y-101143369I164009J411447D01*
G01*
X79004850Y-100297695D02*
G75*
G03X78878621Y-100272510I-120813J-276592D01*
G01*
X79103324Y-100373251D02*
X79100176Y-100373251D01*
X75218244Y-100711283D02*
G75*
G03X75211167Y-100596536I-860652J4511D01*
G01*
X75210563Y-100831417D02*
G75*
G03X75218244Y-100711283I-856391J115072D01*
G01*
X79103324Y-100282347D02*
X79103324Y-100373251D01*
X75187517Y-100929343D02*
G75*
G03X75210562Y-100831417I-477546J164054D01*
G01*
X74988579Y-100296267D02*
G75*
G03X74867236Y-100272510I-121768J-300179D01*
G01*
X74841271Y-101143369D02*
G75*
G03X74970295Y-101122168I-291J404974D01*
G01*
X79274509Y-101133531D02*
X79274509Y-101133531D01*
X75095289Y-101058566D02*
G75*
G03X75149085Y-101005059I-124598J179069D01*
G01*
X74798329Y-100446593D02*
G75*
G03X74741889Y-100484812I63453J-154489D01*
G01*
X75154400Y-100424667D02*
G75*
G03X75104734Y-100367544I-209155J-131696D01*
G01*
X76459985Y-99493541D02*
X76459985Y-98927661D01*
X76504143Y-100918276D02*
G75*
G03X76513486Y-100878528I-77550J39202D01*
G01*
X76433195Y-100783126D02*
G75*
G03X76369451Y-100775034I-68510J-284568D01*
G01*
X76169933Y-100837602D02*
X76169933Y-100837602D01*
X76267626Y-100980353D02*
G75*
G03X76356858Y-100985961I75148J483009D01*
G01*
X76169933Y-100837602D02*
G75*
G03X76179781Y-100916306I262871J-7078D01*
G01*
X76179781Y-100916306D02*
G75*
G03X76192071Y-100942673I99952J30542D01*
G01*
X74993943Y-100484812D02*
G75*
G03X74937075Y-100446593I-119659J-116631D01*
G01*
X79100176Y-100373251D02*
G75*
G03X79004850Y-100297695I-202021J-156970D01*
G01*
X76476085Y-100952511D02*
G75*
G03X76504142Y-100918276I-69340J85439D01*
G01*
X80962958Y-101133531D02*
X80962958Y-101133531D01*
X80689370Y-100455791D02*
G75*
G03X80622176Y-100443689I-64953J-168055D01*
G01*
X80779786Y-100549941D02*
G75*
G03X80743771Y-100492093I-146204J-50888D01*
G01*
X80502546Y-100492093D02*
G75*
G03X80466531Y-100549941I110189J-108736D01*
G01*
X80556467Y-100455791D02*
G75*
G03X80502546Y-100492093I60564J-148156D01*
G01*
X80791774Y-100626675D02*
X80791774Y-101133531D01*
X80622176Y-100443689D02*
G75*
G03X80556468Y-100455791I-1995J-173606D01*
G01*
X80454543Y-101133531D02*
X80454543Y-100626675D01*
X80791774Y-100626676D02*
G75*
G03X80779786Y-100549941I-227592J3748D01*
G01*
X80289125Y-100499754D02*
G75*
G03X80283358Y-100567649I374506J-66005D01*
G01*
X80306428Y-100440493D02*
G75*
G03X80289126Y-100499754I261584J-108530D01*
G01*
X80466531Y-100549941D02*
G75*
G03X80454543Y-100626675I215603J-72987D01*
G01*
X80791774Y-101133531D02*
X80962958Y-101133531D01*
X80283358Y-100567649D02*
X80283358Y-101133531D01*
X80743770Y-100492093D02*
G75*
G03X80689370Y-100455791I-113439J-111082D01*
G01*
X80283358Y-101133531D02*
X80454543Y-101133531D01*
X73866601Y-99091906D02*
G75*
G03X73810161Y-99130125I63454J-154490D01*
G01*
X74115332Y-99277106D02*
X73756063Y-99277106D01*
X77654354Y-99101399D02*
G75*
G03X77549482Y-99158262I218308J-527759D01*
G01*
X80375637Y-100347867D02*
G75*
G03X80306428Y-100440493I148348J-183012D01*
G01*
X77975668Y-99750807D02*
G75*
G03X78150378Y-99637177I-216466J523955D01*
G01*
X80567071Y-100272509D02*
G75*
G03X80469629Y-100291348I491J-263968D01*
G01*
X80691234Y-99761726D02*
G75*
G03X80791779Y-99688728I-192442J370805D01*
G01*
X80693300Y-100297695D02*
G75*
G03X80567071Y-100272510I-120814J-276592D01*
G01*
X80788625Y-100373251D02*
G75*
G03X80693299Y-100297695I-202021J-156970D01*
G01*
X80791774Y-100373251D02*
X80788626Y-100373251D01*
X80791779Y-99016988D02*
G75*
G03X80692118Y-98942613I-225299J-197937D01*
G01*
X77901572Y-98934447D02*
G75*
G03X77777333Y-98917823I-119791J-422676D01*
G01*
X80962958Y-98927661D02*
X80791779Y-98927661D01*
X77443628Y-99033517D02*
X77549482Y-99158262D01*
X77448792Y-99638161D02*
G75*
G03X77525682Y-99720603I198505J108061D01*
G01*
X77891246Y-99108285D02*
G75*
G03X77846744Y-99086446I-66353J-78952D01*
G01*
X77586277Y-98949305D02*
G75*
G03X77443628Y-99033517I187189J-480010D01*
G01*
X77846744Y-99086446D02*
G75*
G03X77777333Y-99079165I-64143J-276986D01*
G01*
X80343952Y-99678889D02*
G75*
G03X80437414Y-99757987I230108J177131D01*
G01*
X77423152Y-99526990D02*
G75*
G03X77448791Y-99638161I233969J-4583D01*
G01*
X74115332Y-99277106D02*
X74115332Y-99277106D01*
X80791779Y-99688728D02*
X80791774Y-100373251D01*
X80571800Y-99788683D02*
G75*
G03X80691234Y-99761726I4220J259367D01*
G01*
X80499244Y-99781008D02*
G75*
G03X80571800Y-99788682I70297J317817D01*
G01*
X77639444Y-99771662D02*
G75*
G03X77775747Y-99788682I131731J500663D01*
G01*
X77525682Y-99720603D02*
G75*
G03X77639444Y-99771662I213904J324325D01*
G01*
X77669893Y-99271989D02*
G75*
G03X77608466Y-99280489I26730J-419377D01*
G01*
X77810779Y-99262151D02*
G75*
G03X77865431Y-99252659I-12997J236909D01*
G01*
X80437414Y-99757987D02*
G75*
G03X80499244Y-99781008I114298J212437D01*
G01*
X80692118Y-98942612D02*
G75*
G03X80571800Y-98917823I-117219J-264549D01*
G01*
X80295944Y-99572246D02*
G75*
G03X80343952Y-99678890I248058J47541D01*
G01*
X80286498Y-99487049D02*
G75*
G03X80295943Y-99572246I627075J26392D01*
G01*
X80295944Y-99135439D02*
G75*
G03X80286499Y-99220636I612565J-111028D01*
G01*
X74100674Y-99192350D02*
G75*
G03X74062216Y-99130125I-159272J-55440D01*
G01*
X73935509Y-99079165D02*
G75*
G03X73866602Y-99091906I-2113J-181278D01*
G01*
X77923333Y-99181873D02*
G75*
G03X77891246Y-99108284I-95091J2328D01*
G01*
X77608466Y-99280489D02*
G75*
G03X77556408Y-99296930I60017J-280673D01*
G01*
X80283351Y-99354236D02*
X80286499Y-99487049D01*
X80286499Y-99220636D02*
X80283351Y-99354236D01*
X80437415Y-98949305D02*
G75*
G03X80343952Y-99028402I145666J-266889D01*
G01*
X77777333Y-98917823D02*
G75*
G03X77673872Y-98925691I-3563J-637332D01*
G01*
X74115332Y-99277106D02*
G75*
G03X74100674Y-99192350I-271950J-3386D01*
G01*
X77437482Y-99433283D02*
G75*
G03X77423152Y-99526990I282731J-91187D01*
G01*
X80791779Y-98927661D02*
X80791779Y-99016988D01*
X77556408Y-99296930D02*
G75*
G03X77480424Y-99353645I72438J-176307D01*
G01*
X77810779Y-99262151D02*
X77669893Y-99271989D01*
X73810161Y-99130124D02*
G75*
G03X73771552Y-99192350I123498J-119718D01*
G01*
X77480424Y-99353644D02*
G75*
G03X77437483Y-99433283I202826J-160760D01*
G01*
X80499244Y-98925691D02*
G75*
G03X80437414Y-98949305I52991J-231505D01*
G01*
X80962958Y-101133531D02*
X80962958Y-98927661D01*
X74062215Y-99130125D02*
G75*
G03X74005347Y-99091906I-119659J-116632D01*
G01*
X74005348Y-99091907D02*
G75*
G03X73935509Y-99079165I-67605J-172788D01*
G01*
X73771552Y-99192350D02*
G75*
G03X73756063Y-99277106I262408J-91748D01*
G01*
X78150378Y-99637177D02*
X78150378Y-99637177D01*
X77673872Y-98925691D02*
G75*
G03X77586278Y-98949305I66680J-421618D01*
G01*
X77865431Y-99252659D02*
G75*
G03X77899507Y-99233622I-22601J80469D01*
G01*
X77777333Y-99079165D02*
G75*
G03X77654353Y-99101399I-5443J-321128D01*
G01*
X77775746Y-99788682D02*
G75*
G03X77975667Y-99750806I3491J528128D01*
G01*
X80469628Y-100291348D02*
G75*
G03X80375637Y-100347867I133627J-328638D01*
G01*
X80343952Y-99028402D02*
G75*
G03X80295943Y-99135439I205849J-156612D01*
G01*
X77917363Y-99208781D02*
G75*
G03X77923332Y-99181873I-57715J26919D01*
G01*
X77899506Y-99233621D02*
G75*
G03X77917363Y-99208781I-60289J62177D01*
G01*
X80571800Y-98917823D02*
G75*
G03X80499244Y-98925691I-2255J-317683D01*
G01*
X74038566Y-99767481D02*
G75*
G03X74163561Y-99703879I-161340J471698D01*
G01*
X74173006Y-99012857D02*
G75*
G03X74056851Y-98941580I-281042J-327710D01*
G01*
X77594336Y-99518726D02*
G75*
G03X77606249Y-99566343I92961J-2042D01*
G01*
X73601804Y-99651738D02*
G75*
G03X73669099Y-99715094I313216J265270D01*
G01*
X77641963Y-99600579D02*
G75*
G03X77695859Y-99621239I95180J167671D01*
G01*
X77907768Y-99600777D02*
G75*
G03X78030748Y-99518727I-145730J351616D01*
G01*
X78150378Y-99637177D02*
X78030748Y-99518727D01*
X74258132Y-99146309D02*
G75*
G03X74222671Y-99069980I-322637J-103489D01*
G01*
X73909543Y-99788682D02*
G75*
G03X74038567Y-99767481I-291J404973D01*
G01*
X73993359Y-99614992D02*
G75*
G03X74058287Y-99575591I-64267J179100D01*
G01*
X73725766Y-99545879D02*
X73601804Y-99651737D01*
X80720011Y-99596841D02*
G75*
G03X80767971Y-99532500I-52991J89545D01*
G01*
X80677916Y-99612926D02*
G75*
G03X80720011Y-99596841I-29137J139375D01*
G01*
X80767970Y-99175185D02*
G75*
G03X80720011Y-99110549I-101411J-25136D01*
G01*
X80478733Y-99535452D02*
G75*
G03X80527086Y-99597579I97988J26384D01*
G01*
X73744252Y-99757201D02*
G75*
G03X73909543Y-99788682I164008J411448D01*
G01*
X78003598Y-98984327D02*
G75*
G03X77901572Y-98934448I-192803J-265084D01*
G01*
X74286516Y-99356597D02*
G75*
G03X74279439Y-99241850I-860652J4511D01*
G01*
X78071775Y-99066572D02*
G75*
G03X78003598Y-98984327I-190925J-88887D01*
G01*
X78094491Y-99180299D02*
G75*
G03X78071774Y-99066573I-267612J5676D01*
G01*
X77652994Y-99443908D02*
G75*
G03X77620404Y-99460682I29676J-97707D01*
G01*
X80767971Y-99532500D02*
G75*
G03X80791779Y-99354236I-639720J176158D01*
G01*
X78077089Y-99278041D02*
G75*
G03X78094492Y-99180299I-240385J93221D01*
G01*
X80569377Y-99094218D02*
G75*
G03X80527086Y-99109861I28950J-143258D01*
G01*
X77849338Y-99421134D02*
G75*
G03X77946150Y-99399834I-21219J327121D01*
G01*
X78024855Y-99351678D02*
G75*
G03X78077089Y-99278041I-128706J146642D01*
G01*
X80527087Y-99597579D02*
G75*
G03X80569378Y-99613110I71156J128409D01*
G01*
X77946150Y-99399834D02*
G75*
G03X78024854Y-99351678I-96911J246778D01*
G01*
X77698629Y-99435300D02*
G75*
G03X77652993Y-99443909I15200J-205848D01*
G01*
X77620403Y-99460682D02*
G75*
G03X77600860Y-99485623I41140J-52364D01*
G01*
X74222671Y-99069980D02*
G75*
G03X74173006Y-99012857I-209154J-131697D01*
G01*
X80527087Y-99109862D02*
G75*
G03X80478733Y-99172429I50298J-88839D01*
G01*
X80720011Y-99110549D02*
G75*
G03X80677916Y-99094390I-71290J-122803D01*
G01*
X73585282Y-99417985D02*
X73585282Y-99417985D01*
X73813033Y-99607564D02*
G75*
G03X73912691Y-99628126I98193J224133D01*
G01*
X74163561Y-99703878D02*
G75*
G03X74217357Y-99650372I-124597J179068D01*
G01*
X74058287Y-99575591D02*
G75*
G03X74101077Y-99509922I-111137J119192D01*
G01*
X73690355Y-99015021D02*
G75*
G03X73611550Y-99129143I210776J-229817D01*
G01*
X80623746Y-99089002D02*
G75*
G03X80569378Y-99094218I-2617J-258691D01*
G01*
X74255791Y-99574656D02*
G75*
G03X74278835Y-99476730I-477548J164053D01*
G01*
X77606249Y-99566343D02*
G75*
G03X77641962Y-99600579I81431J49198D01*
G01*
X73725766Y-99545879D02*
G75*
G03X73813033Y-99607564I203822J195778D01*
G01*
X77762373Y-99628126D02*
G75*
G03X77907768Y-99600776I3510J381485D01*
G01*
X73585282Y-99417985D02*
X74115332Y-99417985D01*
X74217357Y-99650372D02*
G75*
G03X74255790Y-99574656I-249664J174339D01*
G01*
X74279439Y-99241849D02*
G75*
G03X74258132Y-99146309I-527424J-67477D01*
G01*
X74101077Y-99509922D02*
G75*
G03X74115332Y-99417985I-255456J86682D01*
G01*
X73585282Y-99277106D02*
X73585282Y-99417985D01*
X73935508Y-98917823D02*
G75*
G03X73804167Y-98942122I-2596J-353080D01*
G01*
X73912691Y-99628126D02*
G75*
G03X73993359Y-99614992I2940J236241D01*
G01*
X73611551Y-99129143D02*
G75*
G03X73585282Y-99277106I368450J-141725D01*
G01*
X74056852Y-98941581D02*
G75*
G03X73935509Y-98917823I-121769J-300179D01*
G01*
X80677916Y-99094390D02*
G75*
G03X80623745Y-99089003I-51563J-243445D01*
G01*
X80478734Y-99172429D02*
G75*
G03X80454533Y-99354236I626205J-175869D01*
G01*
X74278835Y-99476730D02*
G75*
G03X74286516Y-99356596I-856391J115071D01*
G01*
X73669099Y-99715094D02*
G75*
G03X73744252Y-99757201I198926J266927D01*
G01*
X80623745Y-99618287D02*
G75*
G03X80677916Y-99612926I2613J249932D01*
G01*
X77695859Y-99621239D02*
G75*
G03X77762373Y-99628126I63810J291651D01*
G01*
X80623745Y-99618288D02*
X80623745Y-99618288D01*
X80454533Y-99354236D02*
G75*
G03X80478733Y-99535452I644165J-6199D01*
G01*
X77698629Y-99435300D02*
X77849338Y-99421134D01*
X77600860Y-99485623D02*
G75*
G03X77594337Y-99518727I73470J-31672D01*
G01*
X80791779Y-99354236D02*
G75*
G03X80767971Y-99175184I-669330J2111D01*
G01*
X73804168Y-98942123D02*
G75*
G03X73690355Y-99015021I136932J-339077D01*
G01*
D10*
X75604081Y-97527715D02*
G75*
G03X75656235Y-97532700I29096J29096D01*
G01*
X75656235Y-97532700D02*
X76301097Y-97096419D01*
X76686962Y-97191478D02*
X77226794Y-95869346D01*
X76339901Y-97092484D02*
G75*
G03X76301097Y-97096419I-15747J-38016D01*
G01*
X75053116Y-96976750D02*
X75604081Y-97527715D01*
X75484412Y-96279734D02*
X75048131Y-96924596D01*
X77226795Y-95869347D02*
G75*
G03X77205904Y-95816413I-38096J15555D01*
G01*
X74395048Y-95388036D02*
G75*
G03X74428402Y-95428438I41148J1D01*
G01*
X76633121Y-97213940D02*
G75*
G03X76686962Y-97191478I15746J38016D01*
G01*
X74428402Y-95428438D02*
X75192885Y-95575927D01*
X75484412Y-96279734D02*
G75*
G03X75488347Y-96240930I-34081J23057D01*
G01*
X76339901Y-97092484D02*
X76633121Y-97213940D01*
X75223106Y-95600583D02*
G75*
G03X75192885Y-95575927I-38015J-15747D01*
G01*
X75223106Y-95600583D02*
X75488347Y-96240930D01*
X75048130Y-96924596D02*
G75*
G03X75053116Y-96976750I34082J-23057D01*
G01*
X78824875Y-92904403D02*
G75*
G03X78863679Y-92900467I15746J38016D01*
G01*
X75192885Y-94420960D02*
X74428402Y-94568449D01*
X79680363Y-93717152D02*
X80116645Y-93072290D01*
X79971890Y-95575927D02*
G75*
G03X79941669Y-95600583I7795J-40403D01*
G01*
X79680364Y-93717153D02*
G75*
G03X79676429Y-93755956I34080J-23057D01*
G01*
X80736374Y-94568449D02*
X79971890Y-94420960D01*
X76980247Y-92639162D02*
G75*
G03X77004904Y-92608941I-15746J38016D01*
G01*
X75192885Y-94420959D02*
G75*
G03X75223106Y-94396304I-7794J40402D01*
G01*
X75488347Y-93755956D02*
X75223106Y-94396304D01*
X75488347Y-93755956D02*
G75*
G03X75484412Y-93717152I-38016J15746D01*
G01*
X76301097Y-92900467D02*
X75656235Y-92464186D01*
X78012382Y-91844457D02*
G75*
G03X77971979Y-91811104I-40403J-7795D01*
G01*
X79971890Y-95575927D02*
X80736374Y-95428438D01*
X78531655Y-97213940D02*
X78824874Y-97092484D01*
X79508541Y-97532700D02*
G75*
G03X79560694Y-97527715I23057J34081D01*
G01*
X75048131Y-93072290D02*
X75484412Y-93717152D01*
X75604081Y-92469171D02*
X75053116Y-93020137D01*
X75656234Y-92464186D02*
G75*
G03X75604081Y-92469171I-23057J-34081D01*
G01*
X77152393Y-91844457D02*
X77004904Y-92608941D01*
X76301098Y-92900467D02*
G75*
G03X76339901Y-92904402I23056J34080D01*
G01*
X76980248Y-92639162D02*
X76339901Y-92904402D01*
X77192796Y-91811104D02*
G75*
G03X77152393Y-91844457I0J-41148D01*
G01*
X80736374Y-95428438D02*
G75*
G03X80769727Y-95388035I-7795J40403D01*
G01*
X80116645Y-96924596D02*
X79680363Y-96279734D01*
X77971979Y-91811104D02*
X77192796Y-91811104D01*
X80116645Y-93072290D02*
G75*
G03X80111660Y-93020137I-34081J23057D01*
G01*
X78159871Y-92608941D02*
X78012382Y-91844457D01*
X78159871Y-92608941D02*
G75*
G03X78184527Y-92639162I40403J7795D01*
G01*
X77937981Y-95869346D02*
X78477813Y-97191478D01*
X79560694Y-92469171D02*
G75*
G03X79508540Y-92464186I-29096J-29096D01*
G01*
X78863678Y-97096419D02*
G75*
G03X78824874Y-97092484I-23057J-34081D01*
G01*
X79676428Y-96240930D02*
G75*
G03X79680363Y-96279734I38016J-15747D01*
G01*
X79508540Y-92464186D02*
X78863679Y-92900467D01*
X80111660Y-93020137D02*
X79560694Y-92469171D01*
X79941669Y-94396304D02*
X79676429Y-93755956D01*
X79941669Y-94396303D02*
G75*
G03X79971890Y-94420960I38016J15746D01*
G01*
X80769727Y-94608852D02*
G75*
G03X80736374Y-94568449I-41148J0D01*
G01*
X80769727Y-95388035D02*
X80769727Y-94608852D01*
X79560694Y-97527715D02*
X80111660Y-96976750D01*
X77958872Y-95816413D02*
G75*
G03X77937981Y-95869346I17204J-37379D01*
G01*
X80111660Y-96976749D02*
G75*
G03X80116645Y-96924596I-29096J29096D01*
G01*
X79676429Y-96240930D02*
X79941669Y-95600583D01*
X78863679Y-97096419D02*
X79508540Y-97532700D01*
X78477813Y-97191479D02*
G75*
G03X78531655Y-97213940I38095J15555D01*
G01*
X75053116Y-93020137D02*
G75*
G03X75048131Y-93072290I29096J-29096D01*
G01*
X78824874Y-92904402D02*
X78184527Y-92639162D01*
X74395048Y-94608852D02*
X74395048Y-95388035D01*
X74428401Y-94568449D02*
G75*
G03X74395048Y-94608852I7795J-40403D01*
G01*
X77958872Y-95816413D02*
G75*
G03X77205904Y-95816413I-376484J817970D01*
G01*
X92706514Y-87170571D02*
X92206514Y-88670571D01*
X91706514Y-87170571D01*
X90635085Y-88599142D02*
X90777942Y-88670571D01*
X91063657Y-88670571D01*
X91206514Y-88599142D01*
X91277942Y-88456285D01*
X91277942Y-87884857D01*
X91206514Y-87742000D01*
X91063657Y-87670571D01*
X90777942Y-87670571D01*
X90635085Y-87742000D01*
X90563657Y-87884857D01*
X90563657Y-88027714D01*
X91277942Y-88170571D01*
X89920800Y-88670571D02*
X89920800Y-87670571D01*
X89920800Y-87956285D02*
X89849371Y-87813428D01*
X89777942Y-87742000D01*
X89635085Y-87670571D01*
X89492228Y-87670571D01*
X89063657Y-88599142D02*
X88920800Y-88670571D01*
X88635085Y-88670571D01*
X88492228Y-88599142D01*
X88420800Y-88456285D01*
X88420800Y-88384857D01*
X88492228Y-88242000D01*
X88635085Y-88170571D01*
X88849371Y-88170571D01*
X88992228Y-88099142D01*
X89063657Y-87956285D01*
X89063657Y-87884857D01*
X88992228Y-87742000D01*
X88849371Y-87670571D01*
X88635085Y-87670571D01*
X88492228Y-87742000D01*
X87777942Y-88670571D02*
X87777942Y-87670571D01*
X87777942Y-87170571D02*
X87849371Y-87242000D01*
X87777942Y-87313428D01*
X87706514Y-87242000D01*
X87777942Y-87170571D01*
X87777942Y-87313428D01*
X86849371Y-88670571D02*
X86992228Y-88599142D01*
X87063657Y-88527714D01*
X87135085Y-88384857D01*
X87135085Y-87956285D01*
X87063657Y-87813428D01*
X86992228Y-87742000D01*
X86849371Y-87670571D01*
X86635085Y-87670571D01*
X86492228Y-87742000D01*
X86420800Y-87813428D01*
X86349371Y-87956285D01*
X86349371Y-88384857D01*
X86420800Y-88527714D01*
X86492228Y-88599142D01*
X86635085Y-88670571D01*
X86849371Y-88670571D01*
X85706514Y-87670571D02*
X85706514Y-88670571D01*
X85706514Y-87813428D02*
X85635085Y-87742000D01*
X85492228Y-87670571D01*
X85277942Y-87670571D01*
X85135085Y-87742000D01*
X85063657Y-87884857D01*
X85063657Y-88670571D01*
X84349371Y-88527714D02*
X84277942Y-88599142D01*
X84349371Y-88670571D01*
X84420800Y-88599142D01*
X84349371Y-88527714D01*
X84349371Y-88670571D01*
X84349371Y-87742000D02*
X84277942Y-87813428D01*
X84349371Y-87884857D01*
X84420800Y-87813428D01*
X84349371Y-87742000D01*
X84349371Y-87884857D01*
X82135085Y-87087238D02*
X82039847Y-86992000D01*
X81849371Y-86896761D01*
X81373180Y-86896761D01*
X81182704Y-86992000D01*
X81087466Y-87087238D01*
X80992228Y-87277714D01*
X80992228Y-87468190D01*
X81087466Y-87753904D01*
X82230323Y-88896761D01*
X80992228Y-88896761D01*
X79754133Y-86896761D02*
X79563657Y-86896761D01*
X79373180Y-86992000D01*
X79277942Y-87087238D01*
X79182704Y-87277714D01*
X79087466Y-87658666D01*
X79087466Y-88134857D01*
X79182704Y-88515809D01*
X79277942Y-88706285D01*
X79373180Y-88801523D01*
X79563657Y-88896761D01*
X79754133Y-88896761D01*
X79944609Y-88801523D01*
X80039847Y-88706285D01*
X80135085Y-88515809D01*
X80230323Y-88134857D01*
X80230323Y-87658666D01*
X80135085Y-87277714D01*
X80039847Y-87087238D01*
X79944609Y-86992000D01*
X79754133Y-86896761D01*
X77182704Y-88896761D02*
X78325561Y-88896761D01*
X77754133Y-88896761D02*
X77754133Y-86896761D01*
X77944609Y-87182476D01*
X78135085Y-87372952D01*
X78325561Y-87468190D01*
X76230323Y-88896761D02*
X75849371Y-88896761D01*
X75658895Y-88801523D01*
X75563657Y-88706285D01*
X75373180Y-88420571D01*
X75277942Y-88039619D01*
X75277942Y-87277714D01*
X75373180Y-87087238D01*
X75468419Y-86992000D01*
X75658895Y-86896761D01*
X76039847Y-86896761D01*
X76230323Y-86992000D01*
X76325561Y-87087238D01*
X76420800Y-87277714D01*
X76420800Y-87753904D01*
X76325561Y-87944380D01*
X76230323Y-88039619D01*
X76039847Y-88134857D01*
X75658895Y-88134857D01*
X75468419Y-88039619D01*
X75373180Y-87944380D01*
X75277942Y-87753904D01*
X74420800Y-88134857D02*
X72896990Y-88134857D01*
X71563657Y-86896761D02*
X71373180Y-86896761D01*
X71182704Y-86992000D01*
X71087466Y-87087238D01*
X70992228Y-87277714D01*
X70896990Y-87658666D01*
X70896990Y-88134857D01*
X70992228Y-88515809D01*
X71087466Y-88706285D01*
X71182704Y-88801523D01*
X71373180Y-88896761D01*
X71563657Y-88896761D01*
X71754133Y-88801523D01*
X71849371Y-88706285D01*
X71944609Y-88515809D01*
X72039847Y-88134857D01*
X72039847Y-87658666D01*
X71944609Y-87277714D01*
X71849371Y-87087238D01*
X71754133Y-86992000D01*
X71563657Y-86896761D01*
X70230323Y-86896761D02*
X68992228Y-86896761D01*
X69658895Y-87658666D01*
X69373180Y-87658666D01*
X69182704Y-87753904D01*
X69087466Y-87849142D01*
X68992228Y-88039619D01*
X68992228Y-88515809D01*
X69087466Y-88706285D01*
X69182704Y-88801523D01*
X69373180Y-88896761D01*
X69944609Y-88896761D01*
X70135085Y-88801523D01*
X70230323Y-88706285D01*
X68135085Y-88134857D02*
X66611276Y-88134857D01*
X64611276Y-88896761D02*
X65754133Y-88896761D01*
X65182704Y-88896761D02*
X65182704Y-86896761D01*
X65373180Y-87182476D01*
X65563657Y-87372952D01*
X65754133Y-87468190D01*
X63468419Y-87753904D02*
X63658895Y-87658666D01*
X63754133Y-87563428D01*
X63849371Y-87372952D01*
X63849371Y-87277714D01*
X63754133Y-87087238D01*
X63658895Y-86992000D01*
X63468419Y-86896761D01*
X63087466Y-86896761D01*
X62896990Y-86992000D01*
X62801752Y-87087238D01*
X62706514Y-87277714D01*
X62706514Y-87372952D01*
X62801752Y-87563428D01*
X62896990Y-87658666D01*
X63087466Y-87753904D01*
X63468419Y-87753904D01*
X63658895Y-87849142D01*
X63754133Y-87944380D01*
X63849371Y-88134857D01*
X63849371Y-88515809D01*
X63754133Y-88706285D01*
X63658895Y-88801523D01*
X63468419Y-88896761D01*
X63087466Y-88896761D01*
X62896990Y-88801523D01*
X62801752Y-88706285D01*
X62706514Y-88515809D01*
X62706514Y-88134857D01*
X62801752Y-87944380D01*
X62896990Y-87849142D01*
X63087466Y-87753904D01*
X91301742Y-82445338D02*
X91206504Y-82350100D01*
X91016028Y-82254861D01*
X90539838Y-82254861D01*
X90349361Y-82350100D01*
X90254123Y-82445338D01*
X90158885Y-82635814D01*
X90158885Y-82826290D01*
X90254123Y-83112004D01*
X91396980Y-84254861D01*
X90158885Y-84254861D01*
X89301742Y-84254861D02*
X89301742Y-82254861D01*
X88539838Y-82254861D01*
X88349361Y-82350100D01*
X88254123Y-82445338D01*
X88158885Y-82635814D01*
X88158885Y-82921528D01*
X88254123Y-83112004D01*
X88349361Y-83207242D01*
X88539838Y-83302480D01*
X89301742Y-83302480D01*
X87492219Y-82254861D02*
X86254123Y-82254861D01*
X86920790Y-83016766D01*
X86635076Y-83016766D01*
X86444600Y-83112004D01*
X86349361Y-83207242D01*
X86254123Y-83397719D01*
X86254123Y-83873909D01*
X86349361Y-84064385D01*
X86444600Y-84159623D01*
X86635076Y-84254861D01*
X87206504Y-84254861D01*
X87396980Y-84159623D01*
X87492219Y-84064385D01*
X85492219Y-84159623D02*
X85206504Y-84254861D01*
X84730314Y-84254861D01*
X84539838Y-84159623D01*
X84444600Y-84064385D01*
X84349361Y-83873909D01*
X84349361Y-83683433D01*
X84444600Y-83492957D01*
X84539838Y-83397719D01*
X84730314Y-83302480D01*
X85111266Y-83207242D01*
X85301742Y-83112004D01*
X85396980Y-83016766D01*
X85492219Y-82826290D01*
X85492219Y-82635814D01*
X85396980Y-82445338D01*
X85301742Y-82350100D01*
X85111266Y-82254861D01*
X84635076Y-82254861D01*
X84349361Y-82350100D01*
X81301742Y-83207242D02*
X81016028Y-83302480D01*
X80920790Y-83397719D01*
X80825552Y-83588195D01*
X80825552Y-83873909D01*
X80920790Y-84064385D01*
X81016028Y-84159623D01*
X81206504Y-84254861D01*
X81968409Y-84254861D01*
X81968409Y-82254861D01*
X81301742Y-82254861D01*
X81111266Y-82350100D01*
X81016028Y-82445338D01*
X80920790Y-82635814D01*
X80920790Y-82826290D01*
X81016028Y-83016766D01*
X81111266Y-83112004D01*
X81301742Y-83207242D01*
X81968409Y-83207242D01*
X79111266Y-84254861D02*
X79111266Y-83207242D01*
X79206504Y-83016766D01*
X79396980Y-82921528D01*
X79777933Y-82921528D01*
X79968409Y-83016766D01*
X79111266Y-84159623D02*
X79301742Y-84254861D01*
X79777933Y-84254861D01*
X79968409Y-84159623D01*
X80063647Y-83969147D01*
X80063647Y-83778671D01*
X79968409Y-83588195D01*
X79777933Y-83492957D01*
X79301742Y-83492957D01*
X79111266Y-83397719D01*
X78444600Y-82921528D02*
X77682695Y-82921528D01*
X78158885Y-82254861D02*
X78158885Y-83969147D01*
X78063647Y-84159623D01*
X77873171Y-84254861D01*
X77682695Y-84254861D01*
X77301742Y-82921528D02*
X76539838Y-82921528D01*
X77016028Y-82254861D02*
X77016028Y-83969147D01*
X76920790Y-84159623D01*
X76730314Y-84254861D01*
X76539838Y-84254861D01*
X75111266Y-84159623D02*
X75301742Y-84254861D01*
X75682695Y-84254861D01*
X75873171Y-84159623D01*
X75968409Y-83969147D01*
X75968409Y-83207242D01*
X75873171Y-83016766D01*
X75682695Y-82921528D01*
X75301742Y-82921528D01*
X75111266Y-83016766D01*
X75016028Y-83207242D01*
X75016028Y-83397719D01*
X75968409Y-83588195D01*
X74158885Y-84254861D02*
X74158885Y-82921528D01*
X74158885Y-83302480D02*
X74063647Y-83112004D01*
X73968409Y-83016766D01*
X73777933Y-82921528D01*
X73587457Y-82921528D01*
X73111266Y-82921528D02*
X72635076Y-84254861D01*
X72158885Y-82921528D02*
X72635076Y-84254861D01*
X72825552Y-84731052D01*
X72920790Y-84826290D01*
X73111266Y-84921528D01*
X69873171Y-84254861D02*
X69873171Y-82254861D01*
X69111266Y-82254861D01*
X68920790Y-82350100D01*
X68825552Y-82445338D01*
X68730314Y-82635814D01*
X68730314Y-82921528D01*
X68825552Y-83112004D01*
X68920790Y-83207242D01*
X69111266Y-83302480D01*
X69873171Y-83302480D01*
X67016028Y-84254861D02*
X67016028Y-83207242D01*
X67111266Y-83016766D01*
X67301742Y-82921528D01*
X67682695Y-82921528D01*
X67873171Y-83016766D01*
X67016028Y-84159623D02*
X67206504Y-84254861D01*
X67682695Y-84254861D01*
X67873171Y-84159623D01*
X67968409Y-83969147D01*
X67968409Y-83778671D01*
X67873171Y-83588195D01*
X67682695Y-83492957D01*
X67206504Y-83492957D01*
X67016028Y-83397719D01*
X65206504Y-84159623D02*
X65396980Y-84254861D01*
X65777933Y-84254861D01*
X65968409Y-84159623D01*
X66063647Y-84064385D01*
X66158885Y-83873909D01*
X66158885Y-83302480D01*
X66063647Y-83112004D01*
X65968409Y-83016766D01*
X65777933Y-82921528D01*
X65396980Y-82921528D01*
X65206504Y-83016766D01*
X64349361Y-84254861D02*
X64349361Y-82254861D01*
X64158885Y-83492957D02*
X63587457Y-84254861D01*
X63587457Y-82921528D02*
X64349361Y-83683433D01*
X113504761Y-93242857D02*
X113790476Y-93147619D01*
X113885714Y-93052380D01*
X113980952Y-92861904D01*
X113980952Y-92576190D01*
X113885714Y-92385714D01*
X113790476Y-92290476D01*
X113600000Y-92195238D01*
X112838095Y-92195238D01*
X112838095Y-94195238D01*
X113504761Y-94195238D01*
X113695238Y-94100000D01*
X113790476Y-94004761D01*
X113885714Y-93814285D01*
X113885714Y-93623809D01*
X113790476Y-93433333D01*
X113695238Y-93338095D01*
X113504761Y-93242857D01*
X112838095Y-93242857D01*
X114838095Y-92957142D02*
X116361904Y-92957142D01*
X114390476Y-97942857D02*
X114676190Y-97847619D01*
X114771428Y-97752380D01*
X114866666Y-97561904D01*
X114866666Y-97276190D01*
X114771428Y-97085714D01*
X114676190Y-96990476D01*
X114485714Y-96895238D01*
X113723809Y-96895238D01*
X113723809Y-98895238D01*
X114390476Y-98895238D01*
X114580952Y-98800000D01*
X114676190Y-98704761D01*
X114771428Y-98514285D01*
X114771428Y-98323809D01*
X114676190Y-98133333D01*
X114580952Y-98038095D01*
X114390476Y-97942857D01*
X113723809Y-97942857D01*
X116771428Y-96895238D02*
X115628571Y-96895238D01*
X116200000Y-96895238D02*
X116200000Y-98895238D01*
X116009523Y-98609523D01*
X115819047Y-98419047D01*
X115628571Y-98323809D01*
X114290476Y-101842857D02*
X114576190Y-101747619D01*
X114671428Y-101652380D01*
X114766666Y-101461904D01*
X114766666Y-101176190D01*
X114671428Y-100985714D01*
X114576190Y-100890476D01*
X114385714Y-100795238D01*
X113623809Y-100795238D01*
X113623809Y-102795238D01*
X114290476Y-102795238D01*
X114480952Y-102700000D01*
X114576190Y-102604761D01*
X114671428Y-102414285D01*
X114671428Y-102223809D01*
X114576190Y-102033333D01*
X114480952Y-101938095D01*
X114290476Y-101842857D01*
X113623809Y-101842857D01*
X115528571Y-102604761D02*
X115623809Y-102700000D01*
X115814285Y-102795238D01*
X116290476Y-102795238D01*
X116480952Y-102700000D01*
X116576190Y-102604761D01*
X116671428Y-102414285D01*
X116671428Y-102223809D01*
X116576190Y-101938095D01*
X115433333Y-100795238D01*
X116671428Y-100795238D01*
X113704761Y-110142857D02*
X113990476Y-110047619D01*
X114085714Y-109952380D01*
X114180952Y-109761904D01*
X114180952Y-109476190D01*
X114085714Y-109285714D01*
X113990476Y-109190476D01*
X113800000Y-109095238D01*
X113038095Y-109095238D01*
X113038095Y-111095238D01*
X113704761Y-111095238D01*
X113895238Y-111000000D01*
X113990476Y-110904761D01*
X114085714Y-110714285D01*
X114085714Y-110523809D01*
X113990476Y-110333333D01*
X113895238Y-110238095D01*
X113704761Y-110142857D01*
X113038095Y-110142857D01*
X115038095Y-109857142D02*
X116561904Y-109857142D01*
X115800000Y-109095238D02*
X115800000Y-110619047D01*
X170332514Y-102555600D02*
X170218228Y-102612742D01*
X170046800Y-102612742D01*
X169875371Y-102555600D01*
X169761085Y-102441314D01*
X169703942Y-102327028D01*
X169646800Y-102098457D01*
X169646800Y-101927028D01*
X169703942Y-101698457D01*
X169761085Y-101584171D01*
X169875371Y-101469885D01*
X170046800Y-101412742D01*
X170161085Y-101412742D01*
X170332514Y-101469885D01*
X170389657Y-101527028D01*
X170389657Y-101927028D01*
X170161085Y-101927028D01*
X170903942Y-101412742D02*
X170903942Y-102612742D01*
X171589657Y-101412742D01*
X171589657Y-102612742D01*
X172161085Y-101412742D02*
X172161085Y-102612742D01*
X172446800Y-102612742D01*
X172618228Y-102555600D01*
X172732514Y-102441314D01*
X172789657Y-102327028D01*
X172846800Y-102098457D01*
X172846800Y-101927028D01*
X172789657Y-101698457D01*
X172732514Y-101584171D01*
X172618228Y-101469885D01*
X172446800Y-101412742D01*
X172161085Y-101412742D01*
X169688095Y-103235238D02*
X169688095Y-105235238D01*
X170450000Y-105235238D01*
X170640476Y-105140000D01*
X170735714Y-105044761D01*
X170830952Y-104854285D01*
X170830952Y-104568571D01*
X170735714Y-104378095D01*
X170640476Y-104282857D01*
X170450000Y-104187619D01*
X169688095Y-104187619D01*
X171688095Y-103997142D02*
X173211904Y-103997142D01*
X169538095Y-108995238D02*
X169538095Y-110995238D01*
X170300000Y-110995238D01*
X170490476Y-110900000D01*
X170585714Y-110804761D01*
X170680952Y-110614285D01*
X170680952Y-110328571D01*
X170585714Y-110138095D01*
X170490476Y-110042857D01*
X170300000Y-109947619D01*
X169538095Y-109947619D01*
X171538095Y-109757142D02*
X173061904Y-109757142D01*
X172300000Y-108995238D02*
X172300000Y-110519047D01*
X190642857Y-138242857D02*
X189442857Y-138242857D01*
X189442857Y-138700000D01*
X189500000Y-138814285D01*
X189557142Y-138871428D01*
X189671428Y-138928571D01*
X189842857Y-138928571D01*
X189957142Y-138871428D01*
X190014285Y-138814285D01*
X190071428Y-138700000D01*
X190071428Y-138242857D01*
X190185714Y-139442857D02*
X190185714Y-140357142D01*
X190642857Y-139900000D02*
X189728571Y-139900000D01*
X190542857Y-134942857D02*
X189342857Y-134942857D01*
X189342857Y-135400000D01*
X189400000Y-135514285D01*
X189457142Y-135571428D01*
X189571428Y-135628571D01*
X189742857Y-135628571D01*
X189857142Y-135571428D01*
X189914285Y-135514285D01*
X189971428Y-135400000D01*
X189971428Y-134942857D01*
X190085714Y-136142857D02*
X190085714Y-137057142D01*
X203901542Y-126298257D02*
X203901542Y-125098257D01*
X203444400Y-125098257D01*
X203330114Y-125155400D01*
X203272971Y-125212542D01*
X203215828Y-125326828D01*
X203215828Y-125498257D01*
X203272971Y-125612542D01*
X203330114Y-125669685D01*
X203444400Y-125726828D01*
X203901542Y-125726828D01*
X202701542Y-125841114D02*
X201787257Y-125841114D01*
X202244400Y-126298257D02*
X202244400Y-125383971D01*
X185511942Y-126653857D02*
X185511942Y-125453857D01*
X185054800Y-125453857D01*
X184940514Y-125511000D01*
X184883371Y-125568142D01*
X184826228Y-125682428D01*
X184826228Y-125853857D01*
X184883371Y-125968142D01*
X184940514Y-126025285D01*
X185054800Y-126082428D01*
X185511942Y-126082428D01*
X184311942Y-126196714D02*
X183397657Y-126196714D01*
X185470685Y-122793200D02*
X185584971Y-122736057D01*
X185756400Y-122736057D01*
X185927828Y-122793200D01*
X186042114Y-122907485D01*
X186099257Y-123021771D01*
X186156400Y-123250342D01*
X186156400Y-123421771D01*
X186099257Y-123650342D01*
X186042114Y-123764628D01*
X185927828Y-123878914D01*
X185756400Y-123936057D01*
X185642114Y-123936057D01*
X185470685Y-123878914D01*
X185413542Y-123821771D01*
X185413542Y-123421771D01*
X185642114Y-123421771D01*
X184899257Y-123936057D02*
X184899257Y-122736057D01*
X184213542Y-123936057D01*
X184213542Y-122736057D01*
X183642114Y-123936057D02*
X183642114Y-122736057D01*
X183356400Y-122736057D01*
X183184971Y-122793200D01*
X183070685Y-122907485D01*
X183013542Y-123021771D01*
X182956400Y-123250342D01*
X182956400Y-123421771D01*
X183013542Y-123650342D01*
X183070685Y-123764628D01*
X183184971Y-123878914D01*
X183356400Y-123936057D01*
X183642114Y-123936057D01*
X185394485Y-80984800D02*
X185508771Y-80927657D01*
X185680200Y-80927657D01*
X185851628Y-80984800D01*
X185965914Y-81099085D01*
X186023057Y-81213371D01*
X186080200Y-81441942D01*
X186080200Y-81613371D01*
X186023057Y-81841942D01*
X185965914Y-81956228D01*
X185851628Y-82070514D01*
X185680200Y-82127657D01*
X185565914Y-82127657D01*
X185394485Y-82070514D01*
X185337342Y-82013371D01*
X185337342Y-81613371D01*
X185565914Y-81613371D01*
X184823057Y-82127657D02*
X184823057Y-80927657D01*
X184137342Y-82127657D01*
X184137342Y-80927657D01*
X183565914Y-82127657D02*
X183565914Y-80927657D01*
X183280200Y-80927657D01*
X183108771Y-80984800D01*
X182994485Y-81099085D01*
X182937342Y-81213371D01*
X182880200Y-81441942D01*
X182880200Y-81613371D01*
X182937342Y-81841942D01*
X182994485Y-81956228D01*
X183108771Y-82070514D01*
X183280200Y-82127657D01*
X183565914Y-82127657D01*
X185115104Y-79314657D02*
X183591295Y-79314657D01*
X203936504Y-78705057D02*
X202412695Y-78705057D01*
X203174600Y-79466961D02*
X203174600Y-77943152D01*
X205428628Y-80749857D02*
X205028628Y-81949857D01*
X204628628Y-80749857D01*
X204514342Y-82064142D02*
X203600057Y-82064142D01*
X203314342Y-81949857D02*
X203314342Y-80749857D01*
X202742914Y-81949857D02*
X202742914Y-80749857D01*
X202057200Y-81949857D01*
X202057200Y-80749857D01*
X202170571Y-77200057D02*
X202170571Y-76000057D01*
X201713428Y-76000057D01*
X201599142Y-76057200D01*
X201542000Y-76114342D01*
X201484857Y-76228628D01*
X201484857Y-76400057D01*
X201542000Y-76514342D01*
X201599142Y-76571485D01*
X201713428Y-76628628D01*
X202170571Y-76628628D01*
X200742000Y-76000057D02*
X200513428Y-76000057D01*
X200399142Y-76057200D01*
X200284857Y-76171485D01*
X200227714Y-76400057D01*
X200227714Y-76800057D01*
X200284857Y-77028628D01*
X200399142Y-77142914D01*
X200513428Y-77200057D01*
X200742000Y-77200057D01*
X200856285Y-77142914D01*
X200970571Y-77028628D01*
X201027714Y-76800057D01*
X201027714Y-76400057D01*
X200970571Y-76171485D01*
X200856285Y-76057200D01*
X200742000Y-76000057D01*
X199827714Y-76000057D02*
X199542000Y-77200057D01*
X199313428Y-76342914D01*
X199084857Y-77200057D01*
X198799142Y-76000057D01*
X198342000Y-76571485D02*
X197942000Y-76571485D01*
X197770571Y-77200057D02*
X198342000Y-77200057D01*
X198342000Y-76000057D01*
X197770571Y-76000057D01*
X196570571Y-77200057D02*
X196970571Y-76628628D01*
X197256285Y-77200057D02*
X197256285Y-76000057D01*
X196799142Y-76000057D01*
X196684857Y-76057200D01*
X196627714Y-76114342D01*
X196570571Y-76228628D01*
X196570571Y-76400057D01*
X196627714Y-76514342D01*
X196684857Y-76571485D01*
X196799142Y-76628628D01*
X197256285Y-76628628D01*
X195142000Y-77200057D02*
X195142000Y-76000057D01*
X194570571Y-77200057D02*
X194570571Y-76000057D01*
X193884857Y-77200057D01*
X193884857Y-76000057D01*
X193313428Y-77200057D02*
X193313428Y-76000057D01*
X192856285Y-76000057D01*
X192742000Y-76057200D01*
X192684857Y-76114342D01*
X192627714Y-76228628D01*
X192627714Y-76400057D01*
X192684857Y-76514342D01*
X192742000Y-76571485D01*
X192856285Y-76628628D01*
X193313428Y-76628628D01*
X192113428Y-76000057D02*
X192113428Y-76971485D01*
X192056285Y-77085771D01*
X191999142Y-77142914D01*
X191884857Y-77200057D01*
X191656285Y-77200057D01*
X191542000Y-77142914D01*
X191484857Y-77085771D01*
X191427714Y-76971485D01*
X191427714Y-76000057D01*
X191027714Y-76000057D02*
X190342000Y-76000057D01*
X190684857Y-77200057D02*
X190684857Y-76000057D01*
D12*
G04 #@! TO.C,MOD2*
X117750000Y-112000000D02*
X117750000Y-91000000D01*
X168750000Y-112000000D02*
X117750000Y-112000000D01*
X168750000Y-91000000D02*
X168750000Y-112000000D01*
X117750000Y-91000000D02*
X168750000Y-91000000D01*
X126583333Y-113452380D02*
X126583333Y-112452380D01*
X126250000Y-113166666D01*
X125916666Y-112452380D01*
X125916666Y-113452380D01*
X125250000Y-112452380D02*
X125059523Y-112452380D01*
X124964285Y-112500000D01*
X124869047Y-112595238D01*
X124821428Y-112785714D01*
X124821428Y-113119047D01*
X124869047Y-113309523D01*
X124964285Y-113404761D01*
X125059523Y-113452380D01*
X125250000Y-113452380D01*
X125345238Y-113404761D01*
X125440476Y-113309523D01*
X125488095Y-113119047D01*
X125488095Y-112785714D01*
X125440476Y-112595238D01*
X125345238Y-112500000D01*
X125250000Y-112452380D01*
X124392857Y-113452380D02*
X124392857Y-112452380D01*
X124154761Y-112452380D01*
X124011904Y-112500000D01*
X123916666Y-112595238D01*
X123869047Y-112690476D01*
X123821428Y-112880952D01*
X123821428Y-113023809D01*
X123869047Y-113214285D01*
X123916666Y-113309523D01*
X124011904Y-113404761D01*
X124154761Y-113452380D01*
X124392857Y-113452380D01*
X123440476Y-112547619D02*
X123392857Y-112500000D01*
X123297619Y-112452380D01*
X123059523Y-112452380D01*
X122964285Y-112500000D01*
X122916666Y-112547619D01*
X122869047Y-112642857D01*
X122869047Y-112738095D01*
X122916666Y-112880952D01*
X123488095Y-113452380D01*
X122869047Y-113452380D01*
G04 #@! TD*
M02*
