G04 #@! TF.GenerationSoftware,KiCad,Pcbnew,(5.0.2)-1*
G04 #@! TF.CreationDate,2019-03-16T18:46:31-04:00*
G04 #@! TF.ProjectId,2p3s-pwr-pack,32703373-2d70-4777-922d-7061636b2e6b,V1*
G04 #@! TF.SameCoordinates,Original*
G04 #@! TF.FileFunction,Legend,Top*
G04 #@! TF.FilePolarity,Positive*
%FSLAX46Y46*%
G04 Gerber Fmt 4.6, Leading zero omitted, Abs format (unit mm)*
G04 Created by KiCad (PCBNEW (5.0.2)-1) date 3/16/2019 6:46:31 PM*
%MOMM*%
%LPD*%
G01*
G04 APERTURE LIST*
%ADD10C,0.300000*%
%ADD11C,0.400000*%
%ADD12C,0.100000*%
%ADD13C,0.150000*%
%ADD14C,0.075000*%
G04 APERTURE END LIST*
D10*
X183473857Y-133930957D02*
X183473857Y-132730957D01*
X183931000Y-132730957D01*
X184045285Y-132788100D01*
X184102428Y-132845242D01*
X184159571Y-132959528D01*
X184159571Y-133130957D01*
X184102428Y-133245242D01*
X184045285Y-133302385D01*
X183931000Y-133359528D01*
X183473857Y-133359528D01*
X184673857Y-133473814D02*
X185588142Y-133473814D01*
D11*
X71166666Y-121595238D02*
X69928571Y-121595238D01*
X70595238Y-120833333D01*
X70309523Y-120833333D01*
X70119047Y-120738095D01*
X70023809Y-120642857D01*
X69928571Y-120452380D01*
X69928571Y-119976190D01*
X70023809Y-119785714D01*
X70119047Y-119690476D01*
X70309523Y-119595238D01*
X70880952Y-119595238D01*
X71071428Y-119690476D01*
X71166666Y-119785714D01*
X68404761Y-120642857D02*
X68119047Y-120547619D01*
X68023809Y-120452380D01*
X67928571Y-120261904D01*
X67928571Y-119976190D01*
X68023809Y-119785714D01*
X68119047Y-119690476D01*
X68309523Y-119595238D01*
X69071428Y-119595238D01*
X69071428Y-121595238D01*
X68404761Y-121595238D01*
X68214285Y-121500000D01*
X68119047Y-121404761D01*
X68023809Y-121214285D01*
X68023809Y-121023809D01*
X68119047Y-120833333D01*
X68214285Y-120738095D01*
X68404761Y-120642857D01*
X69071428Y-120642857D01*
X90023809Y-121595238D02*
X88785714Y-121595238D01*
X89452380Y-120833333D01*
X89166666Y-120833333D01*
X88976190Y-120738095D01*
X88880952Y-120642857D01*
X88785714Y-120452380D01*
X88785714Y-119976190D01*
X88880952Y-119785714D01*
X88976190Y-119690476D01*
X89166666Y-119595238D01*
X89738095Y-119595238D01*
X89928571Y-119690476D01*
X90023809Y-119785714D01*
X88023809Y-120166666D02*
X87071428Y-120166666D01*
X88214285Y-119595238D02*
X87547619Y-121595238D01*
X86880952Y-119595238D01*
X130428571Y-121961161D02*
X130333333Y-122056400D01*
X130142857Y-122151638D01*
X129666666Y-122151638D01*
X129476190Y-122056400D01*
X129380952Y-121961161D01*
X129285714Y-121770685D01*
X129285714Y-121580209D01*
X129380952Y-121294495D01*
X130523809Y-120151638D01*
X129285714Y-120151638D01*
X128523809Y-120723066D02*
X127571428Y-120723066D01*
X128714285Y-120151638D02*
X128047619Y-122151638D01*
X127380952Y-120151638D01*
X112071428Y-121904761D02*
X111976190Y-122000000D01*
X111785714Y-122095238D01*
X111309523Y-122095238D01*
X111119047Y-122000000D01*
X111023809Y-121904761D01*
X110928571Y-121714285D01*
X110928571Y-121523809D01*
X111023809Y-121238095D01*
X112166666Y-120095238D01*
X110928571Y-120095238D01*
X109404761Y-121142857D02*
X109119047Y-121047619D01*
X109023809Y-120952380D01*
X108928571Y-120761904D01*
X108928571Y-120476190D01*
X109023809Y-120285714D01*
X109119047Y-120190476D01*
X109309523Y-120095238D01*
X110071428Y-120095238D01*
X110071428Y-122095238D01*
X109404761Y-122095238D01*
X109214285Y-122000000D01*
X109119047Y-121904761D01*
X109023809Y-121714285D01*
X109023809Y-121523809D01*
X109119047Y-121333333D01*
X109214285Y-121238095D01*
X109404761Y-121142857D01*
X110071428Y-121142857D01*
X152428571Y-120095238D02*
X153571428Y-120095238D01*
X153000000Y-120095238D02*
X153000000Y-122095238D01*
X153190476Y-121809523D01*
X153380952Y-121619047D01*
X153571428Y-121523809D01*
X150904761Y-121142857D02*
X150619047Y-121047619D01*
X150523809Y-120952380D01*
X150428571Y-120761904D01*
X150428571Y-120476190D01*
X150523809Y-120285714D01*
X150619047Y-120190476D01*
X150809523Y-120095238D01*
X151571428Y-120095238D01*
X151571428Y-122095238D01*
X150904761Y-122095238D01*
X150714285Y-122000000D01*
X150619047Y-121904761D01*
X150523809Y-121714285D01*
X150523809Y-121523809D01*
X150619047Y-121333333D01*
X150714285Y-121238095D01*
X150904761Y-121142857D01*
X151571428Y-121142857D01*
X171285714Y-120095238D02*
X172428571Y-120095238D01*
X171857142Y-120095238D02*
X171857142Y-122095238D01*
X172047619Y-121809523D01*
X172238095Y-121619047D01*
X172428571Y-121523809D01*
X170523809Y-120666666D02*
X169571428Y-120666666D01*
X170714285Y-120095238D02*
X170047619Y-122095238D01*
X169380952Y-120095238D01*
D10*
X196342857Y-134042857D02*
X196342857Y-132842857D01*
X196800000Y-132842857D01*
X196914285Y-132900000D01*
X196971428Y-132957142D01*
X197028571Y-133071428D01*
X197028571Y-133242857D01*
X196971428Y-133357142D01*
X196914285Y-133414285D01*
X196800000Y-133471428D01*
X196342857Y-133471428D01*
X197542857Y-133585714D02*
X198457142Y-133585714D01*
X198000000Y-134042857D02*
X198000000Y-133128571D01*
X190636457Y-136591542D02*
X189436457Y-136591542D01*
X189436457Y-136134400D01*
X189493600Y-136020114D01*
X189550742Y-135962971D01*
X189665028Y-135905828D01*
X189836457Y-135905828D01*
X189950742Y-135962971D01*
X190007885Y-136020114D01*
X190065028Y-136134400D01*
X190065028Y-136591542D01*
X190179314Y-135391542D02*
X190179314Y-134477257D01*
X190712657Y-140020542D02*
X189512657Y-140020542D01*
X189512657Y-139563400D01*
X189569800Y-139449114D01*
X189626942Y-139391971D01*
X189741228Y-139334828D01*
X189912657Y-139334828D01*
X190026942Y-139391971D01*
X190084085Y-139449114D01*
X190141228Y-139563400D01*
X190141228Y-140020542D01*
X190255514Y-138820542D02*
X190255514Y-137906257D01*
X190712657Y-138363400D02*
X189798371Y-138363400D01*
X183337314Y-80984800D02*
X183223028Y-80927657D01*
X183051600Y-80927657D01*
X182880171Y-80984800D01*
X182765885Y-81099085D01*
X182708742Y-81213371D01*
X182651600Y-81441942D01*
X182651600Y-81613371D01*
X182708742Y-81841942D01*
X182765885Y-81956228D01*
X182880171Y-82070514D01*
X183051600Y-82127657D01*
X183165885Y-82127657D01*
X183337314Y-82070514D01*
X183394457Y-82013371D01*
X183394457Y-81613371D01*
X183165885Y-81613371D01*
X183908742Y-82127657D02*
X183908742Y-80927657D01*
X184594457Y-82127657D01*
X184594457Y-80927657D01*
X185165885Y-82127657D02*
X185165885Y-80927657D01*
X185451600Y-80927657D01*
X185623028Y-80984800D01*
X185737314Y-81099085D01*
X185794457Y-81213371D01*
X185851600Y-81441942D01*
X185851600Y-81613371D01*
X185794457Y-81841942D01*
X185737314Y-81956228D01*
X185623028Y-82070514D01*
X185451600Y-82127657D01*
X185165885Y-82127657D01*
X201834971Y-80902257D02*
X202234971Y-82102257D01*
X202634971Y-80902257D01*
X202749257Y-82216542D02*
X203663542Y-82216542D01*
X203949257Y-82102257D02*
X203949257Y-80902257D01*
X204520685Y-82102257D02*
X204520685Y-80902257D01*
X205206400Y-82102257D01*
X205206400Y-80902257D01*
X183515095Y-79289257D02*
X185038904Y-79289257D01*
X202387295Y-78705057D02*
X203911104Y-78705057D01*
X203149200Y-79466961D02*
X203149200Y-77943152D01*
X190716628Y-77225457D02*
X190716628Y-76025457D01*
X191173771Y-76025457D01*
X191288057Y-76082600D01*
X191345200Y-76139742D01*
X191402342Y-76254028D01*
X191402342Y-76425457D01*
X191345200Y-76539742D01*
X191288057Y-76596885D01*
X191173771Y-76654028D01*
X190716628Y-76654028D01*
X192145200Y-76025457D02*
X192373771Y-76025457D01*
X192488057Y-76082600D01*
X192602342Y-76196885D01*
X192659485Y-76425457D01*
X192659485Y-76825457D01*
X192602342Y-77054028D01*
X192488057Y-77168314D01*
X192373771Y-77225457D01*
X192145200Y-77225457D01*
X192030914Y-77168314D01*
X191916628Y-77054028D01*
X191859485Y-76825457D01*
X191859485Y-76425457D01*
X191916628Y-76196885D01*
X192030914Y-76082600D01*
X192145200Y-76025457D01*
X193059485Y-76025457D02*
X193345200Y-77225457D01*
X193573771Y-76368314D01*
X193802342Y-77225457D01*
X194088057Y-76025457D01*
X194545200Y-76596885D02*
X194945200Y-76596885D01*
X195116628Y-77225457D02*
X194545200Y-77225457D01*
X194545200Y-76025457D01*
X195116628Y-76025457D01*
X196316628Y-77225457D02*
X195916628Y-76654028D01*
X195630914Y-77225457D02*
X195630914Y-76025457D01*
X196088057Y-76025457D01*
X196202342Y-76082600D01*
X196259485Y-76139742D01*
X196316628Y-76254028D01*
X196316628Y-76425457D01*
X196259485Y-76539742D01*
X196202342Y-76596885D01*
X196088057Y-76654028D01*
X195630914Y-76654028D01*
X197745200Y-77225457D02*
X197745200Y-76025457D01*
X198316628Y-77225457D02*
X198316628Y-76025457D01*
X199002342Y-77225457D01*
X199002342Y-76025457D01*
X199573771Y-77225457D02*
X199573771Y-76025457D01*
X200030914Y-76025457D01*
X200145200Y-76082600D01*
X200202342Y-76139742D01*
X200259485Y-76254028D01*
X200259485Y-76425457D01*
X200202342Y-76539742D01*
X200145200Y-76596885D01*
X200030914Y-76654028D01*
X199573771Y-76654028D01*
X200773771Y-76025457D02*
X200773771Y-76996885D01*
X200830914Y-77111171D01*
X200888057Y-77168314D01*
X201002342Y-77225457D01*
X201230914Y-77225457D01*
X201345200Y-77168314D01*
X201402342Y-77111171D01*
X201459485Y-76996885D01*
X201459485Y-76025457D01*
X201859485Y-76025457D02*
X202545200Y-76025457D01*
X202202342Y-77225457D02*
X202202342Y-76025457D01*
X87595238Y-106214285D02*
X87500000Y-106119047D01*
X87404761Y-105928571D01*
X87404761Y-105452380D01*
X87500000Y-105261904D01*
X87595238Y-105166666D01*
X87785714Y-105071428D01*
X87976190Y-105071428D01*
X88261904Y-105166666D01*
X89404761Y-106309523D01*
X89404761Y-105071428D01*
X87404761Y-103833333D02*
X87404761Y-103642857D01*
X87500000Y-103452380D01*
X87595238Y-103357142D01*
X87785714Y-103261904D01*
X88166666Y-103166666D01*
X88642857Y-103166666D01*
X89023809Y-103261904D01*
X89214285Y-103357142D01*
X89309523Y-103452380D01*
X89404761Y-103642857D01*
X89404761Y-103833333D01*
X89309523Y-104023809D01*
X89214285Y-104119047D01*
X89023809Y-104214285D01*
X88642857Y-104309523D01*
X88166666Y-104309523D01*
X87785714Y-104214285D01*
X87595238Y-104119047D01*
X87500000Y-104023809D01*
X87404761Y-103833333D01*
X89404761Y-101261904D02*
X89404761Y-102404761D01*
X89404761Y-101833333D02*
X87404761Y-101833333D01*
X87690476Y-102023809D01*
X87880952Y-102214285D01*
X87976190Y-102404761D01*
X89404761Y-100309523D02*
X89404761Y-99928571D01*
X89309523Y-99738095D01*
X89214285Y-99642857D01*
X88928571Y-99452380D01*
X88547619Y-99357142D01*
X87785714Y-99357142D01*
X87595238Y-99452380D01*
X87500000Y-99547619D01*
X87404761Y-99738095D01*
X87404761Y-100119047D01*
X87500000Y-100309523D01*
X87595238Y-100404761D01*
X87785714Y-100500000D01*
X88261904Y-100500000D01*
X88452380Y-100404761D01*
X88547619Y-100309523D01*
X88642857Y-100119047D01*
X88642857Y-99738095D01*
X88547619Y-99547619D01*
X88452380Y-99452380D01*
X88261904Y-99357142D01*
X88642857Y-98500000D02*
X88642857Y-96976190D01*
X87404761Y-95642857D02*
X87404761Y-95452380D01*
X87500000Y-95261904D01*
X87595238Y-95166666D01*
X87785714Y-95071428D01*
X88166666Y-94976190D01*
X88642857Y-94976190D01*
X89023809Y-95071428D01*
X89214285Y-95166666D01*
X89309523Y-95261904D01*
X89404761Y-95452380D01*
X89404761Y-95642857D01*
X89309523Y-95833333D01*
X89214285Y-95928571D01*
X89023809Y-96023809D01*
X88642857Y-96119047D01*
X88166666Y-96119047D01*
X87785714Y-96023809D01*
X87595238Y-95928571D01*
X87500000Y-95833333D01*
X87404761Y-95642857D01*
X87404761Y-94309523D02*
X87404761Y-93071428D01*
X88166666Y-93738095D01*
X88166666Y-93452380D01*
X88261904Y-93261904D01*
X88357142Y-93166666D01*
X88547619Y-93071428D01*
X89023809Y-93071428D01*
X89214285Y-93166666D01*
X89309523Y-93261904D01*
X89404761Y-93452380D01*
X89404761Y-94023809D01*
X89309523Y-94214285D01*
X89214285Y-94309523D01*
X88642857Y-92214285D02*
X88642857Y-90690476D01*
X89404761Y-88690476D02*
X89404761Y-89833333D01*
X89404761Y-89261904D02*
X87404761Y-89261904D01*
X87690476Y-89452380D01*
X87880952Y-89642857D01*
X87976190Y-89833333D01*
X88261904Y-87547619D02*
X88166666Y-87738095D01*
X88071428Y-87833333D01*
X87880952Y-87928571D01*
X87785714Y-87928571D01*
X87595238Y-87833333D01*
X87500000Y-87738095D01*
X87404761Y-87547619D01*
X87404761Y-87166666D01*
X87500000Y-86976190D01*
X87595238Y-86880952D01*
X87785714Y-86785714D01*
X87880952Y-86785714D01*
X88071428Y-86880952D01*
X88166666Y-86976190D01*
X88261904Y-87166666D01*
X88261904Y-87547619D01*
X88357142Y-87738095D01*
X88452380Y-87833333D01*
X88642857Y-87928571D01*
X89023809Y-87928571D01*
X89214285Y-87833333D01*
X89309523Y-87738095D01*
X89404761Y-87547619D01*
X89404761Y-87166666D01*
X89309523Y-86976190D01*
X89214285Y-86880952D01*
X89023809Y-86785714D01*
X88642857Y-86785714D01*
X88452380Y-86880952D01*
X88357142Y-86976190D01*
X88261904Y-87166666D01*
X130107142Y-106928571D02*
X130178571Y-106785714D01*
X130178571Y-106500000D01*
X130107142Y-106357142D01*
X129964285Y-106285714D01*
X129892857Y-106285714D01*
X129750000Y-106357142D01*
X129678571Y-106500000D01*
X129678571Y-106714285D01*
X129607142Y-106857142D01*
X129464285Y-106928571D01*
X129392857Y-106928571D01*
X129250000Y-106857142D01*
X129178571Y-106714285D01*
X129178571Y-106500000D01*
X129250000Y-106357142D01*
X130107142Y-105071428D02*
X130178571Y-105214285D01*
X130178571Y-105500000D01*
X130107142Y-105642857D01*
X129964285Y-105714285D01*
X129392857Y-105714285D01*
X129250000Y-105642857D01*
X129178571Y-105500000D01*
X129178571Y-105214285D01*
X129250000Y-105071428D01*
X129392857Y-105000000D01*
X129535714Y-105000000D01*
X129678571Y-105714285D01*
X129178571Y-104357142D02*
X130178571Y-104357142D01*
X129321428Y-104357142D02*
X129250000Y-104285714D01*
X129178571Y-104142857D01*
X129178571Y-103928571D01*
X129250000Y-103785714D01*
X129392857Y-103714285D01*
X130178571Y-103714285D01*
X130107142Y-103071428D02*
X130178571Y-102928571D01*
X130178571Y-102642857D01*
X130107142Y-102500000D01*
X129964285Y-102428571D01*
X129892857Y-102428571D01*
X129750000Y-102500000D01*
X129678571Y-102642857D01*
X129678571Y-102857142D01*
X129607142Y-103000000D01*
X129464285Y-103071428D01*
X129392857Y-103071428D01*
X129250000Y-103000000D01*
X129178571Y-102857142D01*
X129178571Y-102642857D01*
X129250000Y-102500000D01*
X130178571Y-101571428D02*
X130107142Y-101714285D01*
X130035714Y-101785714D01*
X129892857Y-101857142D01*
X129464285Y-101857142D01*
X129321428Y-101785714D01*
X129250000Y-101714285D01*
X129178571Y-101571428D01*
X129178571Y-101357142D01*
X129250000Y-101214285D01*
X129321428Y-101142857D01*
X129464285Y-101071428D01*
X129892857Y-101071428D01*
X130035714Y-101142857D01*
X130107142Y-101214285D01*
X130178571Y-101357142D01*
X130178571Y-101571428D01*
X130178571Y-100428571D02*
X129178571Y-100428571D01*
X129464285Y-100428571D02*
X129321428Y-100357142D01*
X129250000Y-100285714D01*
X129178571Y-100142857D01*
X129178571Y-100000000D01*
X130178571Y-98857142D02*
X129392857Y-98857142D01*
X129250000Y-98928571D01*
X129178571Y-99071428D01*
X129178571Y-99357142D01*
X129250000Y-99500000D01*
X130107142Y-98857142D02*
X130178571Y-99000000D01*
X130178571Y-99357142D01*
X130107142Y-99500000D01*
X129964285Y-99571428D01*
X129821428Y-99571428D01*
X129678571Y-99500000D01*
X129607142Y-99357142D01*
X129607142Y-99000000D01*
X129535714Y-98857142D01*
X130178571Y-98142857D02*
X128678571Y-98142857D01*
X129250000Y-98142857D02*
X129178571Y-98000000D01*
X129178571Y-97714285D01*
X129250000Y-97571428D01*
X129321428Y-97500000D01*
X129464285Y-97428571D01*
X129892857Y-97428571D01*
X130035714Y-97500000D01*
X130107142Y-97571428D01*
X130178571Y-97714285D01*
X130178571Y-98000000D01*
X130107142Y-98142857D01*
X130178571Y-96571428D02*
X130107142Y-96714285D01*
X129964285Y-96785714D01*
X128678571Y-96785714D01*
X130107142Y-95428571D02*
X130178571Y-95571428D01*
X130178571Y-95857142D01*
X130107142Y-96000000D01*
X129964285Y-96071428D01*
X129392857Y-96071428D01*
X129250000Y-96000000D01*
X129178571Y-95857142D01*
X129178571Y-95571428D01*
X129250000Y-95428571D01*
X129392857Y-95357142D01*
X129535714Y-95357142D01*
X129678571Y-96071428D01*
X130035714Y-94714285D02*
X130107142Y-94642857D01*
X130178571Y-94714285D01*
X130107142Y-94785714D01*
X130035714Y-94714285D01*
X130178571Y-94714285D01*
X130178571Y-94000000D02*
X129178571Y-94000000D01*
X128678571Y-94000000D02*
X128750000Y-94071428D01*
X128821428Y-94000000D01*
X128750000Y-93928571D01*
X128678571Y-94000000D01*
X128821428Y-94000000D01*
X130178571Y-93071428D02*
X130107142Y-93214285D01*
X130035714Y-93285714D01*
X129892857Y-93357142D01*
X129464285Y-93357142D01*
X129321428Y-93285714D01*
X129250000Y-93214285D01*
X129178571Y-93071428D01*
X129178571Y-92857142D01*
X129250000Y-92714285D01*
X129321428Y-92642857D01*
X129464285Y-92571428D01*
X129892857Y-92571428D01*
X130035714Y-92642857D01*
X130107142Y-92714285D01*
X130178571Y-92857142D01*
X130178571Y-93071428D01*
D12*
X109660923Y-87863068D02*
G75*
G02X109733821Y-87749255I339077J-136932D01*
G01*
X110073036Y-94850679D02*
G75*
G02X109893984Y-94826871I-2111J669330D01*
G01*
X110204423Y-91659760D02*
G75*
G02X110237527Y-91653237I31672J-73470D01*
G01*
X110154100Y-91757529D02*
X110139934Y-91908238D01*
X110073036Y-94513433D02*
G75*
G02X110254252Y-94537633I6199J-644165D01*
G01*
X110337088Y-94682645D02*
X110337088Y-94682645D01*
X110340039Y-91754759D02*
G75*
G02X110346926Y-91821273I-291651J-63810D01*
G01*
X110337087Y-94682645D02*
G75*
G02X110331726Y-94736816I-249932J-2613D01*
G01*
X110433894Y-87727999D02*
G75*
G02X110476001Y-87803152I-266927J-198926D01*
G01*
X110195530Y-88337735D02*
G75*
G02X110075396Y-88345416I-115071J856391D01*
G01*
X109891229Y-94537634D02*
G75*
G02X110073036Y-94513433I175869J-626205D01*
G01*
X109813190Y-94736816D02*
G75*
G02X109807803Y-94682645I243445J51563D01*
G01*
X109660381Y-88115752D02*
G75*
G02X109636623Y-87994409I300179J121769D01*
G01*
X109847943Y-87670451D02*
G75*
G02X109995906Y-87644182I141725J-368450D01*
G01*
X110346926Y-87971591D02*
G75*
G02X110333792Y-88052259I-236241J-2940D01*
G01*
X109636623Y-87994408D02*
G75*
G02X109660922Y-87863067I353080J2596D01*
G01*
X109995906Y-87644182D02*
X110136785Y-87644182D01*
X110228722Y-88159977D02*
G75*
G02X110136785Y-88174232I-86682J255456D01*
G01*
X109960649Y-88338339D02*
G75*
G02X109865109Y-88317032I67477J527424D01*
G01*
X110369172Y-88276257D02*
G75*
G02X110293456Y-88314690I-174339J249664D01*
G01*
X110136785Y-87644182D02*
X110136785Y-88174232D01*
X110346926Y-91821273D02*
G75*
G02X110319576Y-91966668I-381485J-3510D01*
G01*
X110264679Y-87784666D02*
G75*
G02X110326364Y-87871933I-195778J-203822D01*
G01*
X110285143Y-91665149D02*
G75*
G02X110319379Y-91700862I-49198J-81431D01*
G01*
X110293456Y-88314691D02*
G75*
G02X110195530Y-88337735I-164053J477548D01*
G01*
X109807802Y-94682646D02*
G75*
G02X109813018Y-94628278I258691J2617D01*
G01*
X109733821Y-87749255D02*
G75*
G02X109847943Y-87670450I229817J-210776D01*
G01*
X110294391Y-88117187D02*
G75*
G02X110228722Y-88159977I-119192J111137D01*
G01*
X110422678Y-88222461D02*
G75*
G02X110369172Y-88276257I-179068J124597D01*
G01*
X110326364Y-87871933D02*
G75*
G02X110346926Y-87971591I-224133J-98193D01*
G01*
X110136785Y-87644182D02*
X110136785Y-87644182D01*
X109829349Y-94778911D02*
G75*
G02X109813190Y-94736816I122803J71290D01*
G01*
X109828662Y-94585987D02*
G75*
G02X109891229Y-94537633I88839J-50298D01*
G01*
X109788780Y-88281571D02*
G75*
G02X109731657Y-88231906I131697J209154D01*
G01*
X110179482Y-91679303D02*
G75*
G02X110204423Y-91659760I52364J-41140D01*
G01*
X110154100Y-91757529D02*
G75*
G02X110162709Y-91711893I205848J-15200D01*
G01*
X110118634Y-92005050D02*
G75*
G02X110070478Y-92083754I-246778J96911D01*
G01*
X110316379Y-94585987D02*
G75*
G02X110331910Y-94628278I-128409J-71156D01*
G01*
X110070478Y-92083755D02*
G75*
G02X109996841Y-92135989I-146642J128706D01*
G01*
X110139934Y-91908238D02*
G75*
G02X110118634Y-92005050I-327121J21219D01*
G01*
X109813018Y-94628277D02*
G75*
G02X109828661Y-94585986I143258J-28950D01*
G01*
X109996841Y-92135989D02*
G75*
G02X109899099Y-92153392I-93221J240385D01*
G01*
X110251300Y-94826871D02*
G75*
G02X110073036Y-94850679I-176158J639720D01*
G01*
X110162708Y-91711894D02*
G75*
G02X110179482Y-91679304I97707J-29676D01*
G01*
X109899099Y-92153391D02*
G75*
G02X109785373Y-92130674I-5676J267612D01*
G01*
X109785372Y-92130675D02*
G75*
G02X109703127Y-92062498I88887J190925D01*
G01*
X110075397Y-88345416D02*
G75*
G02X109960650Y-88338339I-4511J860652D01*
G01*
X109703127Y-92062498D02*
G75*
G02X109653248Y-91960472I265084J192803D01*
G01*
X110476001Y-87803152D02*
G75*
G02X110507482Y-87968443I-411448J-164008D01*
G01*
X110254252Y-94537633D02*
G75*
G02X110316379Y-94585986I-26384J-97988D01*
G01*
X109893985Y-94826870D02*
G75*
G02X109829349Y-94778911I25136J101411D01*
G01*
X110331726Y-94736816D02*
G75*
G02X110315641Y-94778911I-139375J29137D01*
G01*
X110315641Y-94778911D02*
G75*
G02X110251300Y-94826871I-89545J52991D01*
G01*
X110264679Y-87784666D02*
X110370537Y-87660704D01*
X110333792Y-88052259D02*
G75*
G02X110294391Y-88117187I-179100J64267D01*
G01*
X110507482Y-87968443D02*
G75*
G02X110486281Y-88097467I-404973J291D01*
G01*
X109865109Y-88317032D02*
G75*
G02X109788780Y-88281571I103489J322637D01*
G01*
X110355977Y-92209278D02*
X110237527Y-92089648D01*
X110319577Y-91966668D02*
G75*
G02X110237527Y-92089648I-351616J145730D01*
G01*
X110319379Y-91700863D02*
G75*
G02X110340039Y-91754759I-167671J-95180D01*
G01*
X110370538Y-87660704D02*
G75*
G02X110433894Y-87727999I-265270J-313216D01*
G01*
X110237526Y-91653236D02*
G75*
G02X110285143Y-91665149I2042J-92961D01*
G01*
X109731657Y-88231906D02*
G75*
G02X109660380Y-88115751I327710J281042D01*
G01*
X110486281Y-88097466D02*
G75*
G02X110422679Y-88222461I-471698J161340D01*
G01*
X109636623Y-94630700D02*
G75*
G02X109644491Y-94558144I317683J2255D01*
G01*
X109952421Y-91958406D02*
G75*
G02X109927581Y-91976263I-62177J60289D01*
G01*
X109927581Y-91976263D02*
G75*
G02X109900673Y-91982232I-26919J57715D01*
G01*
X109747202Y-94402852D02*
G75*
G02X109854239Y-94354843I156612J-205849D01*
G01*
X111010148Y-94528528D02*
G75*
G02X111066667Y-94434537I328638J-133627D01*
G01*
X110507482Y-91834646D02*
G75*
G02X110469606Y-92034567I-528128J-3491D01*
G01*
X109797965Y-91836233D02*
G75*
G02X109820199Y-91713253I321128J5443D01*
G01*
X109971459Y-91924331D02*
G75*
G02X109952422Y-91958407I-80469J22601D01*
G01*
X109644491Y-91732772D02*
G75*
G02X109668105Y-91645178I421618J-66680D01*
G01*
X110355977Y-92209278D02*
X110355977Y-92209278D01*
X109911150Y-87830452D02*
G75*
G02X109995906Y-87814963I91748J-262408D01*
G01*
X109810707Y-88064248D02*
G75*
G02X109797965Y-87994409I172788J67605D01*
G01*
X109848925Y-88121115D02*
G75*
G02X109810706Y-88064247I116632J119659D01*
G01*
X111852331Y-95021858D02*
X109646461Y-95021858D01*
X109644491Y-94558144D02*
G75*
G02X109668105Y-94496314I231505J-52991D01*
G01*
X110072444Y-91539324D02*
G75*
G02X110152083Y-91496383I160760J-202826D01*
G01*
X109848924Y-87869061D02*
G75*
G02X109911150Y-87830452I119718J-123498D01*
G01*
X109980951Y-91869679D02*
X109990789Y-91728793D01*
X110015730Y-91615308D02*
G75*
G02X110072445Y-91539324I176307J-72438D01*
G01*
X109646461Y-94850679D02*
X109735788Y-94850679D01*
X110152083Y-91496382D02*
G75*
G02X110245790Y-91482052I91187J-282731D01*
G01*
X109995906Y-88174232D02*
G75*
G02X109911150Y-88159574I3386J271950D01*
G01*
X109636623Y-91836233D02*
G75*
G02X109644491Y-91732772I637332J3563D01*
G01*
X109668105Y-94496315D02*
G75*
G02X109747202Y-94402852I266889J-145666D01*
G01*
X109939436Y-94345399D02*
X110073036Y-94342251D01*
X110073036Y-94342251D02*
X110205849Y-94345399D01*
X109999289Y-91667366D02*
G75*
G02X110015730Y-91615308I280673J-60017D01*
G01*
X109900673Y-91982233D02*
G75*
G02X109827084Y-91950146I-2328J95091D01*
G01*
X109797965Y-87994409D02*
G75*
G02X109810706Y-87925502I181278J2113D01*
G01*
X109911150Y-88159574D02*
G75*
G02X109848925Y-88121116I55440J159272D01*
G01*
X109854239Y-94354844D02*
G75*
G02X109939436Y-94345399I111028J-612565D01*
G01*
X110205849Y-94345398D02*
G75*
G02X110291046Y-94354843I-26392J-627075D01*
G01*
X110291046Y-94354844D02*
G75*
G02X110397690Y-94402852I-47541J-248058D01*
G01*
X109661412Y-94751018D02*
G75*
G02X109636623Y-94630700I264549J117219D01*
G01*
X110476787Y-94496314D02*
G75*
G02X110499808Y-94558144I-212437J-114298D01*
G01*
X109980951Y-91869679D02*
G75*
G02X109971459Y-91924331I-236909J12997D01*
G01*
X109990789Y-91728793D02*
G75*
G02X109999289Y-91667366I419377J-26730D01*
G01*
X110439403Y-91584582D02*
G75*
G02X110490462Y-91698344I-324325J-213904D01*
G01*
X110490462Y-91698344D02*
G75*
G02X110507482Y-91834647I-500663J-131731D01*
G01*
X110499808Y-94558144D02*
G75*
G02X110507482Y-94630700I-317817J-70297D01*
G01*
X110507483Y-94630700D02*
G75*
G02X110480526Y-94750134I-259367J-4220D01*
G01*
X110407528Y-94850679D02*
X111092051Y-94850674D01*
X109995906Y-88174232D02*
X109995906Y-88174232D01*
X110245790Y-91482052D02*
G75*
G02X110356961Y-91507691I4583J-233969D01*
G01*
X110397689Y-94402852D02*
G75*
G02X110476787Y-94496314I-177131J-230108D01*
G01*
X109805246Y-91905644D02*
G75*
G02X109797965Y-91836233I276986J64143D01*
G01*
X109668105Y-91645177D02*
G75*
G02X109752317Y-91502528I480010J-187189D01*
G01*
X109827085Y-91950146D02*
G75*
G02X109805246Y-91905644I78952J66353D01*
G01*
X110356961Y-91507692D02*
G75*
G02X110439403Y-91584582I-108061J-198505D01*
G01*
X109752317Y-91502528D02*
X109877062Y-91608382D01*
X109646461Y-95021858D02*
X109646461Y-94850679D01*
X109653247Y-91960472D02*
G75*
G02X109636623Y-91836233I422676J119791D01*
G01*
X109735788Y-94850679D02*
G75*
G02X109661413Y-94751018I197937J225299D01*
G01*
X111092051Y-94850674D02*
X111092051Y-94847526D01*
X111092051Y-94847525D02*
G75*
G02X111016495Y-94752199I156970J202021D01*
G01*
X111016495Y-94752200D02*
G75*
G02X110991310Y-94625971I276592J120814D01*
G01*
X110480526Y-94750134D02*
G75*
G02X110407528Y-94850679I-370805J192442D01*
G01*
X110991309Y-94625971D02*
G75*
G02X111010148Y-94528529I263968J-491D01*
G01*
X110469607Y-92034568D02*
G75*
G02X110355977Y-92209278I-523955J216466D01*
G01*
X111066667Y-94434537D02*
G75*
G02X111159293Y-94365328I183012J-148348D01*
G01*
X109820199Y-91713254D02*
G75*
G02X109877062Y-91608382I527759J-218308D01*
G01*
X109995906Y-88174232D02*
X109995906Y-87814963D01*
X109810706Y-87925501D02*
G75*
G02X109848925Y-87869061I154490J-63454D01*
G01*
X111852331Y-94342258D02*
X111852331Y-94513443D01*
X111210893Y-94802670D02*
G75*
G02X111174591Y-94748270I111082J113439D01*
G01*
X111286449Y-94342258D02*
X111852331Y-94342258D01*
X111852331Y-94850674D02*
X111852331Y-95021858D01*
X111268741Y-94525431D02*
G75*
G02X111345475Y-94513443I72987J-215603D01*
G01*
X111159293Y-94365328D02*
G75*
G02X111218554Y-94348026I108530J-261584D01*
G01*
X111218554Y-94348025D02*
G75*
G02X111286449Y-94342258I66005J-374506D01*
G01*
X111345476Y-94850674D02*
G75*
G02X111268741Y-94838686I-3748J227592D01*
G01*
X111852331Y-94513443D02*
X111345475Y-94513443D01*
X111162489Y-94681076D02*
G75*
G02X111174591Y-94615368I173606J1995D01*
G01*
X111345475Y-94850674D02*
X111852331Y-94850674D01*
X111174591Y-94615367D02*
G75*
G02X111210893Y-94561446I148156J-60564D01*
G01*
X111210893Y-94561446D02*
G75*
G02X111268741Y-94525431I108736J-110189D01*
G01*
X111268741Y-94838686D02*
G75*
G02X111210893Y-94802671I50888J146204D01*
G01*
X111174591Y-94748270D02*
G75*
G02X111162489Y-94681076I168055J64953D01*
G01*
X111852331Y-95021858D02*
X111852331Y-95021858D01*
X111671311Y-90534985D02*
G75*
G02X111637076Y-90563042I-85439J69340D01*
G01*
X111092051Y-93159076D02*
G75*
G02X111016495Y-93063750I156970J202021D01*
G01*
X111203612Y-89052843D02*
G75*
G02X111165393Y-88995975I116631J119659D01*
G01*
X111635106Y-90238681D02*
G75*
G02X111661473Y-90250971I-30542J-99952D01*
G01*
X111556402Y-90228833D02*
G75*
G02X111635106Y-90238681I7078J-262871D01*
G01*
X111699153Y-90326526D02*
G75*
G02X111704761Y-90415758I-483009J-75148D01*
G01*
X111556402Y-90228833D02*
X111556402Y-90228833D01*
X111501926Y-90492095D02*
G75*
G02X111493834Y-90428351I284568J68510D01*
G01*
X111637076Y-90563043D02*
G75*
G02X111597328Y-90572386I-39202J77550D01*
G01*
X110212341Y-90518885D02*
X109646461Y-90518885D01*
X111143467Y-89213300D02*
G75*
G02X111086344Y-89163634I131696J209155D01*
G01*
X111165393Y-88857229D02*
G75*
G02X111203612Y-88800789I154489J-63453D01*
G01*
X111777366Y-89154189D02*
G75*
G02X111723859Y-89207985I-179069J124598D01*
G01*
X111852331Y-93333409D02*
X111852331Y-93333409D01*
X111862169Y-88900171D02*
G75*
G02X111840968Y-89029195I-404974J291D01*
G01*
X111015067Y-89047479D02*
G75*
G02X110991310Y-88926136I300179J121768D01*
G01*
X111648143Y-89246417D02*
G75*
G02X111550217Y-89269462I-164054J477546D01*
G01*
X111001147Y-93162224D02*
X111092051Y-93162224D01*
X111550217Y-89269463D02*
G75*
G02X111430083Y-89277144I-115072J856391D01*
G01*
X111430083Y-89277144D02*
G75*
G02X111315336Y-89270067I-4511J860652D01*
G01*
X111092051Y-93162224D02*
X111092051Y-93159076D01*
X111016495Y-93063750D02*
G75*
G02X110991310Y-92937521I276592J120813D01*
G01*
X111830687Y-88734879D02*
G75*
G02X111862169Y-88900170I-411447J-164009D01*
G01*
X111315336Y-89270066D02*
G75*
G02X111219796Y-89248760I67476J527423D01*
G01*
X111007739Y-92846250D02*
G75*
G02X111057026Y-92759663I301936J-114549D01*
G01*
X111340756Y-93162224D02*
X111852331Y-93162224D01*
X111203611Y-88800789D02*
G75*
G02X111265837Y-88762180I119718J-123498D01*
G01*
X111556402Y-90228833D02*
X111493834Y-90228833D01*
X111219796Y-89248760D02*
G75*
G02X111143467Y-89213299I103488J322637D01*
G01*
X110991309Y-88926136D02*
G75*
G02X111015608Y-88794795I353080J2596D01*
G01*
X111015609Y-88794796D02*
G75*
G02X111088507Y-88680983I339077J-136932D01*
G01*
X111259937Y-93149405D02*
G75*
G02X111204793Y-93110872I43597J121114D01*
G01*
X111350593Y-89105959D02*
X111350593Y-88746691D01*
X111723859Y-89207985D02*
G75*
G02X111648143Y-89246418I-174340J249664D01*
G01*
X111852331Y-93333409D02*
X111001147Y-93333409D01*
X111001147Y-93333409D02*
X111001147Y-93162224D01*
X111350593Y-88575910D02*
X111491472Y-88575910D01*
X111057026Y-92759663D02*
X111204596Y-92883222D01*
X111491472Y-88575910D02*
X111491472Y-88575910D01*
X111788580Y-88659727D02*
G75*
G02X111830687Y-88734879I-266926J-198926D01*
G01*
X111173017Y-92939511D02*
G75*
G02X111204596Y-92883222I208272J-79843D01*
G01*
X111162489Y-92996556D02*
G75*
G02X111173016Y-92939511I162729J-537D01*
G01*
X111265837Y-88762180D02*
G75*
G02X111350593Y-88746691I91747J-262407D01*
G01*
X111152651Y-88926136D02*
G75*
G02X111165393Y-88857229I181278J2112D01*
G01*
X111265837Y-89091302D02*
G75*
G02X111203612Y-89052844I55440J159272D01*
G01*
X111597329Y-90572386D02*
G75*
G02X111553675Y-90564125I-4091J97859D01*
G01*
X111696398Y-90487084D02*
G75*
G02X111671311Y-90534986I-111649J27952D01*
G01*
X111204793Y-93110872D02*
G75*
G02X111162489Y-92996556I133108J114244D01*
G01*
X111704761Y-90415758D02*
G75*
G02X111696398Y-90487083I-266407J-4918D01*
G01*
X111165394Y-88995974D02*
G75*
G02X111152652Y-88926136I172787J67604D01*
G01*
X111840967Y-89029194D02*
G75*
G02X111777365Y-89154189I-471698J161341D01*
G01*
X111086344Y-89163634D02*
G75*
G02X111015067Y-89047479I327709J281042D01*
G01*
X111350593Y-89105960D02*
G75*
G02X111265837Y-89091302I3386J271950D01*
G01*
X111350593Y-89105959D02*
X111350593Y-89105959D01*
X111852331Y-93162224D02*
X111852331Y-93333409D01*
X110991310Y-92937521D02*
G75*
G02X111007738Y-92846250I261376J68D01*
G01*
X111493834Y-90228833D02*
X111493834Y-90428351D01*
X111553674Y-90564125D02*
G75*
G02X111521873Y-90537353I34285J72999D01*
G01*
X111088507Y-88680983D02*
G75*
G02X111202629Y-88602178I229817J-210776D01*
G01*
X111521873Y-90537353D02*
G75*
G02X111501926Y-90492095I110779J75849D01*
G01*
X111679182Y-90268197D02*
G75*
G02X111699153Y-90326527I-139549J-80364D01*
G01*
X111340756Y-93162224D02*
G75*
G02X111259936Y-93149405I-5153J228689D01*
G01*
X111202630Y-88602179D02*
G75*
G02X111350593Y-88575910I141725J-368450D01*
G01*
X111661473Y-90250971D02*
G75*
G02X111679182Y-90268198I-35190J-53890D01*
G01*
X109646461Y-89473749D02*
X109737364Y-89473749D01*
X110325085Y-90245297D02*
G75*
G02X110289078Y-90299697I-147657J58617D01*
G01*
X111831474Y-92595615D02*
G75*
G02X111752376Y-92688095I-245215J129664D01*
G01*
X109646461Y-89644933D02*
X109646461Y-89473749D01*
X110154100Y-90010470D02*
X109646461Y-90010470D01*
X111752377Y-92688095D02*
G75*
G02X111645339Y-92736501I-151121J191618D01*
G01*
X111293632Y-92745643D02*
G75*
G02X111208926Y-92736501I26088J638699D01*
G01*
X111022791Y-92595615D02*
G75*
G02X110999177Y-92533432I209058J114965D01*
G01*
X111852331Y-92240275D02*
X111763788Y-92240275D01*
X111425756Y-92748691D02*
X111293631Y-92745643D01*
X109986069Y-89473749D02*
X110497644Y-89473749D01*
X111019248Y-92341218D02*
G75*
G02X111092051Y-92240275I402651J-213680D01*
G01*
X109653052Y-89157774D02*
G75*
G02X109702339Y-89071187I301936J-114549D01*
G01*
X110488741Y-90332464D02*
G75*
G02X110432516Y-90426808I-326100J130413D01*
G01*
X110497644Y-89644933D02*
X109646461Y-89644933D01*
X110339990Y-90495866D02*
G75*
G02X110280556Y-90513143I-108636J262847D01*
G01*
X109661808Y-89375275D02*
G75*
G02X109636623Y-89249046I276593J120813D01*
G01*
X109818330Y-89251035D02*
G75*
G02X109849910Y-89194746I208272J-79844D01*
G01*
X109807802Y-89308080D02*
G75*
G02X109818330Y-89251035I162730J-538D01*
G01*
X109850106Y-89422396D02*
G75*
G02X109807803Y-89308080I133108J114243D01*
G01*
X110497644Y-89644933D02*
X110497644Y-89644933D01*
X111101888Y-92688094D02*
G75*
G02X111022791Y-92595614I175843J230460D01*
G01*
X109737364Y-89470601D02*
G75*
G02X109661808Y-89375275I156971J202021D01*
G01*
X109905249Y-89460930D02*
G75*
G02X109850106Y-89422396I43599J121114D01*
G01*
X110289078Y-90058472D02*
G75*
G02X110325086Y-90112394I-112417J-114052D01*
G01*
X110497644Y-89839285D02*
X110497644Y-90010470D01*
X111763788Y-92240276D02*
G75*
G02X111837573Y-92340135I-200605J-225413D01*
G01*
X111837574Y-92340134D02*
G75*
G02X111862169Y-92460243I-266214J-117087D01*
G01*
X109986069Y-89473749D02*
G75*
G02X109905249Y-89460930I-5153J228689D01*
G01*
X111645339Y-92736500D02*
G75*
G02X111559550Y-92745643I-112201J645786D01*
G01*
X111092051Y-92240275D02*
X110657604Y-92240275D01*
X110657604Y-92240275D02*
X110657604Y-92069091D01*
X109646461Y-90518885D02*
X109646461Y-90347701D01*
X110497644Y-90010470D02*
X110407528Y-90010470D01*
X109702339Y-89071187D02*
X109849910Y-89194746D01*
X111852331Y-92240275D02*
X111852331Y-92240275D01*
X109646461Y-90347701D02*
X110154100Y-90347701D01*
X110325086Y-90112394D02*
G75*
G02X110337088Y-90178103I-162860J-63699D01*
G01*
X111854495Y-92533431D02*
G75*
G02X111831474Y-92595614I-236661J52263D01*
G01*
X109737364Y-89473749D02*
X109737364Y-89470601D01*
X111559550Y-92745643D02*
X111425756Y-92748691D01*
X111208925Y-92736502D02*
G75*
G02X111101888Y-92688095I46433J245219D01*
G01*
X110991311Y-92460243D02*
G75*
G02X111019248Y-92341218I252478J3529D01*
G01*
X110657604Y-92069091D02*
X111852331Y-92069091D01*
X110507483Y-90233587D02*
G75*
G02X110488741Y-90332464I-271192J189D01*
G01*
X111852331Y-92069091D02*
X111852331Y-92240275D01*
X111862169Y-92460244D02*
G75*
G02X111854495Y-92533432I-330672J-2325D01*
G01*
X110999178Y-92533431D02*
G75*
G02X110991310Y-92460243I314865J70865D01*
G01*
X110482494Y-90108642D02*
G75*
G02X110507482Y-90233586I-273419J-119654D01*
G01*
X110331910Y-94628278D02*
G75*
G02X110337088Y-94682645I-255293J-51741D01*
G01*
X109636623Y-89249046D02*
G75*
G02X109653051Y-89157774I261377J68D01*
G01*
X110497644Y-89473749D02*
X110497644Y-89644933D01*
X110337088Y-90178102D02*
G75*
G02X110325086Y-90245297I-181467J-2256D01*
G01*
X110432517Y-90426808D02*
G75*
G02X110339990Y-90495866I-181796J147062D01*
G01*
X110231328Y-90022459D02*
G75*
G02X110289078Y-90058473I-49994J-144473D01*
G01*
X110289077Y-90299697D02*
G75*
G02X110231328Y-90335712I-107743J108459D01*
G01*
X109646461Y-89839285D02*
X110497644Y-89839285D01*
X110407528Y-90010470D02*
X110407528Y-90013995D01*
X110154100Y-90010470D02*
G75*
G02X110231328Y-90022458I3881J-229747D01*
G01*
X109646461Y-90010470D02*
X109646461Y-89839285D01*
X110407528Y-90013996D02*
G75*
G02X110482494Y-90108642I-156683J-201114D01*
G01*
X110280555Y-90513143D02*
G75*
G02X110212341Y-90518885I-66217J378577D01*
G01*
X110212341Y-90518885D02*
X110212341Y-90518885D01*
X110231328Y-90335713D02*
G75*
G02X110154100Y-90347701I-73347J217760D01*
G01*
X111670229Y-92312431D02*
G75*
G02X111686388Y-92354239I-121606J-71028D01*
G01*
X111001147Y-89861820D02*
X111001147Y-89690636D01*
X111852331Y-89861820D02*
X111001147Y-89861820D01*
X111001147Y-89690636D02*
X111092051Y-89690636D01*
X111340756Y-89690636D02*
X111852331Y-89690636D01*
X111852331Y-89861820D02*
X111852331Y-89861820D01*
X111183199Y-92504872D02*
G75*
G02X111167667Y-92462460I129053J71311D01*
G01*
X111092051Y-89687487D02*
G75*
G02X111016495Y-89592161I156970J202021D01*
G01*
X111007739Y-89374661D02*
G75*
G02X111057026Y-89288074I301936J-114549D01*
G01*
X111057026Y-89288074D02*
X111204596Y-89411633D01*
X111173016Y-89467922D02*
G75*
G02X111204596Y-89411633I208273J-79844D01*
G01*
X111167667Y-92462459D02*
G75*
G02X111162489Y-92407908I256949J51911D01*
G01*
X111425756Y-92577506D02*
G75*
G02X111245326Y-92553303I-5830J641179D01*
G01*
X111671065Y-92504871D02*
G75*
G02X111608939Y-92553303I-88497J49458D01*
G01*
X111686597Y-92462460D02*
G75*
G02X111671065Y-92504872I-144585J28899D01*
G01*
X110991309Y-89465932D02*
G75*
G02X111007738Y-89374661I261377J67D01*
G01*
X111605595Y-92264478D02*
G75*
G02X111670229Y-92312431I-25742J-102233D01*
G01*
X111184035Y-92312431D02*
G75*
G02X111248671Y-92264478I90377J-54281D01*
G01*
X111167876Y-92354239D02*
G75*
G02X111184035Y-92312431I137765J-29220D01*
G01*
X111092051Y-89690636D02*
X111092051Y-89687488D01*
X111016495Y-89592162D02*
G75*
G02X110991310Y-89465933I276592J120813D01*
G01*
X111259936Y-89677817D02*
G75*
G02X111204793Y-89639283I43598J121114D01*
G01*
X111340756Y-89690636D02*
G75*
G02X111259936Y-89677817I-5153J228689D01*
G01*
X111162488Y-89524967D02*
G75*
G02X111173016Y-89467922I162730J-538D01*
G01*
X111204793Y-89639283D02*
G75*
G02X111162489Y-89524967I133108J114243D01*
G01*
X111245326Y-92553304D02*
G75*
G02X111183199Y-92504872I26370J97892D01*
G01*
X111691775Y-92407909D02*
G75*
G02X111686597Y-92462460I-262127J-2643D01*
G01*
X111425756Y-92240275D02*
G75*
G02X111605594Y-92264478I2448J-662046D01*
G01*
X111686387Y-92354238D02*
G75*
G02X111691774Y-92407908I-239174J-51110D01*
G01*
X111608938Y-92553302D02*
G75*
G02X111425756Y-92577506I-176100J627509D01*
G01*
X111248671Y-92264478D02*
G75*
G02X111425756Y-92240275I175983J-627672D01*
G01*
X111162489Y-92407909D02*
G75*
G02X111167876Y-92354239I244561J2558D01*
G01*
X111162489Y-92407908D02*
X111162489Y-92407908D01*
X111852331Y-89690636D02*
X111852331Y-89861820D01*
X110277863Y-95200318D02*
G75*
G02X110399264Y-95270759I-98991J-310440D01*
G01*
X110399264Y-95270759D02*
G75*
G02X110437386Y-95312914I-200672J-219789D01*
G01*
X111852331Y-91032968D02*
X111852331Y-91183677D01*
X111852331Y-91183677D02*
X111852331Y-91183677D01*
X110136785Y-93512536D02*
X110136785Y-94042609D01*
X109865109Y-94185407D02*
G75*
G02X109788780Y-94149928I103559J322646D01*
G01*
X109788780Y-94149928D02*
G75*
G02X109731657Y-94100260I131705J209155D01*
G01*
X109660923Y-93731432D02*
G75*
G02X109733821Y-93617607I339110J-136926D01*
G01*
X111256934Y-91365112D02*
X111852331Y-91542970D01*
X111001147Y-91300965D02*
X111597328Y-91108524D01*
X110264678Y-93653025D02*
G75*
G02X110326364Y-93740287I-195764J-203820D01*
G01*
X111256934Y-91361938D02*
X111256934Y-91365112D01*
X110326364Y-93740287D02*
G75*
G02X110346926Y-93839945I-224133J-98193D01*
G01*
X110369172Y-94144617D02*
G75*
G02X110293456Y-94183047I-174331J249666D01*
G01*
X109636624Y-93862771D02*
G75*
G02X109660922Y-93731432I353072J2596D01*
G01*
X109707898Y-95312914D02*
G75*
G02X109745628Y-95270759I251043J-186729D01*
G01*
X110071069Y-95179069D02*
G75*
G02X110192616Y-95184381I8124J-1207454D01*
G01*
X109636623Y-95529302D02*
G75*
G02X109645428Y-95439924I418479J3898D01*
G01*
X110071069Y-95880322D02*
G75*
G02X109951585Y-95874960I-7818J1159786D01*
G01*
X110228722Y-94028345D02*
G75*
G02X110136785Y-94042609I-86711J255452D01*
G01*
X111852331Y-91694082D02*
X111001147Y-91966008D01*
X110370537Y-93529066D02*
G75*
G02X110433894Y-93596358I-265258J-313214D01*
G01*
X111001147Y-91784976D02*
X111597328Y-91621674D01*
X111597328Y-91108524D02*
X111597328Y-91104973D01*
X110476000Y-93671519D02*
G75*
G02X110507482Y-93836797I-411414J-164002D01*
G01*
X110293456Y-94183047D02*
G75*
G02X110195530Y-94206104I-164116J477541D01*
G01*
X111852331Y-91183677D02*
X111256934Y-91361938D01*
X111852331Y-91542970D02*
X111852331Y-91694082D01*
X111597328Y-91104973D02*
X111001147Y-90942074D01*
X110264679Y-93653025D02*
X110370537Y-93529065D01*
X110195530Y-94206105D02*
G75*
G02X110075396Y-94213791I-115107J856389D01*
G01*
X111597328Y-91618526D02*
X111001147Y-91425707D01*
X110486282Y-93965824D02*
G75*
G02X110422679Y-94090816I-471690J161343D01*
G01*
X110333792Y-93920619D02*
G75*
G02X110294391Y-93985549I-179106J64266D01*
G01*
X111597328Y-91621674D02*
X111597328Y-91618526D01*
X110507482Y-93836797D02*
G75*
G02X110486281Y-93965824I-404981J289D01*
G01*
X109731657Y-94100261D02*
G75*
G02X109660380Y-93984121I327663J281035D01*
G01*
X111001147Y-90760665D02*
X111852331Y-91032968D01*
X110346926Y-93839946D02*
G75*
G02X110333792Y-93920619I-236255J-2942D01*
G01*
X109960649Y-94206694D02*
G75*
G02X109865109Y-94185407I67368J527414D01*
G01*
X110294391Y-93985549D02*
G75*
G02X110228722Y-94028344I-119202J111135D01*
G01*
X109660381Y-93984121D02*
G75*
G02X109636623Y-93862771I300198J121772D01*
G01*
X111001147Y-91966008D02*
X111001147Y-91784976D01*
X110433894Y-93596357D02*
G75*
G02X110476001Y-93671518I-266956J-198931D01*
G01*
X109733821Y-93617607D02*
G75*
G02X109847943Y-93538805I229811J-210777D01*
G01*
X109847942Y-93538805D02*
G75*
G02X109995906Y-93512536I141726J-368451D01*
G01*
X111001147Y-90942074D02*
X111001147Y-90760665D01*
X110075397Y-94213790D02*
G75*
G02X109960650Y-94206693I-4361J860662D01*
G01*
X110136785Y-93512536D02*
X110136785Y-93512536D01*
X109951585Y-95874960D02*
G75*
G02X109867028Y-95858875I37958J429832D01*
G01*
X109867028Y-95858874D02*
G75*
G02X109745628Y-95788238I100489J312347D01*
G01*
X109995906Y-93512536D02*
X110136785Y-93512536D01*
X109745628Y-95788239D02*
G75*
G02X109707898Y-95746476I209028J226770D01*
G01*
X109707897Y-95746476D02*
G75*
G02X109671842Y-95691235I396503J298182D01*
G01*
X109671842Y-95691235D02*
G75*
G02X109645428Y-95619762I220852J122237D01*
G01*
X109645428Y-95619762D02*
G75*
G02X109636623Y-95529301I417976J86342D01*
G01*
X109645427Y-95439924D02*
G75*
G02X109671842Y-95368549I250200J-52018D01*
G01*
X111001147Y-91425707D02*
X111001147Y-91300965D01*
X110422678Y-94090816D02*
G75*
G02X110369172Y-94144617I-179082J124596D01*
G01*
X109671842Y-95368548D02*
G75*
G02X109707898Y-95312914I439230J-245154D01*
G01*
X109745627Y-95270759D02*
G75*
G02X109867028Y-95200318I220393J-239999D01*
G01*
X109867028Y-95200318D02*
G75*
G02X109951585Y-95184381I122463J-417460D01*
G01*
X109951585Y-95184382D02*
G75*
G02X110071069Y-95179070I111656J-1165130D01*
G01*
X110192616Y-95184381D02*
G75*
G02X110277863Y-95200318I-37169J-434776D01*
G01*
X111116055Y-94155437D02*
G75*
G02X111021512Y-94037973I174172J236965D01*
G01*
X109707898Y-90808620D02*
G75*
G02X109745628Y-90766460I251071J-186726D01*
G01*
X109671842Y-90864254D02*
G75*
G02X109707898Y-90808620I439230J-245154D01*
G01*
X111780316Y-93697770D02*
X111780316Y-93701321D01*
X110498874Y-95619762D02*
G75*
G02X110473049Y-95691235I-251076J50317D01*
G01*
X110473048Y-91186928D02*
G75*
G02X110437386Y-91242185I-404259J221774D01*
G01*
X109671842Y-91186928D02*
G75*
G02X109645428Y-91115452I220861J122239D01*
G01*
X110507482Y-95529301D02*
G75*
G02X110498874Y-95619762I-436202J-4131D01*
G01*
X109951585Y-91370656D02*
G75*
G02X109867028Y-91354587I37874J429825D01*
G01*
X109745627Y-90766460D02*
G75*
G02X109867028Y-90696017I220398J-239998D01*
G01*
X110399264Y-91283942D02*
G75*
G02X110277863Y-91354587I-221908J241707D01*
G01*
X110277863Y-95858875D02*
G75*
G02X110192616Y-95874960I-122467J415110D01*
G01*
X111860004Y-93831177D02*
G75*
G02X111865317Y-93905549I-468614J-70849D01*
G01*
X111155997Y-93921869D02*
G75*
G02X111152652Y-93867771I399742J51866D01*
G01*
X111352953Y-93697770D02*
X111262837Y-93697770D01*
X110399264Y-90766460D02*
G75*
G02X110437386Y-90808620I-200698J-219791D01*
G01*
X111707810Y-94177475D02*
G75*
G02X111605594Y-94197144I-98857J238302D01*
G01*
X109951585Y-90680074D02*
G75*
G02X110071069Y-90674760I111680J-1165130D01*
G01*
X110277863Y-90696017D02*
G75*
G02X110399264Y-90766460I-98997J-310441D01*
G01*
X110473049Y-95691235D02*
G75*
G02X110437386Y-95746476I-404149J221782D01*
G01*
X110437386Y-90808620D02*
G75*
G02X110473049Y-90864254I-374560J-279349D01*
G01*
X110277863Y-91354587D02*
G75*
G02X110192616Y-91370655I-122383J415119D01*
G01*
X110071069Y-91376020D02*
G75*
G02X109951585Y-91370655I-7791J1159788D01*
G01*
X110192616Y-91370655D02*
G75*
G02X110071069Y-91376020I-113461J1191094D01*
G01*
X111844952Y-94029209D02*
G75*
G02X111790154Y-94118440I-222020J74903D01*
G01*
X110399263Y-95788238D02*
G75*
G02X110277863Y-95858875I-221888J241711D01*
G01*
X110192616Y-90680075D02*
G75*
G02X110277863Y-90696017I-37194J-434777D01*
G01*
X109645427Y-90935629D02*
G75*
G02X109671842Y-90864254I250200J-52018D01*
G01*
X111790154Y-94118441D02*
G75*
G02X111707810Y-94177475I-176849J159734D01*
G01*
X111605594Y-94197145D02*
G75*
G02X111507507Y-94180119I-2989J273842D01*
G01*
X111507507Y-94180119D02*
G75*
G02X111426542Y-94129068I87097J227865D01*
G01*
X110192616Y-95874961D02*
G75*
G02X110071069Y-95880322I-113433J1191096D01*
G01*
X111426541Y-94129069D02*
G75*
G02X111372136Y-94045050I147972J155442D01*
G01*
X111844066Y-93772546D02*
G75*
G02X111860004Y-93831177I-238231J-96240D01*
G01*
X110071069Y-91376020D02*
X110071069Y-91376020D01*
X109867028Y-90696016D02*
G75*
G02X109951585Y-90680074I122489J-417458D01*
G01*
X110071069Y-90674760D02*
G75*
G02X110192616Y-90680074I8099J-1207455D01*
G01*
X110507483Y-91025012D02*
G75*
G02X110498874Y-91115452I-436107J-4120D01*
G01*
X110498873Y-91115452D02*
G75*
G02X110473049Y-91186928I-251084J50315D01*
G01*
X111372137Y-94045050D02*
G75*
G02X111352953Y-93928367I331334J114392D01*
G01*
X110437386Y-95746475D02*
G75*
G02X110399264Y-95788238I-234852J176099D01*
G01*
X111213451Y-93708096D02*
G75*
G02X111262837Y-93697770I46067J-97062D01*
G01*
X110437386Y-95312915D02*
G75*
G02X110473049Y-95368549I-374560J-279348D01*
G01*
X110473050Y-90864255D02*
G75*
G02X110498874Y-90935630I-228234J-122938D01*
G01*
X111178623Y-93739880D02*
G75*
G02X111213451Y-93708096I74714J-46897D01*
G01*
X109645428Y-91115452D02*
G75*
G02X109636623Y-91025012I417882J86331D01*
G01*
X109867029Y-91354586D02*
G75*
G02X109745628Y-91283942I100506J312351D01*
G01*
X109636623Y-91025013D02*
G75*
G02X109645428Y-90935630I418502J3901D01*
G01*
X110498874Y-90935629D02*
G75*
G02X110507482Y-91025012I-419125J-85472D01*
G01*
X110071069Y-95880322D02*
X110071069Y-95880322D01*
X110498874Y-95439924D02*
G75*
G02X110507482Y-95529301I-419101J-85469D01*
G01*
X109745628Y-91283942D02*
G75*
G02X109707898Y-91242185I208999J226767D01*
G01*
X110473050Y-95368549D02*
G75*
G02X110498874Y-95439924I-228234J-122938D01*
G01*
X111158359Y-93793096D02*
G75*
G02X111178623Y-93739880I150981J-27026D01*
G01*
X111855479Y-93697770D02*
X111780316Y-93697770D01*
X111352953Y-93928367D02*
X111352953Y-93697770D01*
X111166030Y-93966145D02*
G75*
G02X111155996Y-93921869I225033J74272D01*
G01*
X111219156Y-94024398D02*
G75*
G02X111166030Y-93966145I57983J106231D01*
G01*
X111865317Y-93905549D02*
G75*
G02X111844952Y-94029209I-398148J2062D01*
G01*
X110437386Y-91242185D02*
G75*
G02X110399264Y-91283942I-234825J176103D01*
G01*
X111152652Y-93867771D02*
G75*
G02X111158359Y-93793097I346484J11075D01*
G01*
X109707898Y-91242184D02*
G75*
G02X109671842Y-91186928I396621J298189D01*
G01*
X111780316Y-93701321D02*
G75*
G02X111844067Y-93772545I-64501J-121876D01*
G01*
X111219156Y-94024398D02*
X111116055Y-94155437D01*
X110360699Y-88395688D02*
G75*
G02X110466162Y-88528314I-308501J-353563D01*
G01*
X110466162Y-88528314D02*
G75*
G02X110497152Y-88610065I-295614J-158808D01*
G01*
X110407134Y-88968653D02*
G75*
G02X110348623Y-89020837I-212399J179259D01*
G01*
X110181572Y-89080452D02*
G75*
G02X110073036Y-89087906I-104786J731780D01*
G01*
X110073036Y-89087906D02*
G75*
G02X109964437Y-89080451I-3722J740509D01*
G01*
X109737953Y-88968653D02*
G75*
G02X109661954Y-88842349I326205J282299D01*
G01*
X109784191Y-88395688D02*
X109896739Y-88522017D01*
X110992096Y-93876032D02*
G75*
G02X111006459Y-93736128I569046J12269D01*
G01*
X111635106Y-93707618D02*
G75*
G02X111661473Y-93719908I-30542J-99952D01*
G01*
X111855479Y-93532101D02*
X111855479Y-93697770D01*
X111501926Y-93961032D02*
G75*
G02X111493834Y-93897288I284568J68510D01*
G01*
X110247366Y-88522017D02*
X110360699Y-88395688D01*
X110273435Y-89058086D02*
G75*
G02X110181572Y-89080451I-160287J458542D01*
G01*
X109995906Y-94042609D02*
G75*
G02X109911150Y-94027951I3386J271950D01*
G01*
X111553674Y-94033062D02*
G75*
G02X111521873Y-94006290I34285J72999D01*
G01*
X111855479Y-93697770D02*
X111855479Y-93697770D01*
X109796895Y-89020837D02*
G75*
G02X109737954Y-88968653I155195J234670D01*
G01*
X109636623Y-88701840D02*
G75*
G02X109647050Y-88610065I391599J1990D01*
G01*
X111052697Y-93626547D02*
G75*
G02X111140157Y-93556682I164410J-116143D01*
G01*
X111021512Y-94037974D02*
G75*
G02X110998661Y-93962569I303271J133069D01*
G01*
X111679182Y-93737134D02*
G75*
G02X111699153Y-93795464I-139549J-80364D01*
G01*
X109830035Y-88601502D02*
G75*
G02X109896739Y-88522017I221995J-118565D01*
G01*
X111556402Y-93697770D02*
X111493834Y-93697770D01*
X109661954Y-88842349D02*
G75*
G02X109636623Y-88701840I367048J138710D01*
G01*
X110998661Y-93962569D02*
G75*
G02X110992095Y-93876032I435034J76525D01*
G01*
X109848925Y-93737433D02*
G75*
G02X109911150Y-93698819I119729J-123495D01*
G01*
X109956997Y-88902869D02*
G75*
G02X109874110Y-88861339I54437J212124D01*
G01*
X110482394Y-88842349D02*
G75*
G02X110407134Y-88968653I-403553J154890D01*
G01*
X111493834Y-93697770D02*
X111493834Y-93897288D01*
X111597329Y-94041323D02*
G75*
G02X111553675Y-94033062I-4091J97859D01*
G01*
X111637076Y-94031980D02*
G75*
G02X111597328Y-94041323I-39202J77550D01*
G01*
X110497152Y-88610065D02*
G75*
G02X110507482Y-88701840I-384829J-89785D01*
G01*
X109964437Y-89080451D02*
G75*
G02X109872390Y-89058086I68772J483653D01*
G01*
X111200784Y-93538750D02*
G75*
G02X111272675Y-93532101I74847J-417304D01*
G01*
X109810706Y-93793853D02*
G75*
G02X109848925Y-93737433I154441J-63463D01*
G01*
X109872390Y-89058086D02*
G75*
G02X109796895Y-89020837I113149J324458D01*
G01*
X111704761Y-93884695D02*
G75*
G02X111696398Y-93956020I-266407J-4918D01*
G01*
X109874110Y-88861339D02*
G75*
G02X109824379Y-88792104I109922J131434D01*
G01*
X111699153Y-93795464D02*
G75*
G02X111704761Y-93884696I-483009J-75147D01*
G01*
X110348623Y-89020836D02*
G75*
G02X110273436Y-89058086I-187495J283949D01*
G01*
X110073037Y-88916721D02*
G75*
G02X109956998Y-88902869I-6951J434731D01*
G01*
X110188558Y-88902869D02*
G75*
G02X110073036Y-88916721I-108606J417120D01*
G01*
X110271076Y-88861339D02*
G75*
G02X110188559Y-88902869I-136881J169228D01*
G01*
X110507482Y-88701840D02*
G75*
G02X110482395Y-88842349I-395803J-1826D01*
G01*
X109911150Y-94027951D02*
G75*
G02X109848925Y-93989483I55463J159277D01*
G01*
X109807803Y-88695166D02*
G75*
G02X109830036Y-88601502I202010J1518D01*
G01*
X111006458Y-93736127D02*
G75*
G02X111052696Y-93626546I337197J-77735D01*
G01*
X109647050Y-88610065D02*
G75*
G02X109678335Y-88528314I324540J-77335D01*
G01*
X109848925Y-93989483D02*
G75*
G02X109810706Y-93932619I116620J119657D01*
G01*
X109824380Y-88792104D02*
G75*
G02X109807803Y-88695166I243867J91589D01*
G01*
X109678335Y-88528314D02*
G75*
G02X109784191Y-88395688I418347J-225349D01*
G01*
X111140157Y-93556682D02*
G75*
G02X111200783Y-93538750I110710J-262849D01*
G01*
X109995906Y-94042609D02*
X109995906Y-94042609D01*
X111521873Y-94006290D02*
G75*
G02X111501926Y-93961032I110779J75848D01*
G01*
X109797964Y-93862770D02*
G75*
G02X109810706Y-93793853I181304J2117D01*
G01*
X109911150Y-93698819D02*
G75*
G02X109995906Y-93683325I91764J-262405D01*
G01*
X111661473Y-93719908D02*
G75*
G02X111679182Y-93737135I-35190J-53890D01*
G01*
X111556402Y-93697770D02*
X111556402Y-93697770D01*
X111671311Y-94003922D02*
G75*
G02X111637076Y-94031979I-85439J69340D01*
G01*
X109995906Y-94042609D02*
X109995906Y-93683325D01*
X109810706Y-93932620D02*
G75*
G02X109797965Y-93862771I172815J67610D01*
G01*
X111556402Y-93697770D02*
G75*
G02X111635106Y-93707618I7078J-262872D01*
G01*
X111272675Y-93532101D02*
X111855479Y-93532101D01*
X111696398Y-93956021D02*
G75*
G02X111671311Y-94003923I-111649J27952D01*
G01*
X109819904Y-92956360D02*
G75*
G02X109856206Y-92902438I148157J-60564D01*
G01*
X109942388Y-91195793D02*
G75*
G02X109870373Y-91162725I46140J195433D01*
G01*
X110321446Y-95448433D02*
G75*
G02X110337088Y-95529301I-178304J-76437D01*
G01*
X110274518Y-95391571D02*
G75*
G02X110321445Y-95448434I-81016J-114654D01*
G01*
X110073036Y-95349463D02*
X110073036Y-95349463D01*
X109870372Y-91162725D02*
G75*
G02X109823445Y-91106461I77272J112151D01*
G01*
X109870373Y-90887273D02*
G75*
G02X109942388Y-90854608I127471J-185311D01*
G01*
X109993446Y-91202292D02*
G75*
G02X109942388Y-91195794I17470J341125D01*
G01*
X109870373Y-95391571D02*
G75*
G02X109942388Y-95358908I127464J-185311D01*
G01*
X110071069Y-95708747D02*
X110150854Y-95706583D01*
X110151839Y-95351826D02*
X110073036Y-95349463D01*
X109942388Y-95358908D02*
G75*
G02X109993937Y-95351826I68711J-308990D01*
G01*
X109737364Y-93191666D02*
X109737364Y-93188518D01*
X110073036Y-90845164D02*
X110073036Y-90845164D01*
X110497644Y-92854435D02*
X109990789Y-92854435D01*
X110247366Y-88522017D02*
X110247366Y-88522017D01*
X109914055Y-92866423D02*
G75*
G02X109990789Y-92854435I72987J-215603D01*
G01*
X110320585Y-88792104D02*
G75*
G02X110271076Y-88861339I-159740J61909D01*
G01*
X110247367Y-88522017D02*
G75*
G02X110314657Y-88601099I-151179J-196808D01*
G01*
X110071069Y-91204457D02*
X110150854Y-91202291D01*
X109807803Y-95529302D02*
G75*
G02X109823445Y-95448434I193946J4431D01*
G01*
X109655462Y-92869521D02*
G75*
G02X109711980Y-92775529I328638J-133626D01*
G01*
X109870373Y-95667035D02*
G75*
G02X109823445Y-95610761I77289J112157D01*
G01*
X110202897Y-95700090D02*
G75*
G02X110150854Y-95706583I-69284J343522D01*
G01*
X110151838Y-90847531D02*
G75*
G02X110203292Y-90854608I-17208J-315703D01*
G01*
X109931762Y-92683251D02*
X110497644Y-92683251D01*
X110314657Y-88601099D02*
G75*
G02X110337088Y-88695166I-178977J-92386D01*
G01*
X110073036Y-95349463D02*
X109993937Y-95351826D01*
X109823446Y-95448435D02*
G75*
G02X109870373Y-95391571I127944J-57792D01*
G01*
X110274519Y-95667034D02*
G75*
G02X110202897Y-95700090I-115068J155198D01*
G01*
X110203293Y-95358908D02*
G75*
G02X110274519Y-95391571I-52970J-209499D01*
G01*
X109993446Y-95706583D02*
G75*
G02X109942388Y-95700090I17436J341122D01*
G01*
X109823446Y-91106461D02*
G75*
G02X109807803Y-91025012I179841J76766D01*
G01*
X110274519Y-91162725D02*
G75*
G02X110202897Y-91195794I-115099J155192D01*
G01*
X109942388Y-95700090D02*
G75*
G02X109870373Y-95667035I46109J195426D01*
G01*
X110337088Y-88695166D02*
G75*
G02X110320585Y-88792104I-261487J-5357D01*
G01*
X109993446Y-91202291D02*
X110071069Y-91204457D01*
X110337088Y-95529302D02*
G75*
G02X110321445Y-95610761I-195507J-4688D01*
G01*
X110151838Y-95351826D02*
G75*
G02X110203292Y-95358908I-17239J-315705D01*
G01*
X110202897Y-91195793D02*
G75*
G02X110150854Y-91202291I-69317J343520D01*
G01*
X110321445Y-91106461D02*
G75*
G02X110274519Y-91162725I-124198J55885D01*
G01*
X110337087Y-91025012D02*
G75*
G02X110321445Y-91106461I-195483J-4684D01*
G01*
X109823446Y-95610760D02*
G75*
G02X109807803Y-95529301I179864J76770D01*
G01*
X110274518Y-90887274D02*
G75*
G02X110321445Y-90944142I-81026J-114657D01*
G01*
X109646461Y-93362850D02*
X109646461Y-93191666D01*
X109823445Y-90944142D02*
G75*
G02X109870373Y-90887274I127954J-57791D01*
G01*
X110321446Y-95610761D02*
G75*
G02X110274519Y-95667035I-124217J55881D01*
G01*
X109807803Y-91025012D02*
G75*
G02X109823445Y-90944142I193952J4432D01*
G01*
X110321446Y-90944142D02*
G75*
G02X110337088Y-91025012I-178310J-76438D01*
G01*
X110497644Y-93362850D02*
X109646461Y-93362850D01*
X110073036Y-90845164D02*
X109993937Y-90847531D01*
X109661808Y-93093192D02*
G75*
G02X109636623Y-92966963I276593J120813D01*
G01*
X109636623Y-92966963D02*
G75*
G02X109655462Y-92869521I263968J-491D01*
G01*
X109737364Y-93188518D02*
G75*
G02X109661808Y-93093192I156971J202021D01*
G01*
X110151839Y-90847531D02*
X110073036Y-90845164D01*
X109804607Y-92706320D02*
G75*
G02X109863868Y-92689018I108530J-261584D01*
G01*
X109646461Y-93191666D02*
X109737364Y-93191666D01*
X109993446Y-95706583D02*
X110071069Y-95708747D01*
X109711980Y-92775529D02*
G75*
G02X109804607Y-92706320I183013J-148349D01*
G01*
X109863867Y-92689018D02*
G75*
G02X109931762Y-92683251I66006J-374505D01*
G01*
X110497644Y-92683251D02*
X110497644Y-92854435D01*
X109942388Y-90854608D02*
G75*
G02X109993937Y-90847531I68681J-308993D01*
G01*
X110203293Y-90854608D02*
G75*
G02X110274519Y-90887274I-52977J-209501D01*
G01*
X109856206Y-92902438D02*
G75*
G02X109914054Y-92866423I108736J-110189D01*
G01*
X111707810Y-90708538D02*
G75*
G02X111605594Y-90728207I-98857J238303D01*
G01*
X111790154Y-90649503D02*
G75*
G02X111707810Y-90708537I-176849J159733D01*
G01*
X111725224Y-88592431D02*
G75*
G02X111788580Y-88659726I-265270J-313216D01*
G01*
X111200784Y-90069813D02*
G75*
G02X111272675Y-90063164I74847J-417304D01*
G01*
X111844066Y-90303609D02*
G75*
G02X111860004Y-90362240I-238231J-96240D01*
G01*
X109990789Y-93191666D02*
G75*
G02X109914054Y-93179678I-3747J227591D01*
G01*
X111605594Y-90728208D02*
G75*
G02X111507507Y-90711182I-2989J273842D01*
G01*
X111219156Y-90555461D02*
G75*
G02X111166030Y-90497208I57983J106231D01*
G01*
X111116055Y-90686500D02*
G75*
G02X111021512Y-90569036I174172J236965D01*
G01*
X111649077Y-89048915D02*
G75*
G02X111583408Y-89091705I-119192J111137D01*
G01*
X111688478Y-88983987D02*
G75*
G02X111649077Y-89048915I-179100J64267D01*
G01*
X109819904Y-93089262D02*
G75*
G02X109807803Y-93022068I168055J64953D01*
G01*
X111619365Y-88716393D02*
G75*
G02X111681051Y-88803660I-195777J-203823D01*
G01*
X111213451Y-90239159D02*
G75*
G02X111262837Y-90228833I46067J-97062D01*
G01*
X111583408Y-89091704D02*
G75*
G02X111491472Y-89105959I-86682J255455D01*
G01*
X111426541Y-90660132D02*
G75*
G02X111372136Y-90576113I147972J155442D01*
G01*
X109914054Y-93179678D02*
G75*
G02X109856206Y-93143663I50888J146204D01*
G01*
X111352953Y-90228833D02*
X111262837Y-90228833D01*
X111178623Y-90270943D02*
G75*
G02X111213451Y-90239159I74714J-46897D01*
G01*
X111021511Y-90569036D02*
G75*
G02X110998661Y-90493631I303272J133068D01*
G01*
X109856207Y-93143663D02*
G75*
G02X109819904Y-93089263I111082J113440D01*
G01*
X111844952Y-90560272D02*
G75*
G02X111790154Y-90649503I-222020J74903D01*
G01*
X109990789Y-93191666D02*
X110497644Y-93191666D01*
X111352953Y-90459430D02*
X111352953Y-90228833D01*
X110998661Y-90493632D02*
G75*
G02X110992095Y-90407095I435034J76525D01*
G01*
X111052697Y-90157610D02*
G75*
G02X111140157Y-90087745I164410J-116143D01*
G01*
X109807802Y-93022068D02*
G75*
G02X109819904Y-92956360I173606J1995D01*
G01*
X111140157Y-90087745D02*
G75*
G02X111200783Y-90069813I110710J-262848D01*
G01*
X111272675Y-90063164D02*
X111855479Y-90063164D01*
X111372137Y-90576113D02*
G75*
G02X111352953Y-90459430I331334J114393D01*
G01*
X111507507Y-90711182D02*
G75*
G02X111426542Y-90660131I87097J227865D01*
G01*
X111155997Y-90452932D02*
G75*
G02X111152652Y-90398834I399742J51867D01*
G01*
X110497644Y-93362850D02*
X110497644Y-93362850D01*
X111166030Y-90497208D02*
G75*
G02X111155996Y-90452932I225033J74272D01*
G01*
X110992095Y-90407094D02*
G75*
G02X111006459Y-90267190I569047J12268D01*
G01*
X111860004Y-90362240D02*
G75*
G02X111865317Y-90436612I-468614J-70849D01*
G01*
X111158359Y-90324159D02*
G75*
G02X111178623Y-90270943I150981J-27026D01*
G01*
X111855479Y-90228833D02*
X111780316Y-90228833D01*
X111865317Y-90436612D02*
G75*
G02X111844952Y-90560272I-398148J2062D01*
G01*
X111780316Y-90228833D02*
X111780316Y-90232384D01*
X111152652Y-90398833D02*
G75*
G02X111158359Y-90324159I346484J11074D01*
G01*
X111006458Y-90267190D02*
G75*
G02X111052696Y-90157609I337197J-77734D01*
G01*
X111855479Y-90228833D02*
X111855479Y-90228833D01*
X111491472Y-88575910D02*
X111491472Y-89105959D01*
X111701613Y-88903318D02*
G75*
G02X111688479Y-88983987I-236242J-2941D01*
G01*
X111681050Y-88803661D02*
G75*
G02X111701612Y-88903319I-224133J-98193D01*
G01*
X111855479Y-90063164D02*
X111855479Y-90228833D01*
X111619365Y-88716393D02*
X111725224Y-88592431D01*
X111780316Y-90232384D02*
G75*
G02X111844067Y-90303608I-64501J-121876D01*
G01*
X111219156Y-90555461D02*
X111116055Y-90686500D01*
X110497644Y-93191666D02*
X110497644Y-93362850D01*
D10*
X113123315Y-100089681D02*
G75*
G02X113128300Y-100141835I-29096J-29096D01*
G01*
X113128300Y-100141835D02*
X112692019Y-100786697D01*
X112787078Y-101172562D02*
X111464946Y-101712394D01*
X112688084Y-100825501D02*
G75*
G02X112692019Y-100786697I38016J15747D01*
G01*
X112572350Y-99538716D02*
X113123315Y-100089681D01*
X111875334Y-99970012D02*
X112520196Y-99533731D01*
X111464947Y-101712395D02*
G75*
G02X111412013Y-101691504I-15555J38096D01*
G01*
X110983636Y-98880648D02*
G75*
G02X111024038Y-98914002I-1J-41148D01*
G01*
X112809540Y-101118721D02*
G75*
G02X112787078Y-101172562I-38016J-15746D01*
G01*
X111024038Y-98914002D02*
X111171527Y-99678485D01*
X111875334Y-99970012D02*
G75*
G02X111836530Y-99973947I-23057J34081D01*
G01*
X112688084Y-100825501D02*
X112809540Y-101118721D01*
X111196183Y-99708706D02*
G75*
G02X111171527Y-99678485I15747J38015D01*
G01*
X111196183Y-99708706D02*
X111836530Y-99973947D01*
X112520196Y-99533730D02*
G75*
G02X112572350Y-99538716I23057J-34082D01*
G01*
X108500003Y-103310475D02*
G75*
G02X108496067Y-103349279I-38016J-15746D01*
G01*
X110016560Y-99678485D02*
X110164049Y-98914002D01*
X109312752Y-104165963D02*
X108667890Y-104602245D01*
X111171527Y-104457490D02*
G75*
G02X111196183Y-104427269I40403J-7795D01*
G01*
X109312753Y-104165964D02*
G75*
G02X109351556Y-104162029I23057J-34080D01*
G01*
X110164049Y-105221974D02*
X110016560Y-104457490D01*
X108234762Y-101465847D02*
G75*
G02X108204541Y-101490504I-38016J15746D01*
G01*
X110016559Y-99678485D02*
G75*
G02X109991904Y-99708706I-40402J7794D01*
G01*
X109351556Y-99973947D02*
X109991904Y-99708706D01*
X109351556Y-99973947D02*
G75*
G02X109312752Y-99970012I-15746J38016D01*
G01*
X108496067Y-100786697D02*
X108059786Y-100141835D01*
X107440057Y-102497982D02*
G75*
G02X107406704Y-102457579I7795J40403D01*
G01*
X111171527Y-104457490D02*
X111024038Y-105221974D01*
X112809540Y-103017255D02*
X112688084Y-103310474D01*
X113128300Y-103994141D02*
G75*
G02X113123315Y-104046294I-34081J-23057D01*
G01*
X108667890Y-99533731D02*
X109312752Y-99970012D01*
X108064771Y-100089681D02*
X108615737Y-99538716D01*
X108059786Y-100141834D02*
G75*
G02X108064771Y-100089681I34081J23057D01*
G01*
X107440057Y-101637993D02*
X108204541Y-101490504D01*
X108496067Y-100786698D02*
G75*
G02X108500002Y-100825501I-34080J-23056D01*
G01*
X108234762Y-101465848D02*
X108500002Y-100825501D01*
X107406704Y-101678396D02*
G75*
G02X107440057Y-101637993I41148J0D01*
G01*
X111024038Y-105221974D02*
G75*
G02X110983635Y-105255327I-40403J7795D01*
G01*
X112520196Y-104602245D02*
X111875334Y-104165963D01*
X107406704Y-102457579D02*
X107406704Y-101678396D01*
X108667890Y-104602245D02*
G75*
G02X108615737Y-104597260I-23057J34081D01*
G01*
X108204541Y-102645471D02*
X107440057Y-102497982D01*
X108204541Y-102645471D02*
G75*
G02X108234762Y-102670127I-7795J-40403D01*
G01*
X111464946Y-102423581D02*
X112787078Y-102963413D01*
X108064771Y-104046294D02*
G75*
G02X108059786Y-103994140I29096J29096D01*
G01*
X112692019Y-103349278D02*
G75*
G02X112688084Y-103310474I34081J23057D01*
G01*
X111836530Y-104162028D02*
G75*
G02X111875334Y-104165963I15747J-38016D01*
G01*
X108059786Y-103994140D02*
X108496067Y-103349279D01*
X108615737Y-104597260D02*
X108064771Y-104046294D01*
X109991904Y-104427269D02*
X109351556Y-104162029D01*
X109991903Y-104427269D02*
G75*
G02X110016560Y-104457490I-15746J-38016D01*
G01*
X110204452Y-105255327D02*
G75*
G02X110164049Y-105221974I0J41148D01*
G01*
X110983635Y-105255327D02*
X110204452Y-105255327D01*
X113123315Y-104046294D02*
X112572350Y-104597260D01*
X111412013Y-102444472D02*
G75*
G02X111464946Y-102423581I37379J-17204D01*
G01*
X112572349Y-104597260D02*
G75*
G02X112520196Y-104602245I-29096J29096D01*
G01*
X111836530Y-104162029D02*
X111196183Y-104427269D01*
X112692019Y-103349279D02*
X113128300Y-103994140D01*
X112787079Y-102963413D02*
G75*
G02X112809540Y-103017255I-15555J-38095D01*
G01*
X108615737Y-99538716D02*
G75*
G02X108667890Y-99533731I29096J-29096D01*
G01*
X108500002Y-103310474D02*
X108234762Y-102670127D01*
X110204452Y-98880648D02*
X110983635Y-98880648D01*
X110164049Y-98914001D02*
G75*
G02X110204452Y-98880648I40403J-7795D01*
G01*
X111412013Y-102444472D02*
G75*
G02X111412013Y-101691504I-817970J376484D01*
G01*
X87678571Y-116785714D02*
X89178571Y-116285714D01*
X87678571Y-115785714D01*
X89107142Y-114714285D02*
X89178571Y-114857142D01*
X89178571Y-115142857D01*
X89107142Y-115285714D01*
X88964285Y-115357142D01*
X88392857Y-115357142D01*
X88250000Y-115285714D01*
X88178571Y-115142857D01*
X88178571Y-114857142D01*
X88250000Y-114714285D01*
X88392857Y-114642857D01*
X88535714Y-114642857D01*
X88678571Y-115357142D01*
X89178571Y-114000000D02*
X88178571Y-114000000D01*
X88464285Y-114000000D02*
X88321428Y-113928571D01*
X88250000Y-113857142D01*
X88178571Y-113714285D01*
X88178571Y-113571428D01*
X89107142Y-113142857D02*
X89178571Y-113000000D01*
X89178571Y-112714285D01*
X89107142Y-112571428D01*
X88964285Y-112500000D01*
X88892857Y-112500000D01*
X88750000Y-112571428D01*
X88678571Y-112714285D01*
X88678571Y-112928571D01*
X88607142Y-113071428D01*
X88464285Y-113142857D01*
X88392857Y-113142857D01*
X88250000Y-113071428D01*
X88178571Y-112928571D01*
X88178571Y-112714285D01*
X88250000Y-112571428D01*
X89178571Y-111857142D02*
X88178571Y-111857142D01*
X87678571Y-111857142D02*
X87750000Y-111928571D01*
X87821428Y-111857142D01*
X87750000Y-111785714D01*
X87678571Y-111857142D01*
X87821428Y-111857142D01*
X89178571Y-110928571D02*
X89107142Y-111071428D01*
X89035714Y-111142857D01*
X88892857Y-111214285D01*
X88464285Y-111214285D01*
X88321428Y-111142857D01*
X88250000Y-111071428D01*
X88178571Y-110928571D01*
X88178571Y-110714285D01*
X88250000Y-110571428D01*
X88321428Y-110500000D01*
X88464285Y-110428571D01*
X88892857Y-110428571D01*
X89035714Y-110500000D01*
X89107142Y-110571428D01*
X89178571Y-110714285D01*
X89178571Y-110928571D01*
X88178571Y-109785714D02*
X89178571Y-109785714D01*
X88321428Y-109785714D02*
X88250000Y-109714285D01*
X88178571Y-109571428D01*
X88178571Y-109357142D01*
X88250000Y-109214285D01*
X88392857Y-109142857D01*
X89178571Y-109142857D01*
X89035714Y-108428571D02*
X89107142Y-108357142D01*
X89178571Y-108428571D01*
X89107142Y-108500000D01*
X89035714Y-108428571D01*
X89178571Y-108428571D01*
X88250000Y-108428571D02*
X88321428Y-108357142D01*
X88392857Y-108428571D01*
X88321428Y-108500000D01*
X88250000Y-108428571D01*
X88392857Y-108428571D01*
X68345238Y-115357142D02*
X68250000Y-115261904D01*
X68154761Y-115071428D01*
X68154761Y-114595238D01*
X68250000Y-114404761D01*
X68345238Y-114309523D01*
X68535714Y-114214285D01*
X68726190Y-114214285D01*
X69011904Y-114309523D01*
X70154761Y-115452380D01*
X70154761Y-114214285D01*
X70154761Y-113357142D02*
X68154761Y-113357142D01*
X68154761Y-112595238D01*
X68250000Y-112404761D01*
X68345238Y-112309523D01*
X68535714Y-112214285D01*
X68821428Y-112214285D01*
X69011904Y-112309523D01*
X69107142Y-112404761D01*
X69202380Y-112595238D01*
X69202380Y-113357142D01*
X68154761Y-111547619D02*
X68154761Y-110309523D01*
X68916666Y-110976190D01*
X68916666Y-110690476D01*
X69011904Y-110500000D01*
X69107142Y-110404761D01*
X69297619Y-110309523D01*
X69773809Y-110309523D01*
X69964285Y-110404761D01*
X70059523Y-110500000D01*
X70154761Y-110690476D01*
X70154761Y-111261904D01*
X70059523Y-111452380D01*
X69964285Y-111547619D01*
X70059523Y-109547619D02*
X70154761Y-109261904D01*
X70154761Y-108785714D01*
X70059523Y-108595238D01*
X69964285Y-108500000D01*
X69773809Y-108404761D01*
X69583333Y-108404761D01*
X69392857Y-108500000D01*
X69297619Y-108595238D01*
X69202380Y-108785714D01*
X69107142Y-109166666D01*
X69011904Y-109357142D01*
X68916666Y-109452380D01*
X68726190Y-109547619D01*
X68535714Y-109547619D01*
X68345238Y-109452380D01*
X68250000Y-109357142D01*
X68154761Y-109166666D01*
X68154761Y-108690476D01*
X68250000Y-108404761D01*
X69107142Y-105357142D02*
X69202380Y-105071428D01*
X69297619Y-104976190D01*
X69488095Y-104880952D01*
X69773809Y-104880952D01*
X69964285Y-104976190D01*
X70059523Y-105071428D01*
X70154761Y-105261904D01*
X70154761Y-106023809D01*
X68154761Y-106023809D01*
X68154761Y-105357142D01*
X68250000Y-105166666D01*
X68345238Y-105071428D01*
X68535714Y-104976190D01*
X68726190Y-104976190D01*
X68916666Y-105071428D01*
X69011904Y-105166666D01*
X69107142Y-105357142D01*
X69107142Y-106023809D01*
X70154761Y-103166666D02*
X69107142Y-103166666D01*
X68916666Y-103261904D01*
X68821428Y-103452380D01*
X68821428Y-103833333D01*
X68916666Y-104023809D01*
X70059523Y-103166666D02*
X70154761Y-103357142D01*
X70154761Y-103833333D01*
X70059523Y-104023809D01*
X69869047Y-104119047D01*
X69678571Y-104119047D01*
X69488095Y-104023809D01*
X69392857Y-103833333D01*
X69392857Y-103357142D01*
X69297619Y-103166666D01*
X68821428Y-102500000D02*
X68821428Y-101738095D01*
X68154761Y-102214285D02*
X69869047Y-102214285D01*
X70059523Y-102119047D01*
X70154761Y-101928571D01*
X70154761Y-101738095D01*
X68821428Y-101357142D02*
X68821428Y-100595238D01*
X68154761Y-101071428D02*
X69869047Y-101071428D01*
X70059523Y-100976190D01*
X70154761Y-100785714D01*
X70154761Y-100595238D01*
X70059523Y-99166666D02*
X70154761Y-99357142D01*
X70154761Y-99738095D01*
X70059523Y-99928571D01*
X69869047Y-100023809D01*
X69107142Y-100023809D01*
X68916666Y-99928571D01*
X68821428Y-99738095D01*
X68821428Y-99357142D01*
X68916666Y-99166666D01*
X69107142Y-99071428D01*
X69297619Y-99071428D01*
X69488095Y-100023809D01*
X70154761Y-98214285D02*
X68821428Y-98214285D01*
X69202380Y-98214285D02*
X69011904Y-98119047D01*
X68916666Y-98023809D01*
X68821428Y-97833333D01*
X68821428Y-97642857D01*
X68821428Y-97166666D02*
X70154761Y-96690476D01*
X68821428Y-96214285D02*
X70154761Y-96690476D01*
X70630952Y-96880952D01*
X70726190Y-96976190D01*
X70821428Y-97166666D01*
X70154761Y-93928571D02*
X68154761Y-93928571D01*
X68154761Y-93166666D01*
X68250000Y-92976190D01*
X68345238Y-92880952D01*
X68535714Y-92785714D01*
X68821428Y-92785714D01*
X69011904Y-92880952D01*
X69107142Y-92976190D01*
X69202380Y-93166666D01*
X69202380Y-93928571D01*
X70154761Y-91071428D02*
X69107142Y-91071428D01*
X68916666Y-91166666D01*
X68821428Y-91357142D01*
X68821428Y-91738095D01*
X68916666Y-91928571D01*
X70059523Y-91071428D02*
X70154761Y-91261904D01*
X70154761Y-91738095D01*
X70059523Y-91928571D01*
X69869047Y-92023809D01*
X69678571Y-92023809D01*
X69488095Y-91928571D01*
X69392857Y-91738095D01*
X69392857Y-91261904D01*
X69297619Y-91071428D01*
X70059523Y-89261904D02*
X70154761Y-89452380D01*
X70154761Y-89833333D01*
X70059523Y-90023809D01*
X69964285Y-90119047D01*
X69773809Y-90214285D01*
X69202380Y-90214285D01*
X69011904Y-90119047D01*
X68916666Y-90023809D01*
X68821428Y-89833333D01*
X68821428Y-89452380D01*
X68916666Y-89261904D01*
X70154761Y-88404761D02*
X68154761Y-88404761D01*
X69392857Y-88214285D02*
X70154761Y-87642857D01*
X68821428Y-87642857D02*
X69583333Y-88404761D01*
D13*
G04 #@! TO.C,BATT1*
X140775001Y-64575001D02*
X140775001Y-142575001D01*
X181775001Y-64575001D02*
X140775001Y-64575001D01*
X181775001Y-142575001D02*
X181775001Y-64575001D01*
X140775001Y-142575001D02*
X181775001Y-142575001D01*
G04 #@! TO.C,BATT3*
X58475001Y-64575001D02*
X58475001Y-142575001D01*
X99475001Y-64575001D02*
X58475001Y-64575001D01*
X99475001Y-142575001D02*
X99475001Y-64575001D01*
X58475001Y-142575001D02*
X99475001Y-142575001D01*
G04 #@! TO.C,MOD1*
X205550000Y-132450000D02*
X182050000Y-132450000D01*
X205550000Y-82950000D02*
X205550000Y-132450000D01*
X205550000Y-82950000D02*
X182050000Y-82950000D01*
X182050000Y-82950000D02*
X182050000Y-132450000D01*
G04 #@! TO.C,BATT2*
X99616600Y-64555800D02*
X99616600Y-142555800D01*
X140616600Y-64555800D02*
X99616600Y-64555800D01*
X140616600Y-142555800D02*
X140616600Y-64555800D01*
X99616600Y-142555800D02*
X140616600Y-142555800D01*
G04 #@! TO.C,P13*
X188650000Y-141100000D02*
X187650000Y-141100000D01*
X187650000Y-141100000D02*
X187850000Y-140900000D01*
X187650000Y-141100000D02*
X187850000Y-141300000D01*
X187650000Y-133900000D02*
X187850000Y-133700000D01*
X187650000Y-133900000D02*
X187850000Y-134100000D01*
X188650000Y-133900000D02*
X187650000Y-133900000D01*
X188650000Y-134300000D02*
X188650000Y-140700000D01*
X181850000Y-134300000D02*
X188650000Y-134300000D01*
X181850000Y-140700000D02*
X181850000Y-134300000D01*
X188650000Y-140700000D02*
X181850000Y-140700000D01*
G04 #@! TO.C,BATT1*
D12*
X159357142Y-67142857D02*
X159571428Y-67214285D01*
X159642857Y-67285714D01*
X159714285Y-67428571D01*
X159714285Y-67642857D01*
X159642857Y-67785714D01*
X159571428Y-67857142D01*
X159428571Y-67928571D01*
X158857142Y-67928571D01*
X158857142Y-66428571D01*
X159357142Y-66428571D01*
X159500000Y-66500000D01*
X159571428Y-66571428D01*
X159642857Y-66714285D01*
X159642857Y-66857142D01*
X159571428Y-67000000D01*
X159500000Y-67071428D01*
X159357142Y-67142857D01*
X158857142Y-67142857D01*
X160285714Y-67500000D02*
X161000000Y-67500000D01*
X160142857Y-67928571D02*
X160642857Y-66428571D01*
X161142857Y-67928571D01*
X161428571Y-66428571D02*
X162285714Y-66428571D01*
X161857142Y-67928571D02*
X161857142Y-66428571D01*
X162571428Y-66428571D02*
X163428571Y-66428571D01*
X163000000Y-67928571D02*
X163000000Y-66428571D01*
X164714285Y-67928571D02*
X163857142Y-67928571D01*
X164285714Y-67928571D02*
X164285714Y-66428571D01*
X164142857Y-66642857D01*
X164000000Y-66785714D01*
X163857142Y-66857142D01*
D13*
X149870239Y-126432143D02*
X153679762Y-126432143D01*
X168870239Y-126432143D02*
X172679762Y-126432143D01*
X168870239Y-82932143D02*
X172679762Y-82932143D01*
X170775001Y-84836905D02*
X170775001Y-81027381D01*
X149870239Y-82932143D02*
X153679762Y-82932143D01*
X151775001Y-84836905D02*
X151775001Y-81027381D01*
G04 #@! TO.C,BATT3*
D12*
X76607142Y-67642857D02*
X76821428Y-67714285D01*
X76892857Y-67785714D01*
X76964285Y-67928571D01*
X76964285Y-68142857D01*
X76892857Y-68285714D01*
X76821428Y-68357142D01*
X76678571Y-68428571D01*
X76107142Y-68428571D01*
X76107142Y-66928571D01*
X76607142Y-66928571D01*
X76750000Y-67000000D01*
X76821428Y-67071428D01*
X76892857Y-67214285D01*
X76892857Y-67357142D01*
X76821428Y-67500000D01*
X76750000Y-67571428D01*
X76607142Y-67642857D01*
X76107142Y-67642857D01*
X77535714Y-68000000D02*
X78250000Y-68000000D01*
X77392857Y-68428571D02*
X77892857Y-66928571D01*
X78392857Y-68428571D01*
X78678571Y-66928571D02*
X79535714Y-66928571D01*
X79107142Y-68428571D02*
X79107142Y-66928571D01*
X79821428Y-66928571D02*
X80678571Y-66928571D01*
X80250000Y-68428571D02*
X80250000Y-66928571D01*
X81035714Y-66928571D02*
X81964285Y-66928571D01*
X81464285Y-67500000D01*
X81678571Y-67500000D01*
X81821428Y-67571428D01*
X81892857Y-67642857D01*
X81964285Y-67785714D01*
X81964285Y-68142857D01*
X81892857Y-68285714D01*
X81821428Y-68357142D01*
X81678571Y-68428571D01*
X81250000Y-68428571D01*
X81107142Y-68357142D01*
X81035714Y-68285714D01*
D13*
X67570239Y-126432143D02*
X71379762Y-126432143D01*
X86570239Y-126432143D02*
X90379762Y-126432143D01*
X86570239Y-82932143D02*
X90379762Y-82932143D01*
X88475001Y-84836905D02*
X88475001Y-81027381D01*
X67570239Y-82932143D02*
X71379762Y-82932143D01*
X69475001Y-84836905D02*
X69475001Y-81027381D01*
G04 #@! TO.C,MOD1*
X194252380Y-109533333D02*
X193252380Y-109533333D01*
X193966666Y-109200000D01*
X193252380Y-108866666D01*
X194252380Y-108866666D01*
X193252380Y-108200000D02*
X193252380Y-108009523D01*
X193300000Y-107914285D01*
X193395238Y-107819047D01*
X193585714Y-107771428D01*
X193919047Y-107771428D01*
X194109523Y-107819047D01*
X194204761Y-107914285D01*
X194252380Y-108009523D01*
X194252380Y-108200000D01*
X194204761Y-108295238D01*
X194109523Y-108390476D01*
X193919047Y-108438095D01*
X193585714Y-108438095D01*
X193395238Y-108390476D01*
X193300000Y-108295238D01*
X193252380Y-108200000D01*
X194252380Y-107342857D02*
X193252380Y-107342857D01*
X193252380Y-107104761D01*
X193300000Y-106961904D01*
X193395238Y-106866666D01*
X193490476Y-106819047D01*
X193680952Y-106771428D01*
X193823809Y-106771428D01*
X194014285Y-106819047D01*
X194109523Y-106866666D01*
X194204761Y-106961904D01*
X194252380Y-107104761D01*
X194252380Y-107342857D01*
X194252380Y-105819047D02*
X194252380Y-106390476D01*
X194252380Y-106104761D02*
X193252380Y-106104761D01*
X193395238Y-106200000D01*
X193490476Y-106295238D01*
X193538095Y-106390476D01*
G04 #@! TO.C,BATT2*
D12*
X117647542Y-67152057D02*
X117861828Y-67223485D01*
X117933257Y-67294914D01*
X118004685Y-67437771D01*
X118004685Y-67652057D01*
X117933257Y-67794914D01*
X117861828Y-67866342D01*
X117718971Y-67937771D01*
X117147542Y-67937771D01*
X117147542Y-66437771D01*
X117647542Y-66437771D01*
X117790400Y-66509200D01*
X117861828Y-66580628D01*
X117933257Y-66723485D01*
X117933257Y-66866342D01*
X117861828Y-67009200D01*
X117790400Y-67080628D01*
X117647542Y-67152057D01*
X117147542Y-67152057D01*
X118576114Y-67509200D02*
X119290400Y-67509200D01*
X118433257Y-67937771D02*
X118933257Y-66437771D01*
X119433257Y-67937771D01*
X119718971Y-66437771D02*
X120576114Y-66437771D01*
X120147542Y-67937771D02*
X120147542Y-66437771D01*
X120861828Y-66437771D02*
X121718971Y-66437771D01*
X121290400Y-67937771D02*
X121290400Y-66437771D01*
X122147542Y-66580628D02*
X122218971Y-66509200D01*
X122361828Y-66437771D01*
X122718971Y-66437771D01*
X122861828Y-66509200D01*
X122933257Y-66580628D01*
X123004685Y-66723485D01*
X123004685Y-66866342D01*
X122933257Y-67080628D01*
X122076114Y-67937771D01*
X123004685Y-67937771D01*
D13*
X108711838Y-126412942D02*
X112521361Y-126412942D01*
X127711838Y-126412942D02*
X131521361Y-126412942D01*
X127711838Y-82912942D02*
X131521361Y-82912942D01*
X129616600Y-84817704D02*
X129616600Y-81008180D01*
X108711838Y-82912942D02*
X112521361Y-82912942D01*
X110616600Y-84817704D02*
X110616600Y-81008180D01*
G04 #@! TO.C,P13*
D12*
X181630952Y-137985714D02*
X181230952Y-137985714D01*
X181230952Y-137833333D01*
X181250000Y-137795238D01*
X181269047Y-137776190D01*
X181307142Y-137757142D01*
X181364285Y-137757142D01*
X181402380Y-137776190D01*
X181421428Y-137795238D01*
X181440476Y-137833333D01*
X181440476Y-137985714D01*
X181630952Y-137376190D02*
X181630952Y-137604761D01*
X181630952Y-137490476D02*
X181230952Y-137490476D01*
X181288095Y-137528571D01*
X181326190Y-137566666D01*
X181345238Y-137604761D01*
X181230952Y-137242857D02*
X181230952Y-136995238D01*
X181383333Y-137128571D01*
X181383333Y-137071428D01*
X181402380Y-137033333D01*
X181421428Y-137014285D01*
X181459523Y-136995238D01*
X181554761Y-136995238D01*
X181592857Y-137014285D01*
X181611904Y-137033333D01*
X181630952Y-137071428D01*
X181630952Y-137185714D01*
X181611904Y-137223809D01*
X181592857Y-137242857D01*
G04 #@! TO.C,P14*
D14*
X198771714Y-79398114D02*
X198771714Y-79098114D01*
X198886000Y-79098114D01*
X198914571Y-79112400D01*
X198928857Y-79126685D01*
X198943142Y-79155257D01*
X198943142Y-79198114D01*
X198928857Y-79226685D01*
X198914571Y-79240971D01*
X198886000Y-79255257D01*
X198771714Y-79255257D01*
X199228857Y-79398114D02*
X199057428Y-79398114D01*
X199143142Y-79398114D02*
X199143142Y-79098114D01*
X199114571Y-79140971D01*
X199086000Y-79169542D01*
X199057428Y-79183828D01*
X199486000Y-79198114D02*
X199486000Y-79398114D01*
X199414571Y-79083828D02*
X199343142Y-79298114D01*
X199528857Y-79298114D01*
G04 #@! TO.C,P15*
X189195914Y-79245714D02*
X189195914Y-78945714D01*
X189310200Y-78945714D01*
X189338771Y-78960000D01*
X189353057Y-78974285D01*
X189367342Y-79002857D01*
X189367342Y-79045714D01*
X189353057Y-79074285D01*
X189338771Y-79088571D01*
X189310200Y-79102857D01*
X189195914Y-79102857D01*
X189653057Y-79245714D02*
X189481628Y-79245714D01*
X189567342Y-79245714D02*
X189567342Y-78945714D01*
X189538771Y-78988571D01*
X189510200Y-79017142D01*
X189481628Y-79031428D01*
X189924485Y-78945714D02*
X189781628Y-78945714D01*
X189767342Y-79088571D01*
X189781628Y-79074285D01*
X189810200Y-79060000D01*
X189881628Y-79060000D01*
X189910200Y-79074285D01*
X189924485Y-79088571D01*
X189938771Y-79117142D01*
X189938771Y-79188571D01*
X189924485Y-79217142D01*
X189910200Y-79231428D01*
X189881628Y-79245714D01*
X189810200Y-79245714D01*
X189781628Y-79231428D01*
X189767342Y-79217142D01*
G04 #@! TD*
M02*
