G04 #@! TF.GenerationSoftware,KiCad,Pcbnew,(5.0.2)-1*
G04 #@! TF.CreationDate,2019-05-03T13:20:24-04:00*
G04 #@! TF.ProjectId,2p3s-pwr-pack,32703373-2d70-4777-922d-7061636b2e6b,V1*
G04 #@! TF.SameCoordinates,Original*
G04 #@! TF.FileFunction,Soldermask,Top*
G04 #@! TF.FilePolarity,Negative*
%FSLAX46Y46*%
G04 Gerber Fmt 4.6, Leading zero omitted, Abs format (unit mm)*
G04 Created by KiCad (PCBNEW (5.0.2)-1) date 5/3/2019 1:20:24 PM*
%MOMM*%
%LPD*%
G01*
G04 APERTURE LIST*
%ADD10C,0.150000*%
G04 APERTURE END LIST*
D10*
G36*
X188595000Y-120332500D02*
X201295000Y-120332500D01*
X201295000Y-93027500D01*
X188595000Y-93027500D01*
X188595000Y-120332500D01*
G37*
X188595000Y-120332500D02*
X201295000Y-120332500D01*
X201295000Y-93027500D01*
X188595000Y-93027500D01*
X188595000Y-120332500D01*
G36*
X168063976Y-138327615D02*
X168241076Y-138362842D01*
X168491306Y-138466490D01*
X168716514Y-138616970D01*
X168908032Y-138808488D01*
X169058512Y-139033696D01*
X169162160Y-139283926D01*
X169179281Y-139370000D01*
X169211182Y-139530374D01*
X169215001Y-139549576D01*
X169215001Y-139820426D01*
X169162160Y-140086076D01*
X169058512Y-140336306D01*
X168908032Y-140561514D01*
X168716514Y-140753032D01*
X168491306Y-140903512D01*
X168241076Y-141007160D01*
X168071956Y-141040800D01*
X167975427Y-141060001D01*
X167704575Y-141060001D01*
X167608046Y-141040800D01*
X167438926Y-141007160D01*
X167188696Y-140903512D01*
X166963488Y-140753032D01*
X166771970Y-140561514D01*
X166621490Y-140336306D01*
X166517842Y-140086076D01*
X166465001Y-139820426D01*
X166465001Y-139549576D01*
X166468821Y-139530374D01*
X166500721Y-139370000D01*
X166517842Y-139283926D01*
X166621490Y-139033696D01*
X166771970Y-138808488D01*
X166963488Y-138616970D01*
X167188696Y-138466490D01*
X167438926Y-138362842D01*
X167616026Y-138327615D01*
X167704575Y-138310001D01*
X167975427Y-138310001D01*
X168063976Y-138327615D01*
X168063976Y-138327615D01*
G37*
G36*
X148933976Y-138327615D02*
X149111076Y-138362842D01*
X149361306Y-138466490D01*
X149586514Y-138616970D01*
X149778032Y-138808488D01*
X149928512Y-139033696D01*
X150032160Y-139283926D01*
X150049281Y-139370000D01*
X150081182Y-139530374D01*
X150085001Y-139549576D01*
X150085001Y-139820426D01*
X150032160Y-140086076D01*
X149928512Y-140336306D01*
X149778032Y-140561514D01*
X149586514Y-140753032D01*
X149361306Y-140903512D01*
X149111076Y-141007160D01*
X148941956Y-141040800D01*
X148845427Y-141060001D01*
X148574575Y-141060001D01*
X148478046Y-141040800D01*
X148308926Y-141007160D01*
X148058696Y-140903512D01*
X147833488Y-140753032D01*
X147641970Y-140561514D01*
X147491490Y-140336306D01*
X147387842Y-140086076D01*
X147335001Y-139820426D01*
X147335001Y-139549576D01*
X147338821Y-139530374D01*
X147370721Y-139370000D01*
X147387842Y-139283926D01*
X147491490Y-139033696D01*
X147641970Y-138808488D01*
X147833488Y-138616970D01*
X148058696Y-138466490D01*
X148308926Y-138362842D01*
X148486026Y-138327615D01*
X148574575Y-138310001D01*
X148845427Y-138310001D01*
X148933976Y-138327615D01*
X148933976Y-138327615D01*
G37*
G36*
X87763976Y-138327615D02*
X87941076Y-138362842D01*
X88191306Y-138466490D01*
X88416514Y-138616970D01*
X88608032Y-138808488D01*
X88758512Y-139033696D01*
X88862160Y-139283926D01*
X88879281Y-139370000D01*
X88911182Y-139530374D01*
X88915001Y-139549576D01*
X88915001Y-139820426D01*
X88862160Y-140086076D01*
X88758512Y-140336306D01*
X88608032Y-140561514D01*
X88416514Y-140753032D01*
X88191306Y-140903512D01*
X87941076Y-141007160D01*
X87771956Y-141040800D01*
X87675427Y-141060001D01*
X87404575Y-141060001D01*
X87308046Y-141040800D01*
X87138926Y-141007160D01*
X86888696Y-140903512D01*
X86663488Y-140753032D01*
X86471970Y-140561514D01*
X86321490Y-140336306D01*
X86217842Y-140086076D01*
X86165001Y-139820426D01*
X86165001Y-139549576D01*
X86168821Y-139530374D01*
X86200721Y-139370000D01*
X86217842Y-139283926D01*
X86321490Y-139033696D01*
X86471970Y-138808488D01*
X86663488Y-138616970D01*
X86888696Y-138466490D01*
X87138926Y-138362842D01*
X87316026Y-138327615D01*
X87404575Y-138310001D01*
X87675427Y-138310001D01*
X87763976Y-138327615D01*
X87763976Y-138327615D01*
G37*
G36*
X68633976Y-138327615D02*
X68811076Y-138362842D01*
X69061306Y-138466490D01*
X69286514Y-138616970D01*
X69478032Y-138808488D01*
X69628512Y-139033696D01*
X69732160Y-139283926D01*
X69749281Y-139370000D01*
X69781182Y-139530374D01*
X69785001Y-139549576D01*
X69785001Y-139820426D01*
X69732160Y-140086076D01*
X69628512Y-140336306D01*
X69478032Y-140561514D01*
X69286514Y-140753032D01*
X69061306Y-140903512D01*
X68811076Y-141007160D01*
X68641956Y-141040800D01*
X68545427Y-141060001D01*
X68274575Y-141060001D01*
X68178046Y-141040800D01*
X68008926Y-141007160D01*
X67758696Y-140903512D01*
X67533488Y-140753032D01*
X67341970Y-140561514D01*
X67191490Y-140336306D01*
X67087842Y-140086076D01*
X67035001Y-139820426D01*
X67035001Y-139549576D01*
X67038821Y-139530374D01*
X67070721Y-139370000D01*
X67087842Y-139283926D01*
X67191490Y-139033696D01*
X67341970Y-138808488D01*
X67533488Y-138616970D01*
X67758696Y-138466490D01*
X68008926Y-138362842D01*
X68186026Y-138327615D01*
X68274575Y-138310001D01*
X68545427Y-138310001D01*
X68633976Y-138327615D01*
X68633976Y-138327615D01*
G37*
G36*
X127883135Y-138303950D02*
X128082675Y-138343641D01*
X128332905Y-138447289D01*
X128558113Y-138597769D01*
X128749631Y-138789287D01*
X128900111Y-139014495D01*
X129003759Y-139264725D01*
X129013913Y-139315773D01*
X129056600Y-139530374D01*
X129056600Y-139801226D01*
X129038986Y-139889775D01*
X129003759Y-140066875D01*
X128900111Y-140317105D01*
X128749631Y-140542313D01*
X128558113Y-140733831D01*
X128332905Y-140884311D01*
X128082675Y-140987959D01*
X127905575Y-141023186D01*
X127817026Y-141040800D01*
X127546174Y-141040800D01*
X127457625Y-141023186D01*
X127280525Y-140987959D01*
X127030295Y-140884311D01*
X126805087Y-140733831D01*
X126613569Y-140542313D01*
X126463089Y-140317105D01*
X126359441Y-140066875D01*
X126324214Y-139889775D01*
X126306600Y-139801226D01*
X126306600Y-139530374D01*
X126349287Y-139315773D01*
X126359441Y-139264725D01*
X126463089Y-139014495D01*
X126613569Y-138789287D01*
X126805087Y-138597769D01*
X127030295Y-138447289D01*
X127280525Y-138343641D01*
X127480065Y-138303950D01*
X127546174Y-138290800D01*
X127817026Y-138290800D01*
X127883135Y-138303950D01*
X127883135Y-138303950D01*
G37*
G36*
X108753135Y-138303950D02*
X108952675Y-138343641D01*
X109202905Y-138447289D01*
X109428113Y-138597769D01*
X109619631Y-138789287D01*
X109770111Y-139014495D01*
X109873759Y-139264725D01*
X109883913Y-139315773D01*
X109926600Y-139530374D01*
X109926600Y-139801226D01*
X109908986Y-139889775D01*
X109873759Y-140066875D01*
X109770111Y-140317105D01*
X109619631Y-140542313D01*
X109428113Y-140733831D01*
X109202905Y-140884311D01*
X108952675Y-140987959D01*
X108775575Y-141023186D01*
X108687026Y-141040800D01*
X108416174Y-141040800D01*
X108327625Y-141023186D01*
X108150525Y-140987959D01*
X107900295Y-140884311D01*
X107675087Y-140733831D01*
X107483569Y-140542313D01*
X107333089Y-140317105D01*
X107229441Y-140066875D01*
X107194214Y-139889775D01*
X107176600Y-139801226D01*
X107176600Y-139530374D01*
X107219287Y-139315773D01*
X107229441Y-139264725D01*
X107333089Y-139014495D01*
X107483569Y-138789287D01*
X107675087Y-138597769D01*
X107900295Y-138447289D01*
X108150525Y-138343641D01*
X108350065Y-138303950D01*
X108416174Y-138290800D01*
X108687026Y-138290800D01*
X108753135Y-138303950D01*
X108753135Y-138303950D01*
G37*
G36*
X60670470Y-138500373D02*
X60825030Y-138531117D01*
X61043412Y-138621573D01*
X61174442Y-138709125D01*
X61211220Y-138733699D01*
X61239957Y-138752901D01*
X61407101Y-138920045D01*
X61538429Y-139116590D01*
X61628885Y-139334972D01*
X61659629Y-139489532D01*
X61671182Y-139547610D01*
X61675001Y-139566812D01*
X61675001Y-139803190D01*
X61628885Y-140035030D01*
X61538429Y-140253412D01*
X61483039Y-140336308D01*
X61419932Y-140430755D01*
X61407101Y-140449957D01*
X61239957Y-140617101D01*
X61043412Y-140748429D01*
X60825030Y-140838885D01*
X60670470Y-140869629D01*
X60593191Y-140885001D01*
X60356811Y-140885001D01*
X60279532Y-140869629D01*
X60124972Y-140838885D01*
X59906590Y-140748429D01*
X59710045Y-140617101D01*
X59542901Y-140449957D01*
X59530071Y-140430755D01*
X59466963Y-140336308D01*
X59411573Y-140253412D01*
X59321117Y-140035030D01*
X59275001Y-139803190D01*
X59275001Y-139566812D01*
X59278821Y-139547610D01*
X59290373Y-139489532D01*
X59321117Y-139334972D01*
X59411573Y-139116590D01*
X59542901Y-138920045D01*
X59710045Y-138752901D01*
X59738783Y-138733699D01*
X59775560Y-138709125D01*
X59906590Y-138621573D01*
X60124972Y-138531117D01*
X60279532Y-138500373D01*
X60356811Y-138485001D01*
X60593191Y-138485001D01*
X60670470Y-138500373D01*
X60670470Y-138500373D01*
G37*
G36*
X140970470Y-138500373D02*
X141125030Y-138531117D01*
X141343412Y-138621573D01*
X141474442Y-138709125D01*
X141511220Y-138733699D01*
X141539957Y-138752901D01*
X141707101Y-138920045D01*
X141838429Y-139116590D01*
X141928885Y-139334972D01*
X141959629Y-139489532D01*
X141971182Y-139547610D01*
X141975001Y-139566812D01*
X141975001Y-139803190D01*
X141928885Y-140035030D01*
X141838429Y-140253412D01*
X141783039Y-140336308D01*
X141719932Y-140430755D01*
X141707101Y-140449957D01*
X141539957Y-140617101D01*
X141343412Y-140748429D01*
X141125030Y-140838885D01*
X140970470Y-140869629D01*
X140893191Y-140885001D01*
X140656811Y-140885001D01*
X140579532Y-140869629D01*
X140424972Y-140838885D01*
X140206590Y-140748429D01*
X140010045Y-140617101D01*
X139842901Y-140449957D01*
X139830071Y-140430755D01*
X139766963Y-140336308D01*
X139711573Y-140253412D01*
X139621117Y-140035030D01*
X139575001Y-139803190D01*
X139575001Y-139566812D01*
X139578821Y-139547610D01*
X139590373Y-139489532D01*
X139621117Y-139334972D01*
X139711573Y-139116590D01*
X139842901Y-138920045D01*
X140010045Y-138752901D01*
X140038783Y-138733699D01*
X140075560Y-138709125D01*
X140206590Y-138621573D01*
X140424972Y-138531117D01*
X140579532Y-138500373D01*
X140656811Y-138485001D01*
X140893191Y-138485001D01*
X140970470Y-138500373D01*
X140970470Y-138500373D01*
G37*
G36*
X100812069Y-138481172D02*
X100966629Y-138511916D01*
X101185011Y-138602372D01*
X101316041Y-138689924D01*
X101381555Y-138733699D01*
X101548701Y-138900845D01*
X101578214Y-138945014D01*
X101680028Y-139097389D01*
X101770484Y-139315771D01*
X101776684Y-139346942D01*
X101816600Y-139547610D01*
X101816600Y-139783990D01*
X101809352Y-139820426D01*
X101770484Y-140015829D01*
X101680028Y-140234211D01*
X101592476Y-140365241D01*
X101548701Y-140430755D01*
X101381555Y-140597901D01*
X101316041Y-140641676D01*
X101185011Y-140729228D01*
X100966629Y-140819684D01*
X100870099Y-140838885D01*
X100734790Y-140865800D01*
X100498410Y-140865800D01*
X100363101Y-140838885D01*
X100266571Y-140819684D01*
X100048189Y-140729228D01*
X99917159Y-140641676D01*
X99851645Y-140597901D01*
X99684499Y-140430755D01*
X99640724Y-140365241D01*
X99553172Y-140234211D01*
X99462716Y-140015829D01*
X99423848Y-139820426D01*
X99416600Y-139783990D01*
X99416600Y-139547610D01*
X99456516Y-139346942D01*
X99462716Y-139315771D01*
X99553172Y-139097389D01*
X99654986Y-138945014D01*
X99684499Y-138900845D01*
X99851645Y-138733699D01*
X99917159Y-138689924D01*
X100048189Y-138602372D01*
X100266571Y-138511916D01*
X100421131Y-138481172D01*
X100498410Y-138465800D01*
X100734790Y-138465800D01*
X100812069Y-138481172D01*
X100812069Y-138481172D01*
G37*
G36*
X186600000Y-139620000D02*
X183900000Y-139620000D01*
X183900000Y-137920000D01*
X186600000Y-137920000D01*
X186600000Y-139620000D01*
X186600000Y-139620000D01*
G37*
G36*
X187875015Y-138193058D02*
X187984204Y-138238285D01*
X187984207Y-138238287D01*
X188082478Y-138303950D01*
X188166050Y-138387522D01*
X188218354Y-138465800D01*
X188231715Y-138485796D01*
X188276942Y-138594985D01*
X188300000Y-138710906D01*
X188300000Y-138829094D01*
X188276942Y-138945015D01*
X188231715Y-139054204D01*
X188231713Y-139054207D01*
X188202860Y-139097389D01*
X188166049Y-139152479D01*
X188082479Y-139236049D01*
X187984204Y-139301715D01*
X187875015Y-139346942D01*
X187759095Y-139370000D01*
X187640905Y-139370000D01*
X187524985Y-139346942D01*
X187415796Y-139301715D01*
X187317521Y-139236049D01*
X187233951Y-139152479D01*
X187197141Y-139097389D01*
X187168287Y-139054207D01*
X187168285Y-139054204D01*
X187123058Y-138945015D01*
X187100000Y-138829094D01*
X187100000Y-138710906D01*
X187123058Y-138594985D01*
X187168285Y-138485796D01*
X187181646Y-138465800D01*
X187233950Y-138387522D01*
X187317522Y-138303950D01*
X187415793Y-138238287D01*
X187415796Y-138238285D01*
X187524985Y-138193058D01*
X187640905Y-138170000D01*
X187759095Y-138170000D01*
X187875015Y-138193058D01*
X187875015Y-138193058D01*
G37*
G36*
X186600000Y-137080000D02*
X183900000Y-137080000D01*
X183900000Y-135380000D01*
X186600000Y-135380000D01*
X186600000Y-137080000D01*
X186600000Y-137080000D01*
G37*
G36*
X187875015Y-135653058D02*
X187984204Y-135698285D01*
X188082479Y-135763951D01*
X188166049Y-135847521D01*
X188231715Y-135945796D01*
X188276942Y-136054985D01*
X188300000Y-136170906D01*
X188300000Y-136289094D01*
X188276942Y-136405015D01*
X188231715Y-136514204D01*
X188166049Y-136612479D01*
X188082479Y-136696049D01*
X187984204Y-136761715D01*
X187875015Y-136806942D01*
X187817054Y-136818471D01*
X187759095Y-136830000D01*
X187640905Y-136830000D01*
X187582946Y-136818471D01*
X187524985Y-136806942D01*
X187415796Y-136761715D01*
X187317521Y-136696049D01*
X187233951Y-136612479D01*
X187168285Y-136514204D01*
X187123058Y-136405015D01*
X187100000Y-136289094D01*
X187100000Y-136170906D01*
X187123058Y-136054985D01*
X187168285Y-135945796D01*
X187233951Y-135847521D01*
X187317521Y-135763951D01*
X187415796Y-135698285D01*
X187524985Y-135653058D01*
X187640905Y-135630000D01*
X187759095Y-135630000D01*
X187875015Y-135653058D01*
X187875015Y-135653058D01*
G37*
G36*
X189329225Y-130196074D02*
X189784192Y-130384528D01*
X189784194Y-130384529D01*
X189921298Y-130476139D01*
X190193658Y-130658124D01*
X190541876Y-131006342D01*
X190815472Y-131415808D01*
X191003926Y-131870775D01*
X191100000Y-132353772D01*
X191100000Y-132846228D01*
X191003926Y-133329225D01*
X190815472Y-133784192D01*
X190541876Y-134193658D01*
X190193658Y-134541876D01*
X189933854Y-134715471D01*
X189784194Y-134815471D01*
X189784193Y-134815472D01*
X189784192Y-134815472D01*
X189329225Y-135003926D01*
X188846228Y-135100000D01*
X188353772Y-135100000D01*
X187870775Y-135003926D01*
X187415808Y-134815472D01*
X187415807Y-134815472D01*
X187415806Y-134815471D01*
X187266146Y-134715471D01*
X187006342Y-134541876D01*
X186658124Y-134193658D01*
X186384528Y-133784192D01*
X186196074Y-133329225D01*
X186100000Y-132846228D01*
X186100000Y-132353772D01*
X186196074Y-131870775D01*
X186384528Y-131415808D01*
X186658124Y-131006342D01*
X187006342Y-130658124D01*
X187278702Y-130476139D01*
X187415806Y-130384529D01*
X187415808Y-130384528D01*
X187870775Y-130196074D01*
X188353772Y-130100000D01*
X188846228Y-130100000D01*
X189329225Y-130196074D01*
X189329225Y-130196074D01*
G37*
G36*
X158429225Y-130196074D02*
X158884192Y-130384528D01*
X158884194Y-130384529D01*
X159021298Y-130476139D01*
X159293658Y-130658124D01*
X159641876Y-131006342D01*
X159915472Y-131415808D01*
X160103926Y-131870775D01*
X160200000Y-132353772D01*
X160200000Y-132846228D01*
X160103926Y-133329225D01*
X159915472Y-133784192D01*
X159641876Y-134193658D01*
X159293658Y-134541876D01*
X159033854Y-134715471D01*
X158884194Y-134815471D01*
X158884193Y-134815472D01*
X158884192Y-134815472D01*
X158429225Y-135003926D01*
X157946228Y-135100000D01*
X157453772Y-135100000D01*
X156970775Y-135003926D01*
X156515808Y-134815472D01*
X156515807Y-134815472D01*
X156515806Y-134815471D01*
X156366146Y-134715471D01*
X156106342Y-134541876D01*
X155758124Y-134193658D01*
X155484528Y-133784192D01*
X155296074Y-133329225D01*
X155200000Y-132846228D01*
X155200000Y-132353772D01*
X155296074Y-131870775D01*
X155484528Y-131415808D01*
X155758124Y-131006342D01*
X156106342Y-130658124D01*
X156378702Y-130476139D01*
X156515806Y-130384529D01*
X156515808Y-130384528D01*
X156970775Y-130196074D01*
X157453772Y-130100000D01*
X157946228Y-130100000D01*
X158429225Y-130196074D01*
X158429225Y-130196074D01*
G37*
G36*
X67429225Y-130196074D02*
X67884192Y-130384528D01*
X67884194Y-130384529D01*
X68021298Y-130476139D01*
X68293658Y-130658124D01*
X68641876Y-131006342D01*
X68915472Y-131415808D01*
X69103926Y-131870775D01*
X69200000Y-132353772D01*
X69200000Y-132846228D01*
X69103926Y-133329225D01*
X68915472Y-133784192D01*
X68641876Y-134193658D01*
X68293658Y-134541876D01*
X68033854Y-134715471D01*
X67884194Y-134815471D01*
X67884193Y-134815472D01*
X67884192Y-134815472D01*
X67429225Y-135003926D01*
X66946228Y-135100000D01*
X66453772Y-135100000D01*
X65970775Y-135003926D01*
X65515808Y-134815472D01*
X65515807Y-134815472D01*
X65515806Y-134815471D01*
X65366146Y-134715471D01*
X65106342Y-134541876D01*
X64758124Y-134193658D01*
X64484528Y-133784192D01*
X64296074Y-133329225D01*
X64200000Y-132846228D01*
X64200000Y-132353772D01*
X64296074Y-131870775D01*
X64484528Y-131415808D01*
X64758124Y-131006342D01*
X65106342Y-130658124D01*
X65378702Y-130476139D01*
X65515806Y-130384529D01*
X65515808Y-130384528D01*
X65970775Y-130196074D01*
X66453772Y-130100000D01*
X66946228Y-130100000D01*
X67429225Y-130196074D01*
X67429225Y-130196074D01*
G37*
G36*
X128429225Y-130196074D02*
X128884192Y-130384528D01*
X128884194Y-130384529D01*
X129021298Y-130476139D01*
X129293658Y-130658124D01*
X129641876Y-131006342D01*
X129915472Y-131415808D01*
X130103926Y-131870775D01*
X130200000Y-132353772D01*
X130200000Y-132846228D01*
X130103926Y-133329225D01*
X129915472Y-133784192D01*
X129641876Y-134193658D01*
X129293658Y-134541876D01*
X129033854Y-134715471D01*
X128884194Y-134815471D01*
X128884193Y-134815472D01*
X128884192Y-134815472D01*
X128429225Y-135003926D01*
X127946228Y-135100000D01*
X127453772Y-135100000D01*
X126970775Y-135003926D01*
X126515808Y-134815472D01*
X126515807Y-134815472D01*
X126515806Y-134815471D01*
X126366146Y-134715471D01*
X126106342Y-134541876D01*
X125758124Y-134193658D01*
X125484528Y-133784192D01*
X125296074Y-133329225D01*
X125200000Y-132846228D01*
X125200000Y-132353772D01*
X125296074Y-131870775D01*
X125484528Y-131415808D01*
X125758124Y-131006342D01*
X126106342Y-130658124D01*
X126378702Y-130476139D01*
X126515806Y-130384529D01*
X126515808Y-130384528D01*
X126970775Y-130196074D01*
X127453772Y-130100000D01*
X127946228Y-130100000D01*
X128429225Y-130196074D01*
X128429225Y-130196074D01*
G37*
G36*
X98429225Y-130096074D02*
X98884192Y-130284528D01*
X98884194Y-130284529D01*
X99021298Y-130376139D01*
X99293658Y-130558124D01*
X99641876Y-130906342D01*
X99823861Y-131178702D01*
X99915170Y-131315355D01*
X99915472Y-131315808D01*
X100103926Y-131770775D01*
X100200000Y-132253772D01*
X100200000Y-132746228D01*
X100103926Y-133229225D01*
X99915472Y-133684192D01*
X99641876Y-134093658D01*
X99293658Y-134441876D01*
X99143997Y-134541876D01*
X98884194Y-134715471D01*
X98884193Y-134715472D01*
X98884192Y-134715472D01*
X98429225Y-134903926D01*
X97946228Y-135000000D01*
X97453772Y-135000000D01*
X96970775Y-134903926D01*
X96515808Y-134715472D01*
X96515807Y-134715472D01*
X96515806Y-134715471D01*
X96256003Y-134541876D01*
X96106342Y-134441876D01*
X95758124Y-134093658D01*
X95484528Y-133684192D01*
X95296074Y-133229225D01*
X95200000Y-132746228D01*
X95200000Y-132253772D01*
X95296074Y-131770775D01*
X95484528Y-131315808D01*
X95484831Y-131315355D01*
X95576139Y-131178702D01*
X95758124Y-130906342D01*
X96106342Y-130558124D01*
X96378702Y-130376139D01*
X96515806Y-130284529D01*
X96515808Y-130284528D01*
X96970775Y-130096074D01*
X97453772Y-130000000D01*
X97946228Y-130000000D01*
X98429225Y-130096074D01*
X98429225Y-130096074D01*
G37*
G36*
X176292751Y-129468214D02*
X176615776Y-129602015D01*
X176615779Y-129602017D01*
X176906497Y-129796269D01*
X177153733Y-130043505D01*
X177267111Y-130213187D01*
X177347987Y-130334226D01*
X177481788Y-130657251D01*
X177550001Y-131000179D01*
X177550001Y-131349823D01*
X177481788Y-131692751D01*
X177347987Y-132015776D01*
X177347985Y-132015779D01*
X177153733Y-132306497D01*
X176906497Y-132553733D01*
X176821349Y-132610627D01*
X176615776Y-132747987D01*
X176292751Y-132881788D01*
X175949823Y-132950001D01*
X175600179Y-132950001D01*
X175257251Y-132881788D01*
X174934226Y-132747987D01*
X174728653Y-132610627D01*
X174643505Y-132553733D01*
X174396269Y-132306497D01*
X174202017Y-132015779D01*
X174202015Y-132015776D01*
X174068214Y-131692751D01*
X174000001Y-131349823D01*
X174000001Y-131000179D01*
X174068214Y-130657251D01*
X174202015Y-130334226D01*
X174282891Y-130213187D01*
X174396269Y-130043505D01*
X174643505Y-129796269D01*
X174934223Y-129602017D01*
X174934226Y-129602015D01*
X175257251Y-129468214D01*
X175600179Y-129400001D01*
X175949823Y-129400001D01*
X176292751Y-129468214D01*
X176292751Y-129468214D01*
G37*
G36*
X136134350Y-129449013D02*
X136457375Y-129582814D01*
X136457378Y-129582816D01*
X136748096Y-129777068D01*
X136995332Y-130024304D01*
X137169209Y-130284529D01*
X137189586Y-130315025D01*
X137323387Y-130638050D01*
X137391600Y-130980978D01*
X137391600Y-131330622D01*
X137323387Y-131673550D01*
X137189586Y-131996575D01*
X137189584Y-131996578D01*
X136995332Y-132287296D01*
X136748096Y-132534532D01*
X136634212Y-132610627D01*
X136457375Y-132728786D01*
X136134350Y-132862587D01*
X135791422Y-132930800D01*
X135441778Y-132930800D01*
X135098850Y-132862587D01*
X134775825Y-132728786D01*
X134598988Y-132610627D01*
X134485104Y-132534532D01*
X134237868Y-132287296D01*
X134043616Y-131996578D01*
X134043614Y-131996575D01*
X133909813Y-131673550D01*
X133841600Y-131330622D01*
X133841600Y-130980978D01*
X133909813Y-130638050D01*
X134043614Y-130315025D01*
X134063991Y-130284529D01*
X134237868Y-130024304D01*
X134485104Y-129777068D01*
X134775822Y-129582816D01*
X134775825Y-129582814D01*
X135098850Y-129449013D01*
X135441778Y-129380800D01*
X135791422Y-129380800D01*
X136134350Y-129449013D01*
X136134350Y-129449013D01*
G37*
G36*
X78238884Y-129575753D02*
X78447539Y-129617257D01*
X78675568Y-129711710D01*
X78742359Y-129739376D01*
X78941133Y-129872193D01*
X79007692Y-129916666D01*
X79233336Y-130142310D01*
X79233337Y-130142312D01*
X79410626Y-130407643D01*
X79410627Y-130407646D01*
X79532745Y-130702463D01*
X79567294Y-130876152D01*
X79591182Y-130996244D01*
X79595001Y-131015446D01*
X79595001Y-131334556D01*
X79532745Y-131647539D01*
X79440277Y-131870775D01*
X79410626Y-131942359D01*
X79361570Y-132015776D01*
X79233336Y-132207692D01*
X79007692Y-132433336D01*
X78941133Y-132477809D01*
X78742359Y-132610626D01*
X78675568Y-132638292D01*
X78447539Y-132732745D01*
X78238884Y-132774249D01*
X78134557Y-132795001D01*
X77815445Y-132795001D01*
X77711118Y-132774249D01*
X77502463Y-132732745D01*
X77274434Y-132638292D01*
X77207643Y-132610626D01*
X77008869Y-132477809D01*
X76942310Y-132433336D01*
X76716666Y-132207692D01*
X76588432Y-132015776D01*
X76539376Y-131942359D01*
X76509725Y-131870775D01*
X76417257Y-131647539D01*
X76355001Y-131334556D01*
X76355001Y-131015446D01*
X76358821Y-130996244D01*
X76382708Y-130876152D01*
X76417257Y-130702463D01*
X76539375Y-130407646D01*
X76539376Y-130407643D01*
X76716665Y-130142312D01*
X76716666Y-130142310D01*
X76942310Y-129916666D01*
X77008869Y-129872193D01*
X77207643Y-129739376D01*
X77274434Y-129711710D01*
X77502463Y-129617257D01*
X77711118Y-129575753D01*
X77815445Y-129555001D01*
X78134557Y-129555001D01*
X78238884Y-129575753D01*
X78238884Y-129575753D01*
G37*
G36*
X118372685Y-129555001D02*
X118589138Y-129598056D01*
X118817167Y-129692509D01*
X118883958Y-129720175D01*
X119082732Y-129852992D01*
X119149291Y-129897465D01*
X119374935Y-130123109D01*
X119387766Y-130142312D01*
X119552225Y-130388442D01*
X119579891Y-130455233D01*
X119674344Y-130683262D01*
X119690195Y-130762950D01*
X119736600Y-130996244D01*
X119736600Y-131315356D01*
X119729744Y-131349823D01*
X119674344Y-131628338D01*
X119615344Y-131770775D01*
X119552225Y-131923158D01*
X119503169Y-131996575D01*
X119374935Y-132188491D01*
X119149291Y-132414135D01*
X119120553Y-132433337D01*
X118883958Y-132591425D01*
X118837600Y-132610627D01*
X118589138Y-132713544D01*
X118380483Y-132755048D01*
X118276156Y-132775800D01*
X117957044Y-132775800D01*
X117852717Y-132755048D01*
X117644062Y-132713544D01*
X117395600Y-132610627D01*
X117349242Y-132591425D01*
X117112647Y-132433337D01*
X117083909Y-132414135D01*
X116858265Y-132188491D01*
X116730031Y-131996575D01*
X116680975Y-131923158D01*
X116617856Y-131770775D01*
X116558856Y-131628338D01*
X116503456Y-131349823D01*
X116496600Y-131315356D01*
X116496600Y-130996244D01*
X116543005Y-130762950D01*
X116558856Y-130683262D01*
X116653309Y-130455233D01*
X116680975Y-130388442D01*
X116845434Y-130142312D01*
X116858265Y-130123109D01*
X117083909Y-129897465D01*
X117150468Y-129852992D01*
X117349242Y-129720175D01*
X117416033Y-129692509D01*
X117644062Y-129598056D01*
X117860515Y-129555001D01*
X117957044Y-129535800D01*
X118276156Y-129535800D01*
X118372685Y-129555001D01*
X118372685Y-129555001D01*
G37*
G36*
X205600000Y-132500000D02*
X200600000Y-132500000D01*
X200600000Y-127500000D01*
X205600000Y-127500000D01*
X205600000Y-132500000D01*
X205600000Y-132500000D01*
G37*
G36*
X184625001Y-127492885D02*
X184851900Y-127561714D01*
X185061012Y-127673487D01*
X185244296Y-127823904D01*
X185394713Y-128007188D01*
X185506486Y-128216300D01*
X185575315Y-128443199D01*
X185598800Y-128681651D01*
X185598800Y-129757149D01*
X185575315Y-129995601D01*
X185506486Y-130222500D01*
X185394713Y-130431612D01*
X185244296Y-130614896D01*
X185061012Y-130765313D01*
X184851900Y-130877086D01*
X184625001Y-130945915D01*
X184386549Y-130969400D01*
X183311051Y-130969400D01*
X183072599Y-130945915D01*
X182845700Y-130877086D01*
X182636588Y-130765313D01*
X182453304Y-130614896D01*
X182302887Y-130431612D01*
X182191114Y-130222500D01*
X182122285Y-129995601D01*
X182098800Y-129757149D01*
X182098800Y-128681651D01*
X182122285Y-128443199D01*
X182191114Y-128216300D01*
X182302887Y-128007188D01*
X182453304Y-127823904D01*
X182636588Y-127673487D01*
X182845700Y-127561714D01*
X183072599Y-127492885D01*
X183311051Y-127469400D01*
X184386549Y-127469400D01*
X184625001Y-127492885D01*
X184625001Y-127492885D01*
G37*
G36*
X53777536Y-122763644D02*
X53988674Y-122851101D01*
X54050517Y-122876717D01*
X54234567Y-122999696D01*
X54296196Y-123040875D01*
X54505125Y-123249804D01*
X54505126Y-123249806D01*
X54669283Y-123495483D01*
X54669284Y-123495486D01*
X54782356Y-123768464D01*
X54840000Y-124058263D01*
X54840000Y-124353737D01*
X54782356Y-124643536D01*
X54694899Y-124854674D01*
X54669283Y-124916517D01*
X54546304Y-125100567D01*
X54505125Y-125162196D01*
X54296196Y-125371125D01*
X54234567Y-125412304D01*
X54050517Y-125535283D01*
X53988674Y-125560899D01*
X53777536Y-125648356D01*
X53487737Y-125706000D01*
X53192263Y-125706000D01*
X52902464Y-125648356D01*
X52691326Y-125560899D01*
X52629483Y-125535283D01*
X52445433Y-125412304D01*
X52383804Y-125371125D01*
X52174875Y-125162196D01*
X52133696Y-125100567D01*
X52010717Y-124916517D01*
X51985101Y-124854674D01*
X51897644Y-124643536D01*
X51840000Y-124353737D01*
X51840000Y-124058263D01*
X51897644Y-123768464D01*
X52010716Y-123495486D01*
X52010717Y-123495483D01*
X52174874Y-123249806D01*
X52174875Y-123249804D01*
X52383804Y-123040875D01*
X52445433Y-122999696D01*
X52629483Y-122876717D01*
X52691326Y-122851101D01*
X52902464Y-122763644D01*
X53192263Y-122706000D01*
X53487737Y-122706000D01*
X53777536Y-122763644D01*
X53777536Y-122763644D01*
G37*
G36*
X168500000Y-112000000D02*
X164500000Y-112000000D01*
X164500000Y-108000000D01*
X168500000Y-108000000D01*
X168500000Y-112000000D01*
X168500000Y-112000000D01*
G37*
G36*
X122000000Y-112000000D02*
X118000000Y-112000000D01*
X118000000Y-108000000D01*
X122000000Y-108000000D01*
X122000000Y-112000000D01*
X122000000Y-112000000D01*
G37*
G36*
X122000000Y-106400000D02*
X118000000Y-106400000D01*
X118000000Y-104100000D01*
X122000000Y-104100000D01*
X122000000Y-106400000D01*
X122000000Y-106400000D01*
G37*
G36*
X60429225Y-101296074D02*
X60884192Y-101484528D01*
X60884194Y-101484529D01*
X61021298Y-101576139D01*
X61293658Y-101758124D01*
X61641876Y-102106342D01*
X61915472Y-102515808D01*
X62103926Y-102970775D01*
X62200000Y-103453772D01*
X62200000Y-103946228D01*
X62103926Y-104429225D01*
X61915472Y-104884192D01*
X61641876Y-105293658D01*
X61293658Y-105641876D01*
X61033854Y-105815471D01*
X60884194Y-105915471D01*
X60884193Y-105915472D01*
X60884192Y-105915472D01*
X60429225Y-106103926D01*
X59946228Y-106200000D01*
X59453772Y-106200000D01*
X58970775Y-106103926D01*
X58515808Y-105915472D01*
X58515807Y-105915472D01*
X58515806Y-105915471D01*
X58366146Y-105815471D01*
X58106342Y-105641876D01*
X57758124Y-105293658D01*
X57484528Y-104884192D01*
X57296074Y-104429225D01*
X57200000Y-103946228D01*
X57200000Y-103453772D01*
X57296074Y-102970775D01*
X57484528Y-102515808D01*
X57758124Y-102106342D01*
X58106342Y-101758124D01*
X58378702Y-101576139D01*
X58515806Y-101484529D01*
X58515808Y-101484528D01*
X58970775Y-101296074D01*
X59453772Y-101200000D01*
X59946228Y-101200000D01*
X60429225Y-101296074D01*
X60429225Y-101296074D01*
G37*
G36*
X196429225Y-101196074D02*
X196884192Y-101384528D01*
X196884194Y-101384529D01*
X197021298Y-101476139D01*
X197293658Y-101658124D01*
X197641876Y-102006342D01*
X197915472Y-102415808D01*
X198103926Y-102870775D01*
X198200000Y-103353772D01*
X198200000Y-103846228D01*
X198103926Y-104329225D01*
X197915472Y-104784192D01*
X197641876Y-105193658D01*
X197293658Y-105541876D01*
X197143997Y-105641876D01*
X196884194Y-105815471D01*
X196884193Y-105815472D01*
X196884192Y-105815472D01*
X196429225Y-106003926D01*
X195946228Y-106100000D01*
X195453772Y-106100000D01*
X194970775Y-106003926D01*
X194515808Y-105815472D01*
X194515807Y-105815472D01*
X194515806Y-105815471D01*
X194256003Y-105641876D01*
X194106342Y-105541876D01*
X193758124Y-105193658D01*
X193484528Y-104784192D01*
X193296074Y-104329225D01*
X193200000Y-103846228D01*
X193200000Y-103353772D01*
X193296074Y-102870775D01*
X193484528Y-102415808D01*
X193758124Y-102006342D01*
X194106342Y-101658124D01*
X194378702Y-101476139D01*
X194515806Y-101384529D01*
X194515808Y-101384528D01*
X194970775Y-101196074D01*
X195453772Y-101100000D01*
X195946228Y-101100000D01*
X196429225Y-101196074D01*
X196429225Y-101196074D01*
G37*
G36*
X168500000Y-105000000D02*
X164500000Y-105000000D01*
X164500000Y-101000000D01*
X168500000Y-101000000D01*
X168500000Y-105000000D01*
X168500000Y-105000000D01*
G37*
G36*
X122000000Y-102650000D02*
X118000000Y-102650000D01*
X118000000Y-100350000D01*
X122000000Y-100350000D01*
X122000000Y-102650000D01*
X122000000Y-102650000D01*
G37*
G36*
X122000000Y-98900000D02*
X118000000Y-98900000D01*
X118000000Y-96600000D01*
X122000000Y-96600000D01*
X122000000Y-98900000D01*
X122000000Y-98900000D01*
G37*
G36*
X122000000Y-95000000D02*
X118000000Y-95000000D01*
X118000000Y-91000000D01*
X122000000Y-91000000D01*
X122000000Y-95000000D01*
X122000000Y-95000000D01*
G37*
G36*
X205600000Y-87900000D02*
X200600000Y-87900000D01*
X200600000Y-82900000D01*
X205600000Y-82900000D01*
X205600000Y-87900000D01*
X205600000Y-87900000D01*
G37*
G36*
X187000000Y-87900000D02*
X182000000Y-87900000D01*
X182000000Y-82900000D01*
X187000000Y-82900000D01*
X187000000Y-87900000D01*
X187000000Y-87900000D01*
G37*
G36*
X53777536Y-80599644D02*
X53988674Y-80687101D01*
X54050517Y-80712717D01*
X54234567Y-80835696D01*
X54296196Y-80876875D01*
X54505125Y-81085804D01*
X54546304Y-81147433D01*
X54669283Y-81331483D01*
X54669284Y-81331486D01*
X54782356Y-81604464D01*
X54840000Y-81894263D01*
X54840000Y-82189737D01*
X54782356Y-82479536D01*
X54694899Y-82690674D01*
X54669283Y-82752517D01*
X54570737Y-82900000D01*
X54505125Y-82998196D01*
X54296196Y-83207125D01*
X54234567Y-83248304D01*
X54050517Y-83371283D01*
X53988674Y-83396899D01*
X53777536Y-83484356D01*
X53487737Y-83542000D01*
X53192263Y-83542000D01*
X52902464Y-83484356D01*
X52691326Y-83396899D01*
X52629483Y-83371283D01*
X52445433Y-83248304D01*
X52383804Y-83207125D01*
X52174875Y-82998196D01*
X52109263Y-82900000D01*
X52010717Y-82752517D01*
X51985101Y-82690674D01*
X51897644Y-82479536D01*
X51840000Y-82189737D01*
X51840000Y-81894263D01*
X51897644Y-81604464D01*
X52010716Y-81331486D01*
X52010717Y-81331483D01*
X52133696Y-81147433D01*
X52174875Y-81085804D01*
X52383804Y-80876875D01*
X52445433Y-80835696D01*
X52629483Y-80712717D01*
X52691326Y-80687101D01*
X52902464Y-80599644D01*
X53192263Y-80542000D01*
X53487737Y-80542000D01*
X53777536Y-80599644D01*
X53777536Y-80599644D01*
G37*
G36*
X189885981Y-78543620D02*
X190143580Y-78594859D01*
X190507553Y-78745622D01*
X190507555Y-78745623D01*
X190835126Y-78964499D01*
X191113701Y-79243074D01*
X191205143Y-79379926D01*
X191332578Y-79570647D01*
X191483341Y-79934620D01*
X191560200Y-80321018D01*
X191560200Y-80714982D01*
X191483341Y-81101380D01*
X191332578Y-81465353D01*
X191332577Y-81465355D01*
X191113701Y-81792926D01*
X190835126Y-82071501D01*
X190507555Y-82290377D01*
X190507554Y-82290378D01*
X190507553Y-82290378D01*
X190143580Y-82441141D01*
X189950564Y-82479534D01*
X189757183Y-82518000D01*
X189363217Y-82518000D01*
X189169836Y-82479534D01*
X188976820Y-82441141D01*
X188612847Y-82290378D01*
X188612846Y-82290378D01*
X188612845Y-82290377D01*
X188285274Y-82071501D01*
X188006699Y-81792926D01*
X187787823Y-81465355D01*
X187787822Y-81465353D01*
X187637059Y-81101380D01*
X187560200Y-80714982D01*
X187560200Y-80321018D01*
X187637059Y-79934620D01*
X187787822Y-79570647D01*
X187915258Y-79379926D01*
X188006699Y-79243074D01*
X188285274Y-78964499D01*
X188612845Y-78745623D01*
X188612847Y-78745622D01*
X188976820Y-78594859D01*
X189234419Y-78543620D01*
X189363217Y-78518000D01*
X189757183Y-78518000D01*
X189885981Y-78543620D01*
X189885981Y-78543620D01*
G37*
G36*
X202890781Y-76130620D02*
X203148380Y-76181859D01*
X203512353Y-76332622D01*
X203512355Y-76332623D01*
X203839926Y-76551499D01*
X204118501Y-76830074D01*
X204303202Y-77106498D01*
X204337378Y-77157647D01*
X204488141Y-77521620D01*
X204565000Y-77908018D01*
X204565000Y-78301982D01*
X204488141Y-78688380D01*
X204373768Y-78964499D01*
X204337377Y-79052355D01*
X204118501Y-79379926D01*
X203839926Y-79658501D01*
X203512355Y-79877377D01*
X203512354Y-79877378D01*
X203512353Y-79877378D01*
X203148380Y-80028141D01*
X202890781Y-80079380D01*
X202761983Y-80105000D01*
X202368017Y-80105000D01*
X202239219Y-80079380D01*
X201981620Y-80028141D01*
X201617647Y-79877378D01*
X201617646Y-79877378D01*
X201617645Y-79877377D01*
X201290074Y-79658501D01*
X201011499Y-79379926D01*
X200792623Y-79052355D01*
X200756232Y-78964499D01*
X200641859Y-78688380D01*
X200565000Y-78301982D01*
X200565000Y-77908018D01*
X200641859Y-77521620D01*
X200792622Y-77157647D01*
X200826799Y-77106498D01*
X201011499Y-76830074D01*
X201290074Y-76551499D01*
X201617645Y-76332623D01*
X201617647Y-76332622D01*
X201981620Y-76181859D01*
X202239219Y-76130620D01*
X202368017Y-76105000D01*
X202761983Y-76105000D01*
X202890781Y-76130620D01*
X202890781Y-76130620D01*
G37*
G36*
X198335000Y-79455000D02*
X196635000Y-79455000D01*
X196635000Y-76755000D01*
X198335000Y-76755000D01*
X198335000Y-79455000D01*
X198335000Y-79455000D01*
G37*
G36*
X195795000Y-79455000D02*
X194095000Y-79455000D01*
X194095000Y-76755000D01*
X195795000Y-76755000D01*
X195795000Y-79455000D01*
X195795000Y-79455000D01*
G37*
G36*
X60992751Y-74268214D02*
X61315776Y-74402015D01*
X61315779Y-74402017D01*
X61606497Y-74596269D01*
X61853733Y-74843505D01*
X61919754Y-74942312D01*
X62047987Y-75134226D01*
X62181788Y-75457251D01*
X62250001Y-75800179D01*
X62250001Y-76149823D01*
X62181788Y-76492751D01*
X62047987Y-76815776D01*
X62047985Y-76815779D01*
X61853733Y-77106497D01*
X61606497Y-77353733D01*
X61521349Y-77410627D01*
X61315776Y-77547987D01*
X60992751Y-77681788D01*
X60649823Y-77750001D01*
X60300179Y-77750001D01*
X59957251Y-77681788D01*
X59634226Y-77547987D01*
X59428653Y-77410627D01*
X59343505Y-77353733D01*
X59096269Y-77106497D01*
X58902017Y-76815779D01*
X58902015Y-76815776D01*
X58768214Y-76492751D01*
X58700001Y-76149823D01*
X58700001Y-75800179D01*
X58768214Y-75457251D01*
X58902015Y-75134226D01*
X59030248Y-74942312D01*
X59096269Y-74843505D01*
X59343505Y-74596269D01*
X59634223Y-74402017D01*
X59634226Y-74402015D01*
X59957251Y-74268214D01*
X60300179Y-74200001D01*
X60649823Y-74200001D01*
X60992751Y-74268214D01*
X60992751Y-74268214D01*
G37*
G36*
X141292751Y-74268214D02*
X141615776Y-74402015D01*
X141615779Y-74402017D01*
X141906497Y-74596269D01*
X142153733Y-74843505D01*
X142219754Y-74942312D01*
X142347987Y-75134226D01*
X142481788Y-75457251D01*
X142550001Y-75800179D01*
X142550001Y-76149823D01*
X142481788Y-76492751D01*
X142347987Y-76815776D01*
X142347985Y-76815779D01*
X142153733Y-77106497D01*
X141906497Y-77353733D01*
X141821349Y-77410627D01*
X141615776Y-77547987D01*
X141292751Y-77681788D01*
X140949823Y-77750001D01*
X140600179Y-77750001D01*
X140257251Y-77681788D01*
X139934226Y-77547987D01*
X139728653Y-77410627D01*
X139643505Y-77353733D01*
X139396269Y-77106497D01*
X139202017Y-76815779D01*
X139202015Y-76815776D01*
X139068214Y-76492751D01*
X139000001Y-76149823D01*
X139000001Y-75800179D01*
X139068214Y-75457251D01*
X139202015Y-75134226D01*
X139330248Y-74942312D01*
X139396269Y-74843505D01*
X139643505Y-74596269D01*
X139934223Y-74402017D01*
X139934226Y-74402015D01*
X140257251Y-74268214D01*
X140600179Y-74200001D01*
X140949823Y-74200001D01*
X141292751Y-74268214D01*
X141292751Y-74268214D01*
G37*
G36*
X78238884Y-74375753D02*
X78447539Y-74417257D01*
X78675568Y-74511710D01*
X78742359Y-74539376D01*
X78941133Y-74672193D01*
X79007692Y-74716666D01*
X79233336Y-74942310D01*
X79233337Y-74942312D01*
X79410626Y-75207643D01*
X79410627Y-75207646D01*
X79532745Y-75502463D01*
X79551332Y-75595906D01*
X79591182Y-75796244D01*
X79595001Y-75815446D01*
X79595001Y-76134556D01*
X79532745Y-76447539D01*
X79438292Y-76675568D01*
X79410626Y-76742359D01*
X79277809Y-76941133D01*
X79233336Y-77007692D01*
X79007692Y-77233336D01*
X78941133Y-77277809D01*
X78742359Y-77410626D01*
X78675568Y-77438292D01*
X78447539Y-77532745D01*
X78238884Y-77574249D01*
X78134557Y-77595001D01*
X77815445Y-77595001D01*
X77711118Y-77574249D01*
X77502463Y-77532745D01*
X77274434Y-77438292D01*
X77207643Y-77410626D01*
X77008869Y-77277809D01*
X76942310Y-77233336D01*
X76716666Y-77007692D01*
X76672193Y-76941133D01*
X76539376Y-76742359D01*
X76511710Y-76675568D01*
X76417257Y-76447539D01*
X76355001Y-76134556D01*
X76355001Y-75815446D01*
X76358821Y-75796244D01*
X76398670Y-75595906D01*
X76417257Y-75502463D01*
X76539375Y-75207646D01*
X76539376Y-75207643D01*
X76716665Y-74942312D01*
X76716666Y-74942310D01*
X76942310Y-74716666D01*
X77008869Y-74672193D01*
X77207643Y-74539376D01*
X77274434Y-74511710D01*
X77502463Y-74417257D01*
X77711118Y-74375753D01*
X77815445Y-74355001D01*
X78134557Y-74355001D01*
X78238884Y-74375753D01*
X78238884Y-74375753D01*
G37*
G36*
X118366507Y-74353772D02*
X118589138Y-74398056D01*
X118817167Y-74492509D01*
X118883958Y-74520175D01*
X119082732Y-74652992D01*
X119149291Y-74697465D01*
X119374935Y-74923109D01*
X119387766Y-74942312D01*
X119552225Y-75188442D01*
X119579891Y-75255233D01*
X119674344Y-75483262D01*
X119696750Y-75595905D01*
X119736600Y-75796244D01*
X119736600Y-76115356D01*
X119729744Y-76149823D01*
X119674344Y-76428338D01*
X119623328Y-76551500D01*
X119552225Y-76723158D01*
X119419408Y-76921932D01*
X119374935Y-76988491D01*
X119149291Y-77214135D01*
X119120553Y-77233337D01*
X118883958Y-77391425D01*
X118837600Y-77410627D01*
X118589138Y-77513544D01*
X118380483Y-77555048D01*
X118276156Y-77575800D01*
X117957044Y-77575800D01*
X117852717Y-77555048D01*
X117644062Y-77513544D01*
X117395600Y-77410627D01*
X117349242Y-77391425D01*
X117112647Y-77233337D01*
X117083909Y-77214135D01*
X116858265Y-76988491D01*
X116813792Y-76921932D01*
X116680975Y-76723158D01*
X116609872Y-76551500D01*
X116558856Y-76428338D01*
X116503456Y-76149823D01*
X116496600Y-76115356D01*
X116496600Y-75796244D01*
X116536450Y-75595905D01*
X116558856Y-75483262D01*
X116653309Y-75255233D01*
X116680975Y-75188442D01*
X116845434Y-74942312D01*
X116858265Y-74923109D01*
X117083909Y-74697465D01*
X117150468Y-74652992D01*
X117349242Y-74520175D01*
X117416033Y-74492509D01*
X117644062Y-74398056D01*
X117866693Y-74353772D01*
X117957044Y-74335800D01*
X118276156Y-74335800D01*
X118366507Y-74353772D01*
X118366507Y-74353772D01*
G37*
G36*
X98429225Y-72196074D02*
X98884192Y-72384528D01*
X98884194Y-72384529D01*
X99021298Y-72476139D01*
X99293658Y-72658124D01*
X99641876Y-73006342D01*
X99915472Y-73415808D01*
X100103926Y-73870775D01*
X100200000Y-74353772D01*
X100200000Y-74846228D01*
X100103926Y-75329225D01*
X99944507Y-75714095D01*
X99915471Y-75784194D01*
X99833264Y-75907225D01*
X99641876Y-76193658D01*
X99293658Y-76541876D01*
X99022354Y-76723155D01*
X98884194Y-76815471D01*
X98884193Y-76815472D01*
X98884192Y-76815472D01*
X98429225Y-77003926D01*
X97946228Y-77100000D01*
X97453772Y-77100000D01*
X96970775Y-77003926D01*
X96515808Y-76815472D01*
X96515807Y-76815472D01*
X96515806Y-76815471D01*
X96377646Y-76723155D01*
X96106342Y-76541876D01*
X95758124Y-76193658D01*
X95566736Y-75907225D01*
X95484529Y-75784194D01*
X95455493Y-75714095D01*
X95296074Y-75329225D01*
X95200000Y-74846228D01*
X95200000Y-74353772D01*
X95296074Y-73870775D01*
X95484528Y-73415808D01*
X95758124Y-73006342D01*
X96106342Y-72658124D01*
X96378702Y-72476139D01*
X96515806Y-72384529D01*
X96515808Y-72384528D01*
X96970775Y-72196074D01*
X97453772Y-72100000D01*
X97946228Y-72100000D01*
X98429225Y-72196074D01*
X98429225Y-72196074D01*
G37*
G36*
X67429225Y-72196074D02*
X67884192Y-72384528D01*
X67884194Y-72384529D01*
X68021298Y-72476139D01*
X68293658Y-72658124D01*
X68641876Y-73006342D01*
X68915472Y-73415808D01*
X69103926Y-73870775D01*
X69200000Y-74353772D01*
X69200000Y-74846228D01*
X69103926Y-75329225D01*
X68944507Y-75714095D01*
X68915471Y-75784194D01*
X68833264Y-75907225D01*
X68641876Y-76193658D01*
X68293658Y-76541876D01*
X68022354Y-76723155D01*
X67884194Y-76815471D01*
X67884193Y-76815472D01*
X67884192Y-76815472D01*
X67429225Y-77003926D01*
X66946228Y-77100000D01*
X66453772Y-77100000D01*
X65970775Y-77003926D01*
X65515808Y-76815472D01*
X65515807Y-76815472D01*
X65515806Y-76815471D01*
X65377646Y-76723155D01*
X65106342Y-76541876D01*
X64758124Y-76193658D01*
X64566736Y-75907225D01*
X64484529Y-75784194D01*
X64455493Y-75714095D01*
X64296074Y-75329225D01*
X64200000Y-74846228D01*
X64200000Y-74353772D01*
X64296074Y-73870775D01*
X64484528Y-73415808D01*
X64758124Y-73006342D01*
X65106342Y-72658124D01*
X65378702Y-72476139D01*
X65515806Y-72384529D01*
X65515808Y-72384528D01*
X65970775Y-72196074D01*
X66453772Y-72100000D01*
X66946228Y-72100000D01*
X67429225Y-72196074D01*
X67429225Y-72196074D01*
G37*
G36*
X189429225Y-72196074D02*
X189884192Y-72384528D01*
X189884194Y-72384529D01*
X190021298Y-72476139D01*
X190293658Y-72658124D01*
X190641876Y-73006342D01*
X190915472Y-73415808D01*
X191103926Y-73870775D01*
X191200000Y-74353772D01*
X191200000Y-74846228D01*
X191103926Y-75329225D01*
X190944507Y-75714095D01*
X190915471Y-75784194D01*
X190833264Y-75907225D01*
X190641876Y-76193658D01*
X190293658Y-76541876D01*
X190022354Y-76723155D01*
X189884194Y-76815471D01*
X189884193Y-76815472D01*
X189884192Y-76815472D01*
X189429225Y-77003926D01*
X188946228Y-77100000D01*
X188453772Y-77100000D01*
X187970775Y-77003926D01*
X187515808Y-76815472D01*
X187515807Y-76815472D01*
X187515806Y-76815471D01*
X187377646Y-76723155D01*
X187106342Y-76541876D01*
X186758124Y-76193658D01*
X186566736Y-75907225D01*
X186484529Y-75784194D01*
X186455493Y-75714095D01*
X186296074Y-75329225D01*
X186200000Y-74846228D01*
X186200000Y-74353772D01*
X186296074Y-73870775D01*
X186484528Y-73415808D01*
X186758124Y-73006342D01*
X187106342Y-72658124D01*
X187378702Y-72476139D01*
X187515806Y-72384529D01*
X187515808Y-72384528D01*
X187970775Y-72196074D01*
X188453772Y-72100000D01*
X188946228Y-72100000D01*
X189429225Y-72196074D01*
X189429225Y-72196074D01*
G37*
G36*
X158429225Y-72196074D02*
X158884192Y-72384528D01*
X158884194Y-72384529D01*
X159021298Y-72476139D01*
X159293658Y-72658124D01*
X159641876Y-73006342D01*
X159915472Y-73415808D01*
X160103926Y-73870775D01*
X160200000Y-74353772D01*
X160200000Y-74846228D01*
X160103926Y-75329225D01*
X159944507Y-75714095D01*
X159915471Y-75784194D01*
X159833264Y-75907225D01*
X159641876Y-76193658D01*
X159293658Y-76541876D01*
X159022354Y-76723155D01*
X158884194Y-76815471D01*
X158884193Y-76815472D01*
X158884192Y-76815472D01*
X158429225Y-77003926D01*
X157946228Y-77100000D01*
X157453772Y-77100000D01*
X156970775Y-77003926D01*
X156515808Y-76815472D01*
X156515807Y-76815472D01*
X156515806Y-76815471D01*
X156377646Y-76723155D01*
X156106342Y-76541876D01*
X155758124Y-76193658D01*
X155566736Y-75907225D01*
X155484529Y-75784194D01*
X155455493Y-75714095D01*
X155296074Y-75329225D01*
X155200000Y-74846228D01*
X155200000Y-74353772D01*
X155296074Y-73870775D01*
X155484528Y-73415808D01*
X155758124Y-73006342D01*
X156106342Y-72658124D01*
X156378702Y-72476139D01*
X156515806Y-72384529D01*
X156515808Y-72384528D01*
X156970775Y-72196074D01*
X157453772Y-72100000D01*
X157946228Y-72100000D01*
X158429225Y-72196074D01*
X158429225Y-72196074D01*
G37*
G36*
X128429225Y-72196074D02*
X128884192Y-72384528D01*
X128884194Y-72384529D01*
X129021298Y-72476139D01*
X129293658Y-72658124D01*
X129641876Y-73006342D01*
X129915472Y-73415808D01*
X130103926Y-73870775D01*
X130200000Y-74353772D01*
X130200000Y-74846228D01*
X130103926Y-75329225D01*
X129944507Y-75714095D01*
X129915471Y-75784194D01*
X129833264Y-75907225D01*
X129641876Y-76193658D01*
X129293658Y-76541876D01*
X129022354Y-76723155D01*
X128884194Y-76815471D01*
X128884193Y-76815472D01*
X128884192Y-76815472D01*
X128429225Y-77003926D01*
X127946228Y-77100000D01*
X127453772Y-77100000D01*
X126970775Y-77003926D01*
X126515808Y-76815472D01*
X126515807Y-76815472D01*
X126515806Y-76815471D01*
X126377646Y-76723155D01*
X126106342Y-76541876D01*
X125758124Y-76193658D01*
X125566736Y-75907225D01*
X125484529Y-75784194D01*
X125455493Y-75714095D01*
X125296074Y-75329225D01*
X125200000Y-74846228D01*
X125200000Y-74353772D01*
X125296074Y-73870775D01*
X125484528Y-73415808D01*
X125758124Y-73006342D01*
X126106342Y-72658124D01*
X126378702Y-72476139D01*
X126515806Y-72384529D01*
X126515808Y-72384528D01*
X126970775Y-72196074D01*
X127453772Y-72100000D01*
X127946228Y-72100000D01*
X128429225Y-72196074D01*
X128429225Y-72196074D01*
G37*
G36*
X195120015Y-75078058D02*
X195229204Y-75123285D01*
X195229207Y-75123287D01*
X195327478Y-75188950D01*
X195411050Y-75272522D01*
X195448938Y-75329225D01*
X195476715Y-75370796D01*
X195521942Y-75479985D01*
X195545000Y-75595906D01*
X195545000Y-75714094D01*
X195521942Y-75830015D01*
X195476715Y-75939204D01*
X195476713Y-75939207D01*
X195416667Y-76029072D01*
X195411049Y-76037479D01*
X195327479Y-76121049D01*
X195229204Y-76186715D01*
X195120015Y-76231942D01*
X195062054Y-76243471D01*
X195004095Y-76255000D01*
X194885905Y-76255000D01*
X194827946Y-76243471D01*
X194769985Y-76231942D01*
X194660796Y-76186715D01*
X194562521Y-76121049D01*
X194478951Y-76037479D01*
X194473334Y-76029072D01*
X194413287Y-75939207D01*
X194413285Y-75939204D01*
X194368058Y-75830015D01*
X194345000Y-75714094D01*
X194345000Y-75595906D01*
X194368058Y-75479985D01*
X194413285Y-75370796D01*
X194441062Y-75329225D01*
X194478950Y-75272522D01*
X194562522Y-75188950D01*
X194660793Y-75123287D01*
X194660796Y-75123285D01*
X194769985Y-75078058D01*
X194827946Y-75066529D01*
X194885905Y-75055000D01*
X195004095Y-75055000D01*
X195120015Y-75078058D01*
X195120015Y-75078058D01*
G37*
G36*
X197660015Y-75078058D02*
X197769204Y-75123285D01*
X197769207Y-75123287D01*
X197867478Y-75188950D01*
X197951050Y-75272522D01*
X197988938Y-75329225D01*
X198016715Y-75370796D01*
X198061942Y-75479985D01*
X198085000Y-75595906D01*
X198085000Y-75714094D01*
X198061942Y-75830015D01*
X198016715Y-75939204D01*
X198016713Y-75939207D01*
X197956667Y-76029072D01*
X197951049Y-76037479D01*
X197867479Y-76121049D01*
X197769204Y-76186715D01*
X197660015Y-76231942D01*
X197602054Y-76243471D01*
X197544095Y-76255000D01*
X197425905Y-76255000D01*
X197367946Y-76243471D01*
X197309985Y-76231942D01*
X197200796Y-76186715D01*
X197102521Y-76121049D01*
X197018951Y-76037479D01*
X197013334Y-76029072D01*
X196953287Y-75939207D01*
X196953285Y-75939204D01*
X196908058Y-75830015D01*
X196885000Y-75714094D01*
X196885000Y-75595906D01*
X196908058Y-75479985D01*
X196953285Y-75370796D01*
X196981062Y-75329225D01*
X197018950Y-75272522D01*
X197102522Y-75188950D01*
X197200793Y-75123287D01*
X197200796Y-75123285D01*
X197309985Y-75078058D01*
X197367946Y-75066529D01*
X197425905Y-75055000D01*
X197544095Y-75055000D01*
X197660015Y-75078058D01*
X197660015Y-75078058D01*
G37*
G36*
X100638827Y-75882528D02*
X100652694Y-75888272D01*
X100665175Y-75896611D01*
X100675789Y-75907225D01*
X100684128Y-75919706D01*
X100689872Y-75933573D01*
X100692800Y-75948295D01*
X100692800Y-75963305D01*
X100689872Y-75978027D01*
X100684128Y-75991894D01*
X100675789Y-76004375D01*
X100665175Y-76014989D01*
X100652694Y-76023328D01*
X100638827Y-76029072D01*
X100624105Y-76032000D01*
X100609095Y-76032000D01*
X100594373Y-76029072D01*
X100580506Y-76023328D01*
X100568025Y-76014989D01*
X100557411Y-76004375D01*
X100549072Y-75991894D01*
X100543328Y-75978027D01*
X100540400Y-75963305D01*
X100540400Y-75948295D01*
X100543328Y-75933573D01*
X100549072Y-75919706D01*
X100557411Y-75907225D01*
X100568025Y-75896611D01*
X100580506Y-75888272D01*
X100594373Y-75882528D01*
X100609095Y-75879600D01*
X100624105Y-75879600D01*
X100638827Y-75882528D01*
X100638827Y-75882528D01*
G37*
G36*
X169090001Y-68715001D02*
X166590001Y-68715001D01*
X166590001Y-66215001D01*
X169090001Y-66215001D01*
X169090001Y-68715001D01*
X169090001Y-68715001D01*
G37*
G36*
X149960001Y-68715001D02*
X147460001Y-68715001D01*
X147460001Y-66215001D01*
X149960001Y-66215001D01*
X149960001Y-68715001D01*
X149960001Y-68715001D01*
G37*
G36*
X88790001Y-68715001D02*
X86290001Y-68715001D01*
X86290001Y-66215001D01*
X88790001Y-66215001D01*
X88790001Y-68715001D01*
X88790001Y-68715001D01*
G37*
G36*
X69660001Y-68715001D02*
X67160001Y-68715001D01*
X67160001Y-66215001D01*
X69660001Y-66215001D01*
X69660001Y-68715001D01*
X69660001Y-68715001D01*
G37*
G36*
X109801600Y-68695800D02*
X107301600Y-68695800D01*
X107301600Y-66195800D01*
X109801600Y-66195800D01*
X109801600Y-68695800D01*
X109801600Y-68695800D01*
G37*
G36*
X128931600Y-68695800D02*
X126431600Y-68695800D01*
X126431600Y-66195800D01*
X128931600Y-66195800D01*
X128931600Y-68695800D01*
X128931600Y-68695800D01*
G37*
M02*
